G04*
G04 #@! TF.GenerationSoftware,Altium Limited,Altium Designer,18.1.7 (191)*
G04*
G04 Layer_Color=8388736*
%FSLAX44Y44*%
%MOMM*%
G71*
G01*
G75*
%ADD40R,0.8032X0.8032*%
%ADD41R,1.0032X1.0032*%
%ADD42R,0.8032X0.8032*%
%ADD43R,2.4032X2.0032*%
%ADD44R,2.0532X5.4032*%
%ADD45R,3.6032X2.0032*%
%ADD46R,1.1832X1.1332*%
%ADD47R,1.7032X1.4032*%
%ADD48R,1.9400X0.7400*%
%ADD49R,2.0032X1.8032*%
%ADD50R,1.2032X2.3032*%
%ADD51R,1.4032X1.6032*%
%ADD52R,1.9032X0.8532*%
%ADD53O,1.9032X0.8532*%
%ADD54R,2.8032X1.9032*%
%ADD55R,1.9032X1.1032*%
%ADD56R,2.7032X1.1032*%
G04:AMPARAMS|DCode=57|XSize=0.5032mm|YSize=1.0032mm|CornerRadius=0.1766mm|HoleSize=0mm|Usage=FLASHONLY|Rotation=180.000|XOffset=0mm|YOffset=0mm|HoleType=Round|Shape=RoundedRectangle|*
%AMROUNDEDRECTD57*
21,1,0.5032,0.6500,0,0,180.0*
21,1,0.1500,1.0032,0,0,180.0*
1,1,0.3532,-0.0750,0.3250*
1,1,0.3532,0.0750,0.3250*
1,1,0.3532,0.0750,-0.3250*
1,1,0.3532,-0.0750,-0.3250*
%
%ADD57ROUNDEDRECTD57*%
G04:AMPARAMS|DCode=58|XSize=0.5032mm|YSize=1.0032mm|CornerRadius=0.1766mm|HoleSize=0mm|Usage=FLASHONLY|Rotation=90.000|XOffset=0mm|YOffset=0mm|HoleType=Round|Shape=RoundedRectangle|*
%AMROUNDEDRECTD58*
21,1,0.5032,0.6500,0,0,90.0*
21,1,0.1500,1.0032,0,0,90.0*
1,1,0.3532,0.3250,0.0750*
1,1,0.3532,0.3250,-0.0750*
1,1,0.3532,-0.3250,-0.0750*
1,1,0.3532,-0.3250,0.0750*
%
%ADD58ROUNDEDRECTD58*%
%ADD59R,1.0032X1.0032*%
%ADD60O,0.7032X1.2032*%
%ADD61O,1.2032X0.7032*%
%ADD62R,1.7032X1.5032*%
%ADD63R,0.6532X1.2032*%
%ADD64R,1.1332X1.1832*%
%ADD65C,2.0032*%
%ADD66O,2.8032X2.6032*%
%ADD67C,2.8032*%
%ADD68C,1.7272*%
%ADD69O,2.6032X2.8032*%
%ADD70C,1.7932*%
%ADD71C,6.2032*%
%ADD72C,2.1032*%
%ADD73C,1.4032*%
%ADD74R,1.8032X1.8032*%
%ADD75C,0.2032*%
G36*
X795020Y328450D02*
X785770D01*
Y333450D01*
X795020D01*
Y328450D01*
D02*
G37*
G36*
Y341150D02*
X785770D01*
Y346150D01*
X795020D01*
Y341150D01*
D02*
G37*
G36*
Y353850D02*
X785770D01*
Y358850D01*
X795020D01*
Y353850D01*
D02*
G37*
G36*
Y366550D02*
X785770D01*
Y371550D01*
X795020D01*
Y366550D01*
D02*
G37*
G36*
X852275Y371550D02*
X852280D01*
Y366550D01*
X852275D01*
Y366050D01*
X844275D01*
Y359350D01*
X852275D01*
Y358850D01*
X852280D01*
Y353850D01*
X852275D01*
Y353350D01*
X844275D01*
Y346650D01*
X852275D01*
Y346150D01*
X852280D01*
Y341150D01*
X852275D01*
Y340650D01*
X844275D01*
Y333950D01*
X852275D01*
Y333450D01*
X852280D01*
Y328450D01*
X852275D01*
Y327950D01*
X816025D01*
Y372050D01*
X852275D01*
Y371550D01*
D02*
G37*
G36*
X795020Y451550D02*
X785770D01*
Y456550D01*
X795020D01*
Y451550D01*
D02*
G37*
G36*
Y438850D02*
X785770D01*
Y443850D01*
X795020D01*
Y438850D01*
D02*
G37*
G36*
Y426150D02*
X785770D01*
Y431150D01*
X795020D01*
Y426150D01*
D02*
G37*
G36*
Y413450D02*
X785770D01*
Y418450D01*
X795020D01*
Y413450D01*
D02*
G37*
G36*
X852275Y456550D02*
X852280D01*
Y451550D01*
X852275D01*
Y451050D01*
X844275D01*
Y444350D01*
X852275D01*
Y443850D01*
X852280D01*
Y438850D01*
X852275D01*
Y438350D01*
X844275D01*
Y431650D01*
X852275D01*
Y431150D01*
X852280D01*
Y426150D01*
X852275D01*
Y425650D01*
X844275D01*
Y418950D01*
X852275D01*
Y418450D01*
X852280D01*
Y413450D01*
X852275D01*
Y412950D01*
X816025D01*
Y457050D01*
X852275D01*
Y456550D01*
D02*
G37*
G36*
X795020Y586550D02*
X785770D01*
Y591550D01*
X795020D01*
Y586550D01*
D02*
G37*
G36*
Y573850D02*
X785770D01*
Y578850D01*
X795020D01*
Y573850D01*
D02*
G37*
G36*
Y561150D02*
X785770D01*
Y566150D01*
X795020D01*
Y561150D01*
D02*
G37*
G36*
Y548450D02*
X785770D01*
Y553450D01*
X795020D01*
Y548450D01*
D02*
G37*
G36*
X852275Y591550D02*
X852280D01*
Y586550D01*
X852275D01*
Y586050D01*
X844275D01*
Y579350D01*
X852275D01*
Y578850D01*
X852280D01*
Y573850D01*
X852275D01*
Y573350D01*
X844275D01*
Y566650D01*
X852275D01*
Y566150D01*
X852280D01*
Y561150D01*
X852275D01*
Y560650D01*
X844275D01*
Y553950D01*
X852275D01*
Y553450D01*
X852280D01*
Y548450D01*
X852275D01*
Y547950D01*
X816025D01*
Y592050D01*
X852275D01*
Y591550D01*
D02*
G37*
G36*
X795020Y671550D02*
X785770D01*
Y676550D01*
X795020D01*
Y671550D01*
D02*
G37*
G36*
Y658850D02*
X785770D01*
Y663850D01*
X795020D01*
Y658850D01*
D02*
G37*
G36*
Y646150D02*
X785770D01*
Y651150D01*
X795020D01*
Y646150D01*
D02*
G37*
G36*
Y633450D02*
X785770D01*
Y638450D01*
X795020D01*
Y633450D01*
D02*
G37*
G36*
X852275Y676550D02*
X852280D01*
Y671550D01*
X852275D01*
Y671050D01*
X844275D01*
Y664350D01*
X852275D01*
Y663850D01*
X852280D01*
Y658850D01*
X852275D01*
Y658350D01*
X844275D01*
Y651650D01*
X852275D01*
Y651150D01*
X852280D01*
Y646150D01*
X852275D01*
Y645650D01*
X844275D01*
Y638950D01*
X852275D01*
Y638450D01*
X852280D01*
Y633450D01*
X852275D01*
Y632950D01*
X816025D01*
Y677050D01*
X852275D01*
Y676550D01*
D02*
G37*
D40*
X830000Y819920D02*
D03*
Y830080D02*
D03*
X980000Y844920D02*
D03*
Y855080D02*
D03*
X735000Y510080D02*
D03*
Y499920D02*
D03*
X770000Y329920D02*
D03*
Y340080D02*
D03*
Y414920D02*
D03*
Y425080D02*
D03*
Y549920D02*
D03*
Y560080D02*
D03*
Y634920D02*
D03*
Y645080D02*
D03*
X735000Y750080D02*
D03*
Y739920D02*
D03*
X745000Y750080D02*
D03*
Y739920D02*
D03*
X1641000Y765080D02*
D03*
Y754920D02*
D03*
D41*
X815000Y832000D02*
D03*
Y818000D02*
D03*
X995000Y857000D02*
D03*
Y843000D02*
D03*
X723000Y512000D02*
D03*
Y498000D02*
D03*
X1285000Y843000D02*
D03*
Y857000D02*
D03*
D42*
X1285080Y830000D02*
D03*
X1274920D02*
D03*
X529920Y775000D02*
D03*
X540080D02*
D03*
X730080Y355000D02*
D03*
X719920D02*
D03*
X725080Y415000D02*
D03*
X714920D02*
D03*
X730080Y590000D02*
D03*
X719920D02*
D03*
X730080Y665000D02*
D03*
X719920D02*
D03*
X1274920Y760000D02*
D03*
X1285080D02*
D03*
Y740000D02*
D03*
X1274920D02*
D03*
X1661080Y765000D02*
D03*
X1650920D02*
D03*
X1661080Y755000D02*
D03*
X1650920D02*
D03*
X1469920Y740000D02*
D03*
X1480080D02*
D03*
X1470000Y750000D02*
D03*
X1480160D02*
D03*
X1455080Y770000D02*
D03*
X1444920D02*
D03*
X1455080Y780000D02*
D03*
X1444920D02*
D03*
X1639920D02*
D03*
X1650080D02*
D03*
Y740000D02*
D03*
X1639920D02*
D03*
X1274920Y780000D02*
D03*
X1285080D02*
D03*
Y770000D02*
D03*
X1274920D02*
D03*
X905080Y735000D02*
D03*
X894920D02*
D03*
X905080Y745000D02*
D03*
X894920D02*
D03*
Y785000D02*
D03*
X905080D02*
D03*
X905080Y760000D02*
D03*
X894920D02*
D03*
X894920Y775000D02*
D03*
X905080D02*
D03*
X1285080Y750000D02*
D03*
X1274920D02*
D03*
X529920Y805000D02*
D03*
X540080D02*
D03*
X593080Y890000D02*
D03*
X582920D02*
D03*
X559920D02*
D03*
X570080D02*
D03*
X529920Y785000D02*
D03*
X540080D02*
D03*
X586920Y745000D02*
D03*
X597080D02*
D03*
X709080Y857000D02*
D03*
X698920D02*
D03*
X661920Y745000D02*
D03*
X672080D02*
D03*
X540080Y890000D02*
D03*
X529920D02*
D03*
Y830000D02*
D03*
X540080D02*
D03*
X560080Y330000D02*
D03*
X549920D02*
D03*
X560080Y340000D02*
D03*
X549920D02*
D03*
X560080Y445000D02*
D03*
X549920D02*
D03*
X560080Y385000D02*
D03*
X549920D02*
D03*
X560080Y410000D02*
D03*
X549920D02*
D03*
Y420000D02*
D03*
X560080D02*
D03*
X549920Y355000D02*
D03*
X560080D02*
D03*
Y365000D02*
D03*
X549920D02*
D03*
X560080Y590000D02*
D03*
X549920D02*
D03*
X560080Y580000D02*
D03*
X549920D02*
D03*
Y605000D02*
D03*
X560080D02*
D03*
X549920Y615000D02*
D03*
X560080D02*
D03*
Y670000D02*
D03*
X549920D02*
D03*
Y660000D02*
D03*
X560080D02*
D03*
Y635000D02*
D03*
X549920D02*
D03*
Y395000D02*
D03*
X560080D02*
D03*
X549920Y645000D02*
D03*
X560080D02*
D03*
D43*
X796000Y240000D02*
D03*
X834000D02*
D03*
X796000Y275000D02*
D03*
X834000D02*
D03*
X1966000Y690000D02*
D03*
X2004000D02*
D03*
X1961000Y320000D02*
D03*
X1999000D02*
D03*
X739000Y445000D02*
D03*
X701000D02*
D03*
X739000Y695000D02*
D03*
X701000D02*
D03*
D44*
X794750Y502500D02*
D03*
X845250D02*
D03*
D45*
X1705000Y786000D02*
D03*
Y734000D02*
D03*
D46*
X735000Y802300D02*
D03*
Y817700D02*
D03*
X700000Y602700D02*
D03*
Y587300D02*
D03*
Y352700D02*
D03*
Y337300D02*
D03*
Y412700D02*
D03*
Y397300D02*
D03*
Y662700D02*
D03*
Y647300D02*
D03*
X675000Y452700D02*
D03*
Y437300D02*
D03*
Y687300D02*
D03*
Y702700D02*
D03*
X735000Y847700D02*
D03*
Y832300D02*
D03*
X920000Y737300D02*
D03*
Y752700D02*
D03*
Y782700D02*
D03*
Y767300D02*
D03*
D47*
X1015000Y863954D02*
D03*
Y836046D02*
D03*
X1040000Y863954D02*
D03*
Y836046D02*
D03*
X535000Y518954D02*
D03*
Y491046D02*
D03*
X1210000Y836046D02*
D03*
Y863954D02*
D03*
X705000Y518954D02*
D03*
Y491046D02*
D03*
D48*
X765500Y779050D02*
D03*
Y766350D02*
D03*
Y740950D02*
D03*
Y753650D02*
D03*
X874500Y779050D02*
D03*
Y766350D02*
D03*
Y740950D02*
D03*
Y753650D02*
D03*
X1505500Y779050D02*
D03*
Y766350D02*
D03*
Y740950D02*
D03*
Y753650D02*
D03*
X1614500Y779050D02*
D03*
Y766350D02*
D03*
Y740950D02*
D03*
Y753650D02*
D03*
X1419500Y740950D02*
D03*
Y753650D02*
D03*
Y779050D02*
D03*
Y766350D02*
D03*
X1310500Y740950D02*
D03*
Y753650D02*
D03*
Y779050D02*
D03*
Y766350D02*
D03*
D49*
X1485000Y401000D02*
D03*
Y429000D02*
D03*
Y521000D02*
D03*
Y549000D02*
D03*
X1510000Y431000D02*
D03*
Y459000D02*
D03*
Y551000D02*
D03*
Y579000D02*
D03*
X1485000Y461000D02*
D03*
Y489000D02*
D03*
Y581000D02*
D03*
Y609000D02*
D03*
X1510000Y491000D02*
D03*
Y519000D02*
D03*
D50*
X1086900Y799500D02*
D03*
X1112300D02*
D03*
X1163100D02*
D03*
Y900500D02*
D03*
X1086900D02*
D03*
X581900Y454500D02*
D03*
X607300D02*
D03*
X658100D02*
D03*
Y555500D02*
D03*
X581900D02*
D03*
D51*
X548000Y871000D02*
D03*
X531000D02*
D03*
Y849000D02*
D03*
X548000D02*
D03*
D52*
X583100Y419550D02*
D03*
Y669550D02*
D03*
D53*
Y406850D02*
D03*
Y394150D02*
D03*
Y381450D02*
D03*
Y343350D02*
D03*
Y356050D02*
D03*
Y368750D02*
D03*
Y330650D02*
D03*
X676900D02*
D03*
Y368750D02*
D03*
Y356050D02*
D03*
Y343350D02*
D03*
Y381450D02*
D03*
Y394150D02*
D03*
Y406850D02*
D03*
Y419550D02*
D03*
X583100Y656850D02*
D03*
Y644150D02*
D03*
Y631450D02*
D03*
Y593350D02*
D03*
Y606050D02*
D03*
Y618750D02*
D03*
Y580650D02*
D03*
X676900D02*
D03*
Y618750D02*
D03*
Y606050D02*
D03*
Y593350D02*
D03*
Y631450D02*
D03*
Y644150D02*
D03*
Y656850D02*
D03*
Y669550D02*
D03*
D54*
X760000Y825000D02*
D03*
X1258000Y850000D02*
D03*
X948000Y760000D02*
D03*
D55*
X786000Y840000D02*
D03*
Y809000D02*
D03*
X1232000Y835000D02*
D03*
Y866000D02*
D03*
X974000Y775000D02*
D03*
Y744000D02*
D03*
D56*
X782000Y825000D02*
D03*
X1236000Y850000D02*
D03*
X970000Y760000D02*
D03*
D57*
X665000Y874500D02*
D03*
X660000D02*
D03*
X655000D02*
D03*
X650000D02*
D03*
X645000D02*
D03*
X640000D02*
D03*
X635000D02*
D03*
X630000D02*
D03*
X625000D02*
D03*
X620000D02*
D03*
X615000D02*
D03*
X610000D02*
D03*
X605000D02*
D03*
X600000D02*
D03*
X595000D02*
D03*
X590000D02*
D03*
X665000Y760500D02*
D03*
X660000D02*
D03*
X655000D02*
D03*
X650000D02*
D03*
X645000D02*
D03*
X640000D02*
D03*
X635000D02*
D03*
X630000D02*
D03*
X625000D02*
D03*
X620000D02*
D03*
X615000D02*
D03*
X610000D02*
D03*
X605000D02*
D03*
X600000D02*
D03*
X595000D02*
D03*
X590000D02*
D03*
D58*
X684500Y780000D02*
D03*
Y785000D02*
D03*
Y790000D02*
D03*
Y795000D02*
D03*
Y800000D02*
D03*
Y805000D02*
D03*
Y810000D02*
D03*
Y815000D02*
D03*
Y820000D02*
D03*
Y825000D02*
D03*
Y830000D02*
D03*
Y835000D02*
D03*
Y840000D02*
D03*
Y845000D02*
D03*
Y850000D02*
D03*
Y855000D02*
D03*
X570080Y780000D02*
D03*
Y785000D02*
D03*
Y790000D02*
D03*
Y795000D02*
D03*
Y800000D02*
D03*
Y805000D02*
D03*
Y810000D02*
D03*
Y815000D02*
D03*
Y820000D02*
D03*
Y825000D02*
D03*
Y830000D02*
D03*
Y835000D02*
D03*
Y840000D02*
D03*
Y845000D02*
D03*
Y850000D02*
D03*
Y855000D02*
D03*
D59*
X542000Y760000D02*
D03*
X528000D02*
D03*
D60*
X575000Y730000D02*
D03*
X655000Y730000D02*
D03*
X665000Y890000D02*
D03*
X600000Y905000D02*
D03*
X605000Y730000D02*
D03*
X610000Y745000D02*
D03*
X615000Y730000D02*
D03*
X620000Y745000D02*
D03*
X625000Y730000D02*
D03*
X630000Y745000D02*
D03*
X635000Y730000D02*
D03*
X640000Y745000D02*
D03*
X645000Y730000D02*
D03*
X650000Y745000D02*
D03*
X610000Y905000D02*
D03*
X620000D02*
D03*
X630000D02*
D03*
X635000Y890000D02*
D03*
X625000D02*
D03*
X615000D02*
D03*
X605000D02*
D03*
X640000Y905000D02*
D03*
X645000Y890000D02*
D03*
X650000Y905000D02*
D03*
X655000Y890000D02*
D03*
X660000Y905000D02*
D03*
D61*
X715000Y845000D02*
D03*
X700000Y780000D02*
D03*
X715000Y785000D02*
D03*
X700000Y790000D02*
D03*
X715000Y795000D02*
D03*
X700000Y800000D02*
D03*
X715000Y805000D02*
D03*
X700000Y810000D02*
D03*
X715000Y815000D02*
D03*
X700000Y820000D02*
D03*
X715000Y825000D02*
D03*
X700000Y830000D02*
D03*
X715000Y835000D02*
D03*
X700000Y840000D02*
D03*
D62*
X1185000Y744500D02*
D03*
Y725500D02*
D03*
X1210000Y725500D02*
D03*
Y744500D02*
D03*
X1235000Y744000D02*
D03*
Y725000D02*
D03*
X1080000Y744500D02*
D03*
Y725500D02*
D03*
X1055000Y725500D02*
D03*
Y744500D02*
D03*
X1030000Y744500D02*
D03*
Y725500D02*
D03*
D63*
X750000Y421000D02*
D03*
Y399000D02*
D03*
Y576000D02*
D03*
Y554000D02*
D03*
Y661000D02*
D03*
Y639000D02*
D03*
Y356000D02*
D03*
Y334000D02*
D03*
D64*
X717300Y340000D02*
D03*
X732700D02*
D03*
X717300Y400000D02*
D03*
X732700D02*
D03*
X717300Y575000D02*
D03*
X732700D02*
D03*
X717300Y650000D02*
D03*
X732700D02*
D03*
X1227700Y885000D02*
D03*
X1212300D02*
D03*
X1212300Y815000D02*
D03*
X1227700D02*
D03*
D65*
X1580000Y627500D02*
D03*
Y352500D02*
D03*
X550000Y190000D02*
D03*
X825000D02*
D03*
D66*
X1788000Y897000D02*
D03*
X2082000Y845000D02*
D03*
D67*
X1788000Y743000D02*
D03*
X2082000Y795000D02*
D03*
X2067500Y377500D02*
D03*
Y592500D02*
D03*
D68*
X1985000Y600000D02*
D03*
X1485000Y655000D02*
D03*
D69*
X1892500Y377500D02*
D03*
Y592500D02*
D03*
D70*
X1683960Y490000D02*
D03*
X1816040D02*
D03*
X1055000Y332920D02*
D03*
Y465000D02*
D03*
Y670000D02*
D03*
Y537920D02*
D03*
D71*
X1265000Y105000D02*
D03*
X1455000D02*
D03*
X1895000Y160000D02*
D03*
X1075000Y105000D02*
D03*
X1645000D02*
D03*
X1980000Y160000D02*
D03*
X2065000D02*
D03*
D72*
X1355000Y480000D02*
D03*
Y400000D02*
D03*
X1740000Y227500D02*
D03*
Y152500D02*
D03*
X1550000Y227500D02*
D03*
Y152500D02*
D03*
X1170000Y227500D02*
D03*
Y152500D02*
D03*
X980000Y227500D02*
D03*
Y152500D02*
D03*
X1390000Y705000D02*
D03*
Y625000D02*
D03*
X1360000Y227500D02*
D03*
Y152500D02*
D03*
X1390000Y380000D02*
D03*
Y300000D02*
D03*
X1355000Y605000D02*
D03*
Y525000D02*
D03*
D73*
X1999645Y234645D02*
D03*
X2070355Y305355D02*
D03*
X1935000Y660000D02*
D03*
X2035000D02*
D03*
X1965355Y234645D02*
D03*
X1894645Y305355D02*
D03*
D74*
X870800Y872300D02*
D03*
X845400D02*
D03*
X820000D02*
D03*
X794600D02*
D03*
X769200D02*
D03*
Y897700D02*
D03*
X794600D02*
D03*
X820000D02*
D03*
X845400D02*
D03*
X870800D02*
D03*
D75*
X1389000Y278000D02*
D03*
X1430000Y625000D02*
D03*
X1354000Y503000D02*
D03*
M02*
