G04*
G04 #@! TF.GenerationSoftware,Altium Limited,Altium Designer,18.1.7 (191)*
G04*
G04 Layer_Color=255*
%FSLAX44Y44*%
%MOMM*%
G71*
G01*
G75*
%ADD36O,1.0000X0.5000*%
%ADD104C,1.8000*%
%ADD105O,2.6000X2.4000*%
%ADD106C,2.6000*%
%ADD107C,1.5240*%
%ADD108O,2.4000X2.6000*%
%ADD109C,1.5900*%
%ADD110C,6.0000*%
%ADD111C,1.9000*%
%ADD112C,1.2000*%
%ADD113R,1.6000X1.6000*%
D36*
X580000Y780000D02*
D03*
X595000Y785000D02*
D03*
X580000Y790000D02*
D03*
X595000Y795000D02*
D03*
X580000Y800000D02*
D03*
X595000Y805000D02*
D03*
X580000Y810000D02*
D03*
X595000Y815000D02*
D03*
X580000Y820000D02*
D03*
Y830000D02*
D03*
X595000Y825000D02*
D03*
Y835000D02*
D03*
X580000Y840000D02*
D03*
X595000Y845000D02*
D03*
X580000Y850000D02*
D03*
D104*
X1580000Y627500D02*
D03*
Y352500D02*
D03*
X550000Y190000D02*
D03*
X825000D02*
D03*
D105*
X1788000Y897000D02*
D03*
X2082000Y845000D02*
D03*
D106*
X1788000Y743000D02*
D03*
X2082000Y795000D02*
D03*
X2067500Y377500D02*
D03*
Y592500D02*
D03*
D107*
X1985000Y600000D02*
D03*
X1485000Y655000D02*
D03*
D108*
X1892500Y377500D02*
D03*
Y592500D02*
D03*
D109*
X1683960Y490000D02*
D03*
X1816040D02*
D03*
X1055000Y332920D02*
D03*
Y465000D02*
D03*
Y670000D02*
D03*
Y537920D02*
D03*
D110*
X1265000Y105000D02*
D03*
X1455000D02*
D03*
X1895000Y160000D02*
D03*
X1075000Y105000D02*
D03*
X1645000D02*
D03*
X1980000Y160000D02*
D03*
X2065000D02*
D03*
D111*
X1355000Y480000D02*
D03*
Y400000D02*
D03*
X1740000Y227500D02*
D03*
Y152500D02*
D03*
X1550000Y227500D02*
D03*
Y152500D02*
D03*
X1170000Y227500D02*
D03*
Y152500D02*
D03*
X980000Y227500D02*
D03*
Y152500D02*
D03*
X1390000Y705000D02*
D03*
Y625000D02*
D03*
X1360000Y227500D02*
D03*
Y152500D02*
D03*
X1390000Y380000D02*
D03*
Y300000D02*
D03*
X1355000Y605000D02*
D03*
Y525000D02*
D03*
D112*
X1999645Y234645D02*
D03*
X2070355Y305355D02*
D03*
X1935000Y660000D02*
D03*
X2035000D02*
D03*
X1965355Y234645D02*
D03*
X1894645Y305355D02*
D03*
D113*
X870800Y872300D02*
D03*
X845400D02*
D03*
X820000D02*
D03*
X794600D02*
D03*
X769200D02*
D03*
Y897700D02*
D03*
X794600D02*
D03*
X820000D02*
D03*
X845400D02*
D03*
X870800D02*
D03*
M02*
