G04*
G04 #@! TF.GenerationSoftware,Altium Limited,Altium Designer,18.1.7 (191)*
G04*
G04 Layer_Physical_Order=2*
G04 Layer_Color=36540*
%FSLAX44Y44*%
%MOMM*%
G71*
G01*
G75*
%ADD76C,0.2540*%
%ADD105O,2.6000X2.4000*%
%ADD110C,6.0000*%
%ADD111C,1.9000*%
%ADD114C,0.5080*%
G36*
X1510000Y920000D02*
X1800000D01*
Y875000D01*
X880300Y875000D01*
Y881800D01*
X861300D01*
Y875000D01*
X854900D01*
Y881800D01*
X835900D01*
Y875000D01*
X829500D01*
Y881800D01*
X810500D01*
Y862800D01*
X825000D01*
X825000Y755000D01*
X683609Y755000D01*
X683335Y756381D01*
X682552Y757552D01*
X681381Y758335D01*
X680000Y758609D01*
X678609Y760000D01*
X678335Y761381D01*
X677552Y762552D01*
X676381Y763335D01*
X675000Y763609D01*
X673619Y763335D01*
X672448Y762552D01*
X671665Y761381D01*
X671391Y760000D01*
X671665Y758619D01*
X672386Y757540D01*
X672278Y756992D01*
X671539Y755000D01*
X610000Y755000D01*
Y300000D01*
X603461D01*
X602721Y301992D01*
X602614Y302540D01*
X603335Y303619D01*
X603609Y305000D01*
X603335Y306381D01*
X602552Y307552D01*
X601381Y308335D01*
X600000Y308609D01*
X598619Y308335D01*
X597448Y307552D01*
X596665Y306381D01*
X596391Y305000D01*
X596665Y303619D01*
X597386Y302540D01*
X597279Y301992D01*
X596539Y300000D01*
X573461Y300000D01*
X572721Y301992D01*
X572614Y302540D01*
X573335Y303619D01*
X573609Y305000D01*
X573335Y306381D01*
X572552Y307552D01*
X571381Y308335D01*
X570000Y308609D01*
X568619Y308335D01*
X567448Y307552D01*
X566665Y306381D01*
X566391Y305000D01*
X566665Y303619D01*
X567386Y302540D01*
X567279Y301992D01*
X566539Y300000D01*
X538461D01*
X537721Y301992D01*
X537614Y302540D01*
X538335Y303619D01*
X538609Y305000D01*
X538335Y306381D01*
X537552Y307552D01*
X536381Y308335D01*
X535000Y308609D01*
X533619Y308335D01*
X532448Y307552D01*
X531665Y306381D01*
X531391Y305000D01*
X531665Y303619D01*
X532386Y302540D01*
X532279Y301992D01*
X531539Y300000D01*
X513461Y300000D01*
X512721Y301992D01*
X512614Y302540D01*
X513335Y303619D01*
X513609Y305000D01*
X513335Y306381D01*
X512552Y307552D01*
X511381Y308335D01*
X510000Y308609D01*
X508619Y308335D01*
X507448Y307552D01*
X506665Y306381D01*
X506391Y305000D01*
X506665Y303619D01*
X507386Y302540D01*
X507279Y301992D01*
X506539Y300000D01*
X500000D01*
Y920000D01*
X825000Y920000D01*
X1075000Y920000D01*
X1510000Y920000D01*
D02*
G37*
G36*
X1285000Y505000D02*
Y255000D01*
X1725217D01*
X1725575Y253730D01*
X1723627Y252536D01*
X1720303Y249697D01*
X1717464Y246373D01*
X1715180Y242646D01*
X1713508Y238608D01*
X1712487Y234358D01*
X1712144Y230000D01*
X1712487Y225642D01*
X1713508Y221392D01*
X1715180Y217354D01*
X1717464Y213627D01*
X1720303Y210303D01*
X1723627Y207464D01*
X1727354Y205180D01*
X1731392Y203507D01*
X1735642Y202487D01*
X1740000Y202144D01*
X1744358Y202487D01*
X1748608Y203507D01*
X1752646Y205180D01*
X1756373Y207464D01*
X1759697Y210303D01*
X1762536Y213627D01*
X1764820Y217354D01*
X1766492Y221392D01*
X1767513Y225642D01*
X1767856Y230000D01*
X1767513Y234358D01*
X1766492Y238608D01*
X1764820Y242646D01*
X1762536Y246373D01*
X1759697Y249697D01*
X1756373Y252536D01*
X1754425Y253730D01*
X1754783Y255000D01*
X1775000D01*
Y110000D01*
X1697784D01*
X1697762Y110111D01*
X1697745Y110110D01*
X1697431Y114903D01*
X1696081Y121687D01*
X1693858Y128237D01*
X1690798Y134442D01*
X1686955Y140193D01*
X1682394Y145394D01*
X1677193Y149955D01*
X1671442Y153798D01*
X1665237Y156858D01*
X1658687Y159081D01*
X1651903Y160431D01*
X1645000Y160883D01*
X1638097Y160431D01*
X1631313Y159081D01*
X1624763Y156858D01*
X1618558Y153798D01*
X1612807Y149955D01*
X1607606Y145394D01*
X1603045Y140193D01*
X1599202Y134442D01*
X1596142Y128237D01*
X1593919Y121687D01*
X1592569Y114903D01*
X1592255Y110110D01*
X1592238Y110111D01*
X1592216Y110000D01*
X1127784D01*
X1127762Y110111D01*
X1127745Y110110D01*
X1127431Y114903D01*
X1126081Y121687D01*
X1123858Y128237D01*
X1120798Y134442D01*
X1116955Y140193D01*
X1112394Y145394D01*
X1107193Y149955D01*
X1101442Y153798D01*
X1095238Y156858D01*
X1088687Y159081D01*
X1081903Y160431D01*
X1075000Y160883D01*
X1068097Y160431D01*
X1061313Y159081D01*
X1054762Y156858D01*
X1048558Y153798D01*
X1042807Y149955D01*
X1037606Y145394D01*
X1033045Y140193D01*
X1029202Y134442D01*
X1026142Y128237D01*
X1023919Y121687D01*
X1022569Y114903D01*
X1022255Y110110D01*
X1022238Y110111D01*
X1022216Y110000D01*
X865000D01*
X865000Y675000D01*
X1026736D01*
X1027381Y674182D01*
X1027477Y673730D01*
X1027144Y669500D01*
X1027487Y665142D01*
X1028508Y660892D01*
X1030180Y656854D01*
X1032464Y653127D01*
X1035303Y649803D01*
X1038627Y646964D01*
X1042354Y644680D01*
X1046392Y643008D01*
X1050642Y641987D01*
X1055000Y641644D01*
X1059358Y641987D01*
X1063608Y643008D01*
X1067646Y644680D01*
X1071373Y646964D01*
X1074697Y649803D01*
X1077536Y653127D01*
X1079820Y656854D01*
X1081492Y660892D01*
X1082513Y665142D01*
X1082856Y669500D01*
X1082523Y673730D01*
X1082619Y674182D01*
X1083264Y675000D01*
X1115000D01*
X1285000Y505000D01*
D02*
G37*
G36*
X745000Y655000D02*
X705000Y615000D01*
Y350000D01*
X645000Y350000D01*
X645000Y620000D01*
X735000Y710000D01*
X745000Y710000D01*
X745000Y655000D01*
D02*
G37*
%LPC*%
G36*
X715000Y908609D02*
X713619Y908335D01*
X712448Y907552D01*
X711665Y906381D01*
X711391Y905000D01*
X711665Y903619D01*
X712448Y902448D01*
X713619Y901665D01*
X715000Y901391D01*
X716381Y901665D01*
X717552Y902448D01*
X718335Y903619D01*
X718609Y905000D01*
X718335Y906381D01*
X717552Y907552D01*
X716381Y908335D01*
X715000Y908609D01*
D02*
G37*
G36*
X675000D02*
X673619Y908335D01*
X672448Y907552D01*
X671665Y906381D01*
X671391Y905000D01*
X671665Y903619D01*
X672448Y902448D01*
X673619Y901665D01*
X675000Y901391D01*
X676381Y901665D01*
X677552Y902448D01*
X678335Y903619D01*
X678609Y905000D01*
X678335Y906381D01*
X677552Y907552D01*
X676381Y908335D01*
X675000Y908609D01*
D02*
G37*
G36*
X590000D02*
X588619Y908335D01*
X587448Y907552D01*
X586665Y906381D01*
X586391Y905000D01*
X586665Y903619D01*
X587448Y902448D01*
X588619Y901665D01*
X590000Y901391D01*
X591381Y901665D01*
X592552Y902448D01*
X593335Y903619D01*
X593609Y905000D01*
X593335Y906381D01*
X592552Y907552D01*
X591381Y908335D01*
X590000Y908609D01*
D02*
G37*
G36*
X550000D02*
X548619Y908335D01*
X547448Y907552D01*
X546665Y906381D01*
X546391Y905000D01*
X546665Y903619D01*
X547448Y902448D01*
X548619Y901665D01*
X550000Y901391D01*
X551381Y901665D01*
X552552Y902448D01*
X553335Y903619D01*
X553609Y905000D01*
X553335Y906381D01*
X552552Y907552D01*
X551381Y908335D01*
X550000Y908609D01*
D02*
G37*
G36*
X510000D02*
X508619Y908335D01*
X507448Y907552D01*
X506665Y906381D01*
X506391Y905000D01*
X506665Y903619D01*
X507448Y902448D01*
X508619Y901665D01*
X510000Y901391D01*
X511381Y901665D01*
X512552Y902448D01*
X513335Y903619D01*
X513609Y905000D01*
X513335Y906381D01*
X512552Y907552D01*
X511381Y908335D01*
X510000Y908609D01*
D02*
G37*
G36*
X880300Y907200D02*
X861300D01*
Y888200D01*
X880300D01*
Y907200D01*
D02*
G37*
G36*
X854900D02*
X835900D01*
Y888200D01*
X854900D01*
Y907200D01*
D02*
G37*
G36*
X829500D02*
X810500D01*
Y888200D01*
X829500D01*
Y907200D01*
D02*
G37*
G36*
X804100D02*
X785100D01*
Y888200D01*
X804100D01*
Y907200D01*
D02*
G37*
G36*
X778700D02*
X759700D01*
Y888200D01*
X778700D01*
Y907200D01*
D02*
G37*
G36*
X1005000Y903609D02*
X1003619Y903335D01*
X1002448Y902552D01*
X1001665Y901381D01*
X1001391Y900000D01*
X1000000Y898609D01*
X998619Y898335D01*
X997448Y897552D01*
X996665Y896381D01*
X996391Y895000D01*
X996665Y893619D01*
X997448Y892448D01*
X998619Y891665D01*
X1000000Y891391D01*
X1001391Y890000D01*
X1001665Y888619D01*
X1002448Y887448D01*
X1003619Y886665D01*
X1005000Y886391D01*
X1006381Y886665D01*
X1007552Y887448D01*
X1008335Y888619D01*
X1008609Y890000D01*
X1008335Y891381D01*
X1007552Y892552D01*
X1006381Y893335D01*
X1005670Y895000D01*
X1006381Y896665D01*
X1007552Y897448D01*
X1008335Y898619D01*
X1008609Y900000D01*
X1008335Y901381D01*
X1007552Y902552D01*
X1006381Y903335D01*
X1005000Y903609D01*
D02*
G37*
G36*
X550000Y893609D02*
X548619Y893335D01*
X547448Y892552D01*
X546665Y891381D01*
X546391Y890000D01*
X546665Y888619D01*
X547448Y887448D01*
X548619Y886665D01*
X550000Y886391D01*
X551381Y886665D01*
X552552Y887448D01*
X553335Y888619D01*
X553609Y890000D01*
X553335Y891381D01*
X552552Y892552D01*
X551381Y893335D01*
X550000Y893609D01*
D02*
G37*
G36*
X595000Y886609D02*
X593619Y886335D01*
X592448Y885552D01*
X591665Y884381D01*
X591391Y883000D01*
X591665Y881619D01*
X592448Y880448D01*
X593619Y879665D01*
X595000Y879391D01*
X596381Y879665D01*
X597552Y880448D01*
X598335Y881619D01*
X598609Y883000D01*
X598335Y884381D01*
X597552Y885552D01*
X596381Y886335D01*
X595000Y886609D01*
D02*
G37*
G36*
X715000Y878609D02*
X713619Y878335D01*
X712448Y877552D01*
X711665Y876381D01*
X711391Y875000D01*
X711665Y873619D01*
X712448Y872448D01*
X713619Y871665D01*
X715000Y871391D01*
X716381Y871665D01*
X717552Y872448D01*
X718335Y873619D01*
X718609Y875000D01*
X718335Y876381D01*
X717552Y877552D01*
X716381Y878335D01*
X715000Y878609D01*
D02*
G37*
G36*
X675000D02*
X673619Y878335D01*
X672448Y877552D01*
X671665Y876381D01*
X671391Y875000D01*
X671665Y873619D01*
X672448Y872448D01*
X673619Y871665D01*
X675000Y871391D01*
X676381Y871665D01*
X677552Y872448D01*
X678335Y873619D01*
X678609Y875000D01*
X678335Y876381D01*
X677552Y877552D01*
X676381Y878335D01*
X675000Y878609D01*
D02*
G37*
G36*
X575000D02*
X573619Y878335D01*
X572448Y877552D01*
X571665Y876381D01*
X571391Y875000D01*
X571665Y873619D01*
X572448Y872448D01*
X573619Y871665D01*
X575000Y871391D01*
X576381Y871665D01*
X577552Y872448D01*
X578335Y873619D01*
X578609Y875000D01*
X578335Y876381D01*
X577552Y877552D01*
X576381Y878335D01*
X575000Y878609D01*
D02*
G37*
G36*
X510000Y873609D02*
X508619Y873335D01*
X507448Y872552D01*
X506665Y871381D01*
X506391Y870000D01*
X506665Y868619D01*
X507448Y867448D01*
X508619Y866665D01*
X510000Y866391D01*
X511381Y866665D01*
X512552Y867448D01*
X513335Y868619D01*
X513609Y870000D01*
X513335Y871381D01*
X512552Y872552D01*
X511381Y873335D01*
X510000Y873609D01*
D02*
G37*
G36*
X804100Y881800D02*
X785100D01*
Y862800D01*
X804100D01*
Y881800D01*
D02*
G37*
G36*
X778700D02*
X759700D01*
Y862800D01*
X778700D01*
Y881800D01*
D02*
G37*
G36*
X657500Y856109D02*
X656119Y855835D01*
X654948Y855052D01*
X654165Y853881D01*
X653891Y852500D01*
X654165Y851119D01*
X654948Y849948D01*
X656119Y849165D01*
X657500Y848891D01*
X658881Y849165D01*
X660052Y849948D01*
X660835Y851119D01*
X661109Y852500D01*
X660835Y853881D01*
X660052Y855052D01*
X658881Y855835D01*
X657500Y856109D01*
D02*
G37*
G36*
X750000Y853609D02*
X748619Y853335D01*
X747448Y852552D01*
X746665Y851381D01*
X746391Y850000D01*
X746665Y848619D01*
X747448Y847448D01*
X748619Y846665D01*
X750000Y846391D01*
X751381Y846665D01*
X752552Y847448D01*
X753335Y848619D01*
X753609Y850000D01*
X753335Y851381D01*
X752552Y852552D01*
X751381Y853335D01*
X750000Y853609D01*
D02*
G37*
G36*
X615000D02*
X613619Y853335D01*
X612448Y852552D01*
X611665Y851381D01*
X611391Y850000D01*
X611665Y848619D01*
X612448Y847448D01*
X613619Y846665D01*
X615000Y846391D01*
X616381Y846665D01*
X617552Y847448D01*
X618335Y848619D01*
X618609Y850000D01*
X618335Y851381D01*
X617552Y852552D01*
X616381Y853335D01*
X615000Y853609D01*
D02*
G37*
G36*
X580000D02*
X578619Y853335D01*
X577448Y852552D01*
X576665Y851381D01*
X576391Y850000D01*
X576665Y848619D01*
X577448Y847448D01*
X578619Y846665D01*
X580000Y846391D01*
X581381Y846665D01*
X582552Y847448D01*
X583335Y848619D01*
X583609Y850000D01*
X583335Y851381D01*
X582552Y852552D01*
X581381Y853335D01*
X580000Y853609D01*
D02*
G37*
G36*
X805000Y848609D02*
X803619Y848335D01*
X802448Y847552D01*
X801665Y846381D01*
X801391Y845000D01*
X801665Y843619D01*
X802448Y842448D01*
X803619Y841665D01*
X805000Y841391D01*
X806381Y841665D01*
X807552Y842448D01*
X808335Y843619D01*
X808609Y845000D01*
X808335Y846381D01*
X807552Y847552D01*
X806381Y848335D01*
X805000Y848609D01*
D02*
G37*
G36*
X710000D02*
X708619Y848335D01*
X707448Y847552D01*
X706665Y846381D01*
X706391Y845000D01*
X706665Y843619D01*
X707448Y842448D01*
X708619Y841665D01*
X710000Y841391D01*
X711381Y841665D01*
X712552Y842448D01*
X713335Y843619D01*
X713609Y845000D01*
X713335Y846381D01*
X712552Y847552D01*
X711381Y848335D01*
X710000Y848609D01*
D02*
G37*
G36*
X595000D02*
X593619Y848335D01*
X592448Y847552D01*
X591665Y846381D01*
X591391Y845000D01*
X591665Y843619D01*
X592448Y842448D01*
X593619Y841665D01*
X595000Y841391D01*
X596381Y841665D01*
X597552Y842448D01*
X598335Y843619D01*
X598609Y845000D01*
X598335Y846381D01*
X597552Y847552D01*
X596381Y848335D01*
X595000Y848609D01*
D02*
G37*
G36*
X725000Y843609D02*
X723619Y843335D01*
X722448Y842552D01*
X721665Y841381D01*
X721391Y840000D01*
X721665Y838619D01*
X722448Y837448D01*
X723619Y836665D01*
X725000Y836391D01*
X726381Y836665D01*
X727552Y837448D01*
X728335Y838619D01*
X728609Y840000D01*
X728335Y841381D01*
X727552Y842552D01*
X726381Y843335D01*
X725000Y843609D01*
D02*
G37*
G36*
X580000D02*
X578619Y843335D01*
X577448Y842552D01*
X576665Y841381D01*
X576391Y840000D01*
X576665Y838619D01*
X577448Y837448D01*
X578619Y836665D01*
X580000Y836391D01*
X581381Y836665D01*
X582552Y837448D01*
X583335Y838619D01*
X583609Y840000D01*
X583335Y841381D01*
X582552Y842552D01*
X581381Y843335D01*
X580000Y843609D01*
D02*
G37*
G36*
X510000D02*
X508619Y843335D01*
X507448Y842552D01*
X506665Y841381D01*
X506391Y840000D01*
X506665Y838619D01*
X507448Y837448D01*
X508619Y836665D01*
X510000Y836391D01*
X511381Y836665D01*
X512552Y837448D01*
X513335Y838619D01*
X513609Y840000D01*
X513335Y841381D01*
X512552Y842552D01*
X511381Y843335D01*
X510000Y843609D01*
D02*
G37*
G36*
X595000Y838609D02*
X593619Y838335D01*
X592448Y837552D01*
X591665Y836381D01*
X591391Y835000D01*
X591665Y833619D01*
X592448Y832448D01*
X593619Y831665D01*
X595000Y831391D01*
X596381Y831665D01*
X597552Y832448D01*
X598335Y833619D01*
X598609Y835000D01*
X598335Y836381D01*
X597552Y837552D01*
X596381Y838335D01*
X595000Y838609D01*
D02*
G37*
G36*
X800000Y833609D02*
X798619Y833335D01*
X797448Y832552D01*
X796665Y831381D01*
X796391Y830000D01*
X796665Y828619D01*
X797448Y827448D01*
X798619Y826665D01*
X800000Y826391D01*
X801381Y826665D01*
X802552Y827448D01*
X803335Y828619D01*
X803609Y830000D01*
X803335Y831381D01*
X802552Y832552D01*
X801381Y833335D01*
X800000Y833609D01*
D02*
G37*
G36*
X580000D02*
X578619Y833335D01*
X577448Y832552D01*
X576665Y831381D01*
X576391Y830000D01*
X576665Y828619D01*
X577448Y827448D01*
X578619Y826665D01*
X580000Y826391D01*
X581381Y826665D01*
X582552Y827448D01*
X583335Y828619D01*
X583609Y830000D01*
X583335Y831381D01*
X582552Y832552D01*
X581381Y833335D01*
X580000Y833609D01*
D02*
G37*
G36*
X595000Y828609D02*
X593619Y828335D01*
X592448Y827552D01*
X591665Y826381D01*
X591391Y825000D01*
X591665Y823619D01*
X592448Y822448D01*
X593619Y821665D01*
X595000Y821391D01*
X596381Y821665D01*
X597552Y822448D01*
X598335Y823619D01*
X598609Y825000D01*
X598335Y826381D01*
X597552Y827552D01*
X596381Y828335D01*
X595000Y828609D01*
D02*
G37*
G36*
X560000D02*
X558619Y828335D01*
X557448Y827552D01*
X556665Y826381D01*
X556391Y825000D01*
X556665Y823619D01*
X557448Y822448D01*
X558619Y821665D01*
X560000Y821391D01*
X561381Y821665D01*
X562552Y822448D01*
X563335Y823619D01*
X563609Y825000D01*
X563335Y826381D01*
X562552Y827552D01*
X561381Y828335D01*
X560000Y828609D01*
D02*
G37*
G36*
X580000Y823609D02*
X578619Y823335D01*
X577448Y822552D01*
X576665Y821381D01*
X576391Y820000D01*
X576665Y818619D01*
X577448Y817448D01*
X578619Y816665D01*
X580000Y816391D01*
X581381Y816665D01*
X582552Y817448D01*
X583335Y818619D01*
X583609Y820000D01*
X583335Y821381D01*
X582552Y822552D01*
X581381Y823335D01*
X580000Y823609D01*
D02*
G37*
G36*
X530000D02*
X528619Y823335D01*
X527448Y822552D01*
X526665Y821381D01*
X526391Y820000D01*
X526665Y818619D01*
X527448Y817448D01*
X528619Y816665D01*
X530000Y816391D01*
X531381Y816665D01*
X532552Y817448D01*
X533335Y818619D01*
X533609Y820000D01*
X533335Y821381D01*
X532552Y822552D01*
X531381Y823335D01*
X530000Y823609D01*
D02*
G37*
G36*
X735000Y818609D02*
X733619Y818335D01*
X732448Y817552D01*
X731665Y816381D01*
X731391Y815000D01*
X731665Y813619D01*
X732448Y812448D01*
X733619Y811665D01*
X735000Y811391D01*
X736381Y811665D01*
X737552Y812448D01*
X738335Y813619D01*
X738609Y815000D01*
X738335Y816381D01*
X737552Y817552D01*
X736381Y818335D01*
X735000Y818609D01*
D02*
G37*
G36*
X625000D02*
X623619Y818335D01*
X622448Y817552D01*
X621665Y816381D01*
X621391Y815000D01*
X621665Y813619D01*
X622448Y812448D01*
X623619Y811665D01*
X625000Y811391D01*
X626381Y811665D01*
X627552Y812448D01*
X628335Y813619D01*
X628609Y815000D01*
X628335Y816381D01*
X627552Y817552D01*
X626381Y818335D01*
X625000Y818609D01*
D02*
G37*
G36*
X595000D02*
X593619Y818335D01*
X592448Y817552D01*
X591665Y816381D01*
X591391Y815000D01*
X591665Y813619D01*
X592448Y812448D01*
X593619Y811665D01*
X595000Y811391D01*
X596381Y811665D01*
X597552Y812448D01*
X598335Y813619D01*
X598609Y815000D01*
X598335Y816381D01*
X597552Y817552D01*
X596381Y818335D01*
X595000Y818609D01*
D02*
G37*
G36*
X810000Y813609D02*
X808619Y813335D01*
X807448Y812552D01*
X806665Y811381D01*
X806391Y810000D01*
X806665Y808619D01*
X807448Y807448D01*
X808619Y806665D01*
X810000Y806391D01*
X811381Y806665D01*
X812552Y807448D01*
X813335Y808619D01*
X813609Y810000D01*
X813335Y811381D01*
X812552Y812552D01*
X811381Y813335D01*
X810000Y813609D01*
D02*
G37*
G36*
X580000D02*
X578619Y813335D01*
X577448Y812552D01*
X576665Y811381D01*
X576391Y810000D01*
X576665Y808619D01*
X577448Y807448D01*
X578619Y806665D01*
X580000Y806391D01*
X581381Y806665D01*
X582552Y807448D01*
X583335Y808619D01*
X583609Y810000D01*
X583335Y811381D01*
X582552Y812552D01*
X581381Y813335D01*
X580000Y813609D01*
D02*
G37*
G36*
X560000D02*
X558619Y813335D01*
X557448Y812552D01*
X556665Y811381D01*
X556391Y810000D01*
X556665Y808619D01*
X557448Y807448D01*
X558619Y806665D01*
X560000Y806391D01*
X561381Y806665D01*
X562552Y807448D01*
X563335Y808619D01*
X563609Y810000D01*
X563335Y811381D01*
X562552Y812552D01*
X561381Y813335D01*
X560000Y813609D01*
D02*
G37*
G36*
X510000D02*
X508619Y813335D01*
X507448Y812552D01*
X506665Y811381D01*
X506391Y810000D01*
X506665Y808619D01*
X507448Y807448D01*
X508619Y806665D01*
X510000Y806391D01*
X511381Y806665D01*
X512552Y807448D01*
X513335Y808619D01*
X513609Y810000D01*
X513335Y811381D01*
X512552Y812552D01*
X511381Y813335D01*
X510000Y813609D01*
D02*
G37*
G36*
X770000Y808609D02*
X768619Y808335D01*
X767448Y807552D01*
X766665Y806381D01*
X766391Y805000D01*
X766665Y803619D01*
X767448Y802448D01*
X768619Y801665D01*
X770000Y801391D01*
X771381Y801665D01*
X772552Y802448D01*
X773335Y803619D01*
X773609Y805000D01*
X773335Y806381D01*
X772552Y807552D01*
X771381Y808335D01*
X770000Y808609D01*
D02*
G37*
G36*
X595000D02*
X593619Y808335D01*
X592448Y807552D01*
X591665Y806381D01*
X591391Y805000D01*
X591665Y803619D01*
X592448Y802448D01*
X593619Y801665D01*
X595000Y801391D01*
X596381Y801665D01*
X597552Y802448D01*
X598335Y803619D01*
X598609Y805000D01*
X598335Y806381D01*
X597552Y807552D01*
X596381Y808335D01*
X595000Y808609D01*
D02*
G37*
G36*
X580000Y803609D02*
X578619Y803335D01*
X577448Y802552D01*
X576665Y801381D01*
X576391Y800000D01*
X576665Y798619D01*
X577448Y797448D01*
X578619Y796665D01*
X580000Y796391D01*
X581381Y796665D01*
X582552Y797448D01*
X583335Y798619D01*
X583609Y800000D01*
X583335Y801381D01*
X582552Y802552D01*
X581381Y803335D01*
X580000Y803609D01*
D02*
G37*
G36*
X595000Y798609D02*
X593619Y798335D01*
X592448Y797552D01*
X591665Y796381D01*
X591391Y795000D01*
X591665Y793619D01*
X592448Y792448D01*
X593619Y791665D01*
X595000Y791391D01*
X596381Y791665D01*
X597552Y792448D01*
X598335Y793619D01*
X598609Y795000D01*
X598335Y796381D01*
X597552Y797552D01*
X596381Y798335D01*
X595000Y798609D01*
D02*
G37*
G36*
X530000D02*
X528619Y798335D01*
X527448Y797552D01*
X526665Y796381D01*
X526391Y795000D01*
X526665Y793619D01*
X527448Y792448D01*
X528619Y791665D01*
X530000Y791391D01*
X531381Y791665D01*
X532552Y792448D01*
X533335Y793619D01*
X533609Y795000D01*
X533335Y796381D01*
X532552Y797552D01*
X531381Y798335D01*
X530000Y798609D01*
D02*
G37*
G36*
X695000Y793609D02*
X693619Y793335D01*
X692448Y792552D01*
X691665Y791381D01*
X691391Y790000D01*
X691665Y788619D01*
X692448Y787448D01*
X693619Y786665D01*
X695000Y786391D01*
X696381Y786665D01*
X697552Y787448D01*
X698335Y788619D01*
X698609Y790000D01*
X698335Y791381D01*
X697552Y792552D01*
X696381Y793335D01*
X695000Y793609D01*
D02*
G37*
G36*
X580000D02*
X578619Y793335D01*
X577448Y792552D01*
X576665Y791381D01*
X576391Y790000D01*
X576665Y788619D01*
X577448Y787448D01*
X578619Y786665D01*
X580000Y786391D01*
X581381Y786665D01*
X582552Y787448D01*
X583335Y788619D01*
X583609Y790000D01*
X583335Y791381D01*
X582552Y792552D01*
X581381Y793335D01*
X580000Y793609D01*
D02*
G37*
G36*
X652500Y791109D02*
X651119Y790835D01*
X649948Y790052D01*
X649165Y788881D01*
X648891Y787500D01*
X649165Y786119D01*
X649948Y784948D01*
X651119Y784165D01*
X652500Y783891D01*
X653881Y784165D01*
X655052Y784948D01*
X655835Y786119D01*
X656109Y787500D01*
X655835Y788881D01*
X655052Y790052D01*
X653881Y790835D01*
X652500Y791109D01*
D02*
G37*
G36*
X610000Y788609D02*
X608619Y788335D01*
X607448Y787552D01*
X606665Y786381D01*
X606391Y785000D01*
X606665Y783619D01*
X607448Y782448D01*
X608619Y781665D01*
X610000Y781391D01*
X611381Y781665D01*
X612552Y782448D01*
X613335Y783619D01*
X613609Y785000D01*
X613335Y786381D01*
X612552Y787552D01*
X611381Y788335D01*
X610000Y788609D01*
D02*
G37*
G36*
X595000D02*
X593619Y788335D01*
X592448Y787552D01*
X591665Y786381D01*
X591391Y785000D01*
X591665Y783619D01*
X592448Y782448D01*
X593619Y781665D01*
X595000Y781391D01*
X596381Y781665D01*
X597552Y782448D01*
X598335Y783619D01*
X598609Y785000D01*
X598335Y786381D01*
X597552Y787552D01*
X596381Y788335D01*
X595000Y788609D01*
D02*
G37*
G36*
X780000Y783609D02*
X778619Y783335D01*
X777448Y782552D01*
X776665Y781381D01*
X776391Y780000D01*
X776665Y778619D01*
X777448Y777448D01*
X778619Y776665D01*
X780000Y776391D01*
X781381Y776665D01*
X782552Y777448D01*
X783335Y778619D01*
X783609Y780000D01*
X783335Y781381D01*
X782552Y782552D01*
X781381Y783335D01*
X780000Y783609D01*
D02*
G37*
G36*
X750000D02*
X748619Y783335D01*
X747448Y782552D01*
X746665Y781381D01*
X746391Y780000D01*
X746665Y778619D01*
X747448Y777448D01*
X748619Y776665D01*
X750000Y776391D01*
X751381Y776665D01*
X752552Y777448D01*
X753335Y778619D01*
X753609Y780000D01*
X753335Y781381D01*
X752552Y782552D01*
X751381Y783335D01*
X750000Y783609D01*
D02*
G37*
G36*
X700000D02*
X698619Y783335D01*
X697448Y782552D01*
X696665Y781381D01*
X696391Y780000D01*
X696665Y778619D01*
X697448Y777448D01*
X698619Y776665D01*
X700000Y776391D01*
X701381Y776665D01*
X702552Y777448D01*
X703335Y778619D01*
X703609Y780000D01*
X703335Y781381D01*
X702552Y782552D01*
X701381Y783335D01*
X700000Y783609D01*
D02*
G37*
G36*
X580000D02*
X578619Y783335D01*
X577448Y782552D01*
X576665Y781381D01*
X576391Y780000D01*
X576665Y778619D01*
X577448Y777448D01*
X578619Y776665D01*
X580000Y776391D01*
X581381Y776665D01*
X582552Y777448D01*
X583335Y778619D01*
X583609Y780000D01*
X583335Y781381D01*
X582552Y782552D01*
X581381Y783335D01*
X580000Y783609D01*
D02*
G37*
G36*
X725000Y773609D02*
X723619Y773335D01*
X722448Y772552D01*
X721665Y771381D01*
X721391Y770000D01*
X721665Y768619D01*
X722448Y767448D01*
X723619Y766665D01*
X725000Y766391D01*
X726381Y766665D01*
X727552Y767448D01*
X728335Y768619D01*
X728609Y770000D01*
X728335Y771381D01*
X727552Y772552D01*
X726381Y773335D01*
X725000Y773609D01*
D02*
G37*
G36*
X580000D02*
X578619Y773335D01*
X577448Y772552D01*
X576665Y771381D01*
X576391Y770000D01*
X576665Y768619D01*
X577448Y767448D01*
X578619Y766665D01*
X580000Y766391D01*
X581381Y766665D01*
X582552Y767448D01*
X583335Y768619D01*
X583609Y770000D01*
X583335Y771381D01*
X582552Y772552D01*
X581381Y773335D01*
X580000Y773609D01*
D02*
G37*
G36*
X550000D02*
X548619Y773335D01*
X547448Y772552D01*
X546665Y771381D01*
X546391Y770000D01*
X546665Y768619D01*
X547448Y767448D01*
X548619Y766665D01*
X550000Y766391D01*
X551381Y766665D01*
X552552Y767448D01*
X553335Y768619D01*
X553609Y770000D01*
X553335Y771381D01*
X552552Y772552D01*
X551381Y773335D01*
X550000Y773609D01*
D02*
G37*
G36*
X750000Y768609D02*
X748619Y768335D01*
X747448Y767552D01*
X746665Y766381D01*
X746391Y765000D01*
X746665Y763619D01*
X747448Y762448D01*
X748619Y761665D01*
X750000Y761391D01*
X751381Y761665D01*
X752552Y762448D01*
X753335Y763619D01*
X753609Y765000D01*
X753335Y766381D01*
X752552Y767552D01*
X751381Y768335D01*
X750000Y768609D01*
D02*
G37*
G36*
X555000Y763609D02*
X553619Y763335D01*
X552448Y762552D01*
X551665Y761381D01*
X551391Y760000D01*
X551665Y758619D01*
X552448Y757448D01*
X553619Y756665D01*
X555000Y756391D01*
X556381Y756665D01*
X557552Y757448D01*
X558335Y758619D01*
X558609Y760000D01*
X558335Y761381D01*
X557552Y762552D01*
X556381Y763335D01*
X555000Y763609D01*
D02*
G37*
G36*
X510000Y758609D02*
X508619Y758335D01*
X507448Y757552D01*
X506665Y756381D01*
X506391Y755000D01*
X506665Y753619D01*
X507448Y752448D01*
X508619Y751665D01*
X510000Y751391D01*
X511381Y751665D01*
X512552Y752448D01*
X513335Y753619D01*
X513609Y755000D01*
X513335Y756381D01*
X512552Y757552D01*
X511381Y758335D01*
X510000Y758609D01*
D02*
G37*
G36*
X540000Y753609D02*
X538619Y753335D01*
X537448Y752552D01*
X536665Y751381D01*
X536391Y750000D01*
X536665Y748619D01*
X537448Y747448D01*
X538619Y746665D01*
X540000Y746391D01*
X541381Y746665D01*
X542552Y747448D01*
X543335Y748619D01*
X543609Y750000D01*
X543335Y751381D01*
X542552Y752552D01*
X541381Y753335D01*
X540000Y753609D01*
D02*
G37*
G36*
X520000Y748609D02*
X518619Y748335D01*
X517448Y747552D01*
X516665Y746381D01*
X516391Y745000D01*
X516665Y743619D01*
X517448Y742448D01*
X518619Y741665D01*
X520000Y741391D01*
X521381Y741665D01*
X522552Y742448D01*
X523335Y743619D01*
X523609Y745000D01*
X523335Y746381D01*
X522552Y747552D01*
X521381Y748335D01*
X520000Y748609D01*
D02*
G37*
G36*
X565000Y753609D02*
X563619Y753335D01*
X562448Y752552D01*
X561665Y751381D01*
X561391Y750000D01*
X561665Y748619D01*
X562448Y747448D01*
X563619Y746665D01*
X564330Y745000D01*
X563619Y743335D01*
X562448Y742552D01*
X561665Y741381D01*
X561391Y740000D01*
X561665Y738619D01*
X562448Y737448D01*
X563619Y736665D01*
X565000Y736391D01*
X566381Y736665D01*
X567552Y737448D01*
X568335Y738619D01*
X568609Y740000D01*
X570000Y741391D01*
X571381Y741665D01*
X572552Y742448D01*
X573335Y743619D01*
X573609Y745000D01*
X573335Y746381D01*
X572552Y747552D01*
X571381Y748335D01*
X570000Y748609D01*
X568609Y750000D01*
X568335Y751381D01*
X567552Y752552D01*
X566381Y753335D01*
X565000Y753609D01*
D02*
G37*
G36*
X535000Y743609D02*
X533619Y743335D01*
X532448Y742552D01*
X531665Y741381D01*
X531391Y740000D01*
X531665Y738619D01*
X532448Y737448D01*
X533619Y736665D01*
X535000Y736391D01*
X536381Y736665D01*
X537552Y737448D01*
X538335Y738619D01*
X538609Y740000D01*
X538335Y741381D01*
X537552Y742552D01*
X536381Y743335D01*
X535000Y743609D01*
D02*
G37*
G36*
X585000Y738609D02*
X583619Y738335D01*
X582448Y737552D01*
X581665Y736381D01*
X581391Y735000D01*
X581665Y733619D01*
X582448Y732448D01*
X583619Y731665D01*
X585000Y731391D01*
X586381Y731665D01*
X587552Y732448D01*
X588335Y733619D01*
X588609Y735000D01*
X588335Y736381D01*
X587552Y737552D01*
X586381Y738335D01*
X585000Y738609D01*
D02*
G37*
G36*
X565000Y733609D02*
X563619Y733335D01*
X562448Y732552D01*
X561665Y731381D01*
X561391Y730000D01*
X561665Y728619D01*
X562448Y727448D01*
X563619Y726665D01*
X565000Y726391D01*
X566381Y726665D01*
X567552Y727448D01*
X568335Y728619D01*
X568609Y730000D01*
X568335Y731381D01*
X567552Y732552D01*
X566381Y733335D01*
X565000Y733609D01*
D02*
G37*
G36*
X525000D02*
X523619Y733335D01*
X522448Y732552D01*
X521665Y731381D01*
X521391Y730000D01*
X521665Y728619D01*
X522448Y727448D01*
X523619Y726665D01*
X525000Y726391D01*
X526381Y726665D01*
X527552Y727448D01*
X528335Y728619D01*
X528609Y730000D01*
X528335Y731381D01*
X527552Y732552D01*
X526381Y733335D01*
X525000Y733609D01*
D02*
G37*
G36*
X555000Y718609D02*
X553619Y718335D01*
X552448Y717552D01*
X551665Y716381D01*
X551391Y715000D01*
X551665Y713619D01*
X552448Y712448D01*
X553619Y711665D01*
X555000Y711391D01*
X556381Y711665D01*
X557552Y712448D01*
X558335Y713619D01*
X558609Y715000D01*
X558335Y716381D01*
X557552Y717552D01*
X556381Y718335D01*
X555000Y718609D01*
D02*
G37*
G36*
X510000D02*
X508619Y718335D01*
X507448Y717552D01*
X506665Y716381D01*
X506391Y715000D01*
X506665Y713619D01*
X507448Y712448D01*
X508619Y711665D01*
X510000Y711391D01*
X511381Y711665D01*
X512552Y712448D01*
X513335Y713619D01*
X513609Y715000D01*
X513335Y716381D01*
X512552Y717552D01*
X511381Y718335D01*
X510000Y718609D01*
D02*
G37*
G36*
Y678609D02*
X508619Y678335D01*
X507448Y677552D01*
X506665Y676381D01*
X506391Y675000D01*
X506665Y673619D01*
X507448Y672448D01*
X508619Y671665D01*
X510000Y671391D01*
X511381Y671665D01*
X512552Y672448D01*
X513335Y673619D01*
X513609Y675000D01*
X513335Y676381D01*
X512552Y677552D01*
X511381Y678335D01*
X510000Y678609D01*
D02*
G37*
G36*
X535000Y673609D02*
X533619Y673335D01*
X532448Y672552D01*
X531665Y671381D01*
X531391Y670000D01*
X531665Y668619D01*
X532448Y667448D01*
X533619Y666665D01*
X535000Y666391D01*
X536381Y666665D01*
X537552Y667448D01*
X538335Y668619D01*
X538609Y670000D01*
X538335Y671381D01*
X537552Y672552D01*
X536381Y673335D01*
X535000Y673609D01*
D02*
G37*
G36*
X535000Y663609D02*
X533619Y663335D01*
X532448Y662552D01*
X531665Y661381D01*
X531391Y660000D01*
X531665Y658619D01*
X532448Y657448D01*
X533619Y656665D01*
X535000Y656391D01*
X536381Y656665D01*
X537552Y657448D01*
X538335Y658619D01*
X538609Y660000D01*
X538335Y661381D01*
X537552Y662552D01*
X536381Y663335D01*
X535000Y663609D01*
D02*
G37*
G36*
X600000Y648859D02*
X598619Y648585D01*
X597448Y647802D01*
X596665Y646631D01*
X596391Y645250D01*
X596665Y643869D01*
X597448Y642698D01*
X598619Y641915D01*
X600000Y641641D01*
X601381Y641915D01*
X602552Y642698D01*
X603335Y643869D01*
X603609Y645250D01*
X603335Y646631D01*
X602552Y647802D01*
X601381Y648585D01*
X600000Y648859D01*
D02*
G37*
G36*
X535000Y648609D02*
X533619Y648335D01*
X532448Y647552D01*
X531665Y646381D01*
X531391Y645000D01*
X531665Y643619D01*
X532448Y642448D01*
X533619Y641665D01*
X535000Y641391D01*
X536381Y641665D01*
X537552Y642448D01*
X538335Y643619D01*
X538609Y645000D01*
X538335Y646381D01*
X537552Y647552D01*
X536381Y648335D01*
X535000Y648609D01*
D02*
G37*
G36*
X540000Y638609D02*
X538619Y638335D01*
X537448Y637552D01*
X536665Y636381D01*
X536391Y635000D01*
X536665Y633619D01*
X537448Y632448D01*
X538619Y631665D01*
X540000Y631391D01*
X541381Y631665D01*
X542552Y632448D01*
X543335Y633619D01*
X543609Y635000D01*
X543335Y636381D01*
X542552Y637552D01*
X541381Y638335D01*
X540000Y638609D01*
D02*
G37*
G36*
X510000D02*
X508619Y638335D01*
X507448Y637552D01*
X506665Y636381D01*
X506391Y635000D01*
X506665Y633619D01*
X507448Y632448D01*
X508619Y631665D01*
X510000Y631391D01*
X511381Y631665D01*
X512552Y632448D01*
X513335Y633619D01*
X513609Y635000D01*
X513335Y636381D01*
X512552Y637552D01*
X511381Y638335D01*
X510000Y638609D01*
D02*
G37*
G36*
X600000Y634609D02*
X598619Y634335D01*
X597448Y633552D01*
X596665Y632381D01*
X596391Y631000D01*
X596665Y629619D01*
X597448Y628448D01*
X598619Y627665D01*
X600000Y627391D01*
X601381Y627665D01*
X602552Y628448D01*
X603335Y629619D01*
X603609Y631000D01*
X603335Y632381D01*
X602552Y633552D01*
X601381Y634335D01*
X600000Y634609D01*
D02*
G37*
G36*
Y623609D02*
X598619Y623335D01*
X597448Y622552D01*
X596665Y621381D01*
X596391Y620000D01*
X596665Y618619D01*
X597448Y617448D01*
X598619Y616665D01*
X600000Y616391D01*
X601381Y616665D01*
X602552Y617448D01*
X603335Y618619D01*
X603609Y620000D01*
X603335Y621381D01*
X602552Y622552D01*
X601381Y623335D01*
X600000Y623609D01*
D02*
G37*
G36*
X535000Y598609D02*
X533619Y598335D01*
X532448Y597552D01*
X531665Y596381D01*
X531391Y595000D01*
X531665Y593619D01*
X532448Y592448D01*
X533619Y591665D01*
X535000Y591391D01*
X536381Y591665D01*
X537552Y592448D01*
X538335Y593619D01*
X538609Y595000D01*
X538335Y596381D01*
X537552Y597552D01*
X536381Y598335D01*
X535000Y598609D01*
D02*
G37*
G36*
X510000D02*
X508619Y598335D01*
X507448Y597552D01*
X506665Y596381D01*
X506391Y595000D01*
X506665Y593619D01*
X507448Y592448D01*
X508619Y591665D01*
X510000Y591391D01*
X511381Y591665D01*
X512552Y592448D01*
X513335Y593619D01*
X513609Y595000D01*
X513335Y596381D01*
X512552Y597552D01*
X511381Y598335D01*
X510000Y598609D01*
D02*
G37*
G36*
X550000Y573609D02*
X548619Y573335D01*
X547448Y572552D01*
X546665Y571381D01*
X546391Y570000D01*
X546665Y568619D01*
X547448Y567448D01*
X548619Y566665D01*
X550000Y566391D01*
X551381Y566665D01*
X552552Y567448D01*
X553335Y568619D01*
X553609Y570000D01*
X553335Y571381D01*
X552552Y572552D01*
X551381Y573335D01*
X550000Y573609D01*
D02*
G37*
G36*
X510000Y563609D02*
X508619Y563335D01*
X507448Y562552D01*
X506665Y561381D01*
X506391Y560000D01*
X506665Y558619D01*
X507448Y557448D01*
X508619Y556665D01*
X510000Y556391D01*
X511381Y556665D01*
X512552Y557448D01*
X513335Y558619D01*
X513609Y560000D01*
X513335Y561381D01*
X512552Y562552D01*
X511381Y563335D01*
X510000Y563609D01*
D02*
G37*
G36*
X535000Y563609D02*
X533619Y563335D01*
X532448Y562552D01*
X531665Y561381D01*
X531391Y560000D01*
X531665Y558619D01*
X532448Y557448D01*
X533619Y556665D01*
X535000Y556391D01*
X536381Y556665D01*
X537552Y557448D01*
X538335Y558619D01*
X538609Y560000D01*
X538335Y561381D01*
X537552Y562552D01*
X536381Y563335D01*
X535000Y563609D01*
D02*
G37*
G36*
X510000Y538609D02*
X508619Y538335D01*
X507448Y537552D01*
X506665Y536381D01*
X506391Y535000D01*
X506665Y533619D01*
X507448Y532448D01*
X508619Y531665D01*
X510000Y531391D01*
X511381Y531665D01*
X512552Y532448D01*
X513335Y533619D01*
X513609Y535000D01*
X513335Y536381D01*
X512552Y537552D01*
X511381Y538335D01*
X510000Y538609D01*
D02*
G37*
G36*
X535000Y538609D02*
X533619Y538335D01*
X532448Y537552D01*
X531665Y536381D01*
X531391Y535000D01*
X531665Y533619D01*
X532448Y532448D01*
X533619Y531665D01*
X535000Y531391D01*
X536381Y531665D01*
X537552Y532448D01*
X538335Y533619D01*
X538609Y535000D01*
X538335Y536381D01*
X537552Y537552D01*
X536381Y538335D01*
X535000Y538609D01*
D02*
G37*
G36*
X510000Y493609D02*
X508619Y493335D01*
X507448Y492552D01*
X506665Y491381D01*
X506391Y490000D01*
X506665Y488619D01*
X507448Y487448D01*
X508619Y486665D01*
X510000Y486391D01*
X511381Y486665D01*
X512552Y487448D01*
X513335Y488619D01*
X513609Y490000D01*
X513335Y491381D01*
X512552Y492552D01*
X511381Y493335D01*
X510000Y493609D01*
D02*
G37*
G36*
X535000Y478609D02*
X533619Y478335D01*
X532448Y477552D01*
X531665Y476381D01*
X531391Y475000D01*
X531665Y473619D01*
X532448Y472448D01*
X533619Y471665D01*
X535000Y471391D01*
X536381Y471665D01*
X537552Y472448D01*
X538335Y473619D01*
X538609Y475000D01*
X538335Y476381D01*
X537552Y477552D01*
X536381Y478335D01*
X535000Y478609D01*
D02*
G37*
G36*
X510000D02*
X508619Y478335D01*
X507448Y477552D01*
X506665Y476381D01*
X506391Y475000D01*
X506665Y473619D01*
X507448Y472448D01*
X508619Y471665D01*
X510000Y471391D01*
X511381Y471665D01*
X512552Y472448D01*
X513335Y473619D01*
X513609Y475000D01*
X513335Y476381D01*
X512552Y477552D01*
X511381Y478335D01*
X510000Y478609D01*
D02*
G37*
G36*
X595000Y463609D02*
X593619Y463335D01*
X592448Y462552D01*
X591665Y461381D01*
X591391Y460000D01*
X591665Y458619D01*
X592448Y457448D01*
X593619Y456665D01*
X595000Y456391D01*
X596381Y456665D01*
X597552Y457448D01*
X598335Y458619D01*
X598609Y460000D01*
X598335Y461381D01*
X597552Y462552D01*
X596381Y463335D01*
X595000Y463609D01*
D02*
G37*
G36*
X570000D02*
X568619Y463335D01*
X567448Y462552D01*
X566665Y461381D01*
X566391Y460000D01*
X566665Y458619D01*
X567448Y457448D01*
X568619Y456665D01*
X570000Y456391D01*
X571381Y456665D01*
X572552Y457448D01*
X573335Y458619D01*
X573609Y460000D01*
X573335Y461381D01*
X572552Y462552D01*
X571381Y463335D01*
X570000Y463609D01*
D02*
G37*
G36*
Y448609D02*
X568619Y448335D01*
X567448Y447552D01*
X566665Y446381D01*
X566391Y445000D01*
X566665Y443619D01*
X567448Y442448D01*
X568619Y441665D01*
X570000Y441391D01*
X571381Y441665D01*
X572552Y442448D01*
X573335Y443619D01*
X573609Y445000D01*
X573335Y446381D01*
X572552Y447552D01*
X571381Y448335D01*
X570000Y448609D01*
D02*
G37*
G36*
X540000D02*
X538619Y448335D01*
X537448Y447552D01*
X536665Y446381D01*
X536391Y445000D01*
X536665Y443619D01*
X537448Y442448D01*
X538619Y441665D01*
X540000Y441391D01*
X541381Y441665D01*
X542552Y442448D01*
X543335Y443619D01*
X543609Y445000D01*
X543335Y446381D01*
X542552Y447552D01*
X541381Y448335D01*
X540000Y448609D01*
D02*
G37*
G36*
X510000Y438609D02*
X508619Y438335D01*
X507448Y437552D01*
X506665Y436381D01*
X506391Y435000D01*
X506665Y433619D01*
X507448Y432448D01*
X508619Y431665D01*
X510000Y431391D01*
X511381Y431665D01*
X512552Y432448D01*
X513335Y433619D01*
X513609Y435000D01*
X513335Y436381D01*
X512552Y437552D01*
X511381Y438335D01*
X510000Y438609D01*
D02*
G37*
G36*
X520000Y413609D02*
X518619Y413335D01*
X517448Y412552D01*
X516665Y411381D01*
X516391Y410000D01*
X516665Y408619D01*
X517448Y407448D01*
X518619Y406665D01*
X520000Y406391D01*
X521381Y406665D01*
X522552Y407448D01*
X523335Y408619D01*
X523609Y410000D01*
X523335Y411381D01*
X522552Y412552D01*
X521381Y413335D01*
X520000Y413609D01*
D02*
G37*
G36*
X600000Y398859D02*
X598619Y398585D01*
X597448Y397802D01*
X596665Y396631D01*
X596391Y395250D01*
X596665Y393869D01*
X597448Y392698D01*
X598619Y391915D01*
X600000Y391641D01*
X601381Y391915D01*
X602552Y392698D01*
X603335Y393869D01*
X603609Y395250D01*
X603335Y396631D01*
X602552Y397802D01*
X601381Y398585D01*
X600000Y398859D01*
D02*
G37*
G36*
X510000Y393609D02*
X508619Y393335D01*
X507448Y392552D01*
X506665Y391381D01*
X506391Y390000D01*
X506665Y388619D01*
X507448Y387448D01*
X508619Y386665D01*
X510000Y386391D01*
X511381Y386665D01*
X512552Y387448D01*
X513335Y388619D01*
X513609Y390000D01*
X513335Y391381D01*
X512552Y392552D01*
X511381Y393335D01*
X510000Y393609D01*
D02*
G37*
G36*
X525000Y388609D02*
X523619Y388335D01*
X522448Y387552D01*
X521665Y386381D01*
X521391Y385000D01*
X521665Y383619D01*
X522448Y382448D01*
X523619Y381665D01*
X525000Y381391D01*
X526381Y381665D01*
X527552Y382448D01*
X528335Y383619D01*
X528609Y385000D01*
X528335Y386381D01*
X527552Y387552D01*
X526381Y388335D01*
X525000Y388609D01*
D02*
G37*
G36*
X600000Y383859D02*
X598619Y383585D01*
X597448Y382802D01*
X596665Y381631D01*
X596391Y380250D01*
X596665Y378869D01*
X597448Y377698D01*
X598619Y376915D01*
X600000Y376641D01*
X601381Y376915D01*
X602552Y377698D01*
X603335Y378869D01*
X603609Y380250D01*
X603335Y381631D01*
X602552Y382802D01*
X601381Y383585D01*
X600000Y383859D01*
D02*
G37*
G36*
X555000Y378859D02*
X553619Y378585D01*
X552448Y377802D01*
X551665Y376631D01*
X551391Y375250D01*
X551665Y373869D01*
X552448Y372698D01*
X553619Y371915D01*
X555000Y371641D01*
X556381Y371915D01*
X557552Y372698D01*
X558335Y373869D01*
X558609Y375250D01*
X558335Y376631D01*
X557552Y377802D01*
X556381Y378585D01*
X555000Y378859D01*
D02*
G37*
G36*
X570000Y373859D02*
X568619Y373585D01*
X567448Y372802D01*
X566665Y371631D01*
X566391Y370250D01*
X566665Y368869D01*
X567448Y367698D01*
X568619Y366915D01*
X570000Y366641D01*
X571381Y366915D01*
X572552Y367698D01*
X573335Y368869D01*
X573609Y370250D01*
X573335Y371631D01*
X572552Y372802D01*
X571381Y373585D01*
X570000Y373859D01*
D02*
G37*
G36*
X600000Y371109D02*
X598619Y370835D01*
X597448Y370052D01*
X596665Y368881D01*
X596391Y367500D01*
X596665Y366119D01*
X597448Y364948D01*
X598619Y364165D01*
X600000Y363891D01*
X601381Y364165D01*
X602552Y364948D01*
X603335Y366119D01*
X603609Y367500D01*
X603335Y368881D01*
X602552Y370052D01*
X601381Y370835D01*
X600000Y371109D01*
D02*
G37*
G36*
X535000Y353609D02*
X533619Y353335D01*
X532448Y352552D01*
X531665Y351381D01*
X531391Y350000D01*
X531665Y348619D01*
X532448Y347448D01*
X533619Y346665D01*
X535000Y346391D01*
X536381Y346665D01*
X537552Y347448D01*
X538335Y348619D01*
X538609Y350000D01*
X538335Y351381D01*
X537552Y352552D01*
X536381Y353335D01*
X535000Y353609D01*
D02*
G37*
G36*
X510000D02*
X508619Y353335D01*
X507448Y352552D01*
X506665Y351381D01*
X506391Y350000D01*
X506665Y348619D01*
X507448Y347448D01*
X508619Y346665D01*
X510000Y346391D01*
X511381Y346665D01*
X512552Y347448D01*
X513335Y348619D01*
X513609Y350000D01*
X513335Y351381D01*
X512552Y352552D01*
X511381Y353335D01*
X510000Y353609D01*
D02*
G37*
G36*
X1055000Y564856D02*
X1050642Y564513D01*
X1046392Y563493D01*
X1042354Y561820D01*
X1038627Y559536D01*
X1035303Y556697D01*
X1032464Y553373D01*
X1030180Y549646D01*
X1028508Y545608D01*
X1027487Y541358D01*
X1027144Y537000D01*
X1027487Y532642D01*
X1028508Y528392D01*
X1030180Y524354D01*
X1032464Y520627D01*
X1035303Y517303D01*
X1038627Y514464D01*
X1042354Y512180D01*
X1046392Y510508D01*
X1050642Y509487D01*
X1055000Y509144D01*
X1059358Y509487D01*
X1063608Y510508D01*
X1067646Y512180D01*
X1071373Y514464D01*
X1074697Y517303D01*
X1077536Y520627D01*
X1079820Y524354D01*
X1081492Y528392D01*
X1082513Y532642D01*
X1082856Y537000D01*
X1082513Y541358D01*
X1081492Y545608D01*
X1079820Y549646D01*
X1077536Y553373D01*
X1074697Y556697D01*
X1071373Y559536D01*
X1067646Y561820D01*
X1063608Y563493D01*
X1059358Y564513D01*
X1055000Y564856D01*
D02*
G37*
G36*
Y492356D02*
X1050642Y492013D01*
X1046392Y490993D01*
X1042354Y489320D01*
X1038627Y487036D01*
X1035303Y484197D01*
X1032464Y480873D01*
X1030180Y477146D01*
X1028508Y473108D01*
X1027487Y468858D01*
X1027144Y464500D01*
X1027487Y460142D01*
X1028508Y455892D01*
X1030180Y451854D01*
X1032464Y448127D01*
X1035303Y444803D01*
X1038627Y441964D01*
X1042354Y439680D01*
X1046392Y438008D01*
X1050642Y436987D01*
X1055000Y436644D01*
X1059358Y436987D01*
X1063608Y438008D01*
X1067646Y439680D01*
X1071373Y441964D01*
X1074697Y444803D01*
X1077536Y448127D01*
X1079820Y451854D01*
X1081492Y455892D01*
X1082513Y460142D01*
X1082856Y464500D01*
X1082513Y468858D01*
X1081492Y473108D01*
X1079820Y477146D01*
X1077536Y480873D01*
X1074697Y484197D01*
X1071373Y487036D01*
X1067646Y489320D01*
X1063608Y490993D01*
X1059358Y492013D01*
X1055000Y492356D01*
D02*
G37*
G36*
Y359856D02*
X1050642Y359513D01*
X1046392Y358493D01*
X1042354Y356820D01*
X1038627Y354536D01*
X1035303Y351697D01*
X1032464Y348373D01*
X1030180Y344646D01*
X1028508Y340608D01*
X1027487Y336358D01*
X1027144Y332000D01*
X1027487Y327642D01*
X1028508Y323392D01*
X1030180Y319354D01*
X1032464Y315627D01*
X1035303Y312303D01*
X1038627Y309464D01*
X1042354Y307180D01*
X1046392Y305508D01*
X1050642Y304487D01*
X1055000Y304144D01*
X1059358Y304487D01*
X1063608Y305508D01*
X1067646Y307180D01*
X1071373Y309464D01*
X1074697Y312303D01*
X1077536Y315627D01*
X1079820Y319354D01*
X1081492Y323392D01*
X1082513Y327642D01*
X1082856Y332000D01*
X1082513Y336358D01*
X1081492Y340608D01*
X1079820Y344646D01*
X1077536Y348373D01*
X1074697Y351697D01*
X1071373Y354536D01*
X1067646Y356820D01*
X1063608Y358493D01*
X1059358Y359513D01*
X1055000Y359856D01*
D02*
G37*
G36*
X1170000Y254856D02*
X1165642Y254513D01*
X1161392Y253493D01*
X1157354Y251820D01*
X1153627Y249536D01*
X1150303Y246697D01*
X1147464Y243373D01*
X1145180Y239646D01*
X1143508Y235608D01*
X1142487Y231358D01*
X1142144Y227000D01*
X1142487Y222642D01*
X1143508Y218392D01*
X1145180Y214354D01*
X1147464Y210627D01*
X1150303Y207303D01*
X1153627Y204464D01*
X1157354Y202180D01*
X1161392Y200508D01*
X1165642Y199487D01*
X1170000Y199144D01*
X1174358Y199487D01*
X1178608Y200508D01*
X1182646Y202180D01*
X1186373Y204464D01*
X1189697Y207303D01*
X1192536Y210627D01*
X1194820Y214354D01*
X1196492Y218392D01*
X1197513Y222642D01*
X1197856Y227000D01*
X1197513Y231358D01*
X1196492Y235608D01*
X1194820Y239646D01*
X1192536Y243373D01*
X1189697Y246697D01*
X1186373Y249536D01*
X1182646Y251820D01*
X1178608Y253493D01*
X1174358Y254513D01*
X1170000Y254856D01*
D02*
G37*
G36*
X980000D02*
X975642Y254513D01*
X971392Y253493D01*
X967354Y251820D01*
X963627Y249536D01*
X960303Y246697D01*
X957464Y243373D01*
X955180Y239646D01*
X953508Y235608D01*
X952487Y231358D01*
X952144Y227000D01*
X952487Y222642D01*
X953508Y218392D01*
X955180Y214354D01*
X957464Y210627D01*
X960303Y207303D01*
X963627Y204464D01*
X967354Y202180D01*
X971392Y200508D01*
X975642Y199487D01*
X980000Y199144D01*
X984358Y199487D01*
X988608Y200508D01*
X992646Y202180D01*
X996373Y204464D01*
X999697Y207303D01*
X1002536Y210627D01*
X1004820Y214354D01*
X1006492Y218392D01*
X1007513Y222642D01*
X1007856Y227000D01*
X1007513Y231358D01*
X1006492Y235608D01*
X1004820Y239646D01*
X1002536Y243373D01*
X999697Y246697D01*
X996373Y249536D01*
X992646Y251820D01*
X988608Y253493D01*
X984358Y254513D01*
X980000Y254856D01*
D02*
G37*
G36*
X1550000Y252856D02*
X1545642Y252513D01*
X1541392Y251493D01*
X1537354Y249820D01*
X1533627Y247536D01*
X1530303Y244697D01*
X1527464Y241373D01*
X1525180Y237646D01*
X1523508Y233608D01*
X1522487Y229358D01*
X1522144Y225000D01*
X1522487Y220642D01*
X1523508Y216392D01*
X1525180Y212354D01*
X1527464Y208627D01*
X1530303Y205303D01*
X1533627Y202464D01*
X1537354Y200180D01*
X1541392Y198507D01*
X1545642Y197487D01*
X1550000Y197144D01*
X1554358Y197487D01*
X1558608Y198507D01*
X1562646Y200180D01*
X1566373Y202464D01*
X1569697Y205303D01*
X1572536Y208627D01*
X1574820Y212354D01*
X1576492Y216392D01*
X1577513Y220642D01*
X1577856Y225000D01*
X1577513Y229358D01*
X1576492Y233608D01*
X1574820Y237646D01*
X1572536Y241373D01*
X1569697Y244697D01*
X1566373Y247536D01*
X1562646Y249820D01*
X1558608Y251493D01*
X1554358Y252513D01*
X1550000Y252856D01*
D02*
G37*
G36*
X1360000D02*
X1355642Y252513D01*
X1351392Y251493D01*
X1347354Y249820D01*
X1343627Y247536D01*
X1340303Y244697D01*
X1337464Y241373D01*
X1335180Y237646D01*
X1333508Y233608D01*
X1332487Y229358D01*
X1332144Y225000D01*
X1332487Y220642D01*
X1333508Y216392D01*
X1335180Y212354D01*
X1337464Y208627D01*
X1340303Y205303D01*
X1343627Y202464D01*
X1347354Y200180D01*
X1351392Y198507D01*
X1355642Y197487D01*
X1360000Y197144D01*
X1364358Y197487D01*
X1368608Y198507D01*
X1372646Y200180D01*
X1376373Y202464D01*
X1379697Y205303D01*
X1382536Y208627D01*
X1384820Y212354D01*
X1386492Y216392D01*
X1387513Y220642D01*
X1387856Y225000D01*
X1387513Y229358D01*
X1386492Y233608D01*
X1384820Y237646D01*
X1382536Y241373D01*
X1379697Y244697D01*
X1376373Y247536D01*
X1372646Y249820D01*
X1368608Y251493D01*
X1364358Y252513D01*
X1360000Y252856D01*
D02*
G37*
G36*
X660000Y598609D02*
X658619Y598335D01*
X657448Y597552D01*
X656665Y596381D01*
X656391Y595000D01*
X656665Y593619D01*
X657448Y592448D01*
X658619Y591665D01*
X660000Y591391D01*
X661381Y591665D01*
X662552Y592448D01*
X663335Y593619D01*
X663609Y595000D01*
X663335Y596381D01*
X662552Y597552D01*
X661381Y598335D01*
X660000Y598609D01*
D02*
G37*
G36*
X686275Y575109D02*
X684894Y574835D01*
X683764Y574079D01*
X683715Y574052D01*
X682275D01*
X680835D01*
X680786Y574079D01*
X679656Y574835D01*
X678275Y575109D01*
X676894Y574835D01*
X675763Y574079D01*
X675715Y574052D01*
X674275D01*
X672835D01*
X672786Y574079D01*
X671656Y574835D01*
X670275Y575109D01*
X668894Y574835D01*
X667723Y574052D01*
X666940Y572881D01*
X666666Y571500D01*
X666940Y570119D01*
X667723Y568948D01*
X668894Y568165D01*
X670275Y567891D01*
X671656Y568165D01*
X672786Y568921D01*
X672835Y568948D01*
X674275D01*
X675715D01*
X675763Y568921D01*
X676894Y568165D01*
X678275Y567891D01*
X679656Y568165D01*
X680786Y568921D01*
X680835Y568948D01*
X682275D01*
X683715D01*
X683764Y568921D01*
X684894Y568165D01*
X686275Y567891D01*
X687656Y568165D01*
X688827Y568948D01*
X689610Y570119D01*
X689884Y571500D01*
X689610Y572881D01*
X688827Y574052D01*
X687656Y574835D01*
X686275Y575109D01*
D02*
G37*
G36*
X660000Y523609D02*
X658619Y523335D01*
X657448Y522552D01*
X656665Y521381D01*
X656391Y520000D01*
X656665Y518619D01*
X657448Y517448D01*
X658619Y516665D01*
X660000Y516391D01*
X661381Y516665D01*
X662552Y517448D01*
X663335Y518619D01*
X663609Y520000D01*
X663335Y521381D01*
X662552Y522552D01*
X661381Y523335D01*
X660000Y523609D01*
D02*
G37*
G36*
Y483609D02*
X658619Y483335D01*
X657448Y482552D01*
X656665Y481381D01*
X656391Y480000D01*
X656665Y478619D01*
X657448Y477448D01*
X658619Y476665D01*
X660000Y476391D01*
X661381Y476665D01*
X662552Y477448D01*
X663335Y478619D01*
X663609Y480000D01*
X663335Y481381D01*
X662552Y482552D01*
X661381Y483335D01*
X660000Y483609D01*
D02*
G37*
G36*
Y473609D02*
X658619Y473335D01*
X657448Y472552D01*
X656665Y471381D01*
X656391Y470000D01*
X656665Y468619D01*
X657448Y467448D01*
X658619Y466665D01*
X660000Y466391D01*
X661381Y466665D01*
X662552Y467448D01*
X663335Y468619D01*
X663609Y470000D01*
X663335Y471381D01*
X662552Y472552D01*
X661381Y473335D01*
X660000Y473609D01*
D02*
G37*
G36*
Y443609D02*
X658619Y443335D01*
X657448Y442552D01*
X656665Y441381D01*
X656391Y440000D01*
X656665Y438619D01*
X657448Y437448D01*
X658619Y436665D01*
X660000Y436391D01*
X661381Y436665D01*
X662552Y437448D01*
X663335Y438619D01*
X663609Y440000D01*
X663335Y441381D01*
X662552Y442552D01*
X661381Y443335D01*
X660000Y443609D01*
D02*
G37*
G36*
Y398609D02*
X658619Y398335D01*
X657448Y397552D01*
X656665Y396381D01*
X656391Y395000D01*
X656665Y393619D01*
X657448Y392448D01*
X658619Y391665D01*
X660000Y391391D01*
X661381Y391665D01*
X662552Y392448D01*
X663335Y393619D01*
X663609Y395000D01*
X663335Y396381D01*
X662552Y397552D01*
X661381Y398335D01*
X660000Y398609D01*
D02*
G37*
G36*
Y373609D02*
X658619Y373335D01*
X657448Y372552D01*
X656665Y371381D01*
X656391Y370000D01*
X656665Y368619D01*
X657448Y367448D01*
X658619Y366665D01*
X660000Y366391D01*
X661381Y366665D01*
X662552Y367448D01*
X663335Y368619D01*
X663609Y370000D01*
X663335Y371381D01*
X662552Y372552D01*
X661381Y373335D01*
X660000Y373609D01*
D02*
G37*
%LPD*%
D76*
X1765000Y230000D02*
G03*
X1765000Y230000I-25000J0D01*
G01*
X1575000Y225000D02*
G03*
X1575000Y225000I-25000J0D01*
G01*
X1385000D02*
G03*
X1385000Y225000I-25000J0D01*
G01*
X1694960Y109998D02*
G03*
X1595040Y109998I-49960J-1998D01*
G01*
X1124960D02*
G03*
X1025040Y109998I-49960J-1998D01*
G01*
X1080000Y332000D02*
G03*
X1080000Y332000I-25000J0D01*
G01*
Y464500D02*
G03*
X1080000Y464500I-25000J0D01*
G01*
Y669500D02*
G03*
X1080000Y669500I-25000J0D01*
G01*
Y537000D02*
G03*
X1080000Y537000I-25000J0D01*
G01*
X1195000Y227000D02*
G03*
X1195000Y227000I-25000J0D01*
G01*
X1005000D02*
G03*
X1005000Y227000I-25000J0D01*
G01*
D02*
G03*
X1005000Y227000I-25000J0D01*
G01*
D105*
X1788000Y897000D02*
D03*
D110*
X1265000Y105000D02*
D03*
X1455000D02*
D03*
D111*
X1740000Y152500D02*
D03*
X1550000D02*
D03*
X1170000Y152500D02*
D03*
X980000Y152500D02*
D03*
X1360000D02*
D03*
D114*
X605000Y475000D02*
D03*
X735000Y705000D02*
D03*
X650000Y555000D02*
D03*
X1015000Y915000D02*
D03*
X1040000D02*
D03*
X1105000D02*
D03*
X650000Y605000D02*
D03*
X995000Y670000D02*
D03*
X750000Y805000D02*
D03*
X500000Y520000D02*
D03*
X880000Y415000D02*
D03*
Y425000D02*
D03*
Y435000D02*
D03*
Y445000D02*
D03*
X990000Y665000D02*
D03*
X900000D02*
D03*
X910000D02*
D03*
X920000D02*
D03*
X930000D02*
D03*
X940000D02*
D03*
X950000D02*
D03*
X960000D02*
D03*
X970000D02*
D03*
X980000D02*
D03*
X1000000D02*
D03*
X875000Y450000D02*
D03*
X870000Y445000D02*
D03*
Y435000D02*
D03*
X875000Y440000D02*
D03*
Y430000D02*
D03*
X870000Y425000D02*
D03*
X875000Y420000D02*
D03*
X870000Y415000D02*
D03*
X1005000Y670000D02*
D03*
X985000D02*
D03*
X975000D02*
D03*
X965000D02*
D03*
X955000D02*
D03*
X945000D02*
D03*
X935000D02*
D03*
X925000D02*
D03*
X915000D02*
D03*
X905000D02*
D03*
X895000D02*
D03*
X550000Y520000D02*
D03*
X700000Y360000D02*
D03*
X690000Y605000D02*
D03*
M02*
