G04*
G04 #@! TF.GenerationSoftware,Altium Limited,Altium Designer,18.1.7 (191)*
G04*
G04 Layer_Physical_Order=3*
G04 Layer_Color=16440176*
%FSLAX44Y44*%
%MOMM*%
G71*
G01*
G75*
%ADD117C,0.5080*%
G36*
X1640000Y920000D02*
Y725000D01*
X1000000D01*
X970000Y755000D01*
X683609D01*
X683609Y755000D01*
X683335Y756381D01*
X682552Y757552D01*
X681381Y758335D01*
X680000Y758609D01*
X678609Y760000D01*
X678335Y761381D01*
X677552Y762552D01*
X676381Y763335D01*
X675000Y763609D01*
X673619Y763335D01*
X672448Y762552D01*
X671665Y761381D01*
X671391Y760000D01*
X671665Y758619D01*
X672386Y757540D01*
X672279Y756992D01*
X671540Y755000D01*
X610000D01*
X610000Y300000D01*
X500000D01*
X500000Y796539D01*
X501992Y797279D01*
X502540Y797386D01*
X503619Y796665D01*
X505000Y796391D01*
X506381Y796665D01*
X507552Y797448D01*
X508335Y798619D01*
X508609Y800000D01*
X508335Y801381D01*
X507552Y802552D01*
X506381Y803335D01*
X505000Y803609D01*
X503619Y803335D01*
X502540Y802614D01*
X501992Y802721D01*
X500000Y803461D01*
Y920000D01*
X1640000Y920000D01*
D02*
G37*
G36*
X739574Y690000D02*
X739780Y508790D01*
X738566Y508116D01*
X737241Y507760D01*
X736381Y508335D01*
X735000Y508609D01*
X733619Y508335D01*
X732448Y507552D01*
X731665Y506381D01*
X731391Y505000D01*
X731665Y503619D01*
X732448Y502448D01*
X733619Y501665D01*
X735000Y501391D01*
X736381Y501665D01*
X737247Y502244D01*
X738559Y501896D01*
X739789Y501223D01*
X739958Y351797D01*
X738163Y350000D01*
X685000Y350000D01*
X685000Y566844D01*
X686275Y567891D01*
X687656Y568165D01*
X688827Y568948D01*
X689610Y570119D01*
X689884Y571500D01*
X689610Y572881D01*
X688827Y574052D01*
X687656Y574835D01*
X686275Y575109D01*
X685000Y576156D01*
Y690000D01*
X739574Y690000D01*
D02*
G37*
%LPC*%
G36*
X825000Y913609D02*
X823619Y913335D01*
X822641Y912681D01*
X820791Y912301D01*
X820125Y912200D01*
X819390Y912200D01*
X801300D01*
Y893200D01*
X817929D01*
X819363Y893200D01*
X819873Y893154D01*
X820894Y892144D01*
X821548Y891317D01*
X821523Y890667D01*
X821468Y890388D01*
X821391Y890000D01*
X821523Y889333D01*
X821548Y888683D01*
X820894Y887856D01*
X819873Y886846D01*
X819363Y886800D01*
X817992Y886800D01*
X801300D01*
Y867800D01*
X820300D01*
Y884459D01*
X820300Y885585D01*
X820402Y885969D01*
X822681Y887165D01*
X823088Y887020D01*
X823339Y886852D01*
X823619Y886665D01*
X825000Y886391D01*
X826381Y886665D01*
X827552Y887448D01*
X828335Y888619D01*
X828609Y890000D01*
X828335Y891381D01*
X827552Y892552D01*
X826381Y893335D01*
X825000Y893609D01*
X823619Y893335D01*
X823088Y892980D01*
X822681Y892835D01*
X820402Y894031D01*
X820300Y894415D01*
X820300Y895352D01*
Y906090D01*
X821330Y906741D01*
X822840Y907186D01*
X823619Y906665D01*
X825000Y906391D01*
X826381Y906665D01*
X827552Y907448D01*
X828335Y908619D01*
X828609Y910000D01*
X828335Y911381D01*
X827552Y912552D01*
X826381Y913335D01*
X825000Y913609D01*
D02*
G37*
G36*
X794900Y912200D02*
X775900D01*
Y893200D01*
X794900D01*
Y912200D01*
D02*
G37*
G36*
X769500D02*
X750500D01*
Y893200D01*
X769500D01*
Y912200D01*
D02*
G37*
G36*
X744100D02*
X725100D01*
Y893200D01*
X744100D01*
Y912200D01*
D02*
G37*
G36*
X718700D02*
X699700D01*
Y893200D01*
X718700D01*
Y912200D01*
D02*
G37*
G36*
X995000Y898609D02*
X993619Y898335D01*
X992448Y897552D01*
X991665Y896381D01*
X991391Y895000D01*
X991665Y893619D01*
X992448Y892448D01*
X993619Y891665D01*
X995000Y891391D01*
X996381Y891665D01*
X997552Y892448D01*
X998335Y893619D01*
X998609Y895000D01*
X998335Y896381D01*
X997552Y897552D01*
X996381Y898335D01*
X995000Y898609D01*
D02*
G37*
G36*
X610000Y893609D02*
X608619Y893335D01*
X607448Y892552D01*
X606665Y891381D01*
X606391Y890000D01*
X606665Y888619D01*
X607448Y887448D01*
X608619Y886665D01*
X610000Y886391D01*
X611381Y886665D01*
X612552Y887448D01*
X613335Y888619D01*
X613609Y890000D01*
X613335Y891381D01*
X612552Y892552D01*
X611381Y893335D01*
X610000Y893609D01*
D02*
G37*
G36*
X550000D02*
X548619Y893335D01*
X547448Y892552D01*
X546665Y891381D01*
X546391Y890000D01*
X546665Y888619D01*
X547448Y887448D01*
X548619Y886665D01*
X550000Y886391D01*
X551381Y886665D01*
X552552Y887448D01*
X553335Y888619D01*
X553609Y890000D01*
X553335Y891381D01*
X552552Y892552D01*
X551381Y893335D01*
X550000Y893609D01*
D02*
G37*
G36*
X860000Y883609D02*
X858619Y883335D01*
X857448Y882552D01*
X856665Y881381D01*
X856391Y880000D01*
X856665Y878619D01*
X857448Y877448D01*
X858619Y876665D01*
X860000Y876391D01*
X861381Y876665D01*
X862552Y877448D01*
X863335Y878619D01*
X863609Y880000D01*
X863335Y881381D01*
X862552Y882552D01*
X861381Y883335D01*
X860000Y883609D01*
D02*
G37*
G36*
X850000D02*
X848619Y883335D01*
X847448Y882552D01*
X846665Y881381D01*
X846391Y880000D01*
X846665Y878619D01*
X847448Y877448D01*
X848619Y876665D01*
X850000Y876391D01*
X851381Y876665D01*
X852552Y877448D01*
X853335Y878619D01*
X853609Y880000D01*
X853335Y881381D01*
X852552Y882552D01*
X851381Y883335D01*
X850000Y883609D01*
D02*
G37*
G36*
X1120000Y878609D02*
X1118619Y878335D01*
X1117448Y877552D01*
X1116665Y876381D01*
X1116391Y875000D01*
X1116665Y873619D01*
X1117448Y872448D01*
X1118619Y871665D01*
X1120000Y871391D01*
X1121381Y871665D01*
X1122552Y872448D01*
X1123335Y873619D01*
X1123609Y875000D01*
X1123335Y876381D01*
X1122552Y877552D01*
X1121381Y878335D01*
X1120000Y878609D01*
D02*
G37*
G36*
X794900Y886800D02*
X775900D01*
Y867800D01*
X794900D01*
Y886800D01*
D02*
G37*
G36*
X769500D02*
X750500D01*
Y867800D01*
X769500D01*
Y886800D01*
D02*
G37*
G36*
X744100D02*
X725100D01*
Y867800D01*
X744100D01*
Y886800D01*
D02*
G37*
G36*
X718700D02*
X699700D01*
Y867800D01*
X718700D01*
Y886800D01*
D02*
G37*
G36*
X1100000Y873609D02*
X1098619Y873335D01*
X1097448Y872552D01*
X1096665Y871381D01*
X1096391Y870000D01*
X1096665Y868619D01*
X1097448Y867448D01*
X1098619Y866665D01*
X1100000Y866391D01*
X1101381Y866665D01*
X1102552Y867448D01*
X1103335Y868619D01*
X1103609Y870000D01*
X1103335Y871381D01*
X1102552Y872552D01*
X1101381Y873335D01*
X1100000Y873609D01*
D02*
G37*
G36*
X1120000Y858609D02*
X1118619Y858335D01*
X1117448Y857552D01*
X1116665Y856381D01*
X1116391Y855000D01*
X1116665Y853619D01*
X1117448Y852448D01*
X1118619Y851665D01*
X1120000Y851391D01*
X1121381Y851665D01*
X1122552Y852448D01*
X1123335Y853619D01*
X1123609Y855000D01*
X1123335Y856381D01*
X1122552Y857552D01*
X1121381Y858335D01*
X1120000Y858609D01*
D02*
G37*
G36*
X657500Y856109D02*
X656119Y855835D01*
X654948Y855052D01*
X654165Y853881D01*
X653891Y852500D01*
X654165Y851119D01*
X654948Y849948D01*
X656119Y849165D01*
X657500Y848891D01*
X658881Y849165D01*
X660052Y849948D01*
X660835Y851119D01*
X661109Y852500D01*
X660835Y853881D01*
X660052Y855052D01*
X658881Y855835D01*
X657500Y856109D01*
D02*
G37*
G36*
X815000Y848609D02*
X813619Y848335D01*
X812448Y847552D01*
X811665Y846381D01*
X811391Y845000D01*
X811665Y843619D01*
X812448Y842448D01*
X813619Y841665D01*
X815000Y841391D01*
X816381Y841665D01*
X817552Y842448D01*
X818335Y843619D01*
X818609Y845000D01*
X818335Y846381D01*
X817552Y847552D01*
X816381Y848335D01*
X815000Y848609D01*
D02*
G37*
G36*
X700000Y843609D02*
X698619Y843335D01*
X697448Y842552D01*
X696665Y841381D01*
X696391Y840000D01*
X696665Y838619D01*
X697448Y837448D01*
X698619Y836665D01*
X700000Y836391D01*
X701381Y836665D01*
X702552Y837448D01*
X703335Y838619D01*
X703609Y840000D01*
X703335Y841381D01*
X702552Y842552D01*
X701381Y843335D01*
X700000Y843609D01*
D02*
G37*
G36*
X595000D02*
X593619Y843335D01*
X592448Y842552D01*
X591665Y841381D01*
X591391Y840000D01*
X591665Y838619D01*
X592448Y837448D01*
X593619Y836665D01*
X595000Y836391D01*
X596381Y836665D01*
X597552Y837448D01*
X598335Y838619D01*
X598609Y840000D01*
X598335Y841381D01*
X597552Y842552D01*
X596381Y843335D01*
X595000Y843609D01*
D02*
G37*
G36*
X995000Y838609D02*
X993619Y838335D01*
X992448Y837552D01*
X991665Y836381D01*
X991391Y835000D01*
X991665Y833619D01*
X992448Y832448D01*
X993619Y831665D01*
X995000Y831391D01*
X996381Y831665D01*
X997552Y832448D01*
X998335Y833619D01*
X998609Y835000D01*
X998335Y836381D01*
X997552Y837552D01*
X996381Y838335D01*
X995000Y838609D01*
D02*
G37*
G36*
X980000Y838609D02*
X978619Y838335D01*
X977448Y837552D01*
X976665Y836381D01*
X976391Y835000D01*
X976665Y833619D01*
X977448Y832448D01*
X978619Y831665D01*
X980000Y831391D01*
X981381Y831665D01*
X982552Y832448D01*
X983335Y833619D01*
X983609Y835000D01*
X983335Y836381D01*
X982552Y837552D01*
X981381Y838335D01*
X980000Y838609D01*
D02*
G37*
G36*
X970000D02*
X968619Y838335D01*
X967448Y837552D01*
X966665Y836381D01*
X966391Y835000D01*
X966665Y833619D01*
X967448Y832448D01*
X968619Y831665D01*
X970000Y831391D01*
X971381Y831665D01*
X972552Y832448D01*
X973335Y833619D01*
X973609Y835000D01*
X973335Y836381D01*
X972552Y837552D01*
X971381Y838335D01*
X970000Y838609D01*
D02*
G37*
G36*
X805000D02*
X803619Y838335D01*
X802448Y837552D01*
X801665Y836381D01*
X801391Y835000D01*
X801665Y833619D01*
X802448Y832448D01*
X803619Y831665D01*
X805000Y831391D01*
X806381Y831665D01*
X807552Y832448D01*
X808335Y833619D01*
X808609Y835000D01*
X808335Y836381D01*
X807552Y837552D01*
X806381Y838335D01*
X805000Y838609D01*
D02*
G37*
G36*
X780000Y833609D02*
X778619Y833335D01*
X777448Y832552D01*
X776665Y831381D01*
X776391Y830000D01*
X776665Y828619D01*
X777448Y827448D01*
X778619Y826665D01*
X780000Y826391D01*
X781381Y826665D01*
X782552Y827448D01*
X783335Y828619D01*
X783609Y830000D01*
X783335Y831381D01*
X782552Y832552D01*
X781381Y833335D01*
X780000Y833609D01*
D02*
G37*
G36*
X735000D02*
X733619Y833335D01*
X732448Y832552D01*
X731665Y831381D01*
X731391Y830000D01*
X731665Y828619D01*
X732448Y827448D01*
X733619Y826665D01*
X735000Y826391D01*
X736381Y826665D01*
X737552Y827448D01*
X738335Y828619D01*
X738609Y830000D01*
X738335Y831381D01*
X737552Y832552D01*
X736381Y833335D01*
X735000Y833609D01*
D02*
G37*
G36*
X815000Y828609D02*
X813619Y828335D01*
X812448Y827552D01*
X811665Y826381D01*
X811391Y825000D01*
X811665Y823619D01*
X812448Y822448D01*
X813619Y821665D01*
X815000Y821391D01*
X816381Y821665D01*
X817552Y822448D01*
X818335Y823619D01*
X818609Y825000D01*
X818335Y826381D01*
X817552Y827552D01*
X816381Y828335D01*
X815000Y828609D01*
D02*
G37*
G36*
X560000D02*
X558619Y828335D01*
X557448Y827552D01*
X556665Y826381D01*
X556391Y825000D01*
X556665Y823619D01*
X557448Y822448D01*
X558619Y821665D01*
X560000Y821391D01*
X561381Y821665D01*
X562552Y822448D01*
X563335Y823619D01*
X563609Y825000D01*
X563335Y826381D01*
X562552Y827552D01*
X561381Y828335D01*
X560000Y828609D01*
D02*
G37*
G36*
X530000Y823609D02*
X528619Y823335D01*
X527448Y822552D01*
X526665Y821381D01*
X526391Y820000D01*
X526665Y818619D01*
X527448Y817448D01*
X528619Y816665D01*
X530000Y816391D01*
X531381Y816665D01*
X532552Y817448D01*
X533335Y818619D01*
X533609Y820000D01*
X533335Y821381D01*
X532552Y822552D01*
X531381Y823335D01*
X530000Y823609D01*
D02*
G37*
G36*
X995000Y818609D02*
X993619Y818335D01*
X992448Y817552D01*
X991665Y816381D01*
X991391Y815000D01*
X991665Y813619D01*
X992448Y812448D01*
X993619Y811665D01*
X995000Y811391D01*
X996381Y811665D01*
X997552Y812448D01*
X998335Y813619D01*
X998609Y815000D01*
X998335Y816381D01*
X997552Y817552D01*
X996381Y818335D01*
X995000Y818609D01*
D02*
G37*
G36*
X980000D02*
X978619Y818335D01*
X977448Y817552D01*
X976665Y816381D01*
X976391Y815000D01*
X976665Y813619D01*
X977448Y812448D01*
X978619Y811665D01*
X980000Y811391D01*
X981381Y811665D01*
X982552Y812448D01*
X983335Y813619D01*
X983609Y815000D01*
X983335Y816381D01*
X982552Y817552D01*
X981381Y818335D01*
X980000Y818609D01*
D02*
G37*
G36*
X970000D02*
X968619Y818335D01*
X967448Y817552D01*
X966665Y816381D01*
X966391Y815000D01*
X966665Y813619D01*
X967448Y812448D01*
X968619Y811665D01*
X970000Y811391D01*
X971381Y811665D01*
X972552Y812448D01*
X973335Y813619D01*
X973609Y815000D01*
X973335Y816381D01*
X972552Y817552D01*
X971381Y818335D01*
X970000Y818609D01*
D02*
G37*
G36*
X885000D02*
X883619Y818335D01*
X882448Y817552D01*
X881665Y816381D01*
X881391Y815000D01*
X881665Y813619D01*
X882448Y812448D01*
X883619Y811665D01*
X885000Y811391D01*
X886381Y811665D01*
X887552Y812448D01*
X888335Y813619D01*
X888609Y815000D01*
X888335Y816381D01*
X887552Y817552D01*
X886381Y818335D01*
X885000Y818609D01*
D02*
G37*
G36*
X625000D02*
X623619Y818335D01*
X622448Y817552D01*
X621665Y816381D01*
X621391Y815000D01*
X621665Y813619D01*
X622448Y812448D01*
X623619Y811665D01*
X625000Y811391D01*
X626381Y811665D01*
X627552Y812448D01*
X628335Y813619D01*
X628609Y815000D01*
X628335Y816381D01*
X627552Y817552D01*
X626381Y818335D01*
X625000Y818609D01*
D02*
G37*
G36*
X550000Y803609D02*
X548619Y803335D01*
X547448Y802552D01*
X546665Y801381D01*
X546391Y800000D01*
X546665Y798619D01*
X547448Y797448D01*
X548619Y796665D01*
X550000Y796391D01*
X551381Y796665D01*
X552552Y797448D01*
X553335Y798619D01*
X553609Y800000D01*
X553335Y801381D01*
X552552Y802552D01*
X551381Y803335D01*
X550000Y803609D01*
D02*
G37*
G36*
X530000Y798609D02*
X528619Y798335D01*
X527448Y797552D01*
X526665Y796381D01*
X526391Y795000D01*
X526665Y793619D01*
X527448Y792448D01*
X528619Y791665D01*
X530000Y791391D01*
X531381Y791665D01*
X532552Y792448D01*
X533335Y793619D01*
X533609Y795000D01*
X533335Y796381D01*
X532552Y797552D01*
X531381Y798335D01*
X530000Y798609D01*
D02*
G37*
G36*
X695000Y793609D02*
X693619Y793335D01*
X692448Y792552D01*
X691665Y791381D01*
X691391Y790000D01*
X691665Y788619D01*
X692448Y787448D01*
X693619Y786665D01*
X695000Y786391D01*
X696381Y786665D01*
X697552Y787448D01*
X698335Y788619D01*
X698609Y790000D01*
X698335Y791381D01*
X697552Y792552D01*
X696381Y793335D01*
X695000Y793609D01*
D02*
G37*
G36*
X652500Y791109D02*
X651119Y790835D01*
X649948Y790052D01*
X649165Y788881D01*
X648891Y787500D01*
X649165Y786119D01*
X649948Y784948D01*
X651119Y784165D01*
X652500Y783891D01*
X653881Y784165D01*
X655052Y784948D01*
X655835Y786119D01*
X656109Y787500D01*
X655835Y788881D01*
X655052Y790052D01*
X653881Y790835D01*
X652500Y791109D01*
D02*
G37*
G36*
X1135000Y788609D02*
X1133619Y788335D01*
X1132448Y787552D01*
X1131665Y786381D01*
X1131391Y785000D01*
X1131665Y783619D01*
X1132448Y782448D01*
X1133619Y781665D01*
X1135000Y781391D01*
X1136381Y781665D01*
X1137552Y782448D01*
X1138335Y783619D01*
X1138609Y785000D01*
X1138335Y786381D01*
X1137552Y787552D01*
X1136381Y788335D01*
X1135000Y788609D01*
D02*
G37*
G36*
X755000D02*
X753619Y788335D01*
X752448Y787552D01*
X751665Y786381D01*
X751391Y785000D01*
X751665Y783619D01*
X752448Y782448D01*
X753619Y781665D01*
X755000Y781391D01*
X756381Y781665D01*
X757552Y782448D01*
X758335Y783619D01*
X758609Y785000D01*
X758335Y786381D01*
X757552Y787552D01*
X756381Y788335D01*
X755000Y788609D01*
D02*
G37*
G36*
X700000Y783609D02*
X698619Y783335D01*
X697448Y782552D01*
X696665Y781381D01*
X696391Y780000D01*
X696665Y778619D01*
X697448Y777448D01*
X698619Y776665D01*
X700000Y776391D01*
X701381Y776665D01*
X702552Y777448D01*
X703335Y778619D01*
X703609Y780000D01*
X703335Y781381D01*
X702552Y782552D01*
X701381Y783335D01*
X700000Y783609D01*
D02*
G37*
G36*
X1495000Y788609D02*
X1493619Y788335D01*
X1492448Y787552D01*
X1491665Y786381D01*
X1491391Y785000D01*
X1491665Y783619D01*
X1492448Y782448D01*
X1493619Y781665D01*
X1494330Y780000D01*
X1493619Y778335D01*
X1492448Y777552D01*
X1491665Y776381D01*
X1491391Y775000D01*
X1491665Y773619D01*
X1492448Y772448D01*
X1493619Y771665D01*
X1495000Y771391D01*
X1496381Y771665D01*
X1497552Y772448D01*
X1498335Y773619D01*
X1498609Y775000D01*
X1500000Y776391D01*
X1501381Y776665D01*
X1502552Y777448D01*
X1503335Y778619D01*
X1503609Y780000D01*
X1503335Y781381D01*
X1502552Y782552D01*
X1501381Y783335D01*
X1500000Y783609D01*
X1498609Y785000D01*
X1498335Y786381D01*
X1497552Y787552D01*
X1496381Y788335D01*
X1495000Y788609D01*
D02*
G37*
G36*
X585000Y778609D02*
X583619Y778335D01*
X582448Y777552D01*
X581665Y776381D01*
X581391Y775000D01*
X581665Y773619D01*
X582448Y772448D01*
X583619Y771665D01*
X585000Y771391D01*
X586381Y771665D01*
X587552Y772448D01*
X588335Y773619D01*
X588609Y775000D01*
X588335Y776381D01*
X587552Y777552D01*
X586381Y778335D01*
X585000Y778609D01*
D02*
G37*
G36*
X1145000Y773609D02*
X1143619Y773335D01*
X1142448Y772552D01*
X1141665Y771381D01*
X1141391Y770000D01*
X1141665Y768619D01*
X1142448Y767448D01*
X1143619Y766665D01*
X1145000Y766391D01*
X1146381Y766665D01*
X1147552Y767448D01*
X1148335Y768619D01*
X1148609Y770000D01*
X1148335Y771381D01*
X1147552Y772552D01*
X1146381Y773335D01*
X1145000Y773609D01*
D02*
G37*
G36*
X755000D02*
X753619Y773335D01*
X752448Y772552D01*
X751665Y771381D01*
X751391Y770000D01*
X751665Y768619D01*
X752448Y767448D01*
X753619Y766665D01*
X755000Y766391D01*
X756381Y766665D01*
X757552Y767448D01*
X758335Y768619D01*
X758609Y770000D01*
X758335Y771381D01*
X757552Y772552D01*
X756381Y773335D01*
X755000Y773609D01*
D02*
G37*
G36*
X695000D02*
X693619Y773335D01*
X692448Y772552D01*
X691665Y771381D01*
X691391Y770000D01*
X691665Y768619D01*
X692448Y767448D01*
X693619Y766665D01*
X695000Y766391D01*
X696381Y766665D01*
X697552Y767448D01*
X698335Y768619D01*
X698609Y770000D01*
X698335Y771381D01*
X697552Y772552D01*
X696381Y773335D01*
X695000Y773609D01*
D02*
G37*
G36*
X735000Y768609D02*
X733619Y768335D01*
X732448Y767552D01*
X731665Y766381D01*
X731391Y765000D01*
X731665Y763619D01*
X732448Y762448D01*
X733619Y761665D01*
X735000Y761391D01*
X736381Y761665D01*
X737552Y762448D01*
X738335Y763619D01*
X738609Y765000D01*
X738335Y766381D01*
X737552Y767552D01*
X736381Y768335D01*
X735000Y768609D01*
D02*
G37*
G36*
X545000D02*
X543619Y768335D01*
X542448Y767552D01*
X541665Y766381D01*
X541391Y765000D01*
X541665Y763619D01*
X542448Y762448D01*
X543619Y761665D01*
X545000Y761391D01*
X546381Y761665D01*
X547552Y762448D01*
X548335Y763619D01*
X548609Y765000D01*
X548335Y766381D01*
X547552Y767552D01*
X546381Y768335D01*
X545000Y768609D01*
D02*
G37*
G36*
X1485000Y763609D02*
X1483619Y763335D01*
X1482448Y762552D01*
X1481665Y761381D01*
X1481391Y760000D01*
X1481665Y758619D01*
X1482448Y757448D01*
X1483619Y756665D01*
X1485000Y756391D01*
X1486381Y756665D01*
X1487552Y757448D01*
X1488335Y758619D01*
X1488609Y760000D01*
X1488335Y761381D01*
X1487552Y762552D01*
X1486381Y763335D01*
X1485000Y763609D01*
D02*
G37*
G36*
X1145000D02*
X1143619Y763335D01*
X1142448Y762552D01*
X1141665Y761381D01*
X1141391Y760000D01*
X1141665Y758619D01*
X1142448Y757448D01*
X1143619Y756665D01*
X1145000Y756391D01*
X1146381Y756665D01*
X1147552Y757448D01*
X1148335Y758619D01*
X1148609Y760000D01*
X1148335Y761381D01*
X1147552Y762552D01*
X1146381Y763335D01*
X1145000Y763609D01*
D02*
G37*
G36*
X1115000D02*
X1113619Y763335D01*
X1112448Y762552D01*
X1111665Y761381D01*
X1111391Y760000D01*
X1111665Y758619D01*
X1112448Y757448D01*
X1113619Y756665D01*
X1115000Y756391D01*
X1116381Y756665D01*
X1117552Y757448D01*
X1118335Y758619D01*
X1118609Y760000D01*
X1118335Y761381D01*
X1117552Y762552D01*
X1116381Y763335D01*
X1115000Y763609D01*
D02*
G37*
G36*
X540000Y753609D02*
X538619Y753335D01*
X537448Y752552D01*
X536665Y751381D01*
X536391Y750000D01*
X536665Y748619D01*
X537448Y747448D01*
X538619Y746665D01*
X540000Y746391D01*
X541381Y746665D01*
X542552Y747448D01*
X543335Y748619D01*
X543609Y750000D01*
X543335Y751381D01*
X542552Y752552D01*
X541381Y753335D01*
X540000Y753609D01*
D02*
G37*
G36*
X520000Y748609D02*
X518619Y748335D01*
X517448Y747552D01*
X516665Y746381D01*
X516391Y745000D01*
X516665Y743619D01*
X517448Y742448D01*
X518619Y741665D01*
X520000Y741391D01*
X521381Y741665D01*
X522552Y742448D01*
X523335Y743619D01*
X523609Y745000D01*
X523335Y746381D01*
X522552Y747552D01*
X521381Y748335D01*
X520000Y748609D01*
D02*
G37*
G36*
X565000Y753609D02*
X563619Y753335D01*
X562448Y752552D01*
X561665Y751381D01*
X561391Y750000D01*
X560000Y748609D01*
X558619Y748335D01*
X557448Y747552D01*
X556665Y746381D01*
X556391Y745000D01*
X556665Y743619D01*
X557448Y742448D01*
X558619Y741665D01*
X560000Y741391D01*
X561391Y740000D01*
X561665Y738619D01*
X562448Y737448D01*
X563619Y736665D01*
X565000Y736391D01*
X566381Y736665D01*
X567552Y737448D01*
X568335Y738619D01*
X568609Y740000D01*
X568335Y741381D01*
X567552Y742552D01*
X566381Y743335D01*
X565670Y745000D01*
X566381Y746665D01*
X567552Y747448D01*
X568335Y748619D01*
X568609Y750000D01*
X568335Y751381D01*
X567552Y752552D01*
X566381Y753335D01*
X565000Y753609D01*
D02*
G37*
G36*
X535000Y743609D02*
X533619Y743335D01*
X532448Y742552D01*
X531665Y741381D01*
X531391Y740000D01*
X531665Y738619D01*
X532448Y737448D01*
X533619Y736665D01*
X535000Y736391D01*
X536381Y736665D01*
X537552Y737448D01*
X538335Y738619D01*
X538609Y740000D01*
X538335Y741381D01*
X537552Y742552D01*
X536381Y743335D01*
X535000Y743609D01*
D02*
G37*
G36*
X590000Y738609D02*
X588619Y738335D01*
X587448Y737552D01*
X586665Y736381D01*
X586391Y735000D01*
X586665Y733619D01*
X587448Y732448D01*
X588619Y731665D01*
X590000Y731391D01*
X591381Y731665D01*
X592552Y732448D01*
X593335Y733619D01*
X593609Y735000D01*
X593335Y736381D01*
X592552Y737552D01*
X591381Y738335D01*
X590000Y738609D01*
D02*
G37*
G36*
X560000Y733609D02*
X558619Y733335D01*
X557448Y732552D01*
X556665Y731381D01*
X556391Y730000D01*
X556665Y728619D01*
X557448Y727448D01*
X558619Y726665D01*
X560000Y726391D01*
X561381Y726665D01*
X562552Y727448D01*
X563335Y728619D01*
X563609Y730000D01*
X563335Y731381D01*
X562552Y732552D01*
X561381Y733335D01*
X560000Y733609D01*
D02*
G37*
G36*
X525000D02*
X523619Y733335D01*
X522448Y732552D01*
X521665Y731381D01*
X521391Y730000D01*
X521665Y728619D01*
X522448Y727448D01*
X523619Y726665D01*
X525000Y726391D01*
X526381Y726665D01*
X527552Y727448D01*
X528335Y728619D01*
X528609Y730000D01*
X528335Y731381D01*
X527552Y732552D01*
X526381Y733335D01*
X525000Y733609D01*
D02*
G37*
G36*
X535000Y673609D02*
X533619Y673335D01*
X532448Y672552D01*
X531665Y671381D01*
X531391Y670000D01*
X531665Y668619D01*
X532448Y667448D01*
X533619Y666665D01*
X535000Y666391D01*
X536381Y666665D01*
X537552Y667448D01*
X538335Y668619D01*
X538609Y670000D01*
X538335Y671381D01*
X537552Y672552D01*
X536381Y673335D01*
X535000Y673609D01*
D02*
G37*
G36*
X530000Y648609D02*
X528619Y648335D01*
X527448Y647552D01*
X526665Y646381D01*
X526391Y645000D01*
X526665Y643619D01*
X527448Y642448D01*
X528619Y641665D01*
X530000Y641391D01*
X531381Y641665D01*
X532552Y642448D01*
X533335Y643619D01*
X533609Y645000D01*
X533335Y646381D01*
X532552Y647552D01*
X531381Y648335D01*
X530000Y648609D01*
D02*
G37*
G36*
X540000Y638609D02*
X538619Y638335D01*
X537448Y637552D01*
X536665Y636381D01*
X536391Y635000D01*
X536665Y633619D01*
X537448Y632448D01*
X538619Y631665D01*
X540000Y631391D01*
X541381Y631665D01*
X542552Y632448D01*
X543335Y633619D01*
X543609Y635000D01*
X543335Y636381D01*
X542552Y637552D01*
X541381Y638335D01*
X540000Y638609D01*
D02*
G37*
G36*
X600000Y634609D02*
X598619Y634335D01*
X597448Y633552D01*
X596665Y632381D01*
X596391Y631000D01*
X596665Y629619D01*
X597448Y628448D01*
X598619Y627665D01*
X600000Y627391D01*
X601381Y627665D01*
X602552Y628448D01*
X603335Y629619D01*
X603609Y631000D01*
X603335Y632381D01*
X602552Y633552D01*
X601381Y634335D01*
X600000Y634609D01*
D02*
G37*
G36*
Y623609D02*
X598619Y623335D01*
X597448Y622552D01*
X596665Y621381D01*
X596391Y620000D01*
X596665Y618619D01*
X597448Y617448D01*
X598619Y616665D01*
X600000Y616391D01*
X601381Y616665D01*
X602552Y617448D01*
X603335Y618619D01*
X603609Y620000D01*
X603335Y621381D01*
X602552Y622552D01*
X601381Y623335D01*
X600000Y623609D01*
D02*
G37*
G36*
X550000Y573609D02*
X548619Y573335D01*
X547448Y572552D01*
X546665Y571381D01*
X546391Y570000D01*
X546665Y568619D01*
X547448Y567448D01*
X548619Y566665D01*
X550000Y566391D01*
X551381Y566665D01*
X552552Y567448D01*
X553335Y568619D01*
X553609Y570000D01*
X553335Y571381D01*
X552552Y572552D01*
X551381Y573335D01*
X550000Y573609D01*
D02*
G37*
G36*
X510000Y524874D02*
X508619Y524600D01*
X507448Y523817D01*
X506665Y522646D01*
X506391Y521265D01*
X506665Y519884D01*
X507448Y518713D01*
X508619Y517930D01*
X510000Y517656D01*
X511381Y517930D01*
X512552Y518713D01*
X513335Y519884D01*
X513609Y521265D01*
X513335Y522646D01*
X512552Y523817D01*
X511381Y524600D01*
X510000Y524874D01*
D02*
G37*
G36*
X553850Y516374D02*
X552469Y516100D01*
X551298Y515317D01*
X550515Y514146D01*
X550241Y512765D01*
X550515Y511384D01*
X551298Y510213D01*
X552469Y509430D01*
X553850Y509156D01*
X555231Y509430D01*
X556402Y510213D01*
X557185Y511384D01*
X557459Y512765D01*
X557185Y514146D01*
X556402Y515317D01*
X555231Y516100D01*
X553850Y516374D01*
D02*
G37*
G36*
Y493874D02*
X552469Y493600D01*
X551298Y492817D01*
X550515Y491646D01*
X550241Y490265D01*
X550515Y488884D01*
X551298Y487713D01*
X552469Y486930D01*
X553850Y486656D01*
X555231Y486930D01*
X556402Y487713D01*
X557185Y488884D01*
X557459Y490265D01*
X557185Y491646D01*
X556402Y492817D01*
X555231Y493600D01*
X553850Y493874D01*
D02*
G37*
G36*
X510000Y488609D02*
X508619Y488335D01*
X507448Y487552D01*
X506665Y486381D01*
X506391Y485000D01*
X506665Y483619D01*
X507448Y482448D01*
X508619Y481665D01*
X510000Y481391D01*
X511381Y481665D01*
X512552Y482448D01*
X513335Y483619D01*
X513609Y485000D01*
X513335Y486381D01*
X512552Y487552D01*
X511381Y488335D01*
X510000Y488609D01*
D02*
G37*
G36*
X572500Y456109D02*
X571119Y455835D01*
X569948Y455052D01*
X569165Y453881D01*
X568891Y452500D01*
X569165Y451119D01*
X569948Y449948D01*
X571119Y449165D01*
X572500Y448891D01*
X573881Y449165D01*
X575052Y449948D01*
X575835Y451119D01*
X576109Y452500D01*
X575835Y453881D01*
X575052Y455052D01*
X573881Y455835D01*
X572500Y456109D01*
D02*
G37*
G36*
X575000Y443609D02*
X573619Y443335D01*
X572448Y442552D01*
X571665Y441381D01*
X571391Y440000D01*
X571665Y438619D01*
X572448Y437448D01*
X573619Y436665D01*
X575000Y436391D01*
X576381Y436665D01*
X577552Y437448D01*
X578335Y438619D01*
X578609Y440000D01*
X578335Y441381D01*
X577552Y442552D01*
X576381Y443335D01*
X575000Y443609D01*
D02*
G37*
G36*
X540000D02*
X538619Y443335D01*
X537448Y442552D01*
X536665Y441381D01*
X536391Y440000D01*
X536665Y438619D01*
X537448Y437448D01*
X538619Y436665D01*
X540000Y436391D01*
X541381Y436665D01*
X542552Y437448D01*
X543335Y438619D01*
X543609Y440000D01*
X543335Y441381D01*
X542552Y442552D01*
X541381Y443335D01*
X540000Y443609D01*
D02*
G37*
G36*
X520000Y413609D02*
X518619Y413335D01*
X517448Y412552D01*
X516665Y411381D01*
X516391Y410000D01*
X516665Y408619D01*
X517448Y407448D01*
X518619Y406665D01*
X520000Y406391D01*
X521381Y406665D01*
X522552Y407448D01*
X523335Y408619D01*
X523609Y410000D01*
X523335Y411381D01*
X522552Y412552D01*
X521381Y413335D01*
X520000Y413609D01*
D02*
G37*
G36*
X525000Y388609D02*
X523619Y388335D01*
X522448Y387552D01*
X521665Y386381D01*
X521391Y385000D01*
X521665Y383619D01*
X522448Y382448D01*
X523619Y381665D01*
X525000Y381391D01*
X526381Y381665D01*
X527552Y382448D01*
X528335Y383619D01*
X528609Y385000D01*
X528335Y386381D01*
X527552Y387552D01*
X526381Y388335D01*
X525000Y388609D01*
D02*
G37*
G36*
X600000Y383859D02*
X598619Y383585D01*
X597448Y382802D01*
X596665Y381631D01*
X596391Y380250D01*
X596665Y378869D01*
X597448Y377698D01*
X598619Y376915D01*
X600000Y376641D01*
X601381Y376915D01*
X602552Y377698D01*
X603335Y378869D01*
X603609Y380250D01*
X603335Y381631D01*
X602552Y382802D01*
X601381Y383585D01*
X600000Y383859D01*
D02*
G37*
G36*
X555000Y378859D02*
X553619Y378585D01*
X552448Y377802D01*
X551665Y376631D01*
X551391Y375250D01*
X551665Y373869D01*
X552448Y372698D01*
X553619Y371915D01*
X555000Y371641D01*
X556381Y371915D01*
X557552Y372698D01*
X558335Y373869D01*
X558609Y375250D01*
X558335Y376631D01*
X557552Y377802D01*
X556381Y378585D01*
X555000Y378859D01*
D02*
G37*
G36*
X570000Y373859D02*
X568619Y373585D01*
X567448Y372802D01*
X566665Y371631D01*
X566391Y370250D01*
X566665Y368869D01*
X567448Y367698D01*
X568619Y366915D01*
X570000Y366641D01*
X571381Y366915D01*
X572552Y367698D01*
X573335Y368869D01*
X573609Y370250D01*
X573335Y371631D01*
X572552Y372802D01*
X571381Y373585D01*
X570000Y373859D01*
D02*
G37*
G36*
X600000Y371109D02*
X598619Y370835D01*
X597448Y370052D01*
X596665Y368881D01*
X596391Y367500D01*
X596665Y366119D01*
X597448Y364948D01*
X598619Y364165D01*
X600000Y363891D01*
X601381Y364165D01*
X602552Y364948D01*
X603335Y366119D01*
X603609Y367500D01*
X603335Y368881D01*
X602552Y370052D01*
X601381Y370835D01*
X600000Y371109D01*
D02*
G37*
%LPD*%
D117*
X840000Y840000D02*
D03*
X720000Y760000D02*
D03*
X575000Y875000D02*
D03*
X700000Y360000D02*
D03*
X715000Y690000D02*
D03*
X820000Y840000D02*
D03*
Y820000D02*
D03*
X690000Y605000D02*
D03*
X710000Y490000D02*
D03*
X740000Y480000D02*
D03*
Y470000D02*
D03*
X1500000Y770000D02*
D03*
X1125000D02*
D03*
X600000Y645250D02*
D03*
Y395250D02*
D03*
M02*
