G04*
G04 #@! TF.GenerationSoftware,Altium Limited,Altium Designer,18.1.7 (191)*
G04*
G04 Layer_Color=8421504*
%FSLAX44Y44*%
%MOMM*%
G71*
G01*
G75*
%ADD17R,1.2000X1.5000*%
%ADD18R,1.8000X1.6000*%
%ADD19R,2.6000X1.7000*%
%ADD20R,1.7000X0.9000*%
%ADD21R,2.5000X0.9000*%
%ADD22R,0.4500X1.0000*%
%ADD23R,1.7000X3.2000*%
%ADD24R,2.2000X1.8000*%
%ADD25R,0.6000X0.6000*%
%ADD26R,0.6000X0.6000*%
%ADD27R,1.5000X1.3000*%
%ADD28R,1.3000X1.5000*%
%ADD29R,1.8000X3.4000*%
%ADD30R,0.9800X0.9300*%
G04:AMPARAMS|DCode=31|XSize=0.3mm|YSize=0.8mm|CornerRadius=0.075mm|HoleSize=0mm|Usage=FLASHONLY|Rotation=180.000|XOffset=0mm|YOffset=0mm|HoleType=Round|Shape=RoundedRectangle|*
%AMROUNDEDRECTD31*
21,1,0.3000,0.6500,0,0,180.0*
21,1,0.1500,0.8000,0,0,180.0*
1,1,0.1500,-0.0750,0.3250*
1,1,0.1500,0.0750,0.3250*
1,1,0.1500,0.0750,-0.3250*
1,1,0.1500,-0.0750,-0.3250*
%
%ADD31ROUNDEDRECTD31*%
G04:AMPARAMS|DCode=32|XSize=0.3mm|YSize=0.8mm|CornerRadius=0.075mm|HoleSize=0mm|Usage=FLASHONLY|Rotation=90.000|XOffset=0mm|YOffset=0mm|HoleType=Round|Shape=RoundedRectangle|*
%AMROUNDEDRECTD32*
21,1,0.3000,0.6500,0,0,90.0*
21,1,0.1500,0.8000,0,0,90.0*
1,1,0.1500,0.3250,0.0750*
1,1,0.1500,0.3250,-0.0750*
1,1,0.1500,-0.3250,-0.0750*
1,1,0.1500,-0.3250,0.0750*
%
%ADD32ROUNDEDRECTD32*%
%ADD33R,1.2000X1.4000*%
%ADD34R,1.8000X0.6000*%
%ADD35R,0.6500X1.7000*%
%ADD36O,0.6500X1.7000*%
%ADD37R,0.9300X0.9800*%
%ADD38R,0.8000X0.8000*%
%ADD39R,1.5000X1.2000*%
%ADD40R,1.1200X0.9600*%
%ADD41O,1.7000X0.6500*%
%ADD42R,1.7000X0.6500*%
G36*
X794520Y313950D02*
X786270D01*
Y317950D01*
X794520D01*
Y313950D01*
D02*
G37*
G36*
Y326650D02*
X786270D01*
Y330650D01*
X794520D01*
Y326650D01*
D02*
G37*
G36*
X825275Y319000D02*
X810275D01*
Y334000D01*
X825275D01*
Y319000D01*
D02*
G37*
G36*
X794520Y339350D02*
X786270D01*
Y343350D01*
X794520D01*
Y339350D01*
D02*
G37*
G36*
Y352050D02*
X786270D01*
Y356050D01*
X794520D01*
Y352050D01*
D02*
G37*
G36*
X825275Y336000D02*
X810275D01*
Y351000D01*
X825275D01*
Y336000D01*
D02*
G37*
G36*
X851775Y326150D02*
X844275D01*
Y331150D01*
X851775D01*
Y326150D01*
D02*
G37*
G36*
X842275Y319000D02*
X827275D01*
Y334000D01*
X842275D01*
Y319000D01*
D02*
G37*
G36*
X851775Y313450D02*
X844275D01*
Y318450D01*
X851775D01*
Y313450D01*
D02*
G37*
G36*
Y351550D02*
X844275D01*
Y356550D01*
X851775D01*
Y351550D01*
D02*
G37*
G36*
Y338850D02*
X844275D01*
Y343850D01*
X851775D01*
Y338850D01*
D02*
G37*
G36*
X842275Y336000D02*
X827275D01*
Y351000D01*
X842275D01*
Y336000D01*
D02*
G37*
G36*
X794520Y398950D02*
X786270D01*
Y402950D01*
X794520D01*
Y398950D01*
D02*
G37*
G36*
Y411650D02*
X786270D01*
Y415650D01*
X794520D01*
Y411650D01*
D02*
G37*
G36*
X825275Y404000D02*
X810275D01*
Y419000D01*
X825275D01*
Y404000D01*
D02*
G37*
G36*
X794520Y424350D02*
X786270D01*
Y428350D01*
X794520D01*
Y424350D01*
D02*
G37*
G36*
Y437050D02*
X786270D01*
Y441050D01*
X794520D01*
Y437050D01*
D02*
G37*
G36*
X825275Y421000D02*
X810275D01*
Y436000D01*
X825275D01*
Y421000D01*
D02*
G37*
G36*
X851775Y411150D02*
X844275D01*
Y416150D01*
X851775D01*
Y411150D01*
D02*
G37*
G36*
X842275Y404000D02*
X827275D01*
Y419000D01*
X842275D01*
Y404000D01*
D02*
G37*
G36*
X851775Y398450D02*
X844275D01*
Y403450D01*
X851775D01*
Y398450D01*
D02*
G37*
G36*
Y436550D02*
X844275D01*
Y441550D01*
X851775D01*
Y436550D01*
D02*
G37*
G36*
Y423850D02*
X844275D01*
Y428850D01*
X851775D01*
Y423850D01*
D02*
G37*
G36*
X842275Y421000D02*
X827275D01*
Y436000D01*
X842275D01*
Y421000D01*
D02*
G37*
G36*
X794520Y563950D02*
X786270D01*
Y567950D01*
X794520D01*
Y563950D01*
D02*
G37*
G36*
Y576650D02*
X786270D01*
Y580650D01*
X794520D01*
Y576650D01*
D02*
G37*
G36*
X825275Y569000D02*
X810275D01*
Y584000D01*
X825275D01*
Y569000D01*
D02*
G37*
G36*
X794520Y589350D02*
X786270D01*
Y593350D01*
X794520D01*
Y589350D01*
D02*
G37*
G36*
Y602050D02*
X786270D01*
Y606050D01*
X794520D01*
Y602050D01*
D02*
G37*
G36*
X825275Y586000D02*
X810275D01*
Y601000D01*
X825275D01*
Y586000D01*
D02*
G37*
G36*
X851775Y576150D02*
X844275D01*
Y581150D01*
X851775D01*
Y576150D01*
D02*
G37*
G36*
X842275Y569000D02*
X827275D01*
Y584000D01*
X842275D01*
Y569000D01*
D02*
G37*
G36*
X851775Y563450D02*
X844275D01*
Y568450D01*
X851775D01*
Y563450D01*
D02*
G37*
G36*
X842275Y586000D02*
X827275D01*
Y601000D01*
X842275D01*
Y586000D01*
D02*
G37*
G36*
X851775Y588850D02*
X844275D01*
Y593850D01*
X851775D01*
Y588850D01*
D02*
G37*
G36*
Y601550D02*
X844275D01*
Y606550D01*
X851775D01*
Y601550D01*
D02*
G37*
G36*
X794520Y648950D02*
X786270D01*
Y652950D01*
X794520D01*
Y648950D01*
D02*
G37*
G36*
Y661650D02*
X786270D01*
Y665650D01*
X794520D01*
Y661650D01*
D02*
G37*
G36*
X825275Y654000D02*
X810275D01*
Y669000D01*
X825275D01*
Y654000D01*
D02*
G37*
G36*
X794520Y674350D02*
X786270D01*
Y678350D01*
X794520D01*
Y674350D01*
D02*
G37*
G36*
Y687050D02*
X786270D01*
Y691050D01*
X794520D01*
Y687050D01*
D02*
G37*
G36*
X825275Y671000D02*
X810275D01*
Y686000D01*
X825275D01*
Y671000D01*
D02*
G37*
G36*
X851775Y661150D02*
X844275D01*
Y666150D01*
X851775D01*
Y661150D01*
D02*
G37*
G36*
X842275Y654000D02*
X827275D01*
Y669000D01*
X842275D01*
Y654000D01*
D02*
G37*
G36*
X851775Y648450D02*
X844275D01*
Y653450D01*
X851775D01*
Y648450D01*
D02*
G37*
G36*
Y686550D02*
X844275D01*
Y691550D01*
X851775D01*
Y686550D01*
D02*
G37*
G36*
Y673850D02*
X844275D01*
Y678850D01*
X851775D01*
Y673850D01*
D02*
G37*
G36*
X842275Y671000D02*
X827275D01*
Y686000D01*
X842275D01*
Y671000D01*
D02*
G37*
D17*
X1976046Y690000D02*
D03*
X2003954D02*
D03*
X1976046Y665000D02*
D03*
X2003954D02*
D03*
X1976046Y640000D02*
D03*
X2003954D02*
D03*
X2011046Y315000D02*
D03*
X2038954D02*
D03*
X1931046D02*
D03*
X1958954D02*
D03*
X2011046Y290000D02*
D03*
X2038954D02*
D03*
X1931046D02*
D03*
X1958954D02*
D03*
X1931046Y265000D02*
D03*
X1958954D02*
D03*
X2011046D02*
D03*
X2038954D02*
D03*
D18*
X1520000Y581000D02*
D03*
Y609000D02*
D03*
Y401000D02*
D03*
Y429000D02*
D03*
X1495000Y431000D02*
D03*
Y459000D02*
D03*
X1520000Y461000D02*
D03*
Y489000D02*
D03*
X1495000Y491000D02*
D03*
Y519000D02*
D03*
X1520000Y521000D02*
D03*
Y549000D02*
D03*
X1495000Y551000D02*
D03*
Y579000D02*
D03*
D19*
X1338000Y855000D02*
D03*
X772000Y505000D02*
D03*
X883000Y855000D02*
D03*
D20*
X1312000Y840000D02*
D03*
Y871000D02*
D03*
X746000Y490000D02*
D03*
Y521000D02*
D03*
X970500Y878000D02*
D03*
Y855000D02*
D03*
Y832000D02*
D03*
X857000Y840000D02*
D03*
Y871000D02*
D03*
D21*
X1316000Y855000D02*
D03*
X750000Y505000D02*
D03*
X861000Y855000D02*
D03*
D22*
X1270000Y864000D02*
D03*
Y886000D02*
D03*
Y846000D02*
D03*
Y824000D02*
D03*
X695000Y508000D02*
D03*
Y530000D02*
D03*
Y496000D02*
D03*
Y474000D02*
D03*
X750000Y426000D02*
D03*
Y404000D02*
D03*
Y591000D02*
D03*
Y569000D02*
D03*
Y676000D02*
D03*
Y654000D02*
D03*
Y341000D02*
D03*
Y319000D02*
D03*
D23*
X909500Y855000D02*
D03*
D24*
X1739000Y905000D02*
D03*
X1701000D02*
D03*
X717275Y450250D02*
D03*
X679275D02*
D03*
X719000Y705000D02*
D03*
X681000D02*
D03*
D25*
X765000Y314920D02*
D03*
Y325080D02*
D03*
Y404920D02*
D03*
Y415080D02*
D03*
Y564920D02*
D03*
Y575080D02*
D03*
Y649920D02*
D03*
Y660080D02*
D03*
X735000Y755080D02*
D03*
Y744920D02*
D03*
X745000Y755080D02*
D03*
Y744920D02*
D03*
X1666000Y770080D02*
D03*
Y759920D02*
D03*
X700000Y849920D02*
D03*
Y860080D02*
D03*
D26*
X730080Y340000D02*
D03*
X719920D02*
D03*
X725080Y425000D02*
D03*
X714920D02*
D03*
X730080Y590000D02*
D03*
X719920D02*
D03*
X730080Y675000D02*
D03*
X719920D02*
D03*
X1300080Y765000D02*
D03*
X1289920D02*
D03*
Y785000D02*
D03*
X1300080D02*
D03*
X1686080Y770000D02*
D03*
X1675920D02*
D03*
X1686080Y760000D02*
D03*
X1675920D02*
D03*
X1499920Y745000D02*
D03*
X1510080D02*
D03*
X1500000Y755000D02*
D03*
X1510160D02*
D03*
X1124920Y755000D02*
D03*
X1135080D02*
D03*
X1124920Y745000D02*
D03*
X1135080D02*
D03*
X1676080Y745000D02*
D03*
X1665920D02*
D03*
Y785000D02*
D03*
X1676080D02*
D03*
X1300080Y745000D02*
D03*
X1289920D02*
D03*
Y755000D02*
D03*
X1300080D02*
D03*
X910080Y745000D02*
D03*
X899920D02*
D03*
X910080Y755000D02*
D03*
X899920D02*
D03*
Y785000D02*
D03*
X910080D02*
D03*
Y765000D02*
D03*
X899920D02*
D03*
Y775000D02*
D03*
X910080D02*
D03*
X1289920Y775000D02*
D03*
X1300080D02*
D03*
X529920Y775000D02*
D03*
X540080D02*
D03*
X529920Y805000D02*
D03*
X540080D02*
D03*
X595080Y890000D02*
D03*
X584920D02*
D03*
X559920D02*
D03*
X570080D02*
D03*
X529920Y785000D02*
D03*
X540080D02*
D03*
X589920Y745000D02*
D03*
X600080D02*
D03*
X654920D02*
D03*
X665080D02*
D03*
X540080Y890000D02*
D03*
X529920D02*
D03*
Y830000D02*
D03*
X540080D02*
D03*
X560080Y330000D02*
D03*
X549920D02*
D03*
X560080Y340000D02*
D03*
X549920D02*
D03*
X560080Y440000D02*
D03*
X549920D02*
D03*
X560080Y385000D02*
D03*
X549920D02*
D03*
X560080Y410000D02*
D03*
X549920D02*
D03*
Y420000D02*
D03*
X560080D02*
D03*
X549920Y355000D02*
D03*
X560080D02*
D03*
Y365000D02*
D03*
X549920D02*
D03*
X560080Y590000D02*
D03*
X549920D02*
D03*
X560080Y580000D02*
D03*
X549920D02*
D03*
Y605000D02*
D03*
X560080D02*
D03*
X549920Y615000D02*
D03*
X560080D02*
D03*
Y670000D02*
D03*
X549920D02*
D03*
Y660000D02*
D03*
X560080D02*
D03*
Y635000D02*
D03*
X549920D02*
D03*
Y395000D02*
D03*
X560080D02*
D03*
X549920Y645000D02*
D03*
X560080D02*
D03*
D27*
X1385000Y744500D02*
D03*
Y725500D02*
D03*
X990000Y744500D02*
D03*
Y725500D02*
D03*
D28*
X1365500Y770000D02*
D03*
X1384500D02*
D03*
X1325500D02*
D03*
X1344500D02*
D03*
X970500Y770000D02*
D03*
X989500D02*
D03*
X930500Y770000D02*
D03*
X949500D02*
D03*
D29*
X1781000Y665000D02*
D03*
X1729000D02*
D03*
D30*
X700000Y602700D02*
D03*
Y587300D02*
D03*
Y352700D02*
D03*
Y337300D02*
D03*
Y412700D02*
D03*
Y397300D02*
D03*
Y662700D02*
D03*
Y647300D02*
D03*
X740775Y459400D02*
D03*
Y444000D02*
D03*
Y709400D02*
D03*
Y694000D02*
D03*
X510000Y495065D02*
D03*
Y510465D02*
D03*
D31*
X665000Y874500D02*
D03*
X660000D02*
D03*
X655000D02*
D03*
X650000D02*
D03*
X645000D02*
D03*
X640000D02*
D03*
X635000D02*
D03*
X630000D02*
D03*
X625000D02*
D03*
X620000D02*
D03*
X615000D02*
D03*
X610000D02*
D03*
X605000D02*
D03*
X600000D02*
D03*
X595000D02*
D03*
X590000D02*
D03*
X665000Y760500D02*
D03*
X660000D02*
D03*
X655000D02*
D03*
X650000D02*
D03*
X645000D02*
D03*
X640000D02*
D03*
X635000D02*
D03*
X630000D02*
D03*
X625000D02*
D03*
X620000D02*
D03*
X615000D02*
D03*
X610000D02*
D03*
X605000D02*
D03*
X600000D02*
D03*
X595000D02*
D03*
X590000D02*
D03*
D32*
X684500Y780000D02*
D03*
Y785000D02*
D03*
Y790000D02*
D03*
Y795000D02*
D03*
Y800000D02*
D03*
Y805000D02*
D03*
Y810000D02*
D03*
Y815000D02*
D03*
Y820000D02*
D03*
Y825000D02*
D03*
Y830000D02*
D03*
Y835000D02*
D03*
Y840000D02*
D03*
Y845000D02*
D03*
Y850000D02*
D03*
Y855000D02*
D03*
X570080Y780000D02*
D03*
Y785000D02*
D03*
Y790000D02*
D03*
Y795000D02*
D03*
Y800000D02*
D03*
Y805000D02*
D03*
Y810000D02*
D03*
Y815000D02*
D03*
Y820000D02*
D03*
Y825000D02*
D03*
Y830000D02*
D03*
Y835000D02*
D03*
Y840000D02*
D03*
Y845000D02*
D03*
Y850000D02*
D03*
Y855000D02*
D03*
D33*
X548000Y849000D02*
D03*
X531000D02*
D03*
Y871000D02*
D03*
X548000D02*
D03*
D34*
X874500Y758650D02*
D03*
Y745950D02*
D03*
Y771350D02*
D03*
Y784050D02*
D03*
X765500Y758650D02*
D03*
Y745950D02*
D03*
Y771350D02*
D03*
Y784050D02*
D03*
X1639500Y758650D02*
D03*
Y745950D02*
D03*
Y771350D02*
D03*
Y784050D02*
D03*
X1530500Y758650D02*
D03*
Y745950D02*
D03*
Y771350D02*
D03*
Y784050D02*
D03*
X1264500Y758650D02*
D03*
Y745950D02*
D03*
Y771350D02*
D03*
Y784050D02*
D03*
X1155500Y758650D02*
D03*
Y745950D02*
D03*
Y771350D02*
D03*
Y784050D02*
D03*
D35*
X1134000Y883000D02*
D03*
X566500Y530385D02*
D03*
D36*
X1121300Y883000D02*
D03*
X1108600D02*
D03*
X1095900D02*
D03*
X1134000Y827000D02*
D03*
X1121300D02*
D03*
X1108600D02*
D03*
X1095900D02*
D03*
X553800Y530385D02*
D03*
X541100D02*
D03*
X528400D02*
D03*
X566500Y474385D02*
D03*
X553800D02*
D03*
X541100D02*
D03*
X528400D02*
D03*
D37*
X867700Y890000D02*
D03*
X852300D02*
D03*
X852300Y820000D02*
D03*
X867700D02*
D03*
X717300Y325000D02*
D03*
X732700D02*
D03*
X717300Y410000D02*
D03*
X732700D02*
D03*
X717300Y575000D02*
D03*
X732700D02*
D03*
X717300Y660000D02*
D03*
X732700D02*
D03*
X1307700Y890000D02*
D03*
X1292300D02*
D03*
X732700Y535000D02*
D03*
X717300D02*
D03*
X1292300Y820000D02*
D03*
X1307700D02*
D03*
X1107300Y900000D02*
D03*
X1122700D02*
D03*
X732700Y475000D02*
D03*
X717300D02*
D03*
D38*
X515000Y787000D02*
D03*
Y773000D02*
D03*
D39*
X1290000Y841046D02*
D03*
Y868954D02*
D03*
X720000Y491046D02*
D03*
Y518954D02*
D03*
X995000Y868954D02*
D03*
Y841046D02*
D03*
D40*
X675700Y527400D02*
D03*
Y502000D02*
D03*
Y476600D02*
D03*
X584300D02*
D03*
Y502000D02*
D03*
Y527400D02*
D03*
X1250700Y880400D02*
D03*
Y855000D02*
D03*
Y829600D02*
D03*
X1159300D02*
D03*
Y855000D02*
D03*
Y880400D02*
D03*
D41*
X676900Y419550D02*
D03*
Y406850D02*
D03*
Y394150D02*
D03*
Y381450D02*
D03*
Y343350D02*
D03*
Y356050D02*
D03*
Y368750D02*
D03*
Y330650D02*
D03*
X583100D02*
D03*
Y368750D02*
D03*
Y356050D02*
D03*
Y343350D02*
D03*
Y381450D02*
D03*
Y394150D02*
D03*
Y406850D02*
D03*
X676900Y669550D02*
D03*
Y656850D02*
D03*
Y644150D02*
D03*
Y631450D02*
D03*
Y593350D02*
D03*
Y606050D02*
D03*
Y618750D02*
D03*
Y580650D02*
D03*
X583100D02*
D03*
Y618750D02*
D03*
Y606050D02*
D03*
Y593350D02*
D03*
Y631450D02*
D03*
Y644150D02*
D03*
Y656850D02*
D03*
D42*
Y419550D02*
D03*
Y669550D02*
D03*
M02*
