G04*
G04 #@! TF.GenerationSoftware,Altium Limited,Altium Designer,18.1.7 (191)*
G04*
G04 Layer_Color=8388736*
%FSLAX44Y44*%
%MOMM*%
G71*
G01*
G75*
%ADD40R,1.1200X0.9600*%
%ADD43R,1.4032X1.7032*%
%ADD44R,2.0032X1.8032*%
%ADD45R,2.8032X1.9032*%
%ADD46R,1.9032X1.1032*%
%ADD47R,2.7032X1.1032*%
%ADD48R,0.6532X1.2032*%
%ADD49R,1.9032X3.4032*%
%ADD50R,2.4032X2.0032*%
%ADD51R,0.8032X0.8032*%
%ADD52R,0.8032X0.8032*%
%ADD53R,1.7032X1.5032*%
%ADD54R,1.5032X1.7032*%
%ADD55R,2.0032X3.6032*%
%ADD56R,1.1832X1.1332*%
G04:AMPARAMS|DCode=57|XSize=0.5032mm|YSize=1.0032mm|CornerRadius=0.1766mm|HoleSize=0mm|Usage=FLASHONLY|Rotation=180.000|XOffset=0mm|YOffset=0mm|HoleType=Round|Shape=RoundedRectangle|*
%AMROUNDEDRECTD57*
21,1,0.5032,0.6500,0,0,180.0*
21,1,0.1500,1.0032,0,0,180.0*
1,1,0.3532,-0.0750,0.3250*
1,1,0.3532,0.0750,0.3250*
1,1,0.3532,0.0750,-0.3250*
1,1,0.3532,-0.0750,-0.3250*
%
%ADD57ROUNDEDRECTD57*%
G04:AMPARAMS|DCode=58|XSize=0.5032mm|YSize=1.0032mm|CornerRadius=0.1766mm|HoleSize=0mm|Usage=FLASHONLY|Rotation=90.000|XOffset=0mm|YOffset=0mm|HoleType=Round|Shape=RoundedRectangle|*
%AMROUNDEDRECTD58*
21,1,0.5032,0.6500,0,0,90.0*
21,1,0.1500,1.0032,0,0,90.0*
1,1,0.3532,0.3250,0.0750*
1,1,0.3532,0.3250,-0.0750*
1,1,0.3532,-0.3250,-0.0750*
1,1,0.3532,-0.3250,0.0750*
%
%ADD58ROUNDEDRECTD58*%
%ADD59R,1.4032X1.6032*%
%ADD60R,1.9400X0.7400*%
%ADD61R,0.8532X1.9032*%
%ADD62O,0.8532X1.9032*%
%ADD63R,1.1332X1.1832*%
%ADD64R,1.0032X1.0032*%
%ADD65R,1.7032X1.4032*%
%ADD66O,1.9032X0.8532*%
%ADD67R,1.9032X0.8532*%
%ADD68C,0.2032*%
%ADD69C,6.2032*%
%ADD70C,2.1032*%
%ADD71R,1.8032X1.8032*%
%ADD72C,1.7272*%
%ADD73C,2.0032*%
%ADD74C,1.7932*%
%ADD75O,2.8032X2.6032*%
%ADD76C,2.8032*%
%ADD77O,2.6032X2.8032*%
G36*
X795020Y351550D02*
X785770D01*
Y356550D01*
X795020D01*
Y351550D01*
D02*
G37*
G36*
Y338850D02*
X785770D01*
Y343850D01*
X795020D01*
Y338850D01*
D02*
G37*
G36*
Y326150D02*
X785770D01*
Y331150D01*
X795020D01*
Y326150D01*
D02*
G37*
G36*
Y313450D02*
X785770D01*
Y318450D01*
X795020D01*
Y313450D01*
D02*
G37*
G36*
X852275Y351050D02*
X844275D01*
Y344350D01*
X852275D01*
Y338350D01*
X844275D01*
Y331650D01*
X852275D01*
Y325650D01*
X844275D01*
Y318950D01*
X852275D01*
Y312950D01*
X807725D01*
Y357050D01*
X852275D01*
Y351050D01*
D02*
G37*
G36*
X795020Y436550D02*
X785770D01*
Y441550D01*
X795020D01*
Y436550D01*
D02*
G37*
G36*
Y423850D02*
X785770D01*
Y428850D01*
X795020D01*
Y423850D01*
D02*
G37*
G36*
Y411150D02*
X785770D01*
Y416150D01*
X795020D01*
Y411150D01*
D02*
G37*
G36*
Y398450D02*
X785770D01*
Y403450D01*
X795020D01*
Y398450D01*
D02*
G37*
G36*
X852275Y436050D02*
X844275D01*
Y429350D01*
X852275D01*
Y423350D01*
X844275D01*
Y416650D01*
X852275D01*
Y410650D01*
X844275D01*
Y403950D01*
X852275D01*
Y397950D01*
X807725D01*
Y442050D01*
X852275D01*
Y436050D01*
D02*
G37*
G36*
X795020Y601550D02*
X785770D01*
Y606550D01*
X795020D01*
Y601550D01*
D02*
G37*
G36*
Y588850D02*
X785770D01*
Y593850D01*
X795020D01*
Y588850D01*
D02*
G37*
G36*
Y576150D02*
X785770D01*
Y581150D01*
X795020D01*
Y576150D01*
D02*
G37*
G36*
Y563450D02*
X785770D01*
Y568450D01*
X795020D01*
Y563450D01*
D02*
G37*
G36*
X852275Y601050D02*
X844275D01*
Y594350D01*
X852275D01*
Y588350D01*
X844275D01*
Y581650D01*
X852275D01*
Y575650D01*
X844275D01*
Y568950D01*
X852275D01*
Y562950D01*
X807725D01*
Y607050D01*
X852275D01*
Y601050D01*
D02*
G37*
G36*
X795020Y686550D02*
X785770D01*
Y691550D01*
X795020D01*
Y686550D01*
D02*
G37*
G36*
Y673850D02*
X785770D01*
Y678850D01*
X795020D01*
Y673850D01*
D02*
G37*
G36*
Y661150D02*
X785770D01*
Y666150D01*
X795020D01*
Y661150D01*
D02*
G37*
G36*
Y648450D02*
X785770D01*
Y653450D01*
X795020D01*
Y648450D01*
D02*
G37*
G36*
X852275Y686050D02*
X844275D01*
Y679350D01*
X852275D01*
Y673350D01*
X844275D01*
Y666650D01*
X852275D01*
Y660650D01*
X844275D01*
Y653950D01*
X852275D01*
Y647950D01*
X807725D01*
Y692050D01*
X852275D01*
Y686050D01*
D02*
G37*
D40*
X675700Y527400D02*
D03*
Y502000D02*
D03*
Y476600D02*
D03*
X584300D02*
D03*
Y502000D02*
D03*
Y527400D02*
D03*
X1250700Y880400D02*
D03*
Y855000D02*
D03*
Y829600D02*
D03*
X1159300D02*
D03*
Y855000D02*
D03*
Y880400D02*
D03*
D43*
X1976046Y690000D02*
D03*
X2003954D02*
D03*
X1976046Y665000D02*
D03*
X2003954D02*
D03*
X1976046Y640000D02*
D03*
X2003954D02*
D03*
X2011046Y315000D02*
D03*
X2038954D02*
D03*
X1931046D02*
D03*
X1958954D02*
D03*
X2011046Y290000D02*
D03*
X2038954D02*
D03*
X1931046D02*
D03*
X1958954D02*
D03*
X1931046Y265000D02*
D03*
X1958954D02*
D03*
X2011046D02*
D03*
X2038954D02*
D03*
D44*
X1520000Y581000D02*
D03*
Y609000D02*
D03*
Y401000D02*
D03*
Y429000D02*
D03*
X1495000Y431000D02*
D03*
Y459000D02*
D03*
X1520000Y461000D02*
D03*
Y489000D02*
D03*
X1495000Y491000D02*
D03*
Y519000D02*
D03*
X1520000Y521000D02*
D03*
Y549000D02*
D03*
X1495000Y551000D02*
D03*
Y579000D02*
D03*
D45*
X1338000Y855000D02*
D03*
X772000Y505000D02*
D03*
X883000Y855000D02*
D03*
D46*
X1312000Y840000D02*
D03*
Y871000D02*
D03*
X746000Y490000D02*
D03*
Y521000D02*
D03*
X970500Y878000D02*
D03*
Y855000D02*
D03*
Y832000D02*
D03*
X857000Y840000D02*
D03*
Y871000D02*
D03*
D47*
X1316000Y855000D02*
D03*
X750000Y505000D02*
D03*
X861000Y855000D02*
D03*
D48*
X1270000Y864000D02*
D03*
Y886000D02*
D03*
Y846000D02*
D03*
Y824000D02*
D03*
X695000Y508000D02*
D03*
Y530000D02*
D03*
Y496000D02*
D03*
Y474000D02*
D03*
X750000Y426000D02*
D03*
Y404000D02*
D03*
Y591000D02*
D03*
Y569000D02*
D03*
Y676000D02*
D03*
Y654000D02*
D03*
Y341000D02*
D03*
Y319000D02*
D03*
D49*
X909500Y855000D02*
D03*
D50*
X1739000Y905000D02*
D03*
X1701000D02*
D03*
X717275Y450250D02*
D03*
X679275D02*
D03*
X719000Y705000D02*
D03*
X681000D02*
D03*
D51*
X765000Y314920D02*
D03*
Y325080D02*
D03*
Y404920D02*
D03*
Y415080D02*
D03*
Y564920D02*
D03*
Y575080D02*
D03*
Y649920D02*
D03*
Y660080D02*
D03*
X735000Y755080D02*
D03*
Y744920D02*
D03*
X745000Y755080D02*
D03*
Y744920D02*
D03*
X1666000Y770080D02*
D03*
Y759920D02*
D03*
X700000Y849920D02*
D03*
Y860080D02*
D03*
D52*
X730080Y340000D02*
D03*
X719920D02*
D03*
X725080Y425000D02*
D03*
X714920D02*
D03*
X730080Y590000D02*
D03*
X719920D02*
D03*
X730080Y675000D02*
D03*
X719920D02*
D03*
X1300080Y765000D02*
D03*
X1289920D02*
D03*
Y785000D02*
D03*
X1300080D02*
D03*
X1686080Y770000D02*
D03*
X1675920D02*
D03*
X1686080Y760000D02*
D03*
X1675920D02*
D03*
X1499920Y745000D02*
D03*
X1510080D02*
D03*
X1500000Y755000D02*
D03*
X1510160D02*
D03*
X1124920Y755000D02*
D03*
X1135080D02*
D03*
X1124920Y745000D02*
D03*
X1135080D02*
D03*
X1676080Y745000D02*
D03*
X1665920D02*
D03*
Y785000D02*
D03*
X1676080D02*
D03*
X1300080Y745000D02*
D03*
X1289920D02*
D03*
Y755000D02*
D03*
X1300080D02*
D03*
X910080Y745000D02*
D03*
X899920D02*
D03*
X910080Y755000D02*
D03*
X899920D02*
D03*
Y785000D02*
D03*
X910080D02*
D03*
Y765000D02*
D03*
X899920D02*
D03*
Y775000D02*
D03*
X910080D02*
D03*
X1289920Y775000D02*
D03*
X1300080D02*
D03*
X529920Y775000D02*
D03*
X540080D02*
D03*
X529920Y805000D02*
D03*
X540080D02*
D03*
X595080Y890000D02*
D03*
X584920D02*
D03*
X559920D02*
D03*
X570080D02*
D03*
X529920Y785000D02*
D03*
X540080D02*
D03*
X589920Y745000D02*
D03*
X600080D02*
D03*
X654920D02*
D03*
X665080D02*
D03*
X540080Y890000D02*
D03*
X529920D02*
D03*
Y830000D02*
D03*
X540080D02*
D03*
X560080Y330000D02*
D03*
X549920D02*
D03*
X560080Y340000D02*
D03*
X549920D02*
D03*
X560080Y440000D02*
D03*
X549920D02*
D03*
X560080Y385000D02*
D03*
X549920D02*
D03*
X560080Y410000D02*
D03*
X549920D02*
D03*
Y420000D02*
D03*
X560080D02*
D03*
X549920Y355000D02*
D03*
X560080D02*
D03*
Y365000D02*
D03*
X549920D02*
D03*
X560080Y590000D02*
D03*
X549920D02*
D03*
X560080Y580000D02*
D03*
X549920D02*
D03*
Y605000D02*
D03*
X560080D02*
D03*
X549920Y615000D02*
D03*
X560080D02*
D03*
Y670000D02*
D03*
X549920D02*
D03*
Y660000D02*
D03*
X560080D02*
D03*
Y635000D02*
D03*
X549920D02*
D03*
Y395000D02*
D03*
X560080D02*
D03*
X549920Y645000D02*
D03*
X560080D02*
D03*
D53*
X1385000Y744500D02*
D03*
Y725500D02*
D03*
X990000Y744500D02*
D03*
Y725500D02*
D03*
D54*
X1365500Y770000D02*
D03*
X1384500D02*
D03*
X1325500D02*
D03*
X1344500D02*
D03*
X970500Y770000D02*
D03*
X989500D02*
D03*
X930500Y770000D02*
D03*
X949500D02*
D03*
D55*
X1781000Y665000D02*
D03*
X1729000D02*
D03*
D56*
X700000Y602700D02*
D03*
Y587300D02*
D03*
Y352700D02*
D03*
Y337300D02*
D03*
Y412700D02*
D03*
Y397300D02*
D03*
Y662700D02*
D03*
Y647300D02*
D03*
X740775Y459400D02*
D03*
Y444000D02*
D03*
Y709400D02*
D03*
Y694000D02*
D03*
X510000Y495065D02*
D03*
Y510465D02*
D03*
D57*
X665000Y874500D02*
D03*
X660000D02*
D03*
X655000D02*
D03*
X650000D02*
D03*
X645000D02*
D03*
X640000D02*
D03*
X635000D02*
D03*
X630000D02*
D03*
X625000D02*
D03*
X620000D02*
D03*
X615000D02*
D03*
X610000D02*
D03*
X605000D02*
D03*
X600000D02*
D03*
X595000D02*
D03*
X590000D02*
D03*
X665000Y760500D02*
D03*
X660000D02*
D03*
X655000D02*
D03*
X650000D02*
D03*
X645000D02*
D03*
X640000D02*
D03*
X635000D02*
D03*
X630000D02*
D03*
X625000D02*
D03*
X620000D02*
D03*
X615000D02*
D03*
X610000D02*
D03*
X605000D02*
D03*
X600000D02*
D03*
X595000D02*
D03*
X590000D02*
D03*
D58*
X684500Y780000D02*
D03*
Y785000D02*
D03*
Y790000D02*
D03*
Y795000D02*
D03*
Y800000D02*
D03*
Y805000D02*
D03*
Y810000D02*
D03*
Y815000D02*
D03*
Y820000D02*
D03*
Y825000D02*
D03*
Y830000D02*
D03*
Y835000D02*
D03*
Y840000D02*
D03*
Y845000D02*
D03*
Y850000D02*
D03*
Y855000D02*
D03*
X570080Y780000D02*
D03*
Y785000D02*
D03*
Y790000D02*
D03*
Y795000D02*
D03*
Y800000D02*
D03*
Y805000D02*
D03*
Y810000D02*
D03*
Y815000D02*
D03*
Y820000D02*
D03*
Y825000D02*
D03*
Y830000D02*
D03*
Y835000D02*
D03*
Y840000D02*
D03*
Y845000D02*
D03*
Y850000D02*
D03*
Y855000D02*
D03*
D59*
X548000Y849000D02*
D03*
X531000D02*
D03*
Y871000D02*
D03*
X548000D02*
D03*
D60*
X874500Y758650D02*
D03*
Y745950D02*
D03*
Y771350D02*
D03*
Y784050D02*
D03*
X765500Y758650D02*
D03*
Y745950D02*
D03*
Y771350D02*
D03*
Y784050D02*
D03*
X1639500Y758650D02*
D03*
Y745950D02*
D03*
Y771350D02*
D03*
Y784050D02*
D03*
X1530500Y758650D02*
D03*
Y745950D02*
D03*
Y771350D02*
D03*
Y784050D02*
D03*
X1264500Y758650D02*
D03*
Y745950D02*
D03*
Y771350D02*
D03*
Y784050D02*
D03*
X1155500Y758650D02*
D03*
Y745950D02*
D03*
Y771350D02*
D03*
Y784050D02*
D03*
D61*
X1134000Y883000D02*
D03*
X566500Y530385D02*
D03*
D62*
X1121300Y883000D02*
D03*
X1108600D02*
D03*
X1095900D02*
D03*
X1134000Y827000D02*
D03*
X1121300D02*
D03*
X1108600D02*
D03*
X1095900D02*
D03*
X553800Y530385D02*
D03*
X541100D02*
D03*
X528400D02*
D03*
X566500Y474385D02*
D03*
X553800D02*
D03*
X541100D02*
D03*
X528400D02*
D03*
D63*
X867700Y890000D02*
D03*
X852300D02*
D03*
X852300Y820000D02*
D03*
X867700D02*
D03*
X717300Y325000D02*
D03*
X732700D02*
D03*
X717300Y410000D02*
D03*
X732700D02*
D03*
X717300Y575000D02*
D03*
X732700D02*
D03*
X717300Y660000D02*
D03*
X732700D02*
D03*
X1307700Y890000D02*
D03*
X1292300D02*
D03*
X732700Y535000D02*
D03*
X717300D02*
D03*
X1292300Y820000D02*
D03*
X1307700D02*
D03*
X1107300Y900000D02*
D03*
X1122700D02*
D03*
X732700Y475000D02*
D03*
X717300D02*
D03*
D64*
X515000Y787000D02*
D03*
Y773000D02*
D03*
D65*
X1290000Y841046D02*
D03*
Y868954D02*
D03*
X720000Y491046D02*
D03*
Y518954D02*
D03*
X995000Y868954D02*
D03*
Y841046D02*
D03*
D66*
X676900Y419550D02*
D03*
Y406850D02*
D03*
Y394150D02*
D03*
Y381450D02*
D03*
Y343350D02*
D03*
Y356050D02*
D03*
Y368750D02*
D03*
Y330650D02*
D03*
X583100D02*
D03*
Y368750D02*
D03*
Y356050D02*
D03*
Y343350D02*
D03*
Y381450D02*
D03*
Y394150D02*
D03*
Y406850D02*
D03*
X676900Y669550D02*
D03*
Y656850D02*
D03*
Y644150D02*
D03*
Y631450D02*
D03*
Y593350D02*
D03*
Y606050D02*
D03*
Y618750D02*
D03*
Y580650D02*
D03*
X583100D02*
D03*
Y618750D02*
D03*
Y606050D02*
D03*
Y593350D02*
D03*
Y631450D02*
D03*
Y644150D02*
D03*
Y656850D02*
D03*
D67*
Y419550D02*
D03*
Y669550D02*
D03*
D68*
X1389000Y278000D02*
D03*
X1415000Y625000D02*
D03*
X1354000Y503000D02*
D03*
D69*
X1265000Y110000D02*
D03*
X1075000D02*
D03*
X1455000D02*
D03*
X1645000D02*
D03*
X2070000Y200000D02*
D03*
X1985000D02*
D03*
X1900000D02*
D03*
D70*
X1360000Y152500D02*
D03*
Y227500D02*
D03*
X1740000Y152500D02*
D03*
Y227500D02*
D03*
X1550000Y152500D02*
D03*
Y227500D02*
D03*
X1170000Y152500D02*
D03*
Y227500D02*
D03*
X980000Y152500D02*
D03*
Y227500D02*
D03*
X1355000Y480000D02*
D03*
Y400000D02*
D03*
Y525000D02*
D03*
Y605000D02*
D03*
X1390000Y300000D02*
D03*
Y380000D02*
D03*
Y705000D02*
D03*
Y625000D02*
D03*
D71*
X810800Y902700D02*
D03*
X785400D02*
D03*
X760000D02*
D03*
X734600D02*
D03*
X709200D02*
D03*
Y877300D02*
D03*
X734600D02*
D03*
X760000D02*
D03*
X785400D02*
D03*
X810800D02*
D03*
D72*
X1975000Y475000D02*
D03*
D73*
X827500Y190000D02*
D03*
X552500D02*
D03*
X1580000Y632500D02*
D03*
Y357500D02*
D03*
D74*
X1055000Y332920D02*
D03*
Y465000D02*
D03*
Y670000D02*
D03*
Y537920D02*
D03*
X1683960Y490000D02*
D03*
X1816040D02*
D03*
D75*
X1783000Y902000D02*
D03*
X2077000Y850000D02*
D03*
D76*
X1783000Y748000D02*
D03*
X2077000Y800000D02*
D03*
X2072500Y377500D02*
D03*
Y592500D02*
D03*
D77*
X1897500Y377500D02*
D03*
Y592500D02*
D03*
M02*
