M48
;Layer_Color=9474304
;FILE_FORMAT=4:4
METRIC,LZ
;TYPE=PLATED
T1F00S00C0.2540
T2F00S00C0.7620
T3F00S00C0.9000
T4F00S00C1.0600
T5F00S00C1.1000
T6F00S00C1.2000
T7F00S00C1.3000
T8F00S00C1.6000
T9F00S00C4.2200
;TYPE=NON_PLATED
%
T01
X00525Y00385
X00555Y0037525
X0057Y0037025
X006Y003675
X006Y0038025
X006Y0039525
X007Y0036
X006863Y0032155
X006783Y0032155
X006703Y0032155
X00775Y0033
X0078Y00335
X0078Y00345
X00775Y0034
X00785Y0034
X00785Y0033
X00785Y0035
X00785Y0036
X0078Y00355
X00775Y0035
X00775Y0036
X00815Y0037
X0082Y00365
X00825Y0037
X0083Y00365
X00835Y0037
X00845Y0037
X0084Y00365
X018475Y0034327
X018Y00655
X018Y00665
X0179Y00665
X0179Y00655
X0179Y00675
X018Y00675
X0172Y00675
X0172Y00665
X0172Y00655
X0171Y00655
X0171Y00665
X0171Y00675
X01685Y00745
X01685Y00785
X01495Y00785
X015Y0078
X01495Y00775
X015Y0077
X01485Y0076
X01145Y0076
X01145Y0077
X01125Y0077
X01115Y0076
X01135Y00785
X0091Y0072
X00875Y0071
X0086Y0072
X00845Y00625
X00835Y00625
X00825Y00625
X00815Y00625
X0082Y00615
X0083Y00615
X0084Y00615
X00785Y00615
X00785Y00605
X0078Y0061
X00775Y00605
X00775Y00615
X0078Y006
X00775Y00595
X0078Y0059
X00775Y00585
X00785Y00585
X00785Y00595
X00785Y00665
X00775Y00665
X00775Y00675
X0078Y0067
X00785Y00675
X00785Y00685
X0078Y0068
X00775Y00685
X00715Y0069
X0072Y0076
X00735Y00765
X00755Y0077
X00755Y00785
X007Y0078
X00695Y0077
X00695Y0079
X006525Y007875
X00675Y0076
X0068Y00755
X0064Y0075
X0064Y00735
X00625Y0073
X0062Y0075
X0059Y00735
X00565Y0074
X0056Y00745
X00565Y0075
X0054Y0075
X00535Y0074
X0052Y00745
X00525Y0073
X0056Y0073
X00545Y00765
X00585Y00775
X006Y0064525
X006Y00631
X006Y0062
X0054Y00635
X0053Y00645
X00535Y0067
X0055Y0057
X0055385Y00512765
X0055385Y00490265
X0051Y00485
X0051Y00521265
X0054Y0044
X00575Y0044
X005725Y004525
X0052Y0041
X0066Y00495
X0066Y0051
X0071Y0049
X00735Y00505
X0074Y0048
X0074Y0047
X0078Y0044
X00775Y00435
X00775Y00425
X00775Y00415
X0078Y0042
X0078Y0043
X00785Y00425
X00785Y00435
X00785Y00415
X00745Y00535
X00686275Y005715
X00678275Y005715
X00670275Y005715
X0069Y00605
X007Y0084
X00735Y0083
X0078Y0083
X006575Y008525
X00625Y00815
X00595Y0084
X0056Y00825
X0053Y0082
X0053Y00795
X0055Y008
X00505Y008
X0055Y0089
X00575Y00875
X0061Y0089
X00825Y0089
X00825Y0091
X0085Y0088
X0086Y0088
X0084Y0084
X0082Y0084
X00815Y00845
X00805Y00835
X00815Y00825
X0082Y0082
X00885Y00815
X0097Y00815
X0098Y00815
X00995Y00815
X00995Y00835
X0098Y00835
X0097Y00835
X00995Y00895
X011Y0087
X0112Y00875
X0112Y00855
X01685Y00915
X01695Y00915
X01705Y00915
T02
X01975Y00475
T03
X007092Y008773
X007092Y009027
X007346Y009027
X0076Y009027
X007854Y009027
X007854Y008773
X0076Y008773
X007346Y008773
X008108Y008773
X008108Y009027
T04
X01055Y0033292
X0168396Y0049
X0181604Y0049
X01055Y00465
X01055Y0053792
X01055Y0067
T05
X005525Y0019
X008275Y0019
X0139Y003
X0139Y0038
X0158Y003575
X01355Y004
X01355Y0048
X01355Y00525
X01355Y00605
X0139Y00625
X0139Y00705
X0158Y006325
T06
X0098Y001525
X0098Y002275
X0117Y002275
X0117Y001525
X0136Y001525
X0136Y002275
X0155Y002275
X0155Y001525
X0174Y001525
X0174Y002275
T07
X01783Y00748
X01783Y00902
X02077Y0085
X02077Y008
T08
X018975Y003775
X020725Y003775
X020725Y005925
X018975Y005925
T09
X01075Y0011
X01265Y0011
X01455Y0011
X01645Y0011
X019Y002
X01985Y002
X0207Y002
M30
