G04*
G04 #@! TF.GenerationSoftware,Altium Limited,Altium Designer,18.1.7 (191)*
G04*
G04 Layer_Physical_Order=1*
G04 Layer_Color=255*
%FSLAX44Y44*%
%MOMM*%
G71*
G01*
G75*
%ADD11C,0.2000*%
%ADD12C,0.2500*%
%ADD13C,0.2540*%
%ADD16C,0.3000*%
%ADD17R,1.2000X1.5000*%
%ADD18R,1.8000X1.6000*%
%ADD19R,2.6000X1.7000*%
%ADD20R,1.7000X0.9000*%
%ADD21R,2.5000X0.9000*%
%ADD22R,0.4500X1.0000*%
%ADD23R,1.7000X3.2000*%
%ADD24R,2.2000X1.8000*%
%ADD25R,0.6000X0.6000*%
%ADD26R,0.6000X0.6000*%
%ADD27R,1.5000X1.3000*%
%ADD28R,1.3000X1.5000*%
%ADD29R,1.8000X3.4000*%
%ADD30R,0.9800X0.9300*%
G04:AMPARAMS|DCode=31|XSize=0.3mm|YSize=0.8mm|CornerRadius=0.075mm|HoleSize=0mm|Usage=FLASHONLY|Rotation=180.000|XOffset=0mm|YOffset=0mm|HoleType=Round|Shape=RoundedRectangle|*
%AMROUNDEDRECTD31*
21,1,0.3000,0.6500,0,0,180.0*
21,1,0.1500,0.8000,0,0,180.0*
1,1,0.1500,-0.0750,0.3250*
1,1,0.1500,0.0750,0.3250*
1,1,0.1500,0.0750,-0.3250*
1,1,0.1500,-0.0750,-0.3250*
%
%ADD31ROUNDEDRECTD31*%
G04:AMPARAMS|DCode=32|XSize=0.3mm|YSize=0.8mm|CornerRadius=0.075mm|HoleSize=0mm|Usage=FLASHONLY|Rotation=90.000|XOffset=0mm|YOffset=0mm|HoleType=Round|Shape=RoundedRectangle|*
%AMROUNDEDRECTD32*
21,1,0.3000,0.6500,0,0,90.0*
21,1,0.1500,0.8000,0,0,90.0*
1,1,0.1500,0.3250,0.0750*
1,1,0.1500,0.3250,-0.0750*
1,1,0.1500,-0.3250,-0.0750*
1,1,0.1500,-0.3250,0.0750*
%
%ADD32ROUNDEDRECTD32*%
%ADD33R,1.2000X1.4000*%
%ADD34R,1.8000X0.6000*%
%ADD35R,0.6500X1.7000*%
%ADD36O,0.6500X1.7000*%
%ADD37R,0.9300X0.9800*%
%ADD38R,0.8000X0.8000*%
%ADD39R,1.5000X1.2000*%
%ADD40R,1.1200X0.9600*%
%ADD41O,1.7000X0.6500*%
%ADD42R,1.7000X0.6500*%
%ADD78R,4.5550X4.5100*%
%ADD79R,1.0250X0.6000*%
%ADD80C,0.4000*%
%ADD81C,0.5000*%
%ADD82C,1.0000*%
%ADD83C,0.8000*%
%ADD84R,9.0000X5.5000*%
%ADD85R,8.0000X11.0000*%
%ADD86R,9.5000X1.0000*%
%ADD87R,7.0000X22.5000*%
%ADD88R,2.0000X3.0000*%
%ADD89R,2.0000X1.5000*%
%ADD90R,3.0000X2.5000*%
%ADD91R,8.0000X8.5000*%
%ADD92R,4.0000X3.0000*%
%ADD93R,3.0000X9.0000*%
%ADD94R,6.0000X6.0000*%
%ADD95R,3.5000X6.0000*%
%ADD96R,25.5000X6.0000*%
%ADD97R,13.0000X28.5000*%
%ADD98R,17.0000X4.0000*%
%ADD99R,18.0000X4.5000*%
%ADD100R,2.5000X3.0000*%
%ADD101R,2.5000X3.5000*%
%ADD102R,2.5000X4.0000*%
%ADD103R,1.5000X4.0000*%
%ADD104R,2.0000X4.5000*%
%ADD105R,1.5000X4.5000*%
%ADD106R,4.0000X3.0000*%
%ADD107R,4.0000X6.5000*%
%ADD108C,6.0000*%
%ADD109C,1.9000*%
%ADD110R,1.6000X1.6000*%
%ADD111C,1.5240*%
%ADD112C,1.8000*%
%ADD113C,1.5900*%
%ADD114O,2.6000X2.4000*%
%ADD115C,2.6000*%
%ADD116O,2.4000X2.6000*%
%ADD117C,0.5080*%
G36*
X801300Y912200D02*
Y893200D01*
X810000D01*
X810000Y886800D01*
X801300D01*
Y867800D01*
X810000D01*
X810000Y765000D01*
X777666D01*
X776000Y766850D01*
X776000Y767540D01*
Y775850D01*
X755000D01*
Y773609D01*
X755000Y773609D01*
X753619Y773335D01*
X752448Y772552D01*
X751665Y771381D01*
X751391Y770000D01*
X751665Y768619D01*
X752386Y767540D01*
X752279Y766992D01*
X751539Y765000D01*
X698461Y765000D01*
X697721Y766992D01*
X697614Y767540D01*
X698335Y768619D01*
X698609Y770000D01*
X698335Y771381D01*
X697552Y772552D01*
X696381Y773335D01*
X695000Y773609D01*
X693619Y773335D01*
X692448Y772552D01*
X691665Y771381D01*
X691391Y770000D01*
X691665Y768619D01*
X692386Y767540D01*
X692279Y766992D01*
X691539Y765000D01*
X682549D01*
X682355Y765975D01*
X681802Y766802D01*
X675049Y773556D01*
Y815865D01*
X676859Y816819D01*
X678956Y815352D01*
Y814250D01*
X679131Y813372D01*
X679564Y812500D01*
X679131Y811628D01*
X678956Y810750D01*
Y809250D01*
X679131Y808372D01*
X679628Y807628D01*
Y807372D01*
X679131Y806628D01*
X678956Y805750D01*
Y804250D01*
X679131Y803372D01*
X679628Y802628D01*
Y802372D01*
X679131Y801628D01*
X678956Y800750D01*
Y799250D01*
X679131Y798372D01*
X679564Y797500D01*
X679131Y796628D01*
X678956Y795750D01*
Y794250D01*
X679131Y793372D01*
X679628Y792628D01*
Y792372D01*
X679131Y791628D01*
X678956Y790750D01*
Y789250D01*
X679131Y788372D01*
X679564Y787500D01*
X679131Y786628D01*
X678956Y785750D01*
Y784250D01*
X679131Y783372D01*
X679628Y782628D01*
Y782372D01*
X679131Y781628D01*
X678956Y780750D01*
Y779250D01*
X679131Y778372D01*
X679628Y777628D01*
X680372Y777131D01*
X681250Y776956D01*
X687750D01*
X688628Y777131D01*
X688958Y777351D01*
X697593D01*
X698619Y776665D01*
X700000Y776391D01*
X701381Y776665D01*
X702552Y777448D01*
X703335Y778619D01*
X703609Y780000D01*
X703335Y781381D01*
X702552Y782552D01*
X701381Y783335D01*
X700000Y783609D01*
X698619Y783335D01*
X697448Y782552D01*
X697379Y782449D01*
X692930D01*
X690861Y784485D01*
X690879Y785571D01*
X693187Y786954D01*
X693619Y786665D01*
X695000Y786391D01*
X696381Y786665D01*
X697552Y787448D01*
X698335Y788619D01*
X698609Y790000D01*
X698335Y791381D01*
X697552Y792552D01*
X696381Y793335D01*
X695000Y793609D01*
X693619Y793335D01*
X692448Y792552D01*
X690370Y793986D01*
X690044Y794250D01*
Y795750D01*
X689870Y796628D01*
X689436Y797500D01*
X689870Y798372D01*
X690044Y799250D01*
Y800750D01*
X689870Y801628D01*
X689372Y802372D01*
Y802628D01*
X689870Y803372D01*
X690044Y804250D01*
Y805750D01*
X689870Y806628D01*
X689372Y807372D01*
Y807628D01*
X689870Y808372D01*
X690044Y809250D01*
Y810750D01*
X689870Y811628D01*
X689436Y812500D01*
X689870Y813372D01*
X690044Y814250D01*
Y815750D01*
X689870Y816628D01*
X689372Y817372D01*
Y817628D01*
X689870Y818372D01*
X690044Y819250D01*
Y820750D01*
X689870Y821628D01*
X689372Y822372D01*
Y822628D01*
X689870Y823372D01*
X690044Y824250D01*
Y825750D01*
X689870Y826628D01*
X689372Y827372D01*
Y827628D01*
X689870Y828372D01*
X690044Y829250D01*
Y830750D01*
X689870Y831628D01*
X689372Y832372D01*
Y832628D01*
X689870Y833372D01*
X690044Y834250D01*
Y835750D01*
X689964Y836151D01*
X690612Y837335D01*
X692586Y837993D01*
X693285Y838139D01*
X694025Y837645D01*
X695000Y837451D01*
X697446D01*
X697448Y837448D01*
X698619Y836665D01*
X700000Y836391D01*
X701381Y836665D01*
X702552Y837448D01*
X703335Y838619D01*
X703609Y840000D01*
X703335Y841381D01*
X703028Y841840D01*
X703947Y844144D01*
X704153Y844380D01*
X705540D01*
Y848650D01*
X700000D01*
Y851190D01*
X705540D01*
Y853471D01*
X705540Y855460D01*
X704500Y857569D01*
Y864580D01*
X695500D01*
Y862629D01*
X685080D01*
X684678Y862549D01*
X670000D01*
X669025Y862355D01*
X668198Y861802D01*
X667645Y860975D01*
X667451Y860000D01*
Y836056D01*
X658198Y826802D01*
X657645Y825975D01*
X657451Y825000D01*
Y777549D01*
X602549D01*
Y785000D01*
X602355Y785975D01*
X601802Y786802D01*
X591802Y796802D01*
X590975Y797355D01*
X590000Y797549D01*
X587549D01*
Y848944D01*
X591802Y853198D01*
X592355Y854025D01*
X592549Y855000D01*
Y865644D01*
X593730Y867207D01*
Y874500D01*
Y881001D01*
X592966Y880849D01*
X591878Y880122D01*
X591722Y879888D01*
X591628Y879870D01*
X590750Y880044D01*
X589250D01*
X588372Y879870D01*
X587628Y879372D01*
X587131Y878628D01*
X586956Y877750D01*
Y877049D01*
X577888D01*
X577552Y877552D01*
X577549Y877554D01*
Y887451D01*
X580420D01*
Y885500D01*
X587431D01*
X589540Y884460D01*
X591529Y884460D01*
X593810D01*
Y890000D01*
Y895540D01*
X591529D01*
X589540Y895540D01*
X587431Y894500D01*
X580420D01*
Y892549D01*
X575000D01*
X574580Y894500D01*
X567569D01*
X565460Y895540D01*
X563471Y895540D01*
X561190D01*
Y890000D01*
Y884460D01*
X563471D01*
X565460Y884460D01*
X567569Y885500D01*
X572451D01*
Y877554D01*
X572448Y877552D01*
X571665Y876381D01*
X571391Y875000D01*
X571665Y873619D01*
X572448Y872448D01*
X573619Y871665D01*
X575000Y871391D01*
X576381Y871665D01*
X576809Y871951D01*
X586956D01*
Y871250D01*
X587131Y870372D01*
X587451Y869893D01*
Y856056D01*
X585000Y853605D01*
X581802Y856802D01*
X580975Y857355D01*
X580000Y857549D01*
X574688D01*
X574208Y857869D01*
X573330Y858044D01*
X566830D01*
X565952Y857869D01*
X565208Y857372D01*
X565089Y857194D01*
X562549Y857789D01*
Y860000D01*
X562355Y860975D01*
X561802Y861802D01*
X561802D01*
X560975Y862355D01*
X560000Y862549D01*
X555500D01*
Y879500D01*
X540500D01*
X540500Y879500D01*
X538500D01*
Y879500D01*
X537960Y879500D01*
X532469D01*
Y883328D01*
X534540Y884460D01*
X536529Y884460D01*
X538810D01*
Y890000D01*
Y895540D01*
X536529D01*
X534540Y895540D01*
X532431Y894500D01*
X525420D01*
Y885500D01*
X527371D01*
Y879500D01*
X523500D01*
Y862500D01*
X533895D01*
X536355Y860040D01*
X535303Y857500D01*
X523500D01*
Y840500D01*
X537960D01*
X538500Y840500D01*
X540500D01*
X541040Y840500D01*
X547451D01*
Y832549D01*
X544580D01*
Y834500D01*
X537569D01*
X535460Y835540D01*
X533471Y835540D01*
X531190D01*
Y830000D01*
Y824460D01*
X533471D01*
X535460Y824460D01*
X537569Y825500D01*
X544580D01*
Y827451D01*
X554558D01*
X556296Y825126D01*
X556306Y824911D01*
X548198Y816802D01*
X547645Y815975D01*
X547451Y815000D01*
Y811056D01*
X546803Y810407D01*
X544580Y809500D01*
Y809500D01*
X544580Y809500D01*
X537569D01*
X535460Y810540D01*
X533471Y810540D01*
X531190D01*
Y805000D01*
Y799460D01*
X533471D01*
X535460Y799460D01*
X537569Y800500D01*
X543900D01*
X544863Y800307D01*
X546560Y799148D01*
X546665Y798619D01*
X547448Y797448D01*
X548619Y796665D01*
X550000Y796391D01*
X551381Y796665D01*
X552552Y797448D01*
X553335Y798619D01*
X553609Y800000D01*
X553609Y800004D01*
X561056Y807451D01*
X562438D01*
X564536Y805750D01*
Y804250D01*
X564711Y803372D01*
X564692Y803278D01*
X564458Y803122D01*
X563731Y802034D01*
X563579Y801270D01*
X570080D01*
X576581D01*
X576429Y802034D01*
X575702Y803122D01*
X575468Y803278D01*
X575449Y803372D01*
X575624Y804250D01*
Y805750D01*
X575449Y806628D01*
X574952Y807372D01*
Y807628D01*
X575449Y808372D01*
X575624Y809250D01*
Y810750D01*
X575449Y811628D01*
X574952Y812372D01*
Y812628D01*
X575449Y813372D01*
X575624Y814250D01*
Y815750D01*
X575449Y816628D01*
X574952Y817372D01*
Y817628D01*
X575449Y818372D01*
X575624Y819250D01*
Y820750D01*
X575449Y821628D01*
X574952Y822372D01*
Y822628D01*
X575449Y823372D01*
X575624Y824250D01*
Y825750D01*
X575449Y826628D01*
X574952Y827372D01*
Y827628D01*
X575449Y828372D01*
X575624Y829250D01*
Y830750D01*
X575449Y831628D01*
X574952Y832372D01*
Y832628D01*
X575449Y833372D01*
X575624Y834250D01*
Y835750D01*
X575449Y836628D01*
X574952Y837372D01*
Y837628D01*
X575449Y838372D01*
X575624Y839250D01*
Y840750D01*
X575449Y841628D01*
X574952Y842372D01*
Y842628D01*
X575449Y843372D01*
X575624Y844250D01*
Y845750D01*
X575449Y846628D01*
X575016Y847500D01*
X575449Y848372D01*
X575624Y849250D01*
Y850750D01*
X577722Y852451D01*
X578944D01*
X582451Y848944D01*
Y797549D01*
X578936D01*
X577373Y798730D01*
X570080D01*
X562787D01*
X561224Y797549D01*
X560000D01*
X559025Y797355D01*
X558198Y796802D01*
X548944Y787549D01*
X544580D01*
Y789500D01*
X537569D01*
X535460Y790540D01*
X533471Y790540D01*
X531190D01*
Y785000D01*
X529920D01*
Y783730D01*
X524380D01*
Y779969D01*
X523586Y779577D01*
X521476Y779888D01*
X521357Y780089D01*
X521540Y780460D01*
X521540Y780609D01*
Y785730D01*
X508460D01*
Y780609D01*
X508460Y780460D01*
X509500Y778351D01*
X509500Y777920D01*
Y767500D01*
X520500D01*
Y772451D01*
X525420D01*
Y770500D01*
X533040D01*
X534420Y770500D01*
X536960Y770500D01*
X542477D01*
X543058Y767960D01*
X542448Y767552D01*
X541665Y766381D01*
X541391Y765000D01*
X541665Y763619D01*
X542448Y762448D01*
X543619Y761665D01*
X545000Y761391D01*
X546381Y761665D01*
X547552Y762448D01*
X548335Y763619D01*
X548609Y765000D01*
X548609Y765004D01*
X561056Y777451D01*
X565473D01*
X565952Y777131D01*
X566830Y776956D01*
X573330D01*
X574208Y777131D01*
X574952Y777628D01*
X575449Y778372D01*
X575624Y779250D01*
Y780750D01*
X575449Y781628D01*
X574952Y782372D01*
Y782628D01*
X575449Y783372D01*
X575624Y784250D01*
Y785750D01*
X575449Y786628D01*
X574952Y787372D01*
Y787628D01*
X575449Y788372D01*
X575624Y789250D01*
Y790750D01*
X577722Y792451D01*
X588944D01*
X597451Y783944D01*
Y775000D01*
X597451Y775000D01*
X597451Y775000D01*
Y769356D01*
X596270Y767793D01*
Y760500D01*
X593730D01*
Y767001D01*
X592966Y766849D01*
X591878Y766122D01*
X591722Y765888D01*
X591628Y765870D01*
X590750Y766044D01*
X589250D01*
X588372Y765870D01*
X587628Y765372D01*
X587131Y764628D01*
X586956Y763750D01*
Y757250D01*
X587131Y756372D01*
X587628Y755628D01*
X588372Y755131D01*
X589250Y754956D01*
X590750D01*
X591628Y755131D01*
X591722Y755112D01*
X591878Y754878D01*
X592966Y754151D01*
X594250Y753896D01*
X595745Y751776D01*
X595808Y751380D01*
X595102Y750540D01*
X593471Y750540D01*
X591190D01*
Y745000D01*
Y739460D01*
X593471D01*
X595460Y739460D01*
X597569Y740500D01*
X604580D01*
Y749500D01*
X602549D01*
Y752858D01*
X604250Y754956D01*
X605750D01*
X606628Y755131D01*
X607500Y755564D01*
X608372Y755131D01*
X609250Y754956D01*
X610000D01*
X610000Y300000D01*
X500000Y300000D01*
Y490922D01*
X503600D01*
Y488915D01*
X505922D01*
Y485000D01*
X506232Y483439D01*
X507116Y482116D01*
X508439Y481232D01*
X510000Y480922D01*
X511561Y481232D01*
X512884Y482116D01*
X513768Y483439D01*
X514078Y485000D01*
Y488915D01*
X516400D01*
Y490937D01*
X537072D01*
Y482156D01*
X536626Y481488D01*
X536257Y479635D01*
Y469135D01*
X536626Y467282D01*
X537675Y465710D01*
X539247Y464661D01*
X541100Y464292D01*
X542953Y464661D01*
X544524Y465710D01*
X545574Y467282D01*
X545625Y467536D01*
X548215D01*
X548346Y466876D01*
X549626Y464961D01*
X551541Y463681D01*
X552530Y463484D01*
Y474385D01*
Y485286D01*
X551541Y485089D01*
X549626Y483809D01*
X548346Y481894D01*
X548215Y481234D01*
X545625D01*
X545574Y481488D01*
X545228Y482006D01*
Y497922D01*
X577200D01*
Y495700D01*
X591400D01*
Y508300D01*
X577200D01*
Y506078D01*
X545228D01*
Y522764D01*
X545574Y523282D01*
X545625Y523536D01*
X548215D01*
X548346Y522876D01*
X549626Y520961D01*
X551541Y519681D01*
X552530Y519484D01*
Y530385D01*
Y541286D01*
X551541Y541089D01*
X549626Y539809D01*
X548346Y537894D01*
X548215Y537234D01*
X545625D01*
X545574Y537488D01*
X544524Y539060D01*
X542953Y540109D01*
X541100Y540478D01*
X539247Y540109D01*
X537675Y539060D01*
X536626Y537488D01*
X536575Y537234D01*
X533985D01*
X533854Y537894D01*
X532574Y539809D01*
X530659Y541089D01*
X529670Y541286D01*
Y530385D01*
Y519484D01*
X530659Y519681D01*
X532574Y520961D01*
X533854Y522876D01*
X533985Y523536D01*
X536575D01*
X536626Y523282D01*
X537072Y522614D01*
Y501615D01*
X537072Y501615D01*
X537072Y501615D01*
Y499093D01*
X518260D01*
X517108Y500377D01*
X516631Y501633D01*
X517440Y503275D01*
X517440Y503324D01*
Y509195D01*
X510000D01*
Y510465D01*
D01*
Y509195D01*
X502560D01*
Y503324D01*
X502560Y503275D01*
X503377Y501618D01*
X502917Y500397D01*
X502540Y499972D01*
X500000Y500937D01*
X500000Y699290D01*
X500768Y700439D01*
X501078Y702000D01*
X500768Y703561D01*
X500000Y704710D01*
Y796539D01*
X501992Y797279D01*
X502540Y797386D01*
X503619Y796665D01*
X505000Y796391D01*
X506381Y796665D01*
X507552Y797448D01*
X508335Y798619D01*
X508609Y800000D01*
X508335Y801381D01*
X507552Y802552D01*
X506381Y803335D01*
X505000Y803609D01*
X504996Y803609D01*
X502549Y806056D01*
Y912451D01*
X697264D01*
X699700Y912200D01*
X699700Y909911D01*
Y895089D01*
X699700Y893200D01*
X697430Y892549D01*
X665000D01*
X664025Y892355D01*
X663198Y891802D01*
X662645Y890975D01*
X662451Y890000D01*
Y882142D01*
X660750Y880044D01*
X659250D01*
X658372Y879870D01*
X657628Y879372D01*
X657372D01*
X656628Y879870D01*
X655750Y880044D01*
X654250D01*
X653372Y879870D01*
X652500Y879436D01*
X651628Y879870D01*
X650750Y880044D01*
X649250D01*
X648372Y879870D01*
X647500Y879436D01*
X646628Y879870D01*
X645750Y880044D01*
X644250D01*
X643372Y879870D01*
X642500Y879436D01*
X641628Y879870D01*
X640750Y880044D01*
X639250D01*
X638372Y879870D01*
X637628Y879372D01*
X637372D01*
X636628Y879870D01*
X635750Y880044D01*
X634250D01*
X633372Y879870D01*
X632628Y879372D01*
X632372D01*
X631628Y879870D01*
X630750Y880044D01*
X629250D01*
X628372Y879870D01*
X627500Y879436D01*
X626628Y879870D01*
X625750Y880044D01*
X624250D01*
X623372Y879870D01*
X622500Y879436D01*
X621628Y879870D01*
X620750Y880044D01*
X619250D01*
X618372Y879870D01*
X617500Y879436D01*
X616628Y879870D01*
X615750Y880044D01*
X614250D01*
X613372Y879870D01*
X613278Y879888D01*
X613122Y880122D01*
X612034Y880849D01*
X611270Y881001D01*
Y874500D01*
Y867999D01*
X612034Y868151D01*
X613122Y868878D01*
X613278Y869112D01*
X613372Y869131D01*
X614250Y868956D01*
X615750D01*
X616628Y869131D01*
X617500Y869564D01*
X618372Y869131D01*
X619250Y868956D01*
X620750D01*
X621628Y869131D01*
X622500Y869564D01*
X623372Y869131D01*
X624250Y868956D01*
X625750D01*
X626628Y869131D01*
X627500Y869564D01*
X628372Y869131D01*
X629250Y868956D01*
X630750D01*
X631628Y869131D01*
X632372Y869628D01*
X632628D01*
X633372Y869131D01*
X634250Y868956D01*
X635750D01*
X636628Y869131D01*
X637372Y869628D01*
X637628D01*
X638372Y869131D01*
X639250Y868956D01*
X640750D01*
X641628Y869131D01*
X642500Y869564D01*
X643372Y869131D01*
X644250Y868956D01*
X645750D01*
X646628Y869131D01*
X647500Y869564D01*
X648372Y869131D01*
X649250Y868956D01*
X650750D01*
X651628Y869131D01*
X652500Y869564D01*
X653372Y869131D01*
X654250Y868956D01*
X655750D01*
X656628Y869131D01*
X657372Y869628D01*
X657628D01*
X658372Y869131D01*
X659250Y868956D01*
X660750D01*
X661628Y869131D01*
X662372Y869628D01*
X662628D01*
X663372Y869131D01*
X664250Y868956D01*
X665750D01*
X666628Y869131D01*
X667372Y869628D01*
X667869Y870372D01*
X668044Y871250D01*
Y877750D01*
X667869Y878628D01*
X667549Y879108D01*
Y887451D01*
X697430D01*
X699700Y886800D01*
X699700Y884911D01*
Y867800D01*
X718700D01*
Y884911D01*
X718700Y886800D01*
X720970Y887451D01*
X722830D01*
X725100Y886800D01*
X725100Y884911D01*
Y867800D01*
X744100D01*
Y884911D01*
X744100Y886800D01*
X746370Y887451D01*
X748230D01*
X750108Y886912D01*
X750500Y884961D01*
Y867800D01*
X769500D01*
Y886800D01*
X753997D01*
X752945Y889340D01*
X756805Y893200D01*
X769500D01*
Y912200D01*
X771936Y912451D01*
X774900D01*
Y903970D01*
X785400D01*
X795900D01*
Y912451D01*
X798864D01*
X801300Y912200D01*
D02*
G37*
G36*
X1285110Y891270D02*
X1292300D01*
X1299490D01*
Y895504D01*
X1300280Y896074D01*
X1301550Y895466D01*
Y883600D01*
X1304131D01*
Y877000D01*
X1302000D01*
Y865000D01*
X1321190D01*
X1322000Y865000D01*
X1322460Y863921D01*
Y862040D01*
X1317270D01*
Y855000D01*
Y847960D01*
X1321682D01*
X1322018Y847262D01*
X1321305Y846000D01*
X1302000D01*
Y843059D01*
X1299000D01*
Y848546D01*
X1281000D01*
Y843059D01*
X1277267D01*
X1273750Y846576D01*
Y852500D01*
X1273059D01*
Y857500D01*
X1273750D01*
Y870500D01*
X1266250D01*
Y857500D01*
X1266941D01*
Y852500D01*
X1266250D01*
Y839500D01*
X1272174D01*
X1273837Y837837D01*
X1273837Y837837D01*
X1274829Y837174D01*
X1276000Y836941D01*
X1276000Y836941D01*
X1281000D01*
Y833546D01*
X1289241D01*
Y826400D01*
X1286150D01*
Y813600D01*
X1298450D01*
Y826400D01*
X1295359D01*
Y833546D01*
X1299000D01*
Y836941D01*
X1302000D01*
Y834000D01*
X1322000D01*
Y842880D01*
X1322460Y843960D01*
X1323270Y843960D01*
X1336730D01*
Y855000D01*
X1338000D01*
Y856270D01*
X1353540D01*
Y865161D01*
X1353540Y866040D01*
X1354648Y866431D01*
X1638522D01*
X1680000Y824953D01*
X1680000Y789500D01*
X1672015Y789500D01*
X1671460Y790540D01*
X1671025Y790540D01*
Y790540D01*
X1667190D01*
Y785000D01*
Y779460D01*
X1671025D01*
X1671025Y779460D01*
X1671460Y779460D01*
X1672015Y780500D01*
X1672730Y780500D01*
X1680000D01*
X1680000Y774500D01*
X1671420D01*
Y774500D01*
X1670500Y774580D01*
Y774580D01*
X1670183Y774580D01*
X1661500D01*
Y772549D01*
X1650000D01*
Y775850D01*
X1629000D01*
Y766850D01*
X1650000D01*
Y767451D01*
X1661500D01*
Y765580D01*
X1661500D01*
Y764420D01*
X1661500D01*
Y762549D01*
X1650000D01*
Y763150D01*
X1629000D01*
Y754150D01*
X1650000D01*
Y757451D01*
X1661500D01*
Y755420D01*
X1670183D01*
X1670500Y755420D01*
Y755420D01*
X1671420Y755500D01*
Y755500D01*
X1680000D01*
Y750540D01*
X1677350D01*
Y745000D01*
Y739460D01*
X1680000D01*
X1680000Y728569D01*
X1643569D01*
Y741450D01*
X1650000D01*
Y742451D01*
X1661420D01*
Y740500D01*
X1670420D01*
X1670540Y739460D01*
X1674810D01*
Y745000D01*
Y750540D01*
X1670540D01*
X1670420Y749500D01*
X1661420D01*
Y748680D01*
X1661000Y747549D01*
X1655000D01*
X1655000Y747549D01*
X1650000D01*
Y750450D01*
X1629000D01*
Y741450D01*
X1636431D01*
Y728569D01*
X1613569D01*
Y805000D01*
X1613297Y806366D01*
X1612523Y807523D01*
X1602523Y817523D01*
X1601366Y818297D01*
X1600000Y818569D01*
X1335000D01*
X1333634Y818297D01*
X1332477Y817523D01*
X1331703Y816366D01*
X1331431Y815000D01*
Y785000D01*
X1331703Y783634D01*
X1332451Y782515D01*
Y779000D01*
X1317500D01*
Y777549D01*
X1304580D01*
Y779500D01*
X1304580Y779500D01*
Y780500D01*
X1304580D01*
X1304580Y780770D01*
Y789500D01*
X1295580D01*
X1295460Y790540D01*
X1291190D01*
Y785000D01*
X1289920D01*
Y783730D01*
X1284380D01*
Y779460D01*
X1285420D01*
Y777549D01*
X1276786D01*
X1276040Y778510D01*
X1276040Y778819D01*
Y782780D01*
X1265770D01*
Y778510D01*
X1273641D01*
X1273833Y777931D01*
X1273852Y777240D01*
X1273198Y776802D01*
X1272245Y775850D01*
X1254000D01*
Y766850D01*
X1275000D01*
Y771395D01*
X1276056Y772451D01*
X1285420D01*
Y770500D01*
X1285420Y770500D01*
Y769500D01*
X1285420D01*
X1285420Y769230D01*
Y767549D01*
X1285000D01*
X1284025Y767355D01*
X1283198Y766802D01*
X1277594Y761199D01*
X1275000D01*
Y763150D01*
X1254000D01*
Y754150D01*
X1275000D01*
Y756101D01*
X1278650D01*
X1279625Y756295D01*
X1280452Y756848D01*
X1283110Y759505D01*
X1284380Y758979D01*
Y756270D01*
X1289920D01*
Y753730D01*
X1284380D01*
Y749460D01*
X1283479Y748569D01*
X1275000D01*
Y750450D01*
X1254000D01*
Y741450D01*
X1264906D01*
X1265000Y741431D01*
X1285420D01*
Y740500D01*
X1294420D01*
X1294540Y739460D01*
X1298810D01*
Y745000D01*
X1300080D01*
Y746270D01*
X1305620D01*
Y750540D01*
X1304580D01*
Y752451D01*
X1331431D01*
Y728569D01*
X1235000D01*
X1235000Y728569D01*
X1233569D01*
Y896431D01*
X1285110D01*
Y891270D01*
D02*
G37*
G36*
X678956Y855750D02*
Y854250D01*
X679131Y853372D01*
X679112Y853278D01*
X678878Y853122D01*
X678151Y852034D01*
X677999Y851270D01*
X684500D01*
X691001D01*
X690849Y852034D01*
X690122Y853122D01*
X689888Y853278D01*
X689870Y853372D01*
X690044Y854250D01*
Y854515D01*
X692289Y856462D01*
X694051Y856208D01*
X694460Y855460D01*
X694460Y853471D01*
Y849801D01*
X691920Y848498D01*
X691597Y848730D01*
X684500D01*
X677999D01*
X678151Y847966D01*
X678878Y846878D01*
X679112Y846722D01*
X679131Y846628D01*
X678956Y845750D01*
Y844250D01*
X679131Y843372D01*
X679628Y842628D01*
Y842372D01*
X679131Y841628D01*
X678956Y840750D01*
Y839250D01*
X679131Y838372D01*
X679564Y837500D01*
X679131Y836628D01*
X678956Y835750D01*
Y834250D01*
X679131Y833372D01*
X679628Y832628D01*
Y832372D01*
X679131Y831628D01*
X678956Y830750D01*
Y829250D01*
X676858Y827549D01*
X671000D01*
X670025Y827355D01*
X669198Y826802D01*
X666492Y824097D01*
X663955Y824453D01*
X663578Y824702D01*
X663506Y824902D01*
X671802Y833198D01*
X672355Y834025D01*
X672549Y835000D01*
Y857451D01*
X676858D01*
X678956Y855750D01*
D02*
G37*
G36*
X1317500Y770247D02*
X1317451Y770000D01*
X1317500Y769754D01*
Y761000D01*
X1332451D01*
Y757549D01*
X1304580D01*
Y759460D01*
X1305620D01*
Y763730D01*
X1300080D01*
Y766270D01*
X1305620D01*
Y770540D01*
X1304580D01*
Y772451D01*
X1317500D01*
Y770247D01*
D02*
G37*
G36*
X682270Y693460D02*
X690275D01*
Y671401D01*
X687735Y671151D01*
X687604Y671809D01*
X686324Y673724D01*
X684409Y675004D01*
X682150Y675453D01*
X678170D01*
Y669550D01*
X675630D01*
Y675453D01*
X671650D01*
X669391Y675004D01*
X668815Y674619D01*
X666275Y675977D01*
Y691411D01*
X667460Y693460D01*
X679730D01*
Y705000D01*
X682270D01*
Y693460D01*
D02*
G37*
G36*
X678170Y574747D02*
X682150D01*
X684409Y575196D01*
X686324Y576476D01*
X687604Y578391D01*
X687735Y579049D01*
X690275Y578799D01*
Y567500D01*
X666275D01*
Y574223D01*
X668815Y575581D01*
X669391Y575196D01*
X671650Y574747D01*
X675630D01*
Y580650D01*
X678170D01*
Y574747D01*
D02*
G37*
G36*
Y324747D02*
X682150D01*
X684409Y325196D01*
X686324Y326476D01*
X687604Y328391D01*
X687735Y329049D01*
X690275Y328799D01*
Y317500D01*
X666275D01*
Y324223D01*
X668815Y325581D01*
X669391Y325196D01*
X671650Y324747D01*
X675630D01*
Y330650D01*
X678170D01*
Y324747D01*
D02*
G37*
G36*
X1285000Y560000D02*
Y300000D01*
X1285000D01*
Y265000D01*
X1775000Y265000D01*
X1775000Y125000D01*
X1760000Y110000D01*
X1697784Y110000D01*
X1697762Y110111D01*
X1697745Y110110D01*
X1697431Y114903D01*
X1696081Y121687D01*
X1693858Y128237D01*
X1690798Y134442D01*
X1686955Y140193D01*
X1682394Y145394D01*
X1677193Y149955D01*
X1671442Y153798D01*
X1665237Y156858D01*
X1658687Y159081D01*
X1651903Y160431D01*
X1645000Y160883D01*
X1638097Y160431D01*
X1631313Y159081D01*
X1624763Y156858D01*
X1618558Y153798D01*
X1612807Y149955D01*
X1607606Y145394D01*
X1603045Y140193D01*
X1599202Y134442D01*
X1596142Y128237D01*
X1593919Y121687D01*
X1592569Y114903D01*
X1592255Y110110D01*
X1592238Y110111D01*
X1592216Y110000D01*
X1487601Y110000D01*
X1487601Y110000D01*
X1487199Y115100D01*
X1486005Y120074D01*
X1484047Y124800D01*
X1481374Y129162D01*
X1478052Y133052D01*
X1474162Y136374D01*
X1469800Y139047D01*
X1465074Y141005D01*
X1460100Y142199D01*
X1456270Y142501D01*
Y110000D01*
X1453730D01*
Y142501D01*
X1449900Y142199D01*
X1444926Y141005D01*
X1440200Y139047D01*
X1435838Y136374D01*
X1431948Y133052D01*
X1428626Y129162D01*
X1425953Y124800D01*
X1423995Y120074D01*
X1422801Y115100D01*
X1422399Y110000D01*
X1422399Y110000D01*
X1297601Y110000D01*
X1297601Y110000D01*
X1297199Y115100D01*
X1296005Y120074D01*
X1294047Y124800D01*
X1291374Y129162D01*
X1288052Y133052D01*
X1284162Y136374D01*
X1279800Y139047D01*
X1275074Y141005D01*
X1270100Y142199D01*
X1266270Y142501D01*
Y110000D01*
X1263730D01*
Y142501D01*
X1259900Y142199D01*
X1254926Y141005D01*
X1250200Y139047D01*
X1245838Y136374D01*
X1241948Y133052D01*
X1238626Y129162D01*
X1235953Y124800D01*
X1233995Y120074D01*
X1232801Y115100D01*
X1232400Y110000D01*
X1232399Y110000D01*
X1127784Y110000D01*
X1127762Y110111D01*
X1127745Y110110D01*
X1127431Y114903D01*
X1126081Y121687D01*
X1123858Y128237D01*
X1120798Y134442D01*
X1116955Y140193D01*
X1112394Y145394D01*
X1107193Y149955D01*
X1101442Y153798D01*
X1095238Y156858D01*
X1088687Y159081D01*
X1081903Y160431D01*
X1075000Y160883D01*
X1068097Y160431D01*
X1061313Y159081D01*
X1054762Y156858D01*
X1048558Y153798D01*
X1042807Y149955D01*
X1037606Y145394D01*
X1033045Y140193D01*
X1029202Y134442D01*
X1026142Y128237D01*
X1023919Y121687D01*
X1022569Y114903D01*
X1022255Y110110D01*
X1022238Y110111D01*
X1022216Y110000D01*
X775000Y110000D01*
X775000Y285000D01*
X1095000D01*
Y400000D01*
X870000D01*
Y625000D01*
X1220000D01*
X1285000Y560000D01*
D02*
G37*
%LPC*%
G36*
X795900Y901430D02*
X786670D01*
Y892200D01*
X795900D01*
Y901430D01*
D02*
G37*
G36*
X784130D02*
X774900D01*
Y892200D01*
X784130D01*
Y901430D01*
D02*
G37*
G36*
X596350Y895540D02*
Y891270D01*
X600620D01*
Y895540D01*
X596350D01*
D02*
G37*
G36*
X541350D02*
Y891270D01*
X545620D01*
Y895540D01*
X541350D01*
D02*
G37*
G36*
X558650D02*
X554380D01*
Y891270D01*
X558650D01*
Y895540D01*
D02*
G37*
G36*
X600620Y888730D02*
X596350D01*
Y884460D01*
X600620D01*
Y888730D01*
D02*
G37*
G36*
X545620D02*
X541350D01*
Y884460D01*
X545620D01*
Y888730D01*
D02*
G37*
G36*
X558650D02*
X554380D01*
Y884460D01*
X558650D01*
Y888730D01*
D02*
G37*
G36*
X608730Y881001D02*
X607966Y880849D01*
X606878Y880122D01*
X606722Y879888D01*
X606628Y879870D01*
X605750Y880044D01*
X604250D01*
X603372Y879870D01*
X602500Y879436D01*
X601628Y879870D01*
X600750Y880044D01*
X599250D01*
X598372Y879870D01*
X598278Y879888D01*
X598122Y880122D01*
X597034Y880849D01*
X596270Y881001D01*
Y874500D01*
Y867999D01*
X597034Y868151D01*
X598122Y868878D01*
X598278Y869112D01*
X598372Y869131D01*
X599250Y868956D01*
X600750D01*
X601628Y869131D01*
X602500Y869564D01*
X603372Y869131D01*
X604250Y868956D01*
X605750D01*
X606628Y869131D01*
X606722Y869112D01*
X606878Y868878D01*
X607966Y868151D01*
X608730Y867999D01*
Y874500D01*
Y881001D01*
D02*
G37*
G36*
X795900Y887800D02*
X786670D01*
Y878570D01*
X795900D01*
Y887800D01*
D02*
G37*
G36*
X784130D02*
X774900D01*
Y878570D01*
X784130D01*
Y887800D01*
D02*
G37*
G36*
X795900Y876030D02*
X786670D01*
Y866800D01*
X795900D01*
Y876030D01*
D02*
G37*
G36*
X784130D02*
X774900D01*
Y866800D01*
X784130D01*
Y876030D01*
D02*
G37*
G36*
X780000Y833609D02*
X778619Y833335D01*
X777448Y832552D01*
X777446Y832549D01*
X737554D01*
X737552Y832552D01*
X736381Y833335D01*
X735000Y833609D01*
X733619Y833335D01*
X732448Y832552D01*
X731665Y831381D01*
X731391Y830000D01*
X731665Y828619D01*
X732448Y827448D01*
X733619Y826665D01*
X735000Y826391D01*
X736381Y826665D01*
X737552Y827448D01*
X737554Y827451D01*
X777446D01*
X777448Y827448D01*
X778619Y826665D01*
X780000Y826391D01*
X781381Y826665D01*
X782552Y827448D01*
X783335Y828619D01*
X783609Y830000D01*
X783335Y831381D01*
X782552Y832552D01*
X781381Y833335D01*
X780000Y833609D01*
D02*
G37*
G36*
X528650Y835540D02*
X524380D01*
Y831270D01*
X528650D01*
Y835540D01*
D02*
G37*
G36*
Y828730D02*
X524380D01*
Y824460D01*
X528650D01*
Y828730D01*
D02*
G37*
G36*
X528650Y810540D02*
X524380D01*
Y806270D01*
X528650D01*
Y810540D01*
D02*
G37*
G36*
Y803730D02*
X524380D01*
Y799460D01*
X528650D01*
Y803730D01*
D02*
G37*
G36*
X521540Y793540D02*
X516270D01*
Y788270D01*
X521540D01*
Y793540D01*
D02*
G37*
G36*
X513730D02*
X508460D01*
Y788270D01*
X513730D01*
Y793540D01*
D02*
G37*
G36*
X528650Y790540D02*
X524380D01*
Y786270D01*
X528650D01*
Y790540D01*
D02*
G37*
G36*
X777040Y789590D02*
X766770D01*
Y785320D01*
X777040D01*
Y789590D01*
D02*
G37*
G36*
X764230D02*
X753960D01*
Y785320D01*
X764230D01*
Y789590D01*
D02*
G37*
G36*
X777040Y782780D02*
X766770D01*
Y778510D01*
X777040D01*
Y782780D01*
D02*
G37*
G36*
X764230D02*
X753960D01*
Y778510D01*
X764230D01*
Y782780D01*
D02*
G37*
G36*
X565000Y753609D02*
X563619Y753335D01*
X562448Y752552D01*
X562446Y752549D01*
X542554D01*
X542552Y752552D01*
X541381Y753335D01*
X540000Y753609D01*
X538619Y753335D01*
X537448Y752552D01*
X536665Y751381D01*
X536391Y750000D01*
X534558Y747549D01*
X522554D01*
X522552Y747552D01*
X521381Y748335D01*
X520000Y748609D01*
X518619Y748335D01*
X517448Y747552D01*
X516665Y746381D01*
X516391Y745000D01*
X516665Y743619D01*
X517448Y742448D01*
X518619Y741665D01*
X520000Y741391D01*
X521381Y741665D01*
X522552Y742448D01*
X522554Y742451D01*
X529558D01*
X531391Y740000D01*
X531665Y738619D01*
X532448Y737448D01*
X533619Y736665D01*
X535000Y736391D01*
X536381Y736665D01*
X537552Y737448D01*
X537554Y737451D01*
X562446D01*
X562448Y737448D01*
X563619Y736665D01*
X565000Y736391D01*
X566381Y736665D01*
X567552Y737448D01*
X568335Y738619D01*
X568609Y740000D01*
X568335Y741381D01*
X567552Y742552D01*
X566381Y743335D01*
X565670Y745000D01*
X566381Y746665D01*
X567552Y747448D01*
X568335Y748619D01*
X568609Y750000D01*
X568335Y751381D01*
X567552Y752552D01*
X566381Y753335D01*
X565000Y753609D01*
D02*
G37*
G36*
X588650Y750540D02*
X584380D01*
Y746270D01*
X588650D01*
Y750540D01*
D02*
G37*
G36*
Y743730D02*
X584380D01*
Y739460D01*
X588650D01*
Y743730D01*
D02*
G37*
G36*
X560000Y733609D02*
X558619Y733335D01*
X557448Y732552D01*
X557446Y732549D01*
X527554D01*
X527552Y732552D01*
X526381Y733335D01*
X525000Y733609D01*
X523619Y733335D01*
X522448Y732552D01*
X521665Y731381D01*
X521391Y730000D01*
X521665Y728619D01*
X522448Y727448D01*
X523619Y726665D01*
X525000Y726391D01*
X526381Y726665D01*
X527552Y727448D01*
X527554Y727451D01*
X557446D01*
X557448Y727448D01*
X558619Y726665D01*
X560000Y726391D01*
X561381Y726665D01*
X562552Y727448D01*
X563335Y728619D01*
X563609Y730000D01*
X563335Y731381D01*
X562552Y732552D01*
X561381Y733335D01*
X560000Y733609D01*
D02*
G37*
G36*
X555580Y674500D02*
X553040Y674500D01*
X545420D01*
Y672549D01*
X537554D01*
X537552Y672552D01*
X536381Y673335D01*
X535000Y673609D01*
X533619Y673335D01*
X532448Y672552D01*
X531665Y671381D01*
X531391Y670000D01*
X531665Y668619D01*
X532448Y667448D01*
X533619Y666665D01*
X535000Y666391D01*
X536381Y666665D01*
X537552Y667448D01*
X537554Y667451D01*
X542862D01*
X544380Y665540D01*
Y661270D01*
X549920D01*
Y660000D01*
X551190D01*
Y654460D01*
X553471D01*
X555460Y654460D01*
X557569Y655500D01*
X564580D01*
Y664500D01*
X564580D01*
Y664911D01*
X566002Y667451D01*
X573100D01*
Y664800D01*
X593100D01*
Y674300D01*
X573100D01*
Y672549D01*
X564580D01*
Y674500D01*
X555580Y674500D01*
D02*
G37*
G36*
X548650Y658730D02*
X544380D01*
Y654460D01*
X548650D01*
Y658730D01*
D02*
G37*
G36*
X588350Y661693D02*
X577850D01*
X575997Y661324D01*
X574426Y660275D01*
X573376Y658703D01*
X573007Y656850D01*
X573046Y656651D01*
X566803Y650407D01*
X564580Y649500D01*
Y649500D01*
X564580Y649500D01*
X557569D01*
X555460Y650540D01*
X553471Y650540D01*
X551190D01*
Y645000D01*
X549920D01*
Y643730D01*
X544380D01*
Y639460D01*
X544221Y639260D01*
X542552Y637552D01*
X541381Y638335D01*
X540000Y638609D01*
X538619Y638335D01*
X537448Y637552D01*
X536665Y636381D01*
X536391Y635000D01*
X536665Y633619D01*
X537448Y632448D01*
X538619Y631665D01*
X540000Y631391D01*
X541381Y631665D01*
X542552Y632448D01*
X542554Y632451D01*
X545420D01*
Y630500D01*
X553040D01*
X554420Y630500D01*
X556960Y630500D01*
X560693D01*
X562051Y627960D01*
X561776Y627549D01*
X555000D01*
X554025Y627355D01*
X553198Y626802D01*
X548118Y621722D01*
X547565Y620896D01*
X547371Y619920D01*
Y619500D01*
X545420D01*
Y610540D01*
X544380D01*
Y606270D01*
X549920D01*
Y605000D01*
X551190D01*
Y599460D01*
X555460D01*
X555580Y600500D01*
X563383D01*
X564435Y597960D01*
X560975Y594500D01*
X557569D01*
X555460Y595540D01*
X553471Y595540D01*
X551190D01*
Y590000D01*
X549920D01*
Y588730D01*
X544380D01*
Y584460D01*
Y581270D01*
X549920D01*
Y580000D01*
X551190D01*
Y574460D01*
X553471D01*
X555460Y574460D01*
X557569Y575500D01*
X564580D01*
Y584500D01*
X564580D01*
Y585500D01*
X564580D01*
Y590895D01*
X575555Y601870D01*
X575997Y601576D01*
X577850Y601207D01*
X588350D01*
X590203Y601576D01*
X591774Y602625D01*
X592824Y604197D01*
X593193Y606050D01*
X592824Y607903D01*
X591774Y609474D01*
X590203Y610524D01*
X588350Y610893D01*
X580347D01*
X579046Y613433D01*
X579387Y613907D01*
X588350D01*
X590203Y614276D01*
X591774Y615325D01*
X592824Y616897D01*
X592935Y617451D01*
X597446D01*
X597448Y617448D01*
X598619Y616665D01*
X600000Y616391D01*
X601381Y616665D01*
X602552Y617448D01*
X603335Y618619D01*
X603609Y620000D01*
X603335Y621381D01*
X602552Y622552D01*
X601381Y623335D01*
X600000Y623609D01*
X598619Y623335D01*
X597448Y622552D01*
X597446Y622549D01*
X591214D01*
X590203Y623224D01*
X589949Y623275D01*
Y625865D01*
X590609Y625996D01*
X592524Y627276D01*
X593804Y629191D01*
X594001Y630180D01*
X583100D01*
Y632720D01*
X594001D01*
X593804Y633709D01*
X592524Y635624D01*
X590609Y636904D01*
X589949Y637035D01*
Y639625D01*
X590203Y639676D01*
X591774Y640725D01*
X592824Y642297D01*
X592905Y642701D01*
X597112D01*
X597248Y642498D01*
X598075Y641945D01*
X599050Y641751D01*
X599248Y641790D01*
X600000Y641641D01*
X601381Y641915D01*
X602552Y642698D01*
X603335Y643869D01*
X603609Y645250D01*
X603335Y646631D01*
X602552Y647802D01*
X601381Y648585D01*
X600000Y648859D01*
X598619Y648585D01*
X597448Y647802D01*
X597446Y647799D01*
X591439D01*
X590203Y648624D01*
X588350Y648993D01*
X577850D01*
X575997Y648624D01*
X575468Y648271D01*
X573849Y650244D01*
X575987Y652382D01*
X575997Y652376D01*
X577850Y652007D01*
X588350D01*
X590203Y652376D01*
X591774Y653425D01*
X592824Y654997D01*
X593193Y656850D01*
X592824Y658703D01*
X591774Y660275D01*
X590203Y661324D01*
X588350Y661693D01*
D02*
G37*
G36*
X548650Y650540D02*
X544380D01*
Y646270D01*
X548650D01*
Y650540D01*
D02*
G37*
G36*
X548650Y603730D02*
X544380D01*
Y599460D01*
X548650D01*
Y603730D01*
D02*
G37*
G36*
X548650Y595540D02*
X544380D01*
Y591270D01*
X548650D01*
Y595540D01*
D02*
G37*
G36*
X588350Y598193D02*
X577850D01*
X575997Y597824D01*
X574426Y596774D01*
X573376Y595203D01*
X573007Y593350D01*
X573376Y591497D01*
X574426Y589925D01*
X575997Y588876D01*
X577850Y588507D01*
X588350D01*
X590203Y588876D01*
X591774Y589925D01*
X592824Y591497D01*
X593193Y593350D01*
X592824Y595203D01*
X591774Y596774D01*
X590203Y597824D01*
X588350Y598193D01*
D02*
G37*
G36*
Y585493D02*
X577850D01*
X575997Y585124D01*
X574426Y584075D01*
X573376Y582503D01*
X573007Y580650D01*
X573376Y578797D01*
X574426Y577225D01*
X575997Y576176D01*
X577850Y575807D01*
X588350D01*
X590203Y576176D01*
X591774Y577225D01*
X592824Y578797D01*
X593193Y580650D01*
X592824Y582503D01*
X591774Y584075D01*
X590203Y585124D01*
X588350Y585493D01*
D02*
G37*
G36*
X548650Y578730D02*
X544380D01*
Y574460D01*
X548650D01*
Y578730D01*
D02*
G37*
G36*
X527130Y541286D02*
X526141Y541089D01*
X524226Y539809D01*
X522946Y537894D01*
X522496Y535635D01*
Y531655D01*
X527130D01*
Y541286D01*
D02*
G37*
G36*
X555070Y541286D02*
Y530385D01*
Y519484D01*
X556059Y519681D01*
X557974Y520961D01*
X559254Y522876D01*
X561750Y522404D01*
Y520385D01*
X571250D01*
Y523322D01*
X577200D01*
Y521100D01*
X591400D01*
Y533700D01*
X577200D01*
Y531478D01*
X571250D01*
Y540385D01*
X561750D01*
Y538366D01*
X559254Y537894D01*
X557974Y539809D01*
X556059Y541089D01*
X555070Y541286D01*
D02*
G37*
G36*
X527130Y529115D02*
X522496D01*
Y525135D01*
X522946Y522876D01*
X524226Y520961D01*
X526141Y519681D01*
X527130Y519484D01*
Y529115D01*
D02*
G37*
G36*
X517440Y517655D02*
X511270D01*
Y511735D01*
X517440D01*
Y517655D01*
D02*
G37*
G36*
X508730D02*
X502560D01*
Y511735D01*
X508730D01*
Y517655D01*
D02*
G37*
G36*
X555070Y485286D02*
Y474385D01*
Y463484D01*
X556059Y463681D01*
X557974Y464961D01*
X559254Y466876D01*
X559385Y467536D01*
X561975D01*
X562026Y467282D01*
X563075Y465710D01*
X564647Y464661D01*
X566500Y464292D01*
X568353Y464661D01*
X569925Y465710D01*
X570974Y467282D01*
X571343Y469135D01*
Y472522D01*
X577200D01*
Y470300D01*
X591400D01*
Y482900D01*
X577200D01*
Y480678D01*
X571135D01*
X570974Y481488D01*
X569925Y483060D01*
X568353Y484109D01*
X566500Y484478D01*
X564647Y484109D01*
X563075Y483060D01*
X562026Y481488D01*
X561975Y481234D01*
X559385D01*
X559254Y481894D01*
X557974Y483809D01*
X556059Y485089D01*
X555070Y485286D01*
D02*
G37*
G36*
X528400Y484478D02*
X526547Y484109D01*
X524975Y483060D01*
X523926Y481488D01*
X523557Y479635D01*
Y469135D01*
X523926Y467282D01*
X524975Y465710D01*
X526547Y464661D01*
X528400Y464292D01*
X530253Y464661D01*
X531824Y465710D01*
X532874Y467282D01*
X533243Y469135D01*
Y479635D01*
X532874Y481488D01*
X531824Y483060D01*
X530253Y484109D01*
X528400Y484478D01*
D02*
G37*
G36*
X555580Y444500D02*
X553040Y444500D01*
X545420D01*
Y442549D01*
X542554D01*
X542552Y442552D01*
X541381Y443335D01*
X540000Y443609D01*
X538619Y443335D01*
X537448Y442552D01*
X536665Y441381D01*
X536391Y440000D01*
X536665Y438619D01*
X537448Y437448D01*
X538619Y436665D01*
X540000Y436391D01*
X541381Y436665D01*
X542552Y437448D01*
X542554Y437451D01*
X545420D01*
Y435500D01*
X553040D01*
X554420Y435500D01*
X556960Y435500D01*
X564580D01*
Y437196D01*
X572825D01*
X573619Y436665D01*
X575000Y436391D01*
X576381Y436665D01*
X577552Y437448D01*
X578335Y438619D01*
X578609Y440000D01*
X578335Y441381D01*
X577552Y442552D01*
X576381Y443335D01*
X575000Y443609D01*
X573619Y443335D01*
X572825Y442804D01*
X564580D01*
Y444500D01*
X555580Y444500D01*
D02*
G37*
G36*
X548650Y425540D02*
X544380D01*
Y421270D01*
X548650D01*
Y425540D01*
D02*
G37*
G36*
X555460Y425540D02*
X553471Y425540D01*
X551190D01*
Y420000D01*
X549920D01*
Y418730D01*
X544380D01*
Y414460D01*
X542862Y412549D01*
X522554D01*
X522552Y412552D01*
X521381Y413335D01*
X520000Y413609D01*
X518619Y413335D01*
X517448Y412552D01*
X516665Y411381D01*
X516391Y410000D01*
X516665Y408619D01*
X517448Y407448D01*
X518619Y406665D01*
X520000Y406391D01*
X521381Y406665D01*
X522552Y407448D01*
X522554Y407451D01*
X545420D01*
Y405500D01*
X553040D01*
X554420Y405500D01*
X556960Y405500D01*
X562458D01*
X563383Y405500D01*
X564435Y402960D01*
X560975Y399500D01*
X557569D01*
X555460Y400540D01*
X553471Y400540D01*
X551190D01*
Y395000D01*
X549920D01*
Y393730D01*
X544380D01*
Y389460D01*
X542862Y387549D01*
X527554D01*
X527552Y387552D01*
X526381Y388335D01*
X525000Y388609D01*
X523619Y388335D01*
X522448Y387552D01*
X521665Y386381D01*
X521391Y385000D01*
X521665Y383619D01*
X522448Y382448D01*
X523619Y381665D01*
X525000Y381391D01*
X526381Y381665D01*
X527552Y382448D01*
X527554Y382451D01*
X545420D01*
Y380500D01*
X553040D01*
X554420Y380500D01*
X556960Y380500D01*
X562458D01*
X563383Y380500D01*
X564435Y377960D01*
X563439Y376964D01*
X563198Y376802D01*
X558278Y371882D01*
X557763Y371112D01*
X556555Y370812D01*
X555247Y370540D01*
X553471Y370540D01*
X551190D01*
Y365000D01*
X549920D01*
Y363730D01*
X544380D01*
Y359460D01*
Y356270D01*
X549920D01*
Y355000D01*
X551190D01*
Y349460D01*
X553471D01*
X555460Y349460D01*
X557569Y350500D01*
X563383D01*
X564435Y347960D01*
X560975Y344500D01*
X557569D01*
X555460Y345540D01*
X553471Y345540D01*
X551190D01*
Y340000D01*
X549920D01*
Y338730D01*
X544380D01*
Y334460D01*
Y331270D01*
X549920D01*
Y330000D01*
X551190D01*
Y324460D01*
X553471D01*
X555460Y324460D01*
X557569Y325500D01*
X564580D01*
Y334500D01*
X564580D01*
Y335500D01*
X564580D01*
Y340895D01*
X575555Y351870D01*
X575997Y351576D01*
X577850Y351207D01*
X588350D01*
X590203Y351576D01*
X591774Y352625D01*
X592824Y354197D01*
X593193Y356050D01*
X592824Y357903D01*
X591774Y359474D01*
X590203Y360524D01*
X588350Y360893D01*
X580347D01*
X579046Y363433D01*
X579387Y363907D01*
X588350D01*
X590203Y364276D01*
X591214Y364951D01*
X597446D01*
X597448Y364948D01*
X598619Y364165D01*
X600000Y363891D01*
X601381Y364165D01*
X602552Y364948D01*
X603335Y366119D01*
X603609Y367500D01*
X603335Y368881D01*
X602552Y370052D01*
X601381Y370835D01*
X600000Y371109D01*
X598619Y370835D01*
X597448Y370052D01*
X597446Y370049D01*
X592935D01*
X592824Y370603D01*
X591774Y372174D01*
X590203Y373224D01*
X589949Y373275D01*
Y375865D01*
X590609Y375996D01*
X592524Y377276D01*
X593804Y379191D01*
X594001Y380180D01*
X583100D01*
Y382720D01*
X594001D01*
X593804Y383709D01*
X592524Y385624D01*
X590609Y386904D01*
X589949Y387035D01*
Y389625D01*
X590203Y389676D01*
X591774Y390725D01*
X592824Y392297D01*
X592905Y392701D01*
X597446D01*
X597448Y392698D01*
X598619Y391915D01*
X600000Y391641D01*
X601381Y391915D01*
X602552Y392698D01*
X603335Y393869D01*
X603609Y395250D01*
X603335Y396631D01*
X602552Y397802D01*
X601381Y398585D01*
X600000Y398859D01*
X598619Y398585D01*
X597448Y397802D01*
X597446Y397799D01*
X591439D01*
X590203Y398624D01*
X588350Y398993D01*
X577850D01*
X575997Y398624D01*
X574426Y397575D01*
X574318Y397413D01*
X574025Y397355D01*
X573198Y396802D01*
X568198Y391802D01*
X567645Y390975D01*
X567451Y390000D01*
Y383257D01*
X567120Y383036D01*
X564580Y384393D01*
Y389500D01*
X564580D01*
Y390500D01*
X564580D01*
Y395895D01*
X571056Y402371D01*
X576020D01*
X577850Y402007D01*
X588350D01*
X590203Y402376D01*
X591774Y403425D01*
X592824Y404997D01*
X593193Y406850D01*
X592824Y408703D01*
X591774Y410275D01*
X590203Y411324D01*
X588350Y411693D01*
X577850D01*
X575997Y411324D01*
X574426Y410275D01*
X573376Y408703D01*
X573130Y407469D01*
X570000D01*
X569025Y407275D01*
X568198Y406722D01*
X567120Y405645D01*
X564580Y406697D01*
X564580Y407544D01*
Y414500D01*
X564580D01*
Y414911D01*
X566002Y417451D01*
X573100D01*
Y414800D01*
X593100D01*
Y424300D01*
X573100D01*
Y422549D01*
X564580D01*
Y424500D01*
X557569D01*
X555460Y425540D01*
D02*
G37*
G36*
X548650Y400540D02*
X544380D01*
Y396270D01*
X548650D01*
Y400540D01*
D02*
G37*
G36*
Y370540D02*
X544380D01*
Y366270D01*
X548650D01*
Y370540D01*
D02*
G37*
G36*
Y353730D02*
X544380D01*
Y349460D01*
X548650D01*
Y353730D01*
D02*
G37*
G36*
Y345540D02*
X544380D01*
Y341270D01*
X548650D01*
Y345540D01*
D02*
G37*
G36*
X588350Y348193D02*
X577850D01*
X575997Y347824D01*
X574426Y346774D01*
X573376Y345203D01*
X573007Y343350D01*
X573376Y341497D01*
X574426Y339925D01*
X575997Y338876D01*
X577850Y338507D01*
X588350D01*
X590203Y338876D01*
X591774Y339925D01*
X592824Y341497D01*
X593193Y343350D01*
X592824Y345203D01*
X591774Y346774D01*
X590203Y347824D01*
X588350Y348193D01*
D02*
G37*
G36*
Y335493D02*
X577850D01*
X575997Y335124D01*
X574426Y334075D01*
X573376Y332503D01*
X573007Y330650D01*
X573376Y328797D01*
X574426Y327225D01*
X575997Y326176D01*
X577850Y325807D01*
X588350D01*
X590203Y326176D01*
X591774Y327225D01*
X592824Y328797D01*
X593193Y330650D01*
X592824Y332503D01*
X591774Y334075D01*
X590203Y335124D01*
X588350Y335493D01*
D02*
G37*
G36*
X548650Y328730D02*
X544380D01*
Y324460D01*
X548650D01*
Y328730D01*
D02*
G37*
%LPD*%
G36*
X574067Y627014D02*
X575591Y625996D01*
X576251Y625865D01*
Y623275D01*
X575997Y623224D01*
X574426Y622174D01*
X573376Y620603D01*
X573007Y618750D01*
X573362Y616967D01*
X568160Y611765D01*
X565620Y612817D01*
Y613730D01*
X560080D01*
Y616270D01*
X565620D01*
Y620540D01*
X565620Y620540D01*
X566241Y622823D01*
X566802Y623198D01*
X570725Y627120D01*
X573577Y627270D01*
X574067Y627014D01*
D02*
G37*
G36*
X574104Y376990D02*
X575591Y375996D01*
X576251Y375865D01*
Y373275D01*
X575997Y373224D01*
X574426Y372174D01*
X573376Y370603D01*
X573007Y368750D01*
X573362Y366967D01*
X567120Y360725D01*
X564580Y361777D01*
Y369500D01*
X564580Y369500D01*
X565390Y371705D01*
X570757Y377072D01*
X573540Y377266D01*
X574104Y376990D01*
D02*
G37*
%LPC*%
G36*
X1273750Y892500D02*
X1266250D01*
Y888059D01*
X1265000D01*
X1265000Y888059D01*
X1263829Y887826D01*
X1262837Y887163D01*
X1259133Y883459D01*
X1257800D01*
Y886700D01*
X1243600D01*
Y874100D01*
X1257800D01*
Y877341D01*
X1260400D01*
X1260400Y877341D01*
X1261571Y877574D01*
X1262563Y878237D01*
X1265077Y880751D01*
X1266250Y880265D01*
Y879500D01*
X1273750D01*
Y892500D01*
D02*
G37*
G36*
X1299490Y888730D02*
X1293570D01*
Y882560D01*
X1299490D01*
Y888730D01*
D02*
G37*
G36*
X1291030D02*
X1285110D01*
Y882560D01*
X1291030D01*
Y888730D01*
D02*
G37*
G36*
X1300040Y877494D02*
X1291270D01*
Y870224D01*
X1300040D01*
Y877494D01*
D02*
G37*
G36*
X1288730D02*
X1279960D01*
Y870224D01*
X1288730D01*
Y877494D01*
D02*
G37*
G36*
X1290000Y868954D02*
D01*
D01*
D01*
D02*
G37*
G36*
X1288730Y867684D02*
X1279960D01*
Y860414D01*
X1288730D01*
Y867684D01*
D02*
G37*
G36*
X1258840Y862340D02*
X1251970D01*
Y856270D01*
X1258840D01*
Y862340D01*
D02*
G37*
G36*
X1249430D02*
X1242560D01*
Y856270D01*
X1249430D01*
Y862340D01*
D02*
G37*
G36*
X1300040Y867684D02*
X1291270D01*
Y860414D01*
X1299690D01*
X1300040Y860414D01*
X1300960Y859569D01*
Y856270D01*
X1314730D01*
Y862040D01*
X1301310D01*
X1300960Y862040D01*
X1300040Y862885D01*
Y867684D01*
D02*
G37*
G36*
X1314730Y853730D02*
X1300960D01*
Y847960D01*
X1314730D01*
Y853730D01*
D02*
G37*
G36*
X1258840Y853730D02*
X1251970D01*
Y847660D01*
X1258840D01*
Y853730D01*
D02*
G37*
G36*
X1249430D02*
X1242560D01*
Y847660D01*
X1249430D01*
Y853730D01*
D02*
G37*
G36*
X1353540Y853730D02*
X1339270D01*
Y843960D01*
X1353540D01*
Y853730D01*
D02*
G37*
G36*
X1314890Y827440D02*
X1308970D01*
Y821270D01*
X1314890D01*
Y827440D01*
D02*
G37*
G36*
X1306430D02*
X1300510D01*
Y821270D01*
X1306430D01*
Y827440D01*
D02*
G37*
G36*
X1257800Y835900D02*
X1243600D01*
Y823300D01*
X1257374D01*
X1257837Y822837D01*
X1257837Y822837D01*
X1258829Y822174D01*
X1260000Y821941D01*
X1266250D01*
Y817500D01*
X1273750D01*
Y830500D01*
X1266250D01*
Y828059D01*
X1261267D01*
X1257800Y831526D01*
Y835900D01*
D02*
G37*
G36*
X1314890Y818730D02*
X1308970D01*
Y812560D01*
X1314890D01*
Y818730D01*
D02*
G37*
G36*
X1306430D02*
X1300510D01*
Y812560D01*
X1306430D01*
Y818730D01*
D02*
G37*
G36*
X1288650Y790540D02*
X1284380D01*
Y786270D01*
X1288650D01*
Y790540D01*
D02*
G37*
G36*
X1664650Y790540D02*
X1660380D01*
Y786270D01*
X1664650D01*
Y790540D01*
D02*
G37*
G36*
X1276040Y789590D02*
X1265770D01*
Y785320D01*
X1276040D01*
Y789590D01*
D02*
G37*
G36*
X1263230D02*
X1252960D01*
Y785320D01*
X1263230D01*
Y789590D01*
D02*
G37*
G36*
X1651040Y789590D02*
X1640770D01*
Y785320D01*
X1651040D01*
Y789590D01*
D02*
G37*
G36*
X1638230D02*
X1627960D01*
Y785320D01*
X1638230D01*
Y789590D01*
D02*
G37*
G36*
X1664650Y783730D02*
X1660380D01*
Y779460D01*
X1664650D01*
Y783730D01*
D02*
G37*
G36*
X1263230Y782780D02*
X1252960D01*
Y778510D01*
X1263230D01*
Y782780D01*
D02*
G37*
G36*
X1651040Y782780D02*
X1640770D01*
Y778510D01*
X1651040D01*
Y782780D01*
D02*
G37*
G36*
X1638230D02*
X1627960D01*
Y778510D01*
X1638230D01*
Y782780D01*
D02*
G37*
G36*
X1305620Y743730D02*
X1301350D01*
Y739460D01*
X1305620D01*
Y743730D01*
D02*
G37*
G36*
X1055000Y565856D02*
X1050642Y565513D01*
X1046392Y564492D01*
X1042354Y562820D01*
X1038627Y560536D01*
X1035303Y557697D01*
X1032464Y554373D01*
X1030180Y550646D01*
X1028508Y546608D01*
X1027487Y542358D01*
X1027144Y538000D01*
X1027487Y533642D01*
X1028508Y529392D01*
X1030180Y525354D01*
X1032464Y521627D01*
X1035303Y518303D01*
X1038627Y515464D01*
X1042354Y513180D01*
X1046392Y511507D01*
X1050642Y510487D01*
X1055000Y510144D01*
X1059358Y510487D01*
X1063608Y511507D01*
X1067646Y513180D01*
X1071373Y515464D01*
X1074697Y518303D01*
X1077536Y521627D01*
X1079820Y525354D01*
X1081492Y529392D01*
X1082513Y533642D01*
X1082856Y538000D01*
X1082513Y542358D01*
X1081492Y546608D01*
X1079820Y550646D01*
X1077536Y554373D01*
X1074697Y557697D01*
X1071373Y560536D01*
X1067646Y562820D01*
X1063608Y564492D01*
X1059358Y565513D01*
X1055000Y565856D01*
D02*
G37*
G36*
Y492856D02*
X1050642Y492513D01*
X1046392Y491493D01*
X1042354Y489820D01*
X1038627Y487536D01*
X1035303Y484697D01*
X1032464Y481373D01*
X1030180Y477646D01*
X1028508Y473608D01*
X1027487Y469358D01*
X1027144Y465000D01*
X1027487Y460642D01*
X1028508Y456392D01*
X1030180Y452354D01*
X1032464Y448627D01*
X1035303Y445303D01*
X1038627Y442464D01*
X1042354Y440180D01*
X1046392Y438507D01*
X1050642Y437487D01*
X1055000Y437144D01*
X1059358Y437487D01*
X1063608Y438507D01*
X1067646Y440180D01*
X1071373Y442464D01*
X1074697Y445303D01*
X1077536Y448627D01*
X1079820Y452354D01*
X1081492Y456392D01*
X1082513Y460642D01*
X1082856Y465000D01*
X1082513Y469358D01*
X1081492Y473608D01*
X1079820Y477646D01*
X1077536Y481373D01*
X1074697Y484697D01*
X1071373Y487536D01*
X1067646Y489820D01*
X1063608Y491493D01*
X1059358Y492513D01*
X1055000Y492856D01*
D02*
G37*
G36*
X1740000Y255856D02*
X1735642Y255513D01*
X1731392Y254492D01*
X1727354Y252820D01*
X1723627Y250536D01*
X1720303Y247697D01*
X1717464Y244373D01*
X1715180Y240646D01*
X1713508Y236608D01*
X1712487Y232358D01*
X1712144Y228000D01*
X1712487Y223642D01*
X1713508Y219392D01*
X1715180Y215354D01*
X1717464Y211627D01*
X1720303Y208303D01*
X1723627Y205464D01*
X1727354Y203180D01*
X1731392Y201507D01*
X1735642Y200487D01*
X1740000Y200144D01*
X1744358Y200487D01*
X1748608Y201507D01*
X1752646Y203180D01*
X1756373Y205464D01*
X1759697Y208303D01*
X1762536Y211627D01*
X1764820Y215354D01*
X1766492Y219392D01*
X1767513Y223642D01*
X1767856Y228000D01*
X1767513Y232358D01*
X1766492Y236608D01*
X1764820Y240646D01*
X1762536Y244373D01*
X1759697Y247697D01*
X1756373Y250536D01*
X1752646Y252820D01*
X1748608Y254492D01*
X1744358Y255513D01*
X1740000Y255856D01*
D02*
G37*
G36*
X1550000Y254856D02*
X1545642Y254513D01*
X1541392Y253493D01*
X1537354Y251820D01*
X1533627Y249536D01*
X1530303Y246697D01*
X1527464Y243373D01*
X1525180Y239646D01*
X1523508Y235608D01*
X1522487Y231358D01*
X1522144Y227000D01*
X1522487Y222642D01*
X1523508Y218392D01*
X1525180Y214354D01*
X1527464Y210627D01*
X1530303Y207303D01*
X1533627Y204464D01*
X1537354Y202180D01*
X1541392Y200508D01*
X1545642Y199487D01*
X1550000Y199144D01*
X1554358Y199487D01*
X1558608Y200508D01*
X1562646Y202180D01*
X1566373Y204464D01*
X1569697Y207303D01*
X1572536Y210627D01*
X1574820Y214354D01*
X1576492Y218392D01*
X1577513Y222642D01*
X1577856Y227000D01*
X1577513Y231358D01*
X1576492Y235608D01*
X1574820Y239646D01*
X1572536Y243373D01*
X1569697Y246697D01*
X1566373Y249536D01*
X1562646Y251820D01*
X1558608Y253493D01*
X1554358Y254513D01*
X1550000Y254856D01*
D02*
G37*
G36*
X1360000D02*
X1355642Y254513D01*
X1351392Y253493D01*
X1347354Y251820D01*
X1343627Y249536D01*
X1340303Y246697D01*
X1337464Y243373D01*
X1335180Y239646D01*
X1333508Y235608D01*
X1332487Y231358D01*
X1332144Y227000D01*
X1332487Y222642D01*
X1333508Y218392D01*
X1335180Y214354D01*
X1337464Y210627D01*
X1340303Y207303D01*
X1343627Y204464D01*
X1347354Y202180D01*
X1351392Y200508D01*
X1355642Y199487D01*
X1360000Y199144D01*
X1364358Y199487D01*
X1368608Y200508D01*
X1372646Y202180D01*
X1376373Y204464D01*
X1379697Y207303D01*
X1382536Y210627D01*
X1384820Y214354D01*
X1386492Y218392D01*
X1387513Y222642D01*
X1387856Y227000D01*
X1387513Y231358D01*
X1386492Y235608D01*
X1384820Y239646D01*
X1382536Y243373D01*
X1379697Y246697D01*
X1376373Y249536D01*
X1372646Y251820D01*
X1368608Y253493D01*
X1364358Y254513D01*
X1360000Y254856D01*
D02*
G37*
G36*
X1170000D02*
X1165642Y254513D01*
X1161392Y253493D01*
X1157354Y251820D01*
X1154384Y250000D01*
X1153627Y249536D01*
X1150303Y246697D01*
X1147464Y243373D01*
X1145180Y239646D01*
X1143508Y235608D01*
X1142487Y231358D01*
X1142144Y227000D01*
X1142487Y222642D01*
X1143508Y218392D01*
X1145180Y214354D01*
X1147464Y210627D01*
X1150303Y207303D01*
X1153627Y204464D01*
X1157354Y202180D01*
X1161392Y200508D01*
X1165642Y199487D01*
X1170000Y199144D01*
X1174358Y199487D01*
X1178608Y200508D01*
X1182646Y202180D01*
X1186373Y204464D01*
X1189697Y207303D01*
X1192536Y210627D01*
X1194820Y214354D01*
X1196492Y218392D01*
X1197513Y222642D01*
X1197856Y227000D01*
X1197513Y231358D01*
X1196492Y235608D01*
X1194820Y239646D01*
X1192536Y243373D01*
X1189697Y246697D01*
X1186373Y249536D01*
X1185616Y250000D01*
X1182646Y251820D01*
X1178608Y253493D01*
X1174358Y254513D01*
X1170000Y254856D01*
D02*
G37*
G36*
X980000D02*
X975642Y254513D01*
X971392Y253493D01*
X967354Y251820D01*
X963627Y249536D01*
X960303Y246697D01*
X957464Y243373D01*
X955180Y239646D01*
X953508Y235608D01*
X952487Y231358D01*
X952144Y227000D01*
X952487Y222642D01*
X953508Y218392D01*
X955180Y214354D01*
X957464Y210627D01*
X960303Y207303D01*
X963627Y204464D01*
X967354Y202180D01*
X971392Y200508D01*
X975642Y199487D01*
X980000Y199144D01*
X984358Y199487D01*
X988608Y200508D01*
X992646Y202180D01*
X996373Y204464D01*
X999697Y207303D01*
X1002536Y210627D01*
X1004820Y214354D01*
X1006492Y218392D01*
X1007513Y222642D01*
X1007856Y227000D01*
X1007513Y231358D01*
X1006492Y235608D01*
X1004820Y239646D01*
X1002536Y243373D01*
X999697Y246697D01*
X996373Y249536D01*
X992646Y251820D01*
X988608Y253493D01*
X984358Y254513D01*
X980000Y254856D01*
D02*
G37*
G36*
X828770Y201432D02*
Y191270D01*
X838932D01*
X838704Y193002D01*
X837545Y195800D01*
X835702Y198202D01*
X833300Y200045D01*
X830502Y201204D01*
X828770Y201432D01*
D02*
G37*
G36*
X826230D02*
X824498Y201204D01*
X821700Y200045D01*
X819298Y198202D01*
X817455Y195800D01*
X816296Y193002D01*
X816068Y191270D01*
X826230D01*
Y201432D01*
D02*
G37*
G36*
X838932Y188730D02*
X828770D01*
Y178568D01*
X830502Y178796D01*
X833300Y179955D01*
X835702Y181798D01*
X837545Y184200D01*
X838704Y186998D01*
X838932Y188730D01*
D02*
G37*
G36*
X826230D02*
X816068D01*
X816296Y186998D01*
X817455Y184200D01*
X819298Y181798D01*
X821700Y179955D01*
X824498Y178796D01*
X826230Y178568D01*
Y188730D01*
D02*
G37*
G36*
X981270Y164436D02*
Y153770D01*
X991936D01*
X991691Y155633D01*
X990482Y158552D01*
X988559Y161059D01*
X986052Y162982D01*
X983133Y164191D01*
X981270Y164436D01*
D02*
G37*
G36*
X978730D02*
X976867Y164191D01*
X973948Y162982D01*
X971441Y161059D01*
X969518Y158552D01*
X968309Y155633D01*
X968064Y153770D01*
X978730D01*
Y164436D01*
D02*
G37*
G36*
X1741270Y164436D02*
Y153770D01*
X1751936D01*
X1751691Y155633D01*
X1750482Y158552D01*
X1748559Y161059D01*
X1746052Y162982D01*
X1743133Y164191D01*
X1741270Y164436D01*
D02*
G37*
G36*
X1171270D02*
Y153770D01*
X1181936D01*
X1181691Y155633D01*
X1180482Y158552D01*
X1178559Y161058D01*
X1176052Y162982D01*
X1173133Y164191D01*
X1171270Y164436D01*
D02*
G37*
G36*
X1168730Y164436D02*
X1166867Y164191D01*
X1163948Y162982D01*
X1161442Y161058D01*
X1159518Y158552D01*
X1158309Y155633D01*
X1158064Y153770D01*
X1168730D01*
Y164436D01*
D02*
G37*
G36*
X1738730Y164436D02*
X1736867Y164191D01*
X1733948Y162982D01*
X1731441Y161059D01*
X1729518Y158552D01*
X1728309Y155633D01*
X1728064Y153770D01*
X1738730D01*
Y164436D01*
D02*
G37*
G36*
X1361270Y164436D02*
Y153770D01*
X1371936D01*
X1371691Y155633D01*
X1370482Y158552D01*
X1368559Y161059D01*
X1366052Y162982D01*
X1363133Y164191D01*
X1361270Y164436D01*
D02*
G37*
G36*
X1358730D02*
X1356867Y164191D01*
X1353948Y162982D01*
X1351441Y161059D01*
X1349518Y158552D01*
X1348309Y155633D01*
X1348064Y153770D01*
X1358730D01*
Y164436D01*
D02*
G37*
G36*
X1551270Y164436D02*
Y153770D01*
X1561936D01*
X1561691Y155633D01*
X1560482Y158552D01*
X1558559Y161059D01*
X1556052Y162982D01*
X1553133Y164191D01*
X1551270Y164436D01*
D02*
G37*
G36*
X1548730Y164436D02*
X1546867Y164191D01*
X1543948Y162982D01*
X1541441Y161059D01*
X1539518Y158552D01*
X1538309Y155633D01*
X1538064Y153770D01*
X1548730D01*
Y164436D01*
D02*
G37*
G36*
X1371936Y151230D02*
X1361270D01*
Y140564D01*
X1363133Y140809D01*
X1366052Y142018D01*
X1368559Y143941D01*
X1370482Y146448D01*
X1371691Y149367D01*
X1371936Y151230D01*
D02*
G37*
G36*
X978730Y151230D02*
X968064D01*
X968309Y149367D01*
X969518Y146448D01*
X971441Y143941D01*
X973948Y142018D01*
X976867Y140809D01*
X978730Y140564D01*
Y151230D01*
D02*
G37*
G36*
X991936D02*
X981270D01*
Y140564D01*
X983133Y140809D01*
X986052Y142018D01*
X988559Y143941D01*
X990482Y146448D01*
X991691Y149367D01*
X991936Y151230D01*
D02*
G37*
G36*
X1358730Y151230D02*
X1348064D01*
X1348309Y149367D01*
X1349518Y146448D01*
X1351441Y143941D01*
X1353948Y142018D01*
X1356867Y140809D01*
X1358730Y140564D01*
Y151230D01*
D02*
G37*
G36*
X1561936Y151230D02*
X1551270D01*
Y140564D01*
X1553133Y140809D01*
X1556052Y142018D01*
X1558559Y143941D01*
X1560482Y146448D01*
X1561691Y149367D01*
X1561936Y151230D01*
D02*
G37*
G36*
X1738730Y151230D02*
X1728064D01*
X1728309Y149367D01*
X1729518Y146448D01*
X1731441Y143941D01*
X1733948Y142018D01*
X1736867Y140809D01*
X1738730Y140564D01*
Y151230D01*
D02*
G37*
G36*
X1751936D02*
X1741270D01*
Y140564D01*
X1743133Y140809D01*
X1746052Y142018D01*
X1748559Y143941D01*
X1750482Y146448D01*
X1751691Y149367D01*
X1751936Y151230D01*
D02*
G37*
G36*
X1548730Y151230D02*
X1538064D01*
X1538309Y149367D01*
X1539518Y146448D01*
X1541441Y143941D01*
X1543948Y142018D01*
X1546867Y140809D01*
X1548730Y140564D01*
Y151230D01*
D02*
G37*
G36*
X1168730Y151230D02*
X1158064D01*
X1158309Y149367D01*
X1159518Y146448D01*
X1161442Y143941D01*
X1163948Y142018D01*
X1166867Y140809D01*
X1168730Y140564D01*
Y151230D01*
D02*
G37*
G36*
X1181936D02*
X1171270D01*
Y140564D01*
X1173133Y140809D01*
X1176052Y142018D01*
X1178559Y143941D01*
X1180482Y146448D01*
X1181691Y149367D01*
X1181936Y151230D01*
D02*
G37*
%LPD*%
D11*
X774920Y330080D02*
X775000D01*
X770080Y325080D02*
X775000Y330000D01*
X765000Y325080D02*
X770080D01*
X899600Y785400D02*
X900000Y785000D01*
X874500Y785400D02*
X899600D01*
X910000Y745000D02*
X910080Y745080D01*
X690000Y585000D02*
X700000D01*
X680000Y330000D02*
Y330650D01*
X675000Y330000D02*
X680000D01*
X765000Y575080D02*
X770080D01*
X775000Y580000D01*
Y585000D01*
X975000Y832000D02*
X993000D01*
X965000D02*
X975000D01*
X855000Y880000D02*
Y892300D01*
X850000Y875000D02*
X855000Y880000D01*
X700000Y850000D02*
X700080D01*
X970000Y835000D02*
X972000D01*
X975000Y832000D01*
X963000Y832000D02*
X970500D01*
X970000Y825000D02*
X975000Y830000D01*
X963000Y832000D02*
X970000Y825000D01*
X1485000Y755000D02*
Y785000D01*
X744920Y755080D02*
X745000Y755000D01*
X695000Y850000D02*
X700000D01*
X654920Y745000D02*
X655000D01*
X650000D02*
X654920D01*
X529920Y829920D02*
X530000Y830000D01*
X529920Y805000D02*
Y829920D01*
Y785080D02*
Y804920D01*
X590000Y735000D02*
Y745000D01*
X549920Y645080D02*
X550000Y645000D01*
X529920Y785080D02*
X530000Y785000D01*
X549920Y604920D02*
X550000Y605000D01*
X549920Y580080D02*
X550000Y580000D01*
X549920Y364920D02*
X550000Y365000D01*
X640000Y735000D02*
X650000Y745000D01*
X640000Y735000D02*
X640000D01*
X635000Y740000D02*
Y760500D01*
X635000Y740000D02*
X635000Y740000D01*
X625000Y730000D02*
X635000Y740000D01*
X1685000Y770000D02*
X1705000D01*
X1775000Y665000D02*
X1785000Y675000D01*
X1245080Y784920D02*
X1264920D01*
X810000Y430000D02*
X910000D01*
X1755000Y665000D02*
Y695000D01*
X1730000Y720000D02*
X1755000Y695000D01*
X1730000Y720000D02*
Y745000D01*
X1705000Y770000D02*
X1730000Y745000D01*
Y665000D02*
Y680000D01*
X1725000Y655000D02*
X1735000Y665000D01*
X1685000Y760000D02*
X1705000D01*
X1750000Y665000D02*
Y690000D01*
X1725000Y715000D02*
X1750000Y690000D01*
X1725000Y715000D02*
Y740000D01*
X1705000Y760000D02*
X1725000Y740000D01*
X1300080Y775000D02*
X1330000D01*
X1320000Y770000D02*
X1325000Y765000D01*
X1330000D01*
X690000Y670000D02*
Y705000D01*
X670000Y450000D02*
X675000Y455000D01*
X765000Y660000D02*
X785000D01*
X700000Y645000D02*
X725000D01*
X1529770Y758650D02*
X1531120Y760000D01*
X765500Y760000D02*
X815000D01*
X580000Y370000D02*
X590000D01*
X1646000Y760000D02*
X1675000D01*
X1646000Y770000D02*
X1675000D01*
X910000Y775000D02*
X925000D01*
X515000Y775000D02*
X529920D01*
X725080Y425000D02*
X750000D01*
X710000Y655000D02*
X719920Y664920D01*
X715000Y410000D02*
Y425000D01*
X550000Y830000D02*
Y850000D01*
X540000Y830000D02*
X550000D01*
X1143650Y771350D02*
X1155500D01*
X1529770Y771350D02*
X1531020D01*
X685000Y779900D02*
X700000D01*
X560000Y660000D02*
X560080Y660080D01*
X583000Y657500D02*
X583500Y657000D01*
X560000Y635000D02*
Y645000D01*
Y420000D02*
X560080Y419920D01*
X560000Y395000D02*
X560080Y394920D01*
X700000Y860000D02*
X700080D01*
X684250Y855000D02*
Y860000D01*
X1529770Y745950D02*
X1530720Y745000D01*
X1135000Y745000D02*
X1135080Y745080D01*
X744920Y744920D02*
X745000Y745000D01*
X575000Y874500D02*
Y890000D01*
X560000Y795000D02*
X585000D01*
X580250Y395250D02*
X600000D01*
X575080Y605000D02*
X585000D01*
X560000Y590000D02*
X561050Y591050D01*
X560000Y590000D02*
X560080Y589920D01*
X560000Y340000D02*
X560080Y339920D01*
X690000Y605000D02*
X700000D01*
X725075Y443450D02*
X740775D01*
X874500Y772700D02*
X887700D01*
X530000Y870000D02*
X540000Y860000D01*
X748356Y565950D02*
X790000D01*
X748356D02*
X750000Y565000D01*
X748267Y566002D02*
X748356Y565950D01*
X732700Y575000D02*
X748267Y566002D01*
X750950Y315950D02*
X790395D01*
X731350Y328650D02*
X733850Y326150D01*
X745000Y315000D02*
X750000D01*
X733850Y326150D02*
X745000Y315000D01*
X765000Y415080D02*
X779920D01*
X700000Y395000D02*
X720000D01*
X874500Y747300D02*
X887300D01*
X899920Y745080D02*
X900000Y745000D01*
X675700Y527400D02*
X692400D01*
X670700D02*
X675700D01*
X735000Y830000D02*
X780000D01*
X867700Y820000D02*
X880000D01*
X865000D02*
X867700D01*
X880000D02*
X885000Y815000D01*
X850000Y840000D02*
X857000D01*
X840000D02*
X850000D01*
X840000Y840000D02*
X840000Y840000D01*
X549920Y440000D02*
X550000D01*
X540000D02*
X549920D01*
X565000Y355000D02*
X580000Y370000D01*
X825000Y855000D02*
Y890000D01*
X680000Y755000D02*
Y765000D01*
X675000Y760000D02*
Y765000D01*
X720000Y745000D02*
Y760000D01*
Y745000D02*
X720080Y744920D01*
X735000D01*
X575000Y874500D02*
X590000D01*
X575000Y875000D02*
Y890000D01*
X550000D02*
X559920D01*
X570080D02*
X575000D01*
X700000Y860080D02*
X700080Y860000D01*
X685000D02*
X690000D01*
X684250D02*
X685000D01*
X670000D02*
X684250D01*
X670000Y835000D02*
Y860000D01*
X660000Y825000D02*
X670000Y835000D01*
X660000Y775000D02*
Y825000D01*
X820000Y915000D02*
X825000Y910000D01*
X500000Y915000D02*
X820000D01*
X500000Y805000D02*
Y915000D01*
X760000Y902700D02*
Y910000D01*
Y900000D02*
Y902700D01*
X750000Y890000D02*
X760000Y900000D01*
X665000Y890000D02*
X750000D01*
X665000Y874500D02*
Y890000D01*
X695000Y840000D02*
X700000D01*
X690000Y845000D02*
X695000Y840000D01*
X684500Y845000D02*
X690000D01*
X685000Y860000D02*
X685080Y860080D01*
X700000D01*
Y849920D02*
X700080Y850000D01*
X700000Y850000D02*
X700000Y850000D01*
X684500Y850000D02*
X700000D01*
X700000Y849920D02*
Y850000D01*
X815000Y845000D02*
X825000Y855000D01*
X1735000Y665000D02*
X1750000D01*
X1730000D02*
X1735000D01*
X1735000Y665000D01*
X1705000Y770000D02*
X1705000D01*
X1705000Y760000D02*
X1705000D01*
X1300080Y755000D02*
X1335000D01*
Y755000D02*
Y785000D01*
X850000Y840000D02*
X852300Y837700D01*
Y820000D02*
Y837700D01*
X750000Y315000D02*
X750950Y315950D01*
X719920Y664920D02*
X720000Y665000D01*
X690000Y670000D02*
X696150Y663850D01*
X685650Y580650D02*
X690000Y585000D01*
X676900Y580650D02*
X685650D01*
X683700Y330000D02*
X695000D01*
X680000D02*
X683700D01*
X684350Y330650D01*
X695000Y330000D02*
X700000Y335000D01*
X680000Y330650D02*
X684350D01*
X676900D02*
X680000D01*
X678750Y405000D02*
X710000D01*
X715000Y410000D01*
X676900Y406850D02*
X678750Y405000D01*
X670000Y450000D02*
X670000Y450000D01*
X685000Y440000D02*
X700000Y425000D01*
Y417700D02*
Y425000D01*
X670000Y450000D02*
Y450000D01*
X669920Y450080D02*
X670000Y450000D01*
X685000Y440000D02*
Y450000D01*
X689550Y669550D02*
X690000Y670000D01*
X676900Y669550D02*
X689550D01*
X740000Y630000D02*
X810000D01*
X725000Y645000D02*
X740000Y630000D01*
X525000Y730000D02*
X560000D01*
X600000Y745000D02*
X600000Y745000D01*
Y760500D01*
X665000Y745000D02*
X665000Y745000D01*
Y760500D01*
X660000Y750000D02*
Y760500D01*
X655000Y745000D02*
X660000Y750000D01*
X500000Y805000D02*
X505000Y800000D01*
X500000Y805000D02*
X500000D01*
X535000Y740000D02*
X565000D01*
X528000Y787000D02*
X529920Y785080D01*
Y785000D02*
Y785080D01*
X515000Y787000D02*
X528000D01*
X520000Y745000D02*
X560000D01*
X672500Y772500D02*
X680000Y765000D01*
X672500Y772500D02*
Y817500D01*
X540000Y750000D02*
X565000D01*
X620000Y750000D02*
Y750000D01*
X640000D02*
Y760500D01*
X545000Y765000D02*
X560000Y780000D01*
X530000Y795000D02*
X555000D01*
X774920Y330080D02*
X775000Y330000D01*
X735000Y380000D02*
X805000D01*
X720000Y395000D02*
X735000Y380000D01*
X852300Y872700D02*
X855000Y870000D01*
X815000Y370000D02*
Y370000D01*
X805000Y380000D02*
X815000Y370000D01*
X560000Y810000D02*
X570080D01*
X550000Y800000D02*
X560000Y810000D01*
X1290000Y745000D02*
X1300000Y755000D01*
X1289920Y745000D02*
X1290000D01*
Y755000D02*
X1290080D01*
X1300080Y765000D01*
X820000Y820000D02*
Y840000D01*
Y745000D02*
Y820000D01*
X780000Y745000D02*
X820000D01*
X910080Y720080D02*
Y725000D01*
X910000Y720000D02*
X910080Y720080D01*
X750000Y785000D02*
X755000D01*
X745000Y780000D02*
X750000Y785000D01*
X745000Y755080D02*
Y780000D01*
X735000Y755080D02*
X744920D01*
X735000D02*
Y765000D01*
Y744920D02*
X744920D01*
X975000Y830000D02*
Y832000D01*
X815000Y825000D02*
Y845000D01*
Y760000D02*
Y825000D01*
X779050Y745950D02*
X780000Y745000D01*
X765500Y745950D02*
X779050D01*
X755000Y785000D02*
X755000D01*
X755000D02*
X755000D01*
X755000D02*
X757500Y782500D01*
X755000Y785000D02*
X755000Y785000D01*
X755000D02*
X755000Y785000D01*
X1330000Y765000D02*
X1330000Y765000D01*
X1300080Y775000D02*
X1300080Y775000D01*
X1645000Y785000D02*
X1661000D01*
X910080Y755000D02*
Y765000D01*
X1676080Y785000D02*
X1685000D01*
X990000Y770000D02*
X990000Y770000D01*
X949500Y770000D02*
X970000D01*
X925000Y765000D02*
X930000Y770000D01*
X1245080Y735080D02*
X1300000D01*
X1755000Y665000D02*
X1775000D01*
X1115000Y760000D02*
Y785000D01*
Y755000D02*
Y760000D01*
Y785000D02*
X1135000D01*
X1485000D02*
X1495000D01*
X688950Y606050D02*
X690000Y605000D01*
X676900Y606050D02*
X688950D01*
X540080Y890000D02*
X550000D01*
X529920Y875080D02*
X530000Y875000D01*
X529920Y875080D02*
Y890000D01*
X540000Y860000D02*
X560000D01*
X560000Y860000D01*
Y835000D02*
Y860000D01*
X550000Y830000D02*
X560000D01*
X540000Y830000D02*
X540000Y830000D01*
X765500Y760000D02*
X765500Y760000D01*
X1661000Y785000D02*
X1661000Y785000D01*
X1665000D01*
X1655000Y785000D02*
X1661000D01*
X695000Y509000D02*
X696000Y510000D01*
X695000Y496000D02*
Y504000D01*
Y495000D02*
Y496000D01*
X1485000Y745000D02*
Y755000D01*
Y745000D02*
X1499920D01*
X1485000Y755000D02*
X1500000D01*
X1495000Y785000D02*
X1505000D01*
X1115000Y755000D02*
X1124920D01*
X1115000D02*
X1115000D01*
X1115000Y755000D02*
X1115000Y755000D01*
X1115000Y745000D02*
Y755000D01*
X1125000Y770000D02*
X1135080Y759920D01*
X1499920Y745000D02*
X1499920Y745000D01*
X1264920Y784920D02*
X1265000Y785000D01*
X1245080Y735080D02*
Y784920D01*
X890000Y750000D02*
Y750000D01*
X1685000Y770000D02*
X1685000Y770000D01*
X1685000Y770000D02*
X1685000Y770000D01*
X1135080Y755000D02*
Y759920D01*
X1151350Y758650D02*
X1155500D01*
X1135950Y784050D02*
X1155500D01*
X1500000Y770000D02*
X1505000D01*
X1510160Y764840D01*
Y755000D02*
Y764840D01*
X1505000Y775000D02*
X1521350Y758650D01*
X1495000Y775000D02*
X1505000D01*
X1507700Y780000D02*
X1516350Y771350D01*
X1500000Y780000D02*
X1507700D01*
X1531120Y760000D02*
X1531120Y760000D01*
X1529770Y758650D02*
X1529770Y758650D01*
X1530500D01*
X1521350D02*
X1529770D01*
X993000Y832000D02*
X995000Y830000D01*
X1646000Y745000D02*
X1661000D01*
X890000Y775000D02*
X899920D01*
X887700Y772700D02*
X890000Y775000D01*
X890000Y750000D02*
X899920D01*
X890000D02*
X890000D01*
X1135000Y745000D02*
X1135000Y745000D01*
Y754920D01*
X1135080Y755000D01*
X1685000Y770000D02*
X1686080D01*
X1300000Y775000D02*
X1300080D01*
X575000Y890000D02*
X582300D01*
X550000Y815000D02*
X560000Y825000D01*
X550000Y810000D02*
Y815000D01*
X545000Y805000D02*
X550000Y810000D01*
X540080Y805000D02*
X545000D01*
X560000Y800000D02*
X570000D01*
X555000Y795000D02*
X560000Y800000D01*
X1516350Y771350D02*
X1530500D01*
X560000Y825000D02*
X570080D01*
X595000Y890000D02*
X595000D01*
X595080D01*
X610000D01*
X610000Y890000D01*
Y874500D02*
Y890000D01*
X620000Y750000D02*
X620000Y750000D01*
X530000Y645000D02*
X549920D01*
X540000Y635000D02*
X549920D01*
X1135080Y745000D02*
X1155000D01*
X685000Y790000D02*
X695000D01*
X1510080Y745000D02*
X1530000D01*
X1655000D02*
X1661000D01*
X1661000Y745000D01*
X1665920D01*
X1505000Y785000D02*
X1525000D01*
X1510160Y745160D02*
Y755000D01*
X1528420Y770000D02*
X1529770Y771350D01*
X1290000Y765000D02*
X1300000Y775000D01*
X1289920Y765000D02*
X1290000D01*
X1275000Y775000D02*
X1289920D01*
X1290000D02*
X1300000Y785000D01*
X1289920Y775000D02*
X1290000D01*
X910000Y775000D02*
X910080D01*
X680000Y655000D02*
X710000D01*
X680000Y645000D02*
X699920D01*
X680000Y645000D02*
X680000Y645000D01*
X810000Y630000D02*
X815000Y625000D01*
X680000Y395000D02*
X699920D01*
X1124920Y755000D02*
X1124920Y755000D01*
X1115000Y745000D02*
X1124920D01*
X1135080Y745080D02*
Y755000D01*
X1285000Y765000D02*
X1289920D01*
X1278650Y758650D02*
X1285000Y765000D01*
X1264500Y758650D02*
X1278650D01*
X1270000Y785000D02*
X1289920D01*
X1271350Y771350D02*
X1275000Y775000D01*
X899920Y745080D02*
Y750000D01*
Y755000D01*
Y750000D02*
X900000D01*
X887300Y747300D02*
X890000Y750000D01*
X880000Y760000D02*
X890000D01*
X895000Y765000D01*
X899920D01*
X910080Y745080D02*
Y755000D01*
X900000Y765000D02*
X900080D01*
X910080Y775000D01*
X899920D02*
X900000D01*
X910000Y785000D01*
X910080D01*
X585000Y850000D02*
X590000Y855000D01*
Y874500D01*
X600000Y775000D02*
Y785000D01*
Y760500D02*
Y775000D01*
X600000D02*
X600000D01*
X660000D01*
X665000Y770000D01*
Y760500D02*
Y770000D01*
X585000Y795000D02*
X590000D01*
X585000D02*
Y850000D01*
X580000Y855000D02*
X585000Y850000D01*
X570080Y855000D02*
X580000D01*
X590000Y795000D02*
X600000Y785000D01*
X590000Y745000D02*
X595000Y750000D01*
Y760500D01*
X560000Y780000D02*
X570080D01*
X540000Y775000D02*
X540080D01*
X545000D01*
X555000Y785000D01*
X540000D02*
X540080D01*
X550000D01*
X560000Y795000D01*
X560000Y830000D02*
X560000Y830000D01*
X560000Y830000D02*
X570080D01*
X560000Y835000D02*
X560000D01*
X570080D01*
X540000Y805000D02*
X540080D01*
X570000Y370250D02*
Y375000D01*
Y370000D02*
Y370250D01*
Y375000D02*
X576450Y381450D01*
X583100D01*
X549920Y369920D02*
X555000Y375000D01*
X549920Y365000D02*
Y369920D01*
Y355000D02*
Y364920D01*
Y340000D02*
Y355000D01*
Y330000D02*
Y340000D01*
X575080Y355000D02*
X580000D01*
X560080Y340000D02*
X575080Y355000D01*
X560080Y330000D02*
Y339920D01*
Y370080D02*
X565000Y375000D01*
X560080Y365000D02*
Y370080D01*
X520000Y410000D02*
X549920D01*
X525000Y385000D02*
X549920D01*
X580000Y395000D02*
X580250Y395250D01*
X585000Y380000D02*
X585250Y380250D01*
X600000D01*
X587500Y367500D02*
X600000D01*
X560080Y355000D02*
X565000D01*
X570000Y390000D02*
X575000Y395000D01*
X570000Y379920D02*
Y390000D01*
X562540Y372460D02*
X570000Y379920D01*
X560080Y420000D02*
X580000D01*
X560080Y410000D02*
Y419920D01*
X579920Y404920D02*
X580000Y405000D01*
X570000Y404920D02*
X579920D01*
X560080Y395000D02*
X570000Y404920D01*
X560080Y385000D02*
Y394920D01*
X575080Y630000D02*
X580000D01*
X560080Y615000D02*
X575080Y630000D01*
X549920Y645080D02*
Y660000D01*
X549920Y635000D02*
X549920Y635000D01*
X549920Y645000D02*
X549920Y645000D01*
X560080Y670000D02*
X580000D01*
X560000D02*
X560080D01*
X575000Y655000D02*
X580000D01*
X565000Y645000D02*
X575000Y655000D01*
X560080Y645000D02*
X565000D01*
X560080Y590000D02*
X575080Y605000D01*
X585000Y620000D02*
X600000D01*
X565000Y605000D02*
X580000Y620000D01*
X560080Y605000D02*
X565000D01*
X555000Y625000D02*
X565000D01*
X570000Y640000D02*
X575000Y645000D01*
X570000Y630000D02*
Y640000D01*
X565000Y625000D02*
X570000Y630000D01*
X560080Y670000D02*
Y670000D01*
Y660080D02*
Y670000D01*
X549920Y619920D02*
X555000Y625000D01*
X549920Y570080D02*
Y580000D01*
X550000Y605000D02*
X560000Y615000D01*
X549920Y605000D02*
X550000D01*
X549920Y590000D02*
Y604920D01*
X560080Y580000D02*
Y589920D01*
X549920Y580080D02*
Y590000D01*
X586000Y645000D02*
X586250Y645250D01*
X600000D01*
X599550Y631450D02*
X600000Y631000D01*
X583100Y631450D02*
X599550D01*
X582000Y630000D02*
X583000Y631000D01*
X549920Y615000D02*
Y619920D01*
X535000Y670000D02*
X549920D01*
X745750Y745030D02*
X763950Y745750D01*
X1264500Y771350D02*
X1271350D01*
X590000Y874500D02*
Y875000D01*
X595000Y890000D02*
X595000Y890000D01*
Y874500D02*
Y890000D01*
X667500Y772500D02*
X675000Y765000D01*
X667500Y772500D02*
Y821500D01*
X671000Y825000D02*
X684250D01*
X667500Y821500D02*
X671000Y825000D01*
X672500Y817500D02*
X675000Y820000D01*
X684250D01*
Y790000D02*
X684500D01*
X555000Y785000D02*
X570080D01*
X620000Y760500D02*
Y760750D01*
Y750000D02*
Y760500D01*
X635000D02*
Y760750D01*
X570080Y825000D02*
X570750D01*
X679275Y420725D02*
X680000Y420000D01*
X679275Y420725D02*
Y450250D01*
X718275D02*
X725075Y443450D01*
X599050Y644300D02*
X600000Y645250D01*
D12*
X730080Y675000D02*
X750000D01*
X730080Y590000D02*
X750000D01*
X715000Y595000D02*
X720000Y590000D01*
Y575000D02*
Y590000D01*
Y335000D02*
Y345000D01*
X740000Y650000D02*
X785000D01*
X733850Y656150D02*
Y661150D01*
X740000Y400000D02*
X750000D01*
X730000Y410000D02*
X739050Y400950D01*
X790395D01*
X560080Y440000D02*
X575000D01*
X730080Y340000D02*
X747500D01*
X719920Y664920D02*
Y675000D01*
Y660080D02*
Y664920D01*
X730000Y675000D02*
X730080D01*
X733850Y656150D02*
X740000Y650000D01*
X683550Y595000D02*
X715000D01*
X681900Y593350D02*
X683550Y595000D01*
X730000Y590000D02*
X730080D01*
X720000Y330000D02*
Y335000D01*
X683300Y345000D02*
X720000D01*
X681650Y343350D02*
X683300Y345000D01*
X676900Y343350D02*
X681650D01*
X720000Y335000D02*
X720000D01*
X730000Y340000D02*
X730080D01*
X739050Y400950D02*
X740000Y400000D01*
X719920Y660080D02*
X720000Y660000D01*
D13*
X1694960Y109998D02*
G03*
X1595040Y109998I-49960J-1998D01*
G01*
X1124960D02*
G03*
X1025040Y109998I-49960J-1998D01*
G01*
X1765000Y228000D02*
G03*
X1765000Y228000I-25000J0D01*
G01*
X1575000Y227000D02*
G03*
X1575000Y227000I-25000J0D01*
G01*
X1385000D02*
G03*
X1385000Y227000I-25000J0D01*
G01*
X1005000D02*
G03*
X1005000Y227000I-25000J0D01*
G01*
X1195000D02*
G03*
X1195000Y227000I-25000J0D01*
G01*
X1080000Y465000D02*
G03*
X1080000Y465000I-25000J0D01*
G01*
Y538000D02*
G03*
X1080000Y538000I-25000J0D01*
G01*
D16*
X1110000Y865000D02*
Y900000D01*
Y825000D02*
Y865000D01*
X1276000Y840000D02*
X1290000D01*
X1265000Y885000D02*
X1270000D01*
X1260000Y825000D02*
X1270000D01*
X1149300Y865000D02*
X1159300Y855000D01*
X1110000Y865000D02*
X1149300D01*
X1290000Y840000D02*
X1292300Y837700D01*
Y820000D02*
Y837700D01*
X1295000Y840000D02*
X1312000D01*
X1270000Y846000D02*
X1276000Y840000D01*
X1270000Y850000D02*
Y864000D01*
X1260400Y880400D02*
X1265000Y885000D01*
X1250700Y880400D02*
X1260400D01*
X1255400Y829600D02*
X1260000Y825000D01*
X1250700Y829600D02*
X1255400D01*
X675000Y475000D02*
X676000Y474000D01*
X695000D01*
D17*
X1976046Y690000D02*
D03*
X2003954D02*
D03*
X1976046Y665000D02*
D03*
X2003954D02*
D03*
X1976046Y640000D02*
D03*
X2003954D02*
D03*
X2011046Y315000D02*
D03*
X2038954D02*
D03*
X1931046D02*
D03*
X1958954D02*
D03*
X2011046Y290000D02*
D03*
X2038954D02*
D03*
X1931046D02*
D03*
X1958954D02*
D03*
X1931046Y265000D02*
D03*
X1958954D02*
D03*
X2011046D02*
D03*
X2038954D02*
D03*
D18*
X1520000Y581000D02*
D03*
Y609000D02*
D03*
Y401000D02*
D03*
Y429000D02*
D03*
X1495000Y431000D02*
D03*
Y459000D02*
D03*
X1520000Y461000D02*
D03*
Y489000D02*
D03*
X1495000Y491000D02*
D03*
Y519000D02*
D03*
X1520000Y521000D02*
D03*
Y549000D02*
D03*
X1495000Y551000D02*
D03*
Y579000D02*
D03*
D19*
X1338000Y855000D02*
D03*
X772000Y505000D02*
D03*
X883000Y855000D02*
D03*
D20*
X1312000Y840000D02*
D03*
Y871000D02*
D03*
X746000Y490000D02*
D03*
Y521000D02*
D03*
X970500Y878000D02*
D03*
Y855000D02*
D03*
Y832000D02*
D03*
X857000Y840000D02*
D03*
Y871000D02*
D03*
D21*
X1316000Y855000D02*
D03*
X750000Y505000D02*
D03*
X861000Y855000D02*
D03*
D22*
X1270000Y864000D02*
D03*
Y886000D02*
D03*
Y846000D02*
D03*
Y824000D02*
D03*
X695000Y508000D02*
D03*
Y530000D02*
D03*
Y496000D02*
D03*
Y474000D02*
D03*
X750000Y426000D02*
D03*
Y404000D02*
D03*
Y591000D02*
D03*
Y569000D02*
D03*
Y676000D02*
D03*
Y654000D02*
D03*
Y341000D02*
D03*
Y319000D02*
D03*
D23*
X909500Y855000D02*
D03*
D24*
X1739000Y905000D02*
D03*
X1701000D02*
D03*
X717275Y450250D02*
D03*
X679275D02*
D03*
X719000Y705000D02*
D03*
X681000D02*
D03*
D25*
X765000Y314920D02*
D03*
Y325080D02*
D03*
Y404920D02*
D03*
Y415080D02*
D03*
Y564920D02*
D03*
Y575080D02*
D03*
Y649920D02*
D03*
Y660080D02*
D03*
X735000Y755080D02*
D03*
Y744920D02*
D03*
X745000Y755080D02*
D03*
Y744920D02*
D03*
X1666000Y770080D02*
D03*
Y759920D02*
D03*
X700000Y849920D02*
D03*
Y860080D02*
D03*
D26*
X730080Y340000D02*
D03*
X719920D02*
D03*
X725080Y425000D02*
D03*
X714920D02*
D03*
X730080Y590000D02*
D03*
X719920D02*
D03*
X730080Y675000D02*
D03*
X719920D02*
D03*
X1300080Y765000D02*
D03*
X1289920D02*
D03*
Y785000D02*
D03*
X1300080D02*
D03*
X1686080Y770000D02*
D03*
X1675920D02*
D03*
X1686080Y760000D02*
D03*
X1675920D02*
D03*
X1499920Y745000D02*
D03*
X1510080D02*
D03*
X1500000Y755000D02*
D03*
X1510160D02*
D03*
X1124920Y755000D02*
D03*
X1135080D02*
D03*
X1124920Y745000D02*
D03*
X1135080D02*
D03*
X1676080Y745000D02*
D03*
X1665920D02*
D03*
Y785000D02*
D03*
X1676080D02*
D03*
X1300080Y745000D02*
D03*
X1289920D02*
D03*
Y755000D02*
D03*
X1300080D02*
D03*
X910080Y745000D02*
D03*
X899920D02*
D03*
X910080Y755000D02*
D03*
X899920D02*
D03*
Y785000D02*
D03*
X910080D02*
D03*
Y765000D02*
D03*
X899920D02*
D03*
Y775000D02*
D03*
X910080D02*
D03*
X1289920Y775000D02*
D03*
X1300080D02*
D03*
X529920Y775000D02*
D03*
X540080D02*
D03*
X529920Y805000D02*
D03*
X540080D02*
D03*
X595080Y890000D02*
D03*
X584920D02*
D03*
X559920D02*
D03*
X570080D02*
D03*
X529920Y785000D02*
D03*
X540080D02*
D03*
X589920Y745000D02*
D03*
X600080D02*
D03*
X654920D02*
D03*
X665080D02*
D03*
X540080Y890000D02*
D03*
X529920D02*
D03*
Y830000D02*
D03*
X540080D02*
D03*
X560080Y330000D02*
D03*
X549920D02*
D03*
X560080Y340000D02*
D03*
X549920D02*
D03*
X560080Y440000D02*
D03*
X549920D02*
D03*
X560080Y385000D02*
D03*
X549920D02*
D03*
X560080Y410000D02*
D03*
X549920D02*
D03*
Y420000D02*
D03*
X560080D02*
D03*
X549920Y355000D02*
D03*
X560080D02*
D03*
Y365000D02*
D03*
X549920D02*
D03*
X560080Y590000D02*
D03*
X549920D02*
D03*
X560080Y580000D02*
D03*
X549920D02*
D03*
Y605000D02*
D03*
X560080D02*
D03*
X549920Y615000D02*
D03*
X560080D02*
D03*
Y670000D02*
D03*
X549920D02*
D03*
Y660000D02*
D03*
X560080D02*
D03*
Y635000D02*
D03*
X549920D02*
D03*
Y395000D02*
D03*
X560080D02*
D03*
X549920Y645000D02*
D03*
X560080D02*
D03*
D27*
X1385000Y744500D02*
D03*
Y725500D02*
D03*
X990000Y744500D02*
D03*
Y725500D02*
D03*
D28*
X1365500Y770000D02*
D03*
X1384500D02*
D03*
X1325500D02*
D03*
X1344500D02*
D03*
X970500Y770000D02*
D03*
X989500D02*
D03*
X930500Y770000D02*
D03*
X949500D02*
D03*
D29*
X1781000Y665000D02*
D03*
X1729000D02*
D03*
D30*
X700000Y602700D02*
D03*
Y587300D02*
D03*
Y352700D02*
D03*
Y337300D02*
D03*
Y412700D02*
D03*
Y397300D02*
D03*
Y662700D02*
D03*
Y647300D02*
D03*
X740775Y459400D02*
D03*
Y444000D02*
D03*
Y709400D02*
D03*
Y694000D02*
D03*
X510000Y495065D02*
D03*
Y510465D02*
D03*
D31*
X665000Y874500D02*
D03*
X660000D02*
D03*
X655000D02*
D03*
X650000D02*
D03*
X645000D02*
D03*
X640000D02*
D03*
X635000D02*
D03*
X630000D02*
D03*
X625000D02*
D03*
X620000D02*
D03*
X615000D02*
D03*
X610000D02*
D03*
X605000D02*
D03*
X600000D02*
D03*
X595000D02*
D03*
X590000D02*
D03*
X665000Y760500D02*
D03*
X660000D02*
D03*
X655000D02*
D03*
X650000D02*
D03*
X645000D02*
D03*
X640000D02*
D03*
X635000D02*
D03*
X630000D02*
D03*
X625000D02*
D03*
X620000D02*
D03*
X615000D02*
D03*
X610000D02*
D03*
X605000D02*
D03*
X600000D02*
D03*
X595000D02*
D03*
X590000D02*
D03*
D32*
X684500Y780000D02*
D03*
Y785000D02*
D03*
Y790000D02*
D03*
Y795000D02*
D03*
Y800000D02*
D03*
Y805000D02*
D03*
Y810000D02*
D03*
Y815000D02*
D03*
Y820000D02*
D03*
Y825000D02*
D03*
Y830000D02*
D03*
Y835000D02*
D03*
Y840000D02*
D03*
Y845000D02*
D03*
Y850000D02*
D03*
Y855000D02*
D03*
X570080Y780000D02*
D03*
Y785000D02*
D03*
Y790000D02*
D03*
Y795000D02*
D03*
Y800000D02*
D03*
Y805000D02*
D03*
Y810000D02*
D03*
Y815000D02*
D03*
Y820000D02*
D03*
Y825000D02*
D03*
Y830000D02*
D03*
Y835000D02*
D03*
Y840000D02*
D03*
Y845000D02*
D03*
Y850000D02*
D03*
Y855000D02*
D03*
D33*
X548000Y849000D02*
D03*
X531000D02*
D03*
Y871000D02*
D03*
X548000D02*
D03*
D34*
X874500Y758650D02*
D03*
Y745950D02*
D03*
Y771350D02*
D03*
Y784050D02*
D03*
X765500Y758650D02*
D03*
Y745950D02*
D03*
Y771350D02*
D03*
Y784050D02*
D03*
X1639500Y758650D02*
D03*
Y745950D02*
D03*
Y771350D02*
D03*
Y784050D02*
D03*
X1530500Y758650D02*
D03*
Y745950D02*
D03*
Y771350D02*
D03*
Y784050D02*
D03*
X1264500Y758650D02*
D03*
Y745950D02*
D03*
Y771350D02*
D03*
Y784050D02*
D03*
X1155500Y758650D02*
D03*
Y745950D02*
D03*
Y771350D02*
D03*
Y784050D02*
D03*
D35*
X1134000Y883000D02*
D03*
X566500Y530385D02*
D03*
D36*
X1121300Y883000D02*
D03*
X1108600D02*
D03*
X1095900D02*
D03*
X1134000Y827000D02*
D03*
X1121300D02*
D03*
X1108600D02*
D03*
X1095900D02*
D03*
X553800Y530385D02*
D03*
X541100D02*
D03*
X528400D02*
D03*
X566500Y474385D02*
D03*
X553800D02*
D03*
X541100D02*
D03*
X528400D02*
D03*
D37*
X867700Y890000D02*
D03*
X852300D02*
D03*
X852300Y820000D02*
D03*
X867700D02*
D03*
X717300Y325000D02*
D03*
X732700D02*
D03*
X717300Y410000D02*
D03*
X732700D02*
D03*
X717300Y575000D02*
D03*
X732700D02*
D03*
X717300Y660000D02*
D03*
X732700D02*
D03*
X1307700Y890000D02*
D03*
X1292300D02*
D03*
X732700Y535000D02*
D03*
X717300D02*
D03*
X1292300Y820000D02*
D03*
X1307700D02*
D03*
X1107300Y900000D02*
D03*
X1122700D02*
D03*
X732700Y475000D02*
D03*
X717300D02*
D03*
D38*
X515000Y787000D02*
D03*
Y773000D02*
D03*
D39*
X1290000Y841046D02*
D03*
Y868954D02*
D03*
X720000Y491046D02*
D03*
Y518954D02*
D03*
X995000Y868954D02*
D03*
Y841046D02*
D03*
D40*
X675700Y527400D02*
D03*
Y502000D02*
D03*
Y476600D02*
D03*
X584300D02*
D03*
Y502000D02*
D03*
Y527400D02*
D03*
X1250700Y880400D02*
D03*
Y855000D02*
D03*
Y829600D02*
D03*
X1159300D02*
D03*
Y855000D02*
D03*
Y880400D02*
D03*
D41*
X676900Y419550D02*
D03*
Y406850D02*
D03*
Y394150D02*
D03*
Y381450D02*
D03*
Y343350D02*
D03*
Y356050D02*
D03*
Y368750D02*
D03*
Y330650D02*
D03*
X583100D02*
D03*
Y368750D02*
D03*
Y356050D02*
D03*
Y343350D02*
D03*
Y381450D02*
D03*
Y394150D02*
D03*
Y406850D02*
D03*
X676900Y669550D02*
D03*
Y656850D02*
D03*
Y644150D02*
D03*
Y631450D02*
D03*
Y593350D02*
D03*
Y606050D02*
D03*
Y618750D02*
D03*
Y580650D02*
D03*
X583100D02*
D03*
Y618750D02*
D03*
Y606050D02*
D03*
Y593350D02*
D03*
Y631450D02*
D03*
Y644150D02*
D03*
Y656850D02*
D03*
D42*
Y419550D02*
D03*
Y669550D02*
D03*
D78*
X830000Y585000D02*
D03*
Y670000D02*
D03*
Y335000D02*
D03*
Y420000D02*
D03*
D79*
X790395Y565950D02*
D03*
Y604050D02*
D03*
Y578650D02*
D03*
Y591350D02*
D03*
Y650950D02*
D03*
Y689050D02*
D03*
Y663650D02*
D03*
Y676350D02*
D03*
Y315950D02*
D03*
Y354050D02*
D03*
Y328650D02*
D03*
Y341350D02*
D03*
Y400950D02*
D03*
Y439050D02*
D03*
Y413650D02*
D03*
Y426350D02*
D03*
D80*
X722300Y522700D02*
X725000Y520000D01*
X690000D02*
X720000D01*
X1675000Y735000D02*
Y745000D01*
X1280000Y870000D02*
X1290000D01*
Y890000D01*
X740000Y690000D02*
Y695000D01*
Y480000D02*
Y490000D01*
X695000Y495000D02*
X705000D01*
X710000Y490000D02*
X740000D01*
X695000Y355000D02*
X700000Y360000D01*
X989500Y769500D02*
X990000Y770000D01*
X989500Y740000D02*
Y769500D01*
X1384500Y769500D02*
X1385000Y770000D01*
X1384500Y740000D02*
Y769500D01*
X1310000Y870000D02*
X1313000D01*
X1310000Y875000D02*
Y900000D01*
X1289920Y745080D02*
X1290000Y745000D01*
X745000Y520000D02*
Y532700D01*
X1610000Y725000D02*
Y805000D01*
X1600000Y815000D02*
X1610000Y805000D01*
X1335000Y815000D02*
X1600000D01*
X1313000Y870000D02*
X1640000D01*
X1685000Y785000D02*
Y825000D01*
X1640000Y870000D02*
X1685000Y825000D01*
X1385000Y705000D02*
Y725000D01*
X1335000Y725000D02*
Y755000D01*
X1235000Y725000D02*
X1335000D01*
Y785000D02*
Y815000D01*
X1120000Y828300D02*
X1121300Y827000D01*
X1120000Y881700D02*
X1121300Y883000D01*
X1120000Y875000D02*
Y881700D01*
Y828300D02*
Y855000D01*
X1230000Y725000D02*
Y900000D01*
X676900Y356050D02*
X693950D01*
X715000Y690000D02*
X740000D01*
X675000Y498600D02*
X675700Y499300D01*
X675000Y495000D02*
Y498600D01*
Y495000D02*
X685000Y485000D01*
X660000Y500000D02*
Y510000D01*
Y495000D02*
Y500000D01*
X673700D01*
X675700Y502000D01*
X1230000Y900000D02*
X1310000D01*
X1230000Y725000D02*
X1235000D01*
X910080D02*
Y745000D01*
X1640000Y725000D02*
X1685000D01*
X1610000D02*
X1640000D01*
Y745000D01*
X910080D02*
Y745080D01*
X1312000Y871000D02*
X1313000Y870000D01*
X1307700Y872300D02*
X1310000Y870000D01*
X1307700Y872300D02*
Y890000D01*
X1685000Y725000D02*
Y745000D01*
X1265000D02*
X1289920D01*
X1095900Y874100D02*
X1100000Y870000D01*
X1095900Y874100D02*
Y883000D01*
X1120000Y900000D02*
X1121300Y898700D01*
Y883000D02*
Y898700D01*
X1338000Y855000D02*
X1343000Y860000D01*
X693950Y356050D02*
X695000Y355000D01*
X1336919Y859754D02*
X1338000Y860000D01*
X1316000Y855000D02*
X1336919Y859754D01*
X1655000Y735000D02*
X1675000D01*
X740000Y475000D02*
Y480000D01*
Y472300D02*
Y475000D01*
X732700D02*
X740000D01*
X675000Y505000D02*
X675000D01*
X690000Y520000D01*
X675000Y500000D02*
X675700Y499300D01*
X685000Y485000D02*
X700000D01*
X710000Y475000D01*
X717300D01*
Y522700D02*
X720000Y520000D01*
X717300Y522700D02*
Y535000D01*
X732700D02*
X745000D01*
Y532700D02*
Y535000D01*
X1330000Y830000D02*
Y850000D01*
X1320000Y820000D02*
X1330000Y830000D01*
X1307700Y820000D02*
X1320000D01*
X1290000Y868954D02*
Y870000D01*
X1275000Y875000D02*
X1280000Y870000D01*
X1265000Y875000D02*
X1275000D01*
X1250700Y860700D02*
X1265000Y875000D01*
X1250700Y855000D02*
Y860700D01*
X1295000Y855000D02*
X1316000D01*
X1290000Y860000D02*
Y868954D01*
Y860000D02*
X1295000Y855000D01*
X745000Y532700D02*
X745000Y532700D01*
X745000Y520000D02*
X745000Y520000D01*
X733954Y505000D02*
X735000D01*
X720000Y518954D02*
X733954Y505000D01*
X735000D02*
X745000D01*
X740000Y490000D02*
X746000D01*
X705000Y495000D02*
X710000Y490000D01*
X675700Y499300D02*
Y502000D01*
X740000Y460000D02*
Y470000D01*
X1345000Y770000D02*
X1365500D01*
D81*
X518240Y529505D02*
X528450D01*
X1110000Y900000D02*
Y920000D01*
X1105000Y900000D02*
Y902300D01*
X915000Y850000D02*
Y855000D01*
X510000Y495015D02*
X539550D01*
X495000Y495000D02*
X510000D01*
X1159300Y880379D02*
X1160650Y880400D01*
X1135000Y880000D02*
X1159300Y880379D01*
Y829621D02*
X1160650Y829600D01*
X1135000Y830000D02*
X1159300Y829621D01*
X1735000Y900000D02*
X1740000Y905000D01*
X940000Y920000D02*
X1110000Y920000D01*
X940000Y915000D02*
Y920000D01*
X495000D02*
X940000D01*
X495000Y700000D02*
Y920000D01*
X990000Y680000D02*
Y725000D01*
X965000Y680000D02*
X990000D01*
X857700Y857300D02*
X860000Y855000D01*
X495000Y495000D02*
Y700000D01*
X940000Y855000D02*
Y910000D01*
X875000Y710000D02*
Y745000D01*
X860000Y720000D02*
Y785000D01*
X725000Y705000D02*
X729400Y709400D01*
X740775D01*
X940000Y855000D02*
X970500D01*
X915000D02*
X940000D01*
X860000Y785000D02*
X870000D01*
X1745000Y905000D02*
X1780000D01*
X1739000D02*
X1740000D01*
X910000Y855000D02*
X915000D01*
X495000Y700000D02*
X497000Y702000D01*
X1105000Y902300D02*
X1107300Y900000D01*
X510000Y495000D02*
Y495015D01*
Y485000D02*
Y495000D01*
X539550Y495015D02*
X541150Y496615D01*
Y501615D02*
Y529505D01*
Y501615D02*
X541535Y502000D01*
X584300D01*
X541150Y475265D02*
Y496615D01*
Y501615D01*
X566550Y475265D02*
X567885Y476600D01*
X584300D01*
X568655Y527400D02*
X584300D01*
X566550Y529505D02*
X568655Y527400D01*
X553850Y512765D02*
Y529505D01*
X510000Y521265D02*
X518240Y529505D01*
X553850Y475265D02*
Y490265D01*
D82*
X1900000Y475000D02*
X1975000D01*
X1770000Y345000D02*
X1900000Y475000D01*
X2072500Y200000D02*
Y209167D01*
X2073000Y209000D02*
X2085000Y205000D01*
X2072500Y209167D02*
Y377500D01*
Y187500D02*
Y200000D01*
X2070000Y185000D02*
X2072500Y187500D01*
X2070000Y210000D02*
X2072500Y209167D01*
X1585000Y705000D02*
X1750000Y540000D01*
X2020000D02*
X2070000Y590000D01*
X1750000Y540000D02*
X2020000D01*
X1770000Y260000D02*
Y345000D01*
X2072500Y209167D02*
X2073000Y209000D01*
X1900000Y220000D02*
Y365000D01*
Y215000D02*
Y220000D01*
Y200000D02*
Y215000D01*
X1635000Y440000D02*
X1685000Y490000D01*
X970000Y875000D02*
X995000D01*
X1900000Y220000D02*
X1905000Y215000D01*
X1541000Y630000D02*
X1580000D01*
X1390000Y300000D02*
X1390000D01*
X1410000Y320000D01*
X1545000D01*
X1580000Y355000D01*
X1635000Y412500D02*
Y440000D01*
X1580000Y357500D02*
X1635000Y412500D01*
X1500000Y430000D02*
X1501000Y429000D01*
X1520000D01*
X1519000Y459000D02*
X1520000Y460000D01*
X1495000Y459000D02*
X1519000D01*
X1519000Y491000D02*
X1520000Y490000D01*
X1495000Y491000D02*
X1519000D01*
X1519000Y519000D02*
X1520000Y520000D01*
X1495000Y519000D02*
X1519000D01*
X1500000Y550000D02*
X1501000Y549000D01*
X1520000D01*
X1514000Y579000D02*
X1515000Y580000D01*
X1495000Y579000D02*
X1514000D01*
X1520000Y609000D02*
X1541000Y630000D01*
X1435000Y705000D02*
X1585000D01*
X1390000D02*
X1435000D01*
Y705000D01*
Y435000D02*
Y705000D01*
Y705000D02*
X1445000D01*
X1435000Y435000D02*
X1469000Y401000D01*
X1520000D01*
X1375000Y625000D02*
X1390000D01*
X1355000Y605000D02*
X1375000Y625000D01*
X1370000Y400000D02*
X1390000Y380000D01*
X1355000Y400000D02*
X1370000D01*
X995000Y875000D02*
Y895000D01*
X1905000Y215000D02*
X1910000D01*
D83*
X785000Y415000D02*
Y420000D01*
Y665000D02*
Y670000D01*
X510000Y510515D02*
Y521265D01*
D84*
X1460000Y137500D02*
D03*
X1265000D02*
D03*
D85*
X1935000Y640000D02*
D03*
X2040000D02*
D03*
D86*
X917500Y820000D02*
D03*
D87*
X1250000Y287500D02*
D03*
D88*
X1715000Y665000D02*
D03*
X1795000Y665000D02*
D03*
D89*
X855000Y872500D02*
D03*
D90*
X1700000Y907500D02*
D03*
D91*
X910000Y877500D02*
D03*
D92*
X980000Y825000D02*
D03*
D93*
X1985000Y240000D02*
D03*
D94*
Y290000D02*
D03*
D95*
X2052500D02*
D03*
X1917500D02*
D03*
D96*
X937500Y345000D02*
D03*
D97*
X930000Y547500D02*
D03*
D98*
X895000Y670000D02*
D03*
D99*
X900000Y422500D02*
D03*
D100*
X782500Y675000D02*
D03*
D101*
Y427500D02*
D03*
D102*
Y345000D02*
D03*
D103*
X787500D02*
D03*
D104*
X780000Y597500D02*
D03*
D105*
X787500D02*
D03*
D106*
X830000Y360000D02*
D03*
D107*
Y597500D02*
D03*
D108*
X1265000Y110000D02*
D03*
X1075000D02*
D03*
X1455000D02*
D03*
X1645000D02*
D03*
X2070000Y200000D02*
D03*
X1985000D02*
D03*
X1900000D02*
D03*
D109*
X1360000Y152500D02*
D03*
Y227500D02*
D03*
X1740000Y152500D02*
D03*
Y227500D02*
D03*
X1550000Y152500D02*
D03*
Y227500D02*
D03*
X1170000Y152500D02*
D03*
Y227500D02*
D03*
X980000Y152500D02*
D03*
Y227500D02*
D03*
X1355000Y480000D02*
D03*
Y400000D02*
D03*
Y525000D02*
D03*
Y605000D02*
D03*
X1390000Y300000D02*
D03*
Y380000D02*
D03*
Y705000D02*
D03*
Y625000D02*
D03*
D110*
X810800Y902700D02*
D03*
X785400D02*
D03*
X760000D02*
D03*
X734600D02*
D03*
X709200D02*
D03*
Y877300D02*
D03*
X734600D02*
D03*
X760000D02*
D03*
X785400D02*
D03*
X810800D02*
D03*
D111*
X1975000Y475000D02*
D03*
D112*
X827500Y190000D02*
D03*
X552500D02*
D03*
X1580000Y632500D02*
D03*
Y357500D02*
D03*
D113*
X1055000Y332920D02*
D03*
Y465000D02*
D03*
Y670000D02*
D03*
Y537920D02*
D03*
X1683960Y490000D02*
D03*
X1816040D02*
D03*
D114*
X1783000Y902000D02*
D03*
X2077000Y850000D02*
D03*
D115*
X1783000Y748000D02*
D03*
X2077000Y800000D02*
D03*
X2072500Y377500D02*
D03*
Y592500D02*
D03*
D116*
X1897500Y377500D02*
D03*
Y592500D02*
D03*
D117*
X625000Y730000D02*
D03*
X640000Y735000D02*
D03*
X805000Y835000D02*
D03*
X780000Y830000D02*
D03*
X885000Y815000D02*
D03*
X840000Y840000D02*
D03*
X540000Y440000D02*
D03*
X575000D02*
D03*
X825000Y890000D02*
D03*
X735000Y830000D02*
D03*
X680000Y755000D02*
D03*
X675000Y760000D02*
D03*
X720000D02*
D03*
X575000Y875000D02*
D03*
X825000Y910000D02*
D03*
X1720000Y655000D02*
D03*
X1710000D02*
D03*
Y665000D02*
D03*
X1720000D02*
D03*
Y675000D02*
D03*
X1710000D02*
D03*
X1705000Y915000D02*
D03*
X1120000Y875000D02*
D03*
Y855000D02*
D03*
X995000Y815000D02*
D03*
X980000D02*
D03*
X970000D02*
D03*
Y835000D02*
D03*
X530000Y820000D02*
D03*
X700000Y360000D02*
D03*
X525000Y730000D02*
D03*
X560000D02*
D03*
X700000Y840000D02*
D03*
X505000Y800000D02*
D03*
X565000Y740000D02*
D03*
X535000D02*
D03*
X560000Y745000D02*
D03*
X520000D02*
D03*
X540000Y750000D02*
D03*
X565000D02*
D03*
X620000D02*
D03*
X640000D02*
D03*
X590000Y735000D02*
D03*
X545000Y765000D02*
D03*
X695000Y770000D02*
D03*
X775000Y415000D02*
D03*
Y425000D02*
D03*
Y435000D02*
D03*
Y665000D02*
D03*
Y675000D02*
D03*
Y685000D02*
D03*
X780000Y680000D02*
D03*
Y670000D02*
D03*
X715000Y690000D02*
D03*
X860000Y880000D02*
D03*
X850000D02*
D03*
X845000Y370000D02*
D03*
X835000D02*
D03*
X825000D02*
D03*
X815000D02*
D03*
X530000Y795000D02*
D03*
X550000Y800000D02*
D03*
X560000Y825000D02*
D03*
X995000Y895000D02*
D03*
X820000Y840000D02*
D03*
Y820000D02*
D03*
X910000Y720000D02*
D03*
X875000Y710000D02*
D03*
X860000Y720000D02*
D03*
X700000Y780000D02*
D03*
X695000Y790000D02*
D03*
X735000Y765000D02*
D03*
X1685000Y915000D02*
D03*
X1695000Y915000D02*
D03*
X995000Y835000D02*
D03*
X980000Y835000D02*
D03*
X815000Y845000D02*
D03*
Y825000D02*
D03*
X755000Y785000D02*
D03*
Y770000D02*
D03*
X1685000Y745000D02*
D03*
Y785000D02*
D03*
X1100000Y870000D02*
D03*
X1485000Y760000D02*
D03*
X1115000D02*
D03*
X780000Y420000D02*
D03*
Y430000D02*
D03*
Y440000D02*
D03*
Y610000D02*
D03*
Y600000D02*
D03*
Y590000D02*
D03*
Y335000D02*
D03*
Y355000D02*
D03*
Y345000D02*
D03*
X775000Y340000D02*
D03*
Y330000D02*
D03*
Y585000D02*
D03*
X690000Y605000D02*
D03*
X550000Y890000D02*
D03*
X745000Y535000D02*
D03*
X735000Y505000D02*
D03*
X710000Y490000D02*
D03*
X740000Y480000D02*
D03*
Y470000D02*
D03*
X1495000Y785000D02*
D03*
X1500000Y770000D02*
D03*
X1125000D02*
D03*
X1145000Y760000D02*
D03*
X1145000Y770000D02*
D03*
X1135000Y785000D02*
D03*
X1500000Y780000D02*
D03*
X1495000Y775000D02*
D03*
X1800000Y655000D02*
D03*
X1790000D02*
D03*
Y665000D02*
D03*
X1800000D02*
D03*
Y675000D02*
D03*
X1790000D02*
D03*
X530000Y645000D02*
D03*
X540000Y635000D02*
D03*
X660000Y510000D02*
D03*
X570000Y370250D02*
D03*
X555000Y375250D02*
D03*
X520000Y410000D02*
D03*
X525000Y385000D02*
D03*
X600000Y620000D02*
D03*
Y631000D02*
D03*
X535000Y670000D02*
D03*
X610000Y890000D02*
D03*
X660000Y495000D02*
D03*
X785000Y665000D02*
D03*
Y675000D02*
D03*
Y685000D02*
D03*
Y435000D02*
D03*
Y425000D02*
D03*
Y415000D02*
D03*
X840000Y365000D02*
D03*
X820000D02*
D03*
X830000D02*
D03*
Y615000D02*
D03*
X820000D02*
D03*
X840000D02*
D03*
X845000Y625000D02*
D03*
X835000D02*
D03*
X825000D02*
D03*
X815000D02*
D03*
X785000Y330000D02*
D03*
Y340000D02*
D03*
Y350000D02*
D03*
X775000D02*
D03*
X785000Y360000D02*
D03*
X775000D02*
D03*
X785000Y585000D02*
D03*
Y595000D02*
D03*
X775000D02*
D03*
Y605000D02*
D03*
X785000D02*
D03*
Y615000D02*
D03*
X775000D02*
D03*
X600000Y367500D02*
D03*
X510000Y485000D02*
D03*
X686300Y321550D02*
D03*
X686275Y571500D02*
D03*
X678300Y321550D02*
D03*
X670275Y571500D02*
D03*
X678275D02*
D03*
X1847500Y343270D02*
D03*
X670300Y321550D02*
D03*
X600000Y380250D02*
D03*
X572500Y452500D02*
D03*
X657500Y852500D02*
D03*
X553850Y512765D02*
D03*
X625000Y815000D02*
D03*
X652500Y787500D02*
D03*
X553850Y490265D02*
D03*
X595000Y840000D02*
D03*
X585000Y775000D02*
D03*
X510000Y521265D02*
D03*
X550000Y570000D02*
D03*
X600000Y645250D02*
D03*
Y395250D02*
D03*
M02*
