G04*
G04 #@! TF.GenerationSoftware,Altium Limited,Altium Designer,18.1.7 (191)*
G04*
G04 Layer_Color=255*
%FSLAX44Y44*%
%MOMM*%
G71*
G01*
G75*
%ADD108C,6.0000*%
%ADD109C,1.9000*%
%ADD110R,1.6000X1.6000*%
%ADD111C,1.5240*%
%ADD112C,1.8000*%
%ADD113C,1.5900*%
%ADD114O,2.6000X2.4000*%
%ADD115C,2.6000*%
%ADD116O,2.4000X2.6000*%
D108*
X1265000Y110000D02*
D03*
X1075000D02*
D03*
X1455000D02*
D03*
X1645000D02*
D03*
X2070000Y200000D02*
D03*
X1985000D02*
D03*
X1900000D02*
D03*
D109*
X1360000Y152500D02*
D03*
Y227500D02*
D03*
X1740000Y152500D02*
D03*
Y227500D02*
D03*
X1550000Y152500D02*
D03*
Y227500D02*
D03*
X1170000Y152500D02*
D03*
Y227500D02*
D03*
X980000Y152500D02*
D03*
Y227500D02*
D03*
X1355000Y480000D02*
D03*
Y400000D02*
D03*
Y525000D02*
D03*
Y605000D02*
D03*
X1390000Y300000D02*
D03*
Y380000D02*
D03*
Y705000D02*
D03*
Y625000D02*
D03*
D110*
X810800Y902700D02*
D03*
X785400D02*
D03*
X760000D02*
D03*
X734600D02*
D03*
X709200D02*
D03*
Y877300D02*
D03*
X734600D02*
D03*
X760000D02*
D03*
X785400D02*
D03*
X810800D02*
D03*
D111*
X1975000Y475000D02*
D03*
D112*
X827500Y190000D02*
D03*
X552500D02*
D03*
X1580000Y632500D02*
D03*
Y357500D02*
D03*
D113*
X1055000Y332920D02*
D03*
Y465000D02*
D03*
Y670000D02*
D03*
Y537920D02*
D03*
X1683960Y490000D02*
D03*
X1816040D02*
D03*
D114*
X1783000Y902000D02*
D03*
X2077000Y850000D02*
D03*
D115*
X1783000Y748000D02*
D03*
X2077000Y800000D02*
D03*
X2072500Y377500D02*
D03*
Y592500D02*
D03*
D116*
X1897500Y377500D02*
D03*
Y592500D02*
D03*
M02*
