G04*
G04 #@! TF.GenerationSoftware,Altium Limited,Altium Designer,18.1.7 (191)*
G04*
G04 Layer_Color=65535*
%FSLAX44Y44*%
%MOMM*%
G71*
G01*
G75*
%ADD10C,0.1500*%
%ADD11C,0.2000*%
%ADD12C,0.2500*%
%ADD13C,0.2540*%
%ADD14C,0.1000*%
%ADD15C,0.1270*%
%ADD16C,0.3000*%
G36*
X605409Y689003D02*
X600591D01*
Y690583D01*
X605409D01*
Y689003D01*
D02*
G37*
G36*
X804910Y700000D02*
X804120D01*
Y705013D01*
X804110Y705004D01*
X804071Y704965D01*
X804003Y704916D01*
X803915Y704847D01*
X803808Y704760D01*
X803681Y704672D01*
X803534Y704565D01*
X803369Y704467D01*
X803359D01*
X803349Y704457D01*
X803290Y704418D01*
X803203Y704370D01*
X803095Y704311D01*
X802969Y704243D01*
X802832Y704184D01*
X802686Y704116D01*
X802549Y704057D01*
Y704828D01*
X802559D01*
X802579Y704838D01*
X802617Y704857D01*
X802657Y704887D01*
X802715Y704916D01*
X802783Y704945D01*
X802939Y705033D01*
X803115Y705140D01*
X803310Y705267D01*
X803505Y705413D01*
X803690Y705569D01*
X803700Y705579D01*
X803710Y705589D01*
X803768Y705647D01*
X803856Y705735D01*
X803963Y705842D01*
X804081Y705979D01*
X804198Y706125D01*
X804305Y706281D01*
X804393Y706437D01*
X804910D01*
Y700000D01*
D02*
G37*
G36*
X798199Y706506D02*
X798277D01*
X798375Y706496D01*
X798472Y706476D01*
X798589Y706467D01*
X798833Y706408D01*
X799106Y706330D01*
X799379Y706233D01*
X799516Y706164D01*
X799652Y706086D01*
X799662D01*
X799682Y706067D01*
X799721Y706047D01*
X799770Y706008D01*
X799828Y705969D01*
X799896Y705911D01*
X800052Y705784D01*
X800228Y705618D01*
X800413Y705413D01*
X800579Y705179D01*
X800735Y704906D01*
Y704896D01*
X800755Y704877D01*
X800774Y704828D01*
X800794Y704770D01*
X800823Y704701D01*
X800852Y704623D01*
X800891Y704526D01*
X800930Y704409D01*
X800959Y704292D01*
X800998Y704155D01*
X801057Y703872D01*
X801096Y703550D01*
X801115Y703199D01*
Y703189D01*
Y703160D01*
Y703121D01*
Y703063D01*
X801106Y702994D01*
Y702916D01*
X801096Y702829D01*
X801086Y702721D01*
X801057Y702507D01*
X801008Y702263D01*
X800950Y702019D01*
X800872Y701775D01*
Y701765D01*
X800862Y701746D01*
X800842Y701717D01*
X800823Y701668D01*
X800803Y701619D01*
X800764Y701551D01*
X800686Y701404D01*
X800589Y701239D01*
X800462Y701053D01*
X800316Y700868D01*
X800140Y700683D01*
X800150D01*
X800169Y700663D01*
X800199Y700644D01*
X800238Y700614D01*
X800296Y700585D01*
X800355Y700546D01*
X800501Y700458D01*
X800667Y700361D01*
X800852Y700263D01*
X801047Y700166D01*
X801242Y700088D01*
X800979Y699512D01*
X800969D01*
X800950Y699522D01*
X800911Y699542D01*
X800862Y699561D01*
X800803Y699581D01*
X800725Y699620D01*
X800647Y699659D01*
X800550Y699698D01*
X800345Y699805D01*
X800111Y699941D01*
X799857Y700098D01*
X799604Y700283D01*
X799594D01*
X799574Y700263D01*
X799535Y700244D01*
X799477Y700224D01*
X799409Y700195D01*
X799331Y700156D01*
X799243Y700127D01*
X799145Y700088D01*
X799028Y700049D01*
X798911Y700020D01*
X798638Y699951D01*
X798345Y699912D01*
X798033Y699893D01*
X797946D01*
X797887Y699902D01*
X797809D01*
X797721Y699912D01*
X797624Y699932D01*
X797516Y699941D01*
X797273Y699990D01*
X797009Y700068D01*
X796736Y700166D01*
X796463Y700302D01*
X796453Y700312D01*
X796434Y700322D01*
X796395Y700351D01*
X796346Y700380D01*
X796288Y700419D01*
X796219Y700478D01*
X796063Y700605D01*
X795888Y700770D01*
X795712Y700975D01*
X795536Y701209D01*
X795380Y701482D01*
Y701492D01*
X795361Y701522D01*
X795341Y701561D01*
X795322Y701619D01*
X795293Y701687D01*
X795263Y701775D01*
X795224Y701873D01*
X795195Y701980D01*
X795156Y702107D01*
X795117Y702234D01*
X795059Y702526D01*
X795020Y702848D01*
X795000Y703199D01*
Y703209D01*
Y703238D01*
Y703297D01*
X795010Y703355D01*
Y703443D01*
X795020Y703541D01*
X795029Y703648D01*
X795049Y703765D01*
X795098Y704038D01*
X795156Y704321D01*
X795254Y704623D01*
X795380Y704916D01*
Y704926D01*
X795400Y704955D01*
X795419Y704994D01*
X795449Y705043D01*
X795488Y705111D01*
X795536Y705189D01*
X795663Y705355D01*
X795819Y705550D01*
X796005Y705745D01*
X796219Y705940D01*
X796473Y706106D01*
X796482Y706115D01*
X796502Y706125D01*
X796541Y706145D01*
X796600Y706174D01*
X796668Y706203D01*
X796746Y706233D01*
X796834Y706272D01*
X796941Y706311D01*
X797048Y706350D01*
X797175Y706389D01*
X797438Y706447D01*
X797741Y706496D01*
X798053Y706515D01*
X798141D01*
X798199Y706506D01*
D02*
G37*
G36*
X804139Y621428D02*
X804266Y621408D01*
X804412Y621379D01*
X804578Y621340D01*
X804744Y621281D01*
X804910Y621203D01*
X804919D01*
X804929Y621194D01*
X804988Y621164D01*
X805066Y621115D01*
X805163Y621047D01*
X805270Y620959D01*
X805388Y620852D01*
X805495Y620725D01*
X805592Y620589D01*
X805602Y620569D01*
X805631Y620521D01*
X805670Y620443D01*
X805709Y620345D01*
X805749Y620218D01*
X805788Y620082D01*
X805817Y619935D01*
X805826Y619770D01*
Y619750D01*
Y619701D01*
X805817Y619623D01*
X805797Y619526D01*
X805768Y619409D01*
X805729Y619282D01*
X805680Y619145D01*
X805602Y619019D01*
X805592Y618999D01*
X805563Y618960D01*
X805505Y618901D01*
X805436Y618823D01*
X805339Y618736D01*
X805231Y618648D01*
X805095Y618550D01*
X804939Y618472D01*
X804949D01*
X804968Y618462D01*
X804997D01*
X805036Y618443D01*
X805134Y618414D01*
X805261Y618355D01*
X805397Y618287D01*
X805544Y618189D01*
X805690Y618072D01*
X805817Y617926D01*
X805826Y617907D01*
X805865Y617848D01*
X805914Y617760D01*
X805983Y617643D01*
X806041Y617497D01*
X806090Y617321D01*
X806129Y617117D01*
X806139Y616892D01*
Y616882D01*
Y616853D01*
Y616814D01*
X806129Y616756D01*
X806119Y616678D01*
X806109Y616600D01*
X806090Y616502D01*
X806061Y616404D01*
X805992Y616180D01*
X805944Y616053D01*
X805875Y615936D01*
X805807Y615819D01*
X805729Y615702D01*
X805631Y615585D01*
X805524Y615468D01*
X805514Y615458D01*
X805495Y615439D01*
X805466Y615419D01*
X805417Y615380D01*
X805358Y615332D01*
X805280Y615283D01*
X805192Y615234D01*
X805105Y615185D01*
X804997Y615127D01*
X804880Y615078D01*
X804754Y615029D01*
X804617Y614981D01*
X804471Y614941D01*
X804315Y614922D01*
X804149Y614902D01*
X803983Y614893D01*
X803905D01*
X803847Y614902D01*
X803768Y614912D01*
X803690Y614922D01*
X803593Y614932D01*
X803495Y614951D01*
X803271Y615010D01*
X803037Y615107D01*
X802920Y615156D01*
X802813Y615224D01*
X802696Y615302D01*
X802588Y615390D01*
X802579Y615400D01*
X802569Y615410D01*
X802540Y615439D01*
X802501Y615478D01*
X802461Y615536D01*
X802413Y615595D01*
X802354Y615663D01*
X802305Y615741D01*
X802188Y615936D01*
X802091Y616161D01*
X802003Y616414D01*
X801974Y616551D01*
X801954Y616697D01*
X802744Y616804D01*
Y616795D01*
X802754Y616775D01*
Y616736D01*
X802774Y616697D01*
X802803Y616580D01*
X802852Y616434D01*
X802910Y616278D01*
X802988Y616112D01*
X803086Y615966D01*
X803193Y615839D01*
X803213Y615829D01*
X803251Y615790D01*
X803320Y615751D01*
X803417Y615692D01*
X803525Y615644D01*
X803661Y615595D01*
X803817Y615556D01*
X803983Y615546D01*
X804042D01*
X804081Y615556D01*
X804178Y615566D01*
X804305Y615595D01*
X804461Y615644D01*
X804617Y615702D01*
X804773Y615800D01*
X804919Y615927D01*
X804939Y615946D01*
X804978Y615995D01*
X805036Y616073D01*
X805115Y616190D01*
X805183Y616326D01*
X805241Y616492D01*
X805280Y616678D01*
X805300Y616882D01*
Y616892D01*
Y616902D01*
Y616931D01*
X805290Y616970D01*
X805280Y617068D01*
X805251Y617195D01*
X805212Y617331D01*
X805144Y617487D01*
X805056Y617634D01*
X804939Y617770D01*
X804919Y617789D01*
X804880Y617828D01*
X804802Y617877D01*
X804695Y617946D01*
X804568Y618014D01*
X804412Y618063D01*
X804246Y618102D01*
X804051Y618121D01*
X803963D01*
X803895Y618111D01*
X803817Y618102D01*
X803720Y618092D01*
X803612Y618072D01*
X803495Y618043D01*
X803583Y618736D01*
X803632D01*
X803671Y618726D01*
X803798D01*
X803885Y618736D01*
X804012Y618755D01*
X804149Y618784D01*
X804295Y618833D01*
X804451Y618892D01*
X804607Y618979D01*
X804627Y618989D01*
X804676Y619028D01*
X804734Y619096D01*
X804812Y619184D01*
X804890Y619292D01*
X804949Y619428D01*
X804997Y619594D01*
X805017Y619789D01*
Y619799D01*
Y619809D01*
Y619857D01*
X804997Y619935D01*
X804978Y620043D01*
X804949Y620150D01*
X804890Y620267D01*
X804822Y620394D01*
X804724Y620501D01*
X804715Y620511D01*
X804676Y620550D01*
X804607Y620599D01*
X804520Y620647D01*
X804412Y620706D01*
X804285Y620745D01*
X804139Y620784D01*
X803973Y620794D01*
X803895D01*
X803808Y620774D01*
X803710Y620755D01*
X803583Y620725D01*
X803456Y620667D01*
X803330Y620599D01*
X803203Y620501D01*
X803193Y620491D01*
X803154Y620452D01*
X803105Y620384D01*
X803047Y620286D01*
X802978Y620169D01*
X802920Y620023D01*
X802861Y619847D01*
X802822Y619643D01*
X802032Y619779D01*
Y619789D01*
X802042Y619818D01*
X802052Y619857D01*
X802062Y619906D01*
X802081Y619974D01*
X802101Y620052D01*
X802169Y620228D01*
X802247Y620423D01*
X802364Y620628D01*
X802501Y620823D01*
X802676Y620998D01*
X802686Y621008D01*
X802696Y621018D01*
X802725Y621037D01*
X802774Y621067D01*
X802822Y621096D01*
X802881Y621135D01*
X803027Y621223D01*
X803213Y621301D01*
X803437Y621369D01*
X803681Y621418D01*
X803817Y621437D01*
X804042D01*
X804139Y621428D01*
D02*
G37*
G36*
X798199Y621506D02*
X798277D01*
X798375Y621496D01*
X798472Y621476D01*
X798589Y621467D01*
X798833Y621408D01*
X799106Y621330D01*
X799379Y621232D01*
X799516Y621164D01*
X799652Y621086D01*
X799662D01*
X799682Y621067D01*
X799721Y621047D01*
X799770Y621008D01*
X799828Y620969D01*
X799896Y620911D01*
X800052Y620784D01*
X800228Y620618D01*
X800413Y620413D01*
X800579Y620179D01*
X800735Y619906D01*
Y619896D01*
X800755Y619877D01*
X800774Y619828D01*
X800794Y619770D01*
X800823Y619701D01*
X800852Y619623D01*
X800891Y619526D01*
X800930Y619409D01*
X800959Y619292D01*
X800998Y619155D01*
X801057Y618872D01*
X801096Y618550D01*
X801115Y618199D01*
Y618189D01*
Y618160D01*
Y618121D01*
Y618063D01*
X801106Y617994D01*
Y617916D01*
X801096Y617828D01*
X801086Y617721D01*
X801057Y617507D01*
X801008Y617263D01*
X800950Y617019D01*
X800872Y616775D01*
Y616765D01*
X800862Y616746D01*
X800842Y616717D01*
X800823Y616668D01*
X800803Y616619D01*
X800764Y616551D01*
X800686Y616404D01*
X800589Y616239D01*
X800462Y616053D01*
X800316Y615868D01*
X800140Y615683D01*
X800150D01*
X800169Y615663D01*
X800199Y615644D01*
X800238Y615615D01*
X800296Y615585D01*
X800355Y615546D01*
X800501Y615458D01*
X800667Y615361D01*
X800852Y615263D01*
X801047Y615166D01*
X801242Y615088D01*
X800979Y614512D01*
X800969D01*
X800950Y614522D01*
X800911Y614542D01*
X800862Y614561D01*
X800803Y614581D01*
X800725Y614620D01*
X800647Y614659D01*
X800550Y614698D01*
X800345Y614805D01*
X800111Y614941D01*
X799857Y615098D01*
X799604Y615283D01*
X799594D01*
X799574Y615263D01*
X799535Y615244D01*
X799477Y615224D01*
X799409Y615195D01*
X799331Y615156D01*
X799243Y615127D01*
X799145Y615088D01*
X799028Y615049D01*
X798911Y615019D01*
X798638Y614951D01*
X798345Y614912D01*
X798033Y614893D01*
X797946D01*
X797887Y614902D01*
X797809D01*
X797721Y614912D01*
X797624Y614932D01*
X797516Y614941D01*
X797273Y614990D01*
X797009Y615068D01*
X796736Y615166D01*
X796463Y615302D01*
X796453Y615312D01*
X796434Y615322D01*
X796395Y615351D01*
X796346Y615380D01*
X796288Y615419D01*
X796219Y615478D01*
X796063Y615605D01*
X795888Y615770D01*
X795712Y615975D01*
X795536Y616209D01*
X795380Y616483D01*
Y616492D01*
X795361Y616522D01*
X795341Y616561D01*
X795322Y616619D01*
X795293Y616687D01*
X795263Y616775D01*
X795224Y616873D01*
X795195Y616980D01*
X795156Y617107D01*
X795117Y617234D01*
X795059Y617526D01*
X795020Y617848D01*
X795000Y618199D01*
Y618209D01*
Y618238D01*
Y618297D01*
X795010Y618355D01*
Y618443D01*
X795020Y618540D01*
X795029Y618648D01*
X795049Y618765D01*
X795098Y619038D01*
X795156Y619321D01*
X795254Y619623D01*
X795380Y619916D01*
Y619926D01*
X795400Y619955D01*
X795419Y619994D01*
X795449Y620043D01*
X795488Y620111D01*
X795536Y620189D01*
X795663Y620355D01*
X795819Y620550D01*
X796005Y620745D01*
X796219Y620940D01*
X796473Y621106D01*
X796482Y621115D01*
X796502Y621125D01*
X796541Y621145D01*
X796600Y621174D01*
X796668Y621203D01*
X796746Y621232D01*
X796834Y621272D01*
X796941Y621311D01*
X797048Y621350D01*
X797175Y621389D01*
X797438Y621447D01*
X797741Y621496D01*
X798053Y621515D01*
X798141D01*
X798199Y621506D01*
D02*
G37*
G36*
X805251Y452253D02*
X806119D01*
Y451531D01*
X805251D01*
Y450000D01*
X804461D01*
Y451531D01*
X801681D01*
Y452253D01*
X804607Y456398D01*
X805251D01*
Y452253D01*
D02*
G37*
G36*
X798199Y456506D02*
X798277D01*
X798375Y456496D01*
X798472Y456476D01*
X798589Y456467D01*
X798833Y456408D01*
X799106Y456330D01*
X799379Y456232D01*
X799516Y456164D01*
X799652Y456086D01*
X799662D01*
X799682Y456067D01*
X799721Y456047D01*
X799770Y456008D01*
X799828Y455969D01*
X799896Y455911D01*
X800052Y455784D01*
X800228Y455618D01*
X800413Y455413D01*
X800579Y455179D01*
X800735Y454906D01*
Y454896D01*
X800755Y454877D01*
X800774Y454828D01*
X800794Y454770D01*
X800823Y454701D01*
X800852Y454623D01*
X800891Y454526D01*
X800930Y454409D01*
X800959Y454292D01*
X800998Y454155D01*
X801057Y453872D01*
X801096Y453550D01*
X801115Y453199D01*
Y453189D01*
Y453160D01*
Y453121D01*
Y453063D01*
X801106Y452994D01*
Y452916D01*
X801096Y452828D01*
X801086Y452721D01*
X801057Y452507D01*
X801008Y452263D01*
X800950Y452019D01*
X800872Y451775D01*
Y451765D01*
X800862Y451746D01*
X800842Y451717D01*
X800823Y451668D01*
X800803Y451619D01*
X800764Y451551D01*
X800686Y451404D01*
X800589Y451239D01*
X800462Y451053D01*
X800316Y450868D01*
X800140Y450683D01*
X800150D01*
X800169Y450663D01*
X800199Y450644D01*
X800238Y450615D01*
X800296Y450585D01*
X800355Y450546D01*
X800501Y450458D01*
X800667Y450361D01*
X800852Y450263D01*
X801047Y450166D01*
X801242Y450088D01*
X800979Y449512D01*
X800969D01*
X800950Y449522D01*
X800911Y449542D01*
X800862Y449561D01*
X800803Y449581D01*
X800725Y449620D01*
X800647Y449659D01*
X800550Y449698D01*
X800345Y449805D01*
X800111Y449941D01*
X799857Y450098D01*
X799604Y450283D01*
X799594D01*
X799574Y450263D01*
X799535Y450244D01*
X799477Y450224D01*
X799409Y450195D01*
X799331Y450156D01*
X799243Y450127D01*
X799145Y450088D01*
X799028Y450049D01*
X798911Y450019D01*
X798638Y449951D01*
X798345Y449912D01*
X798033Y449893D01*
X797946D01*
X797887Y449902D01*
X797809D01*
X797721Y449912D01*
X797624Y449932D01*
X797516Y449941D01*
X797273Y449990D01*
X797009Y450068D01*
X796736Y450166D01*
X796463Y450302D01*
X796453Y450312D01*
X796434Y450322D01*
X796395Y450351D01*
X796346Y450380D01*
X796288Y450419D01*
X796219Y450478D01*
X796063Y450605D01*
X795888Y450770D01*
X795712Y450975D01*
X795536Y451209D01*
X795380Y451483D01*
Y451492D01*
X795361Y451522D01*
X795341Y451561D01*
X795322Y451619D01*
X795293Y451687D01*
X795263Y451775D01*
X795224Y451873D01*
X795195Y451980D01*
X795156Y452107D01*
X795117Y452234D01*
X795059Y452526D01*
X795020Y452848D01*
X795000Y453199D01*
Y453209D01*
Y453238D01*
Y453297D01*
X795010Y453355D01*
Y453443D01*
X795020Y453540D01*
X795029Y453648D01*
X795049Y453765D01*
X795098Y454038D01*
X795156Y454321D01*
X795254Y454623D01*
X795380Y454916D01*
Y454926D01*
X795400Y454955D01*
X795419Y454994D01*
X795449Y455043D01*
X795488Y455111D01*
X795536Y455189D01*
X795663Y455355D01*
X795819Y455550D01*
X796005Y455745D01*
X796219Y455940D01*
X796473Y456106D01*
X796482Y456115D01*
X796502Y456125D01*
X796541Y456145D01*
X796600Y456174D01*
X796668Y456203D01*
X796746Y456232D01*
X796834Y456272D01*
X796941Y456311D01*
X797048Y456350D01*
X797175Y456389D01*
X797438Y456447D01*
X797741Y456496D01*
X798053Y456515D01*
X798141D01*
X798199Y456506D01*
D02*
G37*
G36*
X800885Y370560D02*
X798330D01*
X797978Y368833D01*
X797988Y368843D01*
X798008Y368853D01*
X798037Y368872D01*
X798076Y368901D01*
X798135Y368931D01*
X798193Y368960D01*
X798349Y369038D01*
X798525Y369116D01*
X798729Y369174D01*
X798954Y369223D01*
X799188Y369243D01*
X799266D01*
X799324Y369233D01*
X799402Y369223D01*
X799481Y369214D01*
X799578Y369194D01*
X799676Y369174D01*
X799900Y369096D01*
X800017Y369058D01*
X800134Y368999D01*
X800261Y368931D01*
X800378Y368853D01*
X800495Y368765D01*
X800602Y368658D01*
X800612Y368648D01*
X800631Y368628D01*
X800661Y368599D01*
X800690Y368550D01*
X800739Y368492D01*
X800788Y368424D01*
X800836Y368345D01*
X800895Y368258D01*
X800953Y368150D01*
X801002Y368043D01*
X801051Y367916D01*
X801100Y367789D01*
X801129Y367643D01*
X801158Y367497D01*
X801178Y367331D01*
X801187Y367165D01*
Y367156D01*
Y367126D01*
Y367077D01*
X801178Y367019D01*
X801168Y366941D01*
X801158Y366853D01*
X801148Y366756D01*
X801129Y366648D01*
X801061Y366414D01*
X800973Y366170D01*
X800914Y366034D01*
X800846Y365907D01*
X800768Y365780D01*
X800680Y365663D01*
X800670Y365653D01*
X800651Y365634D01*
X800612Y365595D01*
X800563Y365546D01*
X800505Y365488D01*
X800427Y365419D01*
X800339Y365351D01*
X800231Y365283D01*
X800124Y365205D01*
X799997Y365137D01*
X799851Y365068D01*
X799705Y365010D01*
X799539Y364961D01*
X799373Y364922D01*
X799188Y364902D01*
X798993Y364893D01*
X798905D01*
X798847Y364902D01*
X798778Y364912D01*
X798690Y364922D01*
X798593Y364932D01*
X798486Y364951D01*
X798261Y365010D01*
X798027Y365098D01*
X797910Y365156D01*
X797793Y365224D01*
X797676Y365293D01*
X797569Y365380D01*
X797559Y365390D01*
X797549Y365400D01*
X797520Y365429D01*
X797481Y365468D01*
X797442Y365517D01*
X797393Y365575D01*
X797345Y365644D01*
X797286Y365722D01*
X797179Y365907D01*
X797071Y366131D01*
X796993Y366385D01*
X796964Y366531D01*
X796945Y366678D01*
X797774Y366736D01*
Y366726D01*
Y366707D01*
X797783Y366678D01*
X797793Y366639D01*
X797822Y366531D01*
X797861Y366395D01*
X797910Y366249D01*
X797988Y366102D01*
X798076Y365956D01*
X798193Y365829D01*
X798213Y365819D01*
X798251Y365780D01*
X798320Y365741D01*
X798417Y365683D01*
X798534Y365634D01*
X798671Y365585D01*
X798827Y365546D01*
X798993Y365536D01*
X799051D01*
X799090Y365546D01*
X799198Y365556D01*
X799334Y365585D01*
X799481Y365644D01*
X799646Y365712D01*
X799802Y365819D01*
X799880Y365878D01*
X799958Y365956D01*
Y365966D01*
X799978Y365975D01*
X800017Y366034D01*
X800085Y366131D01*
X800154Y366258D01*
X800222Y366424D01*
X800290Y366619D01*
X800329Y366843D01*
X800349Y367097D01*
Y367107D01*
Y367126D01*
Y367165D01*
X800339Y367204D01*
Y367263D01*
X800329Y367331D01*
X800300Y367487D01*
X800261Y367653D01*
X800192Y367829D01*
X800095Y368004D01*
X799968Y368160D01*
X799949Y368180D01*
X799900Y368219D01*
X799822Y368287D01*
X799705Y368355D01*
X799568Y368424D01*
X799393Y368492D01*
X799198Y368531D01*
X798983Y368550D01*
X798915D01*
X798847Y368541D01*
X798749Y368531D01*
X798642Y368502D01*
X798525Y368472D01*
X798408Y368424D01*
X798291Y368365D01*
X798281Y368355D01*
X798242Y368336D01*
X798183Y368297D01*
X798115Y368248D01*
X798047Y368180D01*
X797969Y368102D01*
X797891Y368014D01*
X797822Y367916D01*
X797081Y368024D01*
X797705Y371311D01*
X800885D01*
Y370560D01*
D02*
G37*
G36*
X793199Y371506D02*
X793277D01*
X793375Y371496D01*
X793472Y371476D01*
X793589Y371467D01*
X793833Y371408D01*
X794106Y371330D01*
X794379Y371233D01*
X794516Y371164D01*
X794652Y371086D01*
X794662D01*
X794682Y371067D01*
X794721Y371047D01*
X794770Y371008D01*
X794828Y370969D01*
X794896Y370911D01*
X795052Y370784D01*
X795228Y370618D01*
X795413Y370413D01*
X795579Y370179D01*
X795735Y369906D01*
Y369896D01*
X795755Y369877D01*
X795774Y369828D01*
X795794Y369770D01*
X795823Y369701D01*
X795852Y369623D01*
X795891Y369526D01*
X795930Y369409D01*
X795959Y369292D01*
X795999Y369155D01*
X796057Y368872D01*
X796096Y368550D01*
X796115Y368199D01*
Y368189D01*
Y368160D01*
Y368121D01*
Y368063D01*
X796106Y367994D01*
Y367916D01*
X796096Y367829D01*
X796086Y367721D01*
X796057Y367507D01*
X796008Y367263D01*
X795950Y367019D01*
X795872Y366775D01*
Y366765D01*
X795862Y366746D01*
X795842Y366717D01*
X795823Y366668D01*
X795803Y366619D01*
X795764Y366551D01*
X795686Y366404D01*
X795589Y366239D01*
X795462Y366053D01*
X795316Y365868D01*
X795140Y365683D01*
X795150D01*
X795169Y365663D01*
X795199Y365644D01*
X795238Y365615D01*
X795296Y365585D01*
X795355Y365546D01*
X795501Y365458D01*
X795667Y365361D01*
X795852Y365263D01*
X796047Y365166D01*
X796242Y365088D01*
X795979Y364512D01*
X795969D01*
X795950Y364522D01*
X795911Y364542D01*
X795862Y364561D01*
X795803Y364581D01*
X795725Y364620D01*
X795647Y364659D01*
X795550Y364698D01*
X795345Y364805D01*
X795111Y364941D01*
X794857Y365098D01*
X794604Y365283D01*
X794594D01*
X794574Y365263D01*
X794535Y365244D01*
X794477Y365224D01*
X794409Y365195D01*
X794331Y365156D01*
X794243Y365127D01*
X794145Y365088D01*
X794028Y365049D01*
X793911Y365019D01*
X793638Y364951D01*
X793345Y364912D01*
X793033Y364893D01*
X792946D01*
X792887Y364902D01*
X792809D01*
X792721Y364912D01*
X792624Y364932D01*
X792516Y364941D01*
X792273Y364990D01*
X792009Y365068D01*
X791736Y365166D01*
X791463Y365302D01*
X791453Y365312D01*
X791434Y365322D01*
X791395Y365351D01*
X791346Y365380D01*
X791288Y365419D01*
X791219Y365478D01*
X791063Y365605D01*
X790888Y365770D01*
X790712Y365975D01*
X790536Y366209D01*
X790380Y366483D01*
Y366492D01*
X790361Y366522D01*
X790341Y366561D01*
X790322Y366619D01*
X790293Y366687D01*
X790263Y366775D01*
X790224Y366873D01*
X790195Y366980D01*
X790156Y367107D01*
X790117Y367234D01*
X790059Y367526D01*
X790020Y367848D01*
X790000Y368199D01*
Y368209D01*
Y368238D01*
Y368297D01*
X790010Y368355D01*
Y368443D01*
X790020Y368541D01*
X790029Y368648D01*
X790049Y368765D01*
X790098Y369038D01*
X790156Y369321D01*
X790254Y369623D01*
X790380Y369916D01*
Y369926D01*
X790400Y369955D01*
X790419Y369994D01*
X790449Y370043D01*
X790488Y370111D01*
X790536Y370189D01*
X790663Y370355D01*
X790819Y370550D01*
X791005Y370745D01*
X791219Y370940D01*
X791473Y371106D01*
X791482Y371115D01*
X791502Y371125D01*
X791541Y371145D01*
X791600Y371174D01*
X791668Y371203D01*
X791746Y371233D01*
X791834Y371272D01*
X791941Y371311D01*
X792048Y371350D01*
X792175Y371389D01*
X792438Y371447D01*
X792741Y371496D01*
X793053Y371515D01*
X793141D01*
X793199Y371506D01*
D02*
G37*
G36*
X546706Y508268D02*
X546805Y508255D01*
X546929Y508243D01*
X547065Y508230D01*
X547214Y508206D01*
X547536Y508131D01*
X547883Y508020D01*
X548057Y507945D01*
X548230Y507859D01*
X548392Y507759D01*
X548553Y507648D01*
X548565Y507635D01*
X548590Y507623D01*
X548627Y507586D01*
X548689Y507536D01*
X548751Y507474D01*
X548838Y507388D01*
X548925Y507301D01*
X549011Y507202D01*
X549110Y507078D01*
X549197Y506954D01*
X549296Y506805D01*
X549396Y506644D01*
X549482Y506483D01*
X549569Y506297D01*
X549718Y505900D01*
X548652Y505652D01*
Y505665D01*
X548639Y505689D01*
X548627Y505739D01*
X548602Y505801D01*
X548565Y505875D01*
X548528Y505962D01*
X548441Y506148D01*
X548330Y506359D01*
X548181Y506582D01*
X548020Y506780D01*
X547821Y506954D01*
X547797Y506966D01*
X547722Y507016D01*
X547611Y507078D01*
X547449Y507164D01*
X547264Y507239D01*
X547028Y507301D01*
X546768Y507350D01*
X546470Y507363D01*
X546384D01*
X546322Y507350D01*
X546235D01*
X546148Y507338D01*
X545925Y507301D01*
X545677Y507251D01*
X545417Y507164D01*
X545156Y507053D01*
X544908Y506904D01*
X544896D01*
X544884Y506879D01*
X544809Y506817D01*
X544698Y506718D01*
X544561Y506582D01*
X544425Y506408D01*
X544276Y506210D01*
X544140Y505962D01*
X544029Y505689D01*
Y505677D01*
X544016Y505652D01*
X544004Y505615D01*
X543991Y505553D01*
X543966Y505491D01*
X543954Y505404D01*
X543904Y505206D01*
X543855Y504971D01*
X543818Y504710D01*
X543793Y504425D01*
X543781Y504128D01*
Y504115D01*
Y504078D01*
Y504028D01*
Y503954D01*
X543793Y503867D01*
Y503756D01*
X543805Y503644D01*
X543818Y503520D01*
X543855Y503235D01*
X543904Y502925D01*
X543979Y502615D01*
X544078Y502318D01*
Y502305D01*
X544090Y502281D01*
X544115Y502243D01*
X544140Y502194D01*
X544202Y502045D01*
X544301Y501884D01*
X544437Y501686D01*
X544599Y501500D01*
X544785Y501314D01*
X545008Y501153D01*
X545020D01*
X545033Y501140D01*
X545070Y501116D01*
X545119Y501091D01*
X545256Y501041D01*
X545429Y500967D01*
X545627Y500905D01*
X545863Y500843D01*
X546123Y500793D01*
X546396Y500781D01*
X546483D01*
X546545Y500793D01*
X546619D01*
X546718Y500806D01*
X546929Y500843D01*
X547164Y500905D01*
X547425Y501004D01*
X547673Y501128D01*
X547920Y501301D01*
X547933Y501314D01*
X547945Y501326D01*
X548020Y501401D01*
X548131Y501525D01*
X548268Y501686D01*
X548404Y501909D01*
X548553Y502169D01*
X548677Y502491D01*
X548776Y502851D01*
X549854Y502578D01*
Y502566D01*
X549842Y502516D01*
X549817Y502454D01*
X549792Y502355D01*
X549743Y502256D01*
X549693Y502120D01*
X549644Y501983D01*
X549569Y501834D01*
X549408Y501500D01*
X549185Y501165D01*
X548937Y500843D01*
X548788Y500694D01*
X548627Y500558D01*
X548615Y500545D01*
X548590Y500533D01*
X548540Y500496D01*
X548466Y500446D01*
X548379Y500397D01*
X548280Y500335D01*
X548168Y500273D01*
X548032Y500211D01*
X547883Y500149D01*
X547722Y500087D01*
X547536Y500025D01*
X547350Y499975D01*
X546941Y499888D01*
X546718Y499876D01*
X546483Y499864D01*
X546359D01*
X546260Y499876D01*
X546148D01*
X546024Y499888D01*
X545875Y499913D01*
X545727Y499926D01*
X545379Y500000D01*
X545020Y500087D01*
X544673Y500223D01*
X544500Y500298D01*
X544338Y500397D01*
X544326Y500409D01*
X544301Y500421D01*
X544264Y500459D01*
X544202Y500496D01*
X544053Y500620D01*
X543880Y500793D01*
X543669Y501004D01*
X543471Y501277D01*
X543260Y501587D01*
X543086Y501946D01*
Y501958D01*
X543074Y501996D01*
X543049Y502045D01*
X543024Y502120D01*
X542987Y502219D01*
X542950Y502330D01*
X542913Y502454D01*
X542876Y502603D01*
X542839Y502752D01*
X542801Y502925D01*
X542727Y503297D01*
X542677Y503694D01*
X542665Y504128D01*
Y504140D01*
Y504190D01*
Y504252D01*
X542677Y504338D01*
Y504450D01*
X542690Y504586D01*
X542702Y504723D01*
X542727Y504884D01*
X542789Y505231D01*
X542863Y505603D01*
X542987Y505987D01*
X543148Y506346D01*
Y506359D01*
X543173Y506384D01*
X543198Y506433D01*
X543235Y506507D01*
X543285Y506582D01*
X543347Y506669D01*
X543508Y506879D01*
X543694Y507115D01*
X543929Y507350D01*
X544214Y507586D01*
X544524Y507784D01*
X544537D01*
X544561Y507809D01*
X544611Y507834D01*
X544685Y507859D01*
X544760Y507896D01*
X544859Y507945D01*
X544983Y507982D01*
X545107Y508032D01*
X545243Y508082D01*
X545392Y508119D01*
X545727Y508206D01*
X546099Y508255D01*
X546495Y508280D01*
X546619D01*
X546706Y508268D01*
D02*
G37*
G36*
X553560Y508168D02*
X553722Y508144D01*
X553907Y508106D01*
X554118Y508057D01*
X554329Y507982D01*
X554540Y507883D01*
X554552D01*
X554564Y507871D01*
X554639Y507834D01*
X554738Y507772D01*
X554862Y507685D01*
X554998Y507574D01*
X555147Y507437D01*
X555283Y507276D01*
X555407Y507102D01*
X555420Y507078D01*
X555457Y507016D01*
X555506Y506917D01*
X555556Y506793D01*
X555606Y506631D01*
X555655Y506458D01*
X555692Y506272D01*
X555705Y506061D01*
Y506036D01*
Y505975D01*
X555692Y505875D01*
X555667Y505751D01*
X555630Y505603D01*
X555581Y505442D01*
X555519Y505268D01*
X555420Y505107D01*
X555407Y505082D01*
X555370Y505032D01*
X555296Y504958D01*
X555209Y504859D01*
X555085Y504747D01*
X554949Y504636D01*
X554775Y504512D01*
X554577Y504413D01*
X554589D01*
X554614Y504400D01*
X554651D01*
X554701Y504375D01*
X554825Y504338D01*
X554986Y504264D01*
X555159Y504177D01*
X555345Y504053D01*
X555531Y503904D01*
X555692Y503719D01*
X555705Y503694D01*
X555754Y503619D01*
X555816Y503508D01*
X555903Y503359D01*
X555977Y503173D01*
X556039Y502950D01*
X556089Y502690D01*
X556101Y502405D01*
Y502392D01*
Y502355D01*
Y502305D01*
X556089Y502231D01*
X556077Y502132D01*
X556064Y502033D01*
X556039Y501909D01*
X556002Y501785D01*
X555915Y501500D01*
X555854Y501339D01*
X555767Y501190D01*
X555680Y501041D01*
X555581Y500892D01*
X555457Y500744D01*
X555321Y500595D01*
X555308Y500583D01*
X555283Y500558D01*
X555246Y500533D01*
X555184Y500483D01*
X555110Y500421D01*
X555011Y500359D01*
X554899Y500298D01*
X554787Y500235D01*
X554651Y500161D01*
X554502Y500099D01*
X554341Y500037D01*
X554168Y499975D01*
X553982Y499926D01*
X553783Y499901D01*
X553573Y499876D01*
X553362Y499864D01*
X553263D01*
X553189Y499876D01*
X553089Y499888D01*
X552990Y499901D01*
X552866Y499913D01*
X552742Y499938D01*
X552457Y500012D01*
X552160Y500136D01*
X552011Y500198D01*
X551875Y500285D01*
X551726Y500384D01*
X551590Y500496D01*
X551577Y500508D01*
X551565Y500521D01*
X551527Y500558D01*
X551478Y500607D01*
X551428Y500682D01*
X551366Y500756D01*
X551292Y500843D01*
X551230Y500942D01*
X551081Y501190D01*
X550957Y501475D01*
X550846Y501797D01*
X550809Y501971D01*
X550784Y502157D01*
X551788Y502293D01*
Y502281D01*
X551800Y502256D01*
Y502206D01*
X551825Y502157D01*
X551862Y502008D01*
X551924Y501822D01*
X551999Y501624D01*
X552098Y501413D01*
X552222Y501227D01*
X552358Y501066D01*
X552383Y501054D01*
X552432Y501004D01*
X552519Y500954D01*
X552643Y500880D01*
X552780Y500818D01*
X552953Y500756D01*
X553151Y500706D01*
X553362Y500694D01*
X553436D01*
X553486Y500706D01*
X553610Y500719D01*
X553771Y500756D01*
X553969Y500818D01*
X554168Y500892D01*
X554366Y501016D01*
X554552Y501177D01*
X554577Y501202D01*
X554626Y501264D01*
X554701Y501363D01*
X554800Y501512D01*
X554887Y501686D01*
X554961Y501897D01*
X555011Y502132D01*
X555035Y502392D01*
Y502405D01*
Y502417D01*
Y502454D01*
X555023Y502504D01*
X555011Y502628D01*
X554973Y502789D01*
X554924Y502962D01*
X554837Y503161D01*
X554725Y503347D01*
X554577Y503520D01*
X554552Y503545D01*
X554502Y503595D01*
X554403Y503657D01*
X554267Y503743D01*
X554106Y503830D01*
X553907Y503892D01*
X553697Y503942D01*
X553449Y503966D01*
X553337D01*
X553251Y503954D01*
X553151Y503942D01*
X553027Y503929D01*
X552891Y503904D01*
X552742Y503867D01*
X552854Y504747D01*
X552916D01*
X552965Y504735D01*
X553126D01*
X553238Y504747D01*
X553399Y504772D01*
X553573Y504809D01*
X553759Y504871D01*
X553957Y504946D01*
X554155Y505057D01*
X554180Y505070D01*
X554242Y505119D01*
X554316Y505206D01*
X554416Y505317D01*
X554515Y505454D01*
X554589Y505627D01*
X554651Y505838D01*
X554676Y506086D01*
Y506098D01*
Y506111D01*
Y506173D01*
X554651Y506272D01*
X554626Y506408D01*
X554589Y506545D01*
X554515Y506693D01*
X554428Y506855D01*
X554304Y506991D01*
X554292Y507003D01*
X554242Y507053D01*
X554155Y507115D01*
X554044Y507177D01*
X553907Y507251D01*
X553746Y507301D01*
X553560Y507350D01*
X553350Y507363D01*
X553251D01*
X553139Y507338D01*
X553015Y507313D01*
X552854Y507276D01*
X552693Y507202D01*
X552532Y507115D01*
X552370Y506991D01*
X552358Y506978D01*
X552308Y506929D01*
X552247Y506842D01*
X552172Y506718D01*
X552085Y506569D01*
X552011Y506384D01*
X551937Y506160D01*
X551887Y505900D01*
X550883Y506074D01*
Y506086D01*
X550895Y506123D01*
X550908Y506173D01*
X550920Y506235D01*
X550945Y506321D01*
X550970Y506421D01*
X551057Y506644D01*
X551156Y506892D01*
X551304Y507152D01*
X551478Y507400D01*
X551701Y507623D01*
X551713Y507635D01*
X551726Y507648D01*
X551763Y507673D01*
X551825Y507710D01*
X551887Y507747D01*
X551961Y507797D01*
X552147Y507908D01*
X552383Y508007D01*
X552668Y508094D01*
X552978Y508156D01*
X553151Y508181D01*
X553436D01*
X553560Y508168D01*
D02*
G37*
G36*
X541078Y500000D02*
X540000D01*
Y508144D01*
X541078D01*
Y500000D01*
D02*
G37*
G36*
X1233740Y750124D02*
X1233852D01*
X1233976Y750112D01*
X1234125Y750087D01*
X1234273Y750074D01*
X1234621Y750000D01*
X1234980Y749913D01*
X1235327Y749777D01*
X1235501Y749703D01*
X1235662Y749603D01*
X1235674Y749591D01*
X1235699Y749579D01*
X1235736Y749541D01*
X1235798Y749504D01*
X1235947Y749380D01*
X1236120Y749207D01*
X1236331Y748996D01*
X1236529Y748723D01*
X1236740Y748413D01*
X1236914Y748054D01*
Y748042D01*
X1236926Y748004D01*
X1236951Y747955D01*
X1236976Y747880D01*
X1237013Y747781D01*
X1237050Y747670D01*
X1237087Y747546D01*
X1237124Y747397D01*
X1237161Y747248D01*
X1237199Y747075D01*
X1237273Y746703D01*
X1237323Y746306D01*
X1237335Y745872D01*
Y745860D01*
Y745810D01*
Y745749D01*
X1237323Y745662D01*
Y745550D01*
X1237310Y745414D01*
X1237298Y745277D01*
X1237273Y745116D01*
X1237211Y744769D01*
X1237137Y744397D01*
X1237013Y744013D01*
X1236852Y743654D01*
Y743641D01*
X1236827Y743616D01*
X1236802Y743567D01*
X1236765Y743493D01*
X1236715Y743418D01*
X1236653Y743331D01*
X1236492Y743121D01*
X1236306Y742885D01*
X1236071Y742650D01*
X1235786Y742414D01*
X1235476Y742216D01*
X1235463D01*
X1235439Y742191D01*
X1235389Y742166D01*
X1235315Y742141D01*
X1235240Y742104D01*
X1235141Y742055D01*
X1235017Y742018D01*
X1234893Y741968D01*
X1234757Y741918D01*
X1234608Y741881D01*
X1234273Y741794D01*
X1233902Y741745D01*
X1233505Y741720D01*
X1233381D01*
X1233294Y741732D01*
X1233195Y741745D01*
X1233071Y741757D01*
X1232935Y741770D01*
X1232786Y741794D01*
X1232464Y741869D01*
X1232117Y741980D01*
X1231943Y742055D01*
X1231770Y742141D01*
X1231609Y742241D01*
X1231447Y742352D01*
X1231435Y742365D01*
X1231410Y742377D01*
X1231373Y742414D01*
X1231311Y742464D01*
X1231249Y742526D01*
X1231162Y742613D01*
X1231076Y742699D01*
X1230989Y742798D01*
X1230890Y742922D01*
X1230803Y743046D01*
X1230704Y743195D01*
X1230604Y743356D01*
X1230518Y743517D01*
X1230431Y743703D01*
X1230282Y744100D01*
X1231348Y744348D01*
Y744335D01*
X1231361Y744311D01*
X1231373Y744261D01*
X1231398Y744199D01*
X1231435Y744125D01*
X1231472Y744038D01*
X1231559Y743852D01*
X1231670Y743641D01*
X1231819Y743418D01*
X1231980Y743220D01*
X1232179Y743046D01*
X1232203Y743034D01*
X1232278Y742984D01*
X1232389Y742922D01*
X1232551Y742836D01*
X1232736Y742761D01*
X1232972Y742699D01*
X1233232Y742650D01*
X1233530Y742637D01*
X1233616D01*
X1233679Y742650D01*
X1233765D01*
X1233852Y742662D01*
X1234075Y742699D01*
X1234323Y742749D01*
X1234583Y742836D01*
X1234844Y742947D01*
X1235091Y743096D01*
X1235104D01*
X1235116Y743121D01*
X1235191Y743183D01*
X1235302Y743282D01*
X1235439Y743418D01*
X1235575Y743592D01*
X1235724Y743790D01*
X1235860Y744038D01*
X1235972Y744311D01*
Y744323D01*
X1235984Y744348D01*
X1235996Y744385D01*
X1236009Y744447D01*
X1236033Y744509D01*
X1236046Y744596D01*
X1236096Y744794D01*
X1236145Y745030D01*
X1236182Y745290D01*
X1236207Y745575D01*
X1236219Y745872D01*
Y745885D01*
Y745922D01*
Y745972D01*
Y746046D01*
X1236207Y746133D01*
Y746244D01*
X1236195Y746356D01*
X1236182Y746480D01*
X1236145Y746765D01*
X1236096Y747075D01*
X1236021Y747385D01*
X1235922Y747682D01*
Y747694D01*
X1235910Y747719D01*
X1235885Y747757D01*
X1235860Y747806D01*
X1235798Y747955D01*
X1235699Y748116D01*
X1235563Y748314D01*
X1235401Y748500D01*
X1235216Y748686D01*
X1234992Y748847D01*
X1234980D01*
X1234968Y748860D01*
X1234930Y748885D01*
X1234881Y748909D01*
X1234744Y748959D01*
X1234571Y749033D01*
X1234373Y749095D01*
X1234137Y749157D01*
X1233877Y749207D01*
X1233604Y749219D01*
X1233517D01*
X1233455Y749207D01*
X1233381D01*
X1233282Y749194D01*
X1233071Y749157D01*
X1232836Y749095D01*
X1232575Y748996D01*
X1232327Y748872D01*
X1232079Y748699D01*
X1232067Y748686D01*
X1232055Y748674D01*
X1231980Y748599D01*
X1231869Y748475D01*
X1231732Y748314D01*
X1231596Y748091D01*
X1231447Y747831D01*
X1231323Y747509D01*
X1231224Y747149D01*
X1230146Y747422D01*
Y747434D01*
X1230158Y747484D01*
X1230183Y747546D01*
X1230208Y747645D01*
X1230257Y747744D01*
X1230307Y747880D01*
X1230357Y748017D01*
X1230431Y748166D01*
X1230592Y748500D01*
X1230815Y748835D01*
X1231063Y749157D01*
X1231212Y749306D01*
X1231373Y749442D01*
X1231385Y749455D01*
X1231410Y749467D01*
X1231460Y749504D01*
X1231534Y749554D01*
X1231621Y749603D01*
X1231720Y749665D01*
X1231832Y749727D01*
X1231968Y749789D01*
X1232117Y749851D01*
X1232278Y749913D01*
X1232464Y749975D01*
X1232650Y750025D01*
X1233059Y750112D01*
X1233282Y750124D01*
X1233517Y750136D01*
X1233641D01*
X1233740Y750124D01*
D02*
G37*
G36*
X1226031Y748054D02*
X1229563D01*
Y747137D01*
X1225845Y741869D01*
X1225027D01*
Y747137D01*
X1223923D01*
Y748054D01*
X1225027D01*
Y750000D01*
X1226031D01*
Y748054D01*
D02*
G37*
G36*
X1240000Y741856D02*
X1238922D01*
Y750000D01*
X1240000D01*
Y741856D01*
D02*
G37*
G36*
X1601812Y750124D02*
X1601898Y750112D01*
X1602010Y750099D01*
X1602134Y750087D01*
X1602270Y750062D01*
X1602555Y749988D01*
X1602853Y749876D01*
X1603001Y749802D01*
X1603150Y749715D01*
X1603299Y749628D01*
X1603435Y749517D01*
X1603448Y749504D01*
X1603460Y749492D01*
X1603497Y749455D01*
X1603547Y749405D01*
X1603596Y749343D01*
X1603658Y749269D01*
X1603720Y749182D01*
X1603795Y749083D01*
X1603931Y748847D01*
X1604067Y748562D01*
X1604167Y748240D01*
X1604204Y748054D01*
X1604229Y747868D01*
X1603175Y747794D01*
Y747806D01*
Y747831D01*
X1603163Y747868D01*
X1603150Y747918D01*
X1603113Y748054D01*
X1603063Y748227D01*
X1603001Y748413D01*
X1602902Y748599D01*
X1602791Y748785D01*
X1602642Y748946D01*
X1602617Y748959D01*
X1602568Y749008D01*
X1602481Y749058D01*
X1602357Y749132D01*
X1602208Y749194D01*
X1602035Y749256D01*
X1601836Y749306D01*
X1601626Y749318D01*
X1601551D01*
X1601502Y749306D01*
X1601365Y749294D01*
X1601192Y749256D01*
X1601006Y749182D01*
X1600795Y749095D01*
X1600597Y748959D01*
X1600498Y748885D01*
X1600399Y748785D01*
Y748773D01*
X1600374Y748761D01*
X1600324Y748686D01*
X1600237Y748562D01*
X1600150Y748401D01*
X1600064Y748190D01*
X1599977Y747942D01*
X1599927Y747657D01*
X1599903Y747335D01*
Y747323D01*
Y747298D01*
Y747248D01*
X1599915Y747199D01*
Y747124D01*
X1599927Y747038D01*
X1599965Y746839D01*
X1600014Y746628D01*
X1600101Y746405D01*
X1600225Y746182D01*
X1600386Y745984D01*
X1600411Y745959D01*
X1600473Y745910D01*
X1600572Y745823D01*
X1600721Y745736D01*
X1600894Y745649D01*
X1601117Y745563D01*
X1601365Y745513D01*
X1601638Y745488D01*
X1601725D01*
X1601812Y745501D01*
X1601935Y745513D01*
X1602072Y745550D01*
X1602220Y745587D01*
X1602369Y745649D01*
X1602518Y745724D01*
X1602530Y745736D01*
X1602580Y745761D01*
X1602654Y745810D01*
X1602741Y745872D01*
X1602828Y745959D01*
X1602927Y746058D01*
X1603026Y746170D01*
X1603113Y746294D01*
X1604055Y746158D01*
X1603262Y741980D01*
X1599221D01*
Y742935D01*
X1602468D01*
X1602915Y745129D01*
X1602902Y745116D01*
X1602878Y745104D01*
X1602840Y745079D01*
X1602791Y745042D01*
X1602716Y745005D01*
X1602642Y744968D01*
X1602444Y744868D01*
X1602220Y744769D01*
X1601960Y744695D01*
X1601675Y744633D01*
X1601378Y744608D01*
X1601279D01*
X1601204Y744621D01*
X1601105Y744633D01*
X1601006Y744645D01*
X1600882Y744670D01*
X1600758Y744695D01*
X1600473Y744794D01*
X1600324Y744844D01*
X1600175Y744918D01*
X1600014Y745005D01*
X1599866Y745104D01*
X1599717Y745216D01*
X1599580Y745352D01*
X1599568Y745364D01*
X1599543Y745389D01*
X1599506Y745426D01*
X1599469Y745488D01*
X1599407Y745563D01*
X1599345Y745649D01*
X1599283Y745749D01*
X1599209Y745860D01*
X1599134Y745996D01*
X1599072Y746133D01*
X1599010Y746294D01*
X1598948Y746455D01*
X1598911Y746641D01*
X1598874Y746827D01*
X1598849Y747038D01*
X1598837Y747248D01*
Y747261D01*
Y747298D01*
Y747360D01*
X1598849Y747434D01*
X1598861Y747533D01*
X1598874Y747645D01*
X1598886Y747769D01*
X1598911Y747905D01*
X1598998Y748203D01*
X1599109Y748513D01*
X1599184Y748686D01*
X1599270Y748847D01*
X1599370Y749008D01*
X1599481Y749157D01*
X1599494Y749169D01*
X1599518Y749194D01*
X1599568Y749244D01*
X1599630Y749306D01*
X1599704Y749380D01*
X1599803Y749467D01*
X1599915Y749554D01*
X1600051Y749641D01*
X1600188Y749740D01*
X1600349Y749827D01*
X1600535Y749913D01*
X1600721Y749988D01*
X1600931Y750050D01*
X1601142Y750099D01*
X1601378Y750124D01*
X1601626Y750136D01*
X1601737D01*
X1601812Y750124D01*
D02*
G37*
G36*
X1608740D02*
X1608852D01*
X1608976Y750112D01*
X1609125Y750087D01*
X1609273Y750074D01*
X1609621Y750000D01*
X1609980Y749913D01*
X1610327Y749777D01*
X1610500Y749703D01*
X1610662Y749603D01*
X1610674Y749591D01*
X1610699Y749579D01*
X1610736Y749541D01*
X1610798Y749504D01*
X1610947Y749380D01*
X1611120Y749207D01*
X1611331Y748996D01*
X1611529Y748723D01*
X1611740Y748413D01*
X1611914Y748054D01*
Y748042D01*
X1611926Y748004D01*
X1611951Y747955D01*
X1611976Y747880D01*
X1612013Y747781D01*
X1612050Y747670D01*
X1612087Y747546D01*
X1612124Y747397D01*
X1612162Y747248D01*
X1612199Y747075D01*
X1612273Y746703D01*
X1612323Y746306D01*
X1612335Y745872D01*
Y745860D01*
Y745810D01*
Y745749D01*
X1612323Y745662D01*
Y745550D01*
X1612310Y745414D01*
X1612298Y745277D01*
X1612273Y745116D01*
X1612211Y744769D01*
X1612137Y744397D01*
X1612013Y744013D01*
X1611852Y743654D01*
Y743641D01*
X1611827Y743616D01*
X1611802Y743567D01*
X1611765Y743493D01*
X1611715Y743418D01*
X1611653Y743331D01*
X1611492Y743121D01*
X1611306Y742885D01*
X1611071Y742650D01*
X1610786Y742414D01*
X1610476Y742216D01*
X1610463D01*
X1610439Y742191D01*
X1610389Y742166D01*
X1610315Y742141D01*
X1610240Y742104D01*
X1610141Y742055D01*
X1610017Y742018D01*
X1609893Y741968D01*
X1609757Y741918D01*
X1609608Y741881D01*
X1609273Y741794D01*
X1608902Y741745D01*
X1608505Y741720D01*
X1608381D01*
X1608294Y741732D01*
X1608195Y741745D01*
X1608071Y741757D01*
X1607935Y741770D01*
X1607786Y741794D01*
X1607464Y741869D01*
X1607117Y741980D01*
X1606943Y742055D01*
X1606770Y742141D01*
X1606608Y742241D01*
X1606447Y742352D01*
X1606435Y742365D01*
X1606410Y742377D01*
X1606373Y742414D01*
X1606311Y742464D01*
X1606249Y742526D01*
X1606162Y742613D01*
X1606075Y742699D01*
X1605989Y742798D01*
X1605889Y742922D01*
X1605803Y743046D01*
X1605704Y743195D01*
X1605604Y743356D01*
X1605518Y743517D01*
X1605431Y743703D01*
X1605282Y744100D01*
X1606348Y744348D01*
Y744335D01*
X1606360Y744311D01*
X1606373Y744261D01*
X1606398Y744199D01*
X1606435Y744125D01*
X1606472Y744038D01*
X1606559Y743852D01*
X1606670Y743641D01*
X1606819Y743418D01*
X1606980Y743220D01*
X1607179Y743046D01*
X1607203Y743034D01*
X1607278Y742984D01*
X1607389Y742922D01*
X1607551Y742836D01*
X1607736Y742761D01*
X1607972Y742699D01*
X1608232Y742650D01*
X1608530Y742637D01*
X1608616D01*
X1608678Y742650D01*
X1608765D01*
X1608852Y742662D01*
X1609075Y742699D01*
X1609323Y742749D01*
X1609583Y742836D01*
X1609844Y742947D01*
X1610092Y743096D01*
X1610104D01*
X1610116Y743121D01*
X1610191Y743183D01*
X1610302Y743282D01*
X1610439Y743418D01*
X1610575Y743592D01*
X1610724Y743790D01*
X1610860Y744038D01*
X1610972Y744311D01*
Y744323D01*
X1610984Y744348D01*
X1610996Y744385D01*
X1611009Y744447D01*
X1611033Y744509D01*
X1611046Y744596D01*
X1611095Y744794D01*
X1611145Y745030D01*
X1611182Y745290D01*
X1611207Y745575D01*
X1611219Y745872D01*
Y745885D01*
Y745922D01*
Y745972D01*
Y746046D01*
X1611207Y746133D01*
Y746244D01*
X1611195Y746356D01*
X1611182Y746480D01*
X1611145Y746765D01*
X1611095Y747075D01*
X1611021Y747385D01*
X1610922Y747682D01*
Y747694D01*
X1610910Y747719D01*
X1610885Y747757D01*
X1610860Y747806D01*
X1610798Y747955D01*
X1610699Y748116D01*
X1610562Y748314D01*
X1610401Y748500D01*
X1610215Y748686D01*
X1609992Y748847D01*
X1609980D01*
X1609967Y748860D01*
X1609930Y748885D01*
X1609881Y748909D01*
X1609744Y748959D01*
X1609571Y749033D01*
X1609373Y749095D01*
X1609137Y749157D01*
X1608877Y749207D01*
X1608604Y749219D01*
X1608517D01*
X1608455Y749207D01*
X1608381D01*
X1608282Y749194D01*
X1608071Y749157D01*
X1607836Y749095D01*
X1607575Y748996D01*
X1607327Y748872D01*
X1607079Y748699D01*
X1607067Y748686D01*
X1607055Y748674D01*
X1606980Y748599D01*
X1606869Y748475D01*
X1606732Y748314D01*
X1606596Y748091D01*
X1606447Y747831D01*
X1606323Y747509D01*
X1606224Y747149D01*
X1605146Y747422D01*
Y747434D01*
X1605158Y747484D01*
X1605183Y747546D01*
X1605208Y747645D01*
X1605257Y747744D01*
X1605307Y747880D01*
X1605356Y748017D01*
X1605431Y748166D01*
X1605592Y748500D01*
X1605815Y748835D01*
X1606063Y749157D01*
X1606212Y749306D01*
X1606373Y749442D01*
X1606385Y749455D01*
X1606410Y749467D01*
X1606460Y749504D01*
X1606534Y749554D01*
X1606621Y749603D01*
X1606720Y749665D01*
X1606832Y749727D01*
X1606968Y749789D01*
X1607117Y749851D01*
X1607278Y749913D01*
X1607464Y749975D01*
X1607650Y750025D01*
X1608059Y750112D01*
X1608282Y750124D01*
X1608517Y750136D01*
X1608641D01*
X1608740Y750124D01*
D02*
G37*
G36*
X1615000Y741856D02*
X1613922D01*
Y750000D01*
X1615000D01*
Y741856D01*
D02*
G37*
G36*
X1111706Y858268D02*
X1111805Y858255D01*
X1111929Y858243D01*
X1112065Y858230D01*
X1112214Y858206D01*
X1112536Y858131D01*
X1112883Y858020D01*
X1113057Y857945D01*
X1113230Y857859D01*
X1113392Y857759D01*
X1113553Y857648D01*
X1113565Y857635D01*
X1113590Y857623D01*
X1113627Y857586D01*
X1113689Y857536D01*
X1113751Y857474D01*
X1113838Y857387D01*
X1113924Y857301D01*
X1114011Y857202D01*
X1114110Y857078D01*
X1114197Y856954D01*
X1114296Y856805D01*
X1114396Y856644D01*
X1114482Y856483D01*
X1114569Y856297D01*
X1114718Y855900D01*
X1113652Y855652D01*
Y855665D01*
X1113640Y855689D01*
X1113627Y855739D01*
X1113602Y855801D01*
X1113565Y855875D01*
X1113528Y855962D01*
X1113441Y856148D01*
X1113330Y856359D01*
X1113181Y856582D01*
X1113020Y856780D01*
X1112821Y856954D01*
X1112797Y856966D01*
X1112722Y857016D01*
X1112611Y857078D01*
X1112449Y857164D01*
X1112264Y857239D01*
X1112028Y857301D01*
X1111768Y857350D01*
X1111470Y857363D01*
X1111384D01*
X1111322Y857350D01*
X1111235D01*
X1111148Y857338D01*
X1110925Y857301D01*
X1110677Y857251D01*
X1110417Y857164D01*
X1110156Y857053D01*
X1109909Y856904D01*
X1109896D01*
X1109884Y856879D01*
X1109809Y856817D01*
X1109698Y856718D01*
X1109561Y856582D01*
X1109425Y856408D01*
X1109276Y856210D01*
X1109140Y855962D01*
X1109028Y855689D01*
Y855677D01*
X1109016Y855652D01*
X1109004Y855615D01*
X1108991Y855553D01*
X1108967Y855491D01*
X1108954Y855404D01*
X1108904Y855206D01*
X1108855Y854970D01*
X1108818Y854710D01*
X1108793Y854425D01*
X1108781Y854128D01*
Y854115D01*
Y854078D01*
Y854028D01*
Y853954D01*
X1108793Y853867D01*
Y853756D01*
X1108805Y853644D01*
X1108818Y853520D01*
X1108855Y853235D01*
X1108904Y852925D01*
X1108979Y852615D01*
X1109078Y852318D01*
Y852306D01*
X1109090Y852281D01*
X1109115Y852243D01*
X1109140Y852194D01*
X1109202Y852045D01*
X1109301Y851884D01*
X1109437Y851686D01*
X1109599Y851500D01*
X1109784Y851314D01*
X1110008Y851153D01*
X1110020D01*
X1110033Y851140D01*
X1110070Y851116D01*
X1110119Y851091D01*
X1110256Y851041D01*
X1110429Y850967D01*
X1110627Y850905D01*
X1110863Y850843D01*
X1111123Y850793D01*
X1111396Y850781D01*
X1111483D01*
X1111545Y850793D01*
X1111619D01*
X1111718Y850806D01*
X1111929Y850843D01*
X1112164Y850905D01*
X1112425Y851004D01*
X1112673Y851128D01*
X1112921Y851301D01*
X1112933Y851314D01*
X1112945Y851326D01*
X1113020Y851401D01*
X1113131Y851525D01*
X1113268Y851686D01*
X1113404Y851909D01*
X1113553Y852169D01*
X1113677Y852491D01*
X1113776Y852851D01*
X1114854Y852578D01*
Y852566D01*
X1114842Y852516D01*
X1114817Y852454D01*
X1114792Y852355D01*
X1114743Y852256D01*
X1114693Y852120D01*
X1114643Y851983D01*
X1114569Y851834D01*
X1114408Y851500D01*
X1114185Y851165D01*
X1113937Y850843D01*
X1113788Y850694D01*
X1113627Y850558D01*
X1113615Y850545D01*
X1113590Y850533D01*
X1113540Y850496D01*
X1113466Y850446D01*
X1113379Y850397D01*
X1113280Y850335D01*
X1113168Y850273D01*
X1113032Y850211D01*
X1112883Y850149D01*
X1112722Y850087D01*
X1112536Y850025D01*
X1112350Y849975D01*
X1111941Y849888D01*
X1111718Y849876D01*
X1111483Y849864D01*
X1111359D01*
X1111260Y849876D01*
X1111148D01*
X1111024Y849888D01*
X1110875Y849913D01*
X1110727Y849926D01*
X1110379Y850000D01*
X1110020Y850087D01*
X1109673Y850223D01*
X1109500Y850297D01*
X1109338Y850397D01*
X1109326Y850409D01*
X1109301Y850421D01*
X1109264Y850459D01*
X1109202Y850496D01*
X1109053Y850620D01*
X1108880Y850793D01*
X1108669Y851004D01*
X1108471Y851277D01*
X1108260Y851587D01*
X1108086Y851946D01*
Y851958D01*
X1108074Y851996D01*
X1108049Y852045D01*
X1108024Y852120D01*
X1107987Y852219D01*
X1107950Y852330D01*
X1107913Y852454D01*
X1107876Y852603D01*
X1107839Y852752D01*
X1107801Y852925D01*
X1107727Y853297D01*
X1107677Y853694D01*
X1107665Y854128D01*
Y854140D01*
Y854190D01*
Y854252D01*
X1107677Y854338D01*
Y854450D01*
X1107690Y854586D01*
X1107702Y854723D01*
X1107727Y854884D01*
X1107789Y855231D01*
X1107863Y855603D01*
X1107987Y855987D01*
X1108148Y856346D01*
Y856359D01*
X1108173Y856384D01*
X1108198Y856433D01*
X1108235Y856507D01*
X1108285Y856582D01*
X1108347Y856669D01*
X1108508Y856879D01*
X1108694Y857115D01*
X1108929Y857350D01*
X1109214Y857586D01*
X1109524Y857784D01*
X1109537D01*
X1109561Y857809D01*
X1109611Y857834D01*
X1109685Y857859D01*
X1109760Y857896D01*
X1109859Y857945D01*
X1109983Y857982D01*
X1110107Y858032D01*
X1110243Y858082D01*
X1110392Y858119D01*
X1110727Y858206D01*
X1111098Y858255D01*
X1111495Y858280D01*
X1111619D01*
X1111706Y858268D01*
D02*
G37*
G36*
X1121101Y857264D02*
X1121089Y857251D01*
X1121064Y857226D01*
X1121027Y857177D01*
X1120965Y857115D01*
X1120903Y857028D01*
X1120816Y856929D01*
X1120717Y856805D01*
X1120618Y856681D01*
X1120506Y856532D01*
X1120382Y856359D01*
X1120246Y856185D01*
X1120122Y855987D01*
X1119986Y855776D01*
X1119837Y855553D01*
X1119701Y855305D01*
X1119552Y855057D01*
X1119540Y855045D01*
X1119515Y854995D01*
X1119478Y854921D01*
X1119428Y854822D01*
X1119366Y854698D01*
X1119292Y854549D01*
X1119205Y854376D01*
X1119118Y854190D01*
X1119031Y853991D01*
X1118932Y853768D01*
X1118833Y853533D01*
X1118734Y853285D01*
X1118548Y852776D01*
X1118374Y852231D01*
Y852219D01*
X1118362Y852182D01*
X1118350Y852132D01*
X1118325Y852058D01*
X1118300Y851958D01*
X1118275Y851847D01*
X1118251Y851711D01*
X1118213Y851574D01*
X1118188Y851413D01*
X1118151Y851239D01*
X1118089Y850868D01*
X1118040Y850446D01*
X1118003Y850000D01*
X1116974D01*
Y850012D01*
Y850050D01*
Y850099D01*
X1116986Y850173D01*
Y850260D01*
X1116999Y850372D01*
X1117011Y850508D01*
X1117023Y850645D01*
X1117048Y850806D01*
X1117073Y850992D01*
X1117098Y851178D01*
X1117135Y851376D01*
X1117172Y851599D01*
X1117222Y851822D01*
X1117346Y852318D01*
Y852330D01*
X1117358Y852380D01*
X1117383Y852454D01*
X1117408Y852553D01*
X1117445Y852677D01*
X1117494Y852814D01*
X1117544Y852975D01*
X1117606Y853161D01*
X1117680Y853347D01*
X1117755Y853557D01*
X1117928Y854004D01*
X1118139Y854475D01*
X1118374Y854946D01*
X1118387Y854958D01*
X1118412Y855008D01*
X1118449Y855070D01*
X1118498Y855156D01*
X1118560Y855268D01*
X1118635Y855392D01*
X1118721Y855528D01*
X1118808Y855689D01*
X1119031Y856024D01*
X1119279Y856384D01*
X1119540Y856743D01*
X1119825Y857090D01*
X1115833D01*
Y858045D01*
X1121101D01*
Y857264D01*
D02*
G37*
G36*
X1106078Y850000D02*
X1105000D01*
Y858144D01*
X1106078D01*
Y850000D01*
D02*
G37*
G36*
X836960Y750124D02*
X837035D01*
X837134Y750112D01*
X837357Y750074D01*
X837605Y750012D01*
X837865Y749913D01*
X838113Y749789D01*
X838361Y749616D01*
X838373Y749603D01*
X838386Y749591D01*
X838460Y749517D01*
X838559Y749393D01*
X838683Y749231D01*
X838807Y749021D01*
X838919Y748761D01*
X839018Y748463D01*
X839080Y748116D01*
X838125Y748042D01*
Y748054D01*
Y748066D01*
X838113Y748104D01*
X838101Y748153D01*
X838076Y748277D01*
X838026Y748413D01*
X837964Y748575D01*
X837890Y748736D01*
X837791Y748897D01*
X837667Y749021D01*
X837654Y749033D01*
X837605Y749070D01*
X837530Y749120D01*
X837419Y749169D01*
X837295Y749219D01*
X837146Y749269D01*
X836973Y749306D01*
X836774Y749318D01*
X836700D01*
X836613Y749306D01*
X836502Y749294D01*
X836378Y749269D01*
X836241Y749231D01*
X836105Y749182D01*
X835969Y749108D01*
X835956Y749095D01*
X835907Y749070D01*
X835845Y749021D01*
X835770Y748959D01*
X835671Y748885D01*
X835584Y748785D01*
X835485Y748674D01*
X835398Y748550D01*
X835386Y748537D01*
X835361Y748488D01*
X835324Y748401D01*
X835262Y748289D01*
X835212Y748153D01*
X835151Y747992D01*
X835089Y747806D01*
X835027Y747595D01*
Y747583D01*
X835014Y747571D01*
Y747533D01*
X835002Y747496D01*
X834977Y747372D01*
X834952Y747211D01*
X834927Y747025D01*
X834903Y746827D01*
X834878Y746604D01*
Y746368D01*
Y746356D01*
Y746319D01*
Y746257D01*
Y746170D01*
X834890Y746195D01*
X834940Y746244D01*
X835002Y746343D01*
X835101Y746443D01*
X835212Y746567D01*
X835361Y746703D01*
X835522Y746827D01*
X835708Y746951D01*
X835733Y746963D01*
X835795Y747000D01*
X835907Y747038D01*
X836043Y747087D01*
X836204Y747149D01*
X836390Y747186D01*
X836601Y747224D01*
X836824Y747236D01*
X836923D01*
X836997Y747224D01*
X837084Y747211D01*
X837183Y747199D01*
X837419Y747149D01*
X837692Y747062D01*
X837828Y747000D01*
X837977Y746926D01*
X838113Y746839D01*
X838262Y746740D01*
X838398Y746628D01*
X838534Y746505D01*
X838547Y746492D01*
X838559Y746467D01*
X838596Y746430D01*
X838646Y746368D01*
X838696Y746294D01*
X838758Y746207D01*
X838820Y746108D01*
X838882Y745984D01*
X838943Y745860D01*
X839006Y745711D01*
X839067Y745550D01*
X839117Y745377D01*
X839167Y745191D01*
X839204Y745005D01*
X839216Y744794D01*
X839229Y744571D01*
Y744558D01*
Y744521D01*
Y744447D01*
X839216Y744360D01*
X839204Y744261D01*
X839191Y744137D01*
X839167Y744001D01*
X839142Y743852D01*
X839055Y743542D01*
X838993Y743369D01*
X838919Y743207D01*
X838844Y743034D01*
X838745Y742873D01*
X838634Y742724D01*
X838510Y742575D01*
X838497Y742563D01*
X838473Y742538D01*
X838435Y742501D01*
X838373Y742451D01*
X838311Y742402D01*
X838225Y742340D01*
X838125Y742265D01*
X838001Y742191D01*
X837878Y742129D01*
X837741Y742055D01*
X837431Y741931D01*
X837258Y741894D01*
X837072Y741856D01*
X836873Y741832D01*
X836675Y741819D01*
X836601D01*
X836539Y741832D01*
X836477D01*
X836390Y741844D01*
X836192Y741869D01*
X835969Y741931D01*
X835733Y742005D01*
X835473Y742104D01*
X835225Y742253D01*
X835212D01*
X835200Y742278D01*
X835163Y742303D01*
X835113Y742327D01*
X835002Y742427D01*
X834853Y742563D01*
X834692Y742749D01*
X834518Y742947D01*
X834357Y743195D01*
X834221Y743480D01*
Y743493D01*
X834209Y743517D01*
X834184Y743567D01*
X834171Y743629D01*
X834134Y743703D01*
X834109Y743802D01*
X834085Y743926D01*
X834047Y744063D01*
X834010Y744212D01*
X833985Y744385D01*
X833948Y744571D01*
X833923Y744769D01*
X833911Y744992D01*
X833886Y745228D01*
X833874Y745488D01*
Y745761D01*
Y745773D01*
Y745835D01*
Y745910D01*
Y746021D01*
X833886Y746145D01*
Y746306D01*
X833899Y746467D01*
X833911Y746653D01*
X833961Y747050D01*
X834023Y747471D01*
X834109Y747880D01*
X834159Y748066D01*
X834221Y748252D01*
Y748265D01*
X834233Y748289D01*
X834258Y748339D01*
X834283Y748401D01*
X834320Y748488D01*
X834357Y748575D01*
X834469Y748773D01*
X834618Y749008D01*
X834791Y749244D01*
X834989Y749467D01*
X835225Y749665D01*
X835237D01*
X835250Y749690D01*
X835287Y749703D01*
X835349Y749740D01*
X835411Y749777D01*
X835485Y749814D01*
X835671Y749901D01*
X835907Y749988D01*
X836167Y750062D01*
X836477Y750112D01*
X836799Y750136D01*
X836886D01*
X836960Y750124D01*
D02*
G37*
G36*
X843740D02*
X843852D01*
X843976Y750112D01*
X844125Y750087D01*
X844273Y750074D01*
X844621Y750000D01*
X844980Y749913D01*
X845327Y749777D01*
X845500Y749703D01*
X845662Y749603D01*
X845674Y749591D01*
X845699Y749579D01*
X845736Y749541D01*
X845798Y749504D01*
X845947Y749380D01*
X846120Y749207D01*
X846331Y748996D01*
X846529Y748723D01*
X846740Y748413D01*
X846914Y748054D01*
Y748042D01*
X846926Y748004D01*
X846951Y747955D01*
X846976Y747880D01*
X847013Y747781D01*
X847050Y747670D01*
X847087Y747546D01*
X847124Y747397D01*
X847161Y747248D01*
X847199Y747075D01*
X847273Y746703D01*
X847323Y746306D01*
X847335Y745872D01*
Y745860D01*
Y745810D01*
Y745749D01*
X847323Y745662D01*
Y745550D01*
X847310Y745414D01*
X847298Y745277D01*
X847273Y745116D01*
X847211Y744769D01*
X847137Y744397D01*
X847013Y744013D01*
X846852Y743654D01*
Y743641D01*
X846827Y743616D01*
X846802Y743567D01*
X846765Y743493D01*
X846715Y743418D01*
X846653Y743331D01*
X846492Y743121D01*
X846306Y742885D01*
X846071Y742650D01*
X845786Y742414D01*
X845476Y742216D01*
X845463D01*
X845439Y742191D01*
X845389Y742166D01*
X845315Y742141D01*
X845240Y742104D01*
X845141Y742055D01*
X845017Y742018D01*
X844893Y741968D01*
X844757Y741918D01*
X844608Y741881D01*
X844273Y741794D01*
X843902Y741745D01*
X843505Y741720D01*
X843381D01*
X843294Y741732D01*
X843195Y741745D01*
X843071Y741757D01*
X842935Y741770D01*
X842786Y741794D01*
X842464Y741869D01*
X842117Y741980D01*
X841943Y742055D01*
X841770Y742141D01*
X841609Y742241D01*
X841447Y742352D01*
X841435Y742365D01*
X841410Y742377D01*
X841373Y742414D01*
X841311Y742464D01*
X841249Y742526D01*
X841162Y742613D01*
X841076Y742699D01*
X840989Y742798D01*
X840890Y742922D01*
X840803Y743046D01*
X840704Y743195D01*
X840604Y743356D01*
X840518Y743517D01*
X840431Y743703D01*
X840282Y744100D01*
X841348Y744348D01*
Y744335D01*
X841360Y744311D01*
X841373Y744261D01*
X841398Y744199D01*
X841435Y744125D01*
X841472Y744038D01*
X841559Y743852D01*
X841670Y743641D01*
X841819Y743418D01*
X841980Y743220D01*
X842179Y743046D01*
X842203Y743034D01*
X842278Y742984D01*
X842389Y742922D01*
X842551Y742836D01*
X842736Y742761D01*
X842972Y742699D01*
X843232Y742650D01*
X843530Y742637D01*
X843616D01*
X843678Y742650D01*
X843765D01*
X843852Y742662D01*
X844075Y742699D01*
X844323Y742749D01*
X844583Y742836D01*
X844844Y742947D01*
X845091Y743096D01*
X845104D01*
X845116Y743121D01*
X845191Y743183D01*
X845302Y743282D01*
X845439Y743418D01*
X845575Y743592D01*
X845724Y743790D01*
X845860Y744038D01*
X845972Y744311D01*
Y744323D01*
X845984Y744348D01*
X845996Y744385D01*
X846009Y744447D01*
X846033Y744509D01*
X846046Y744596D01*
X846096Y744794D01*
X846145Y745030D01*
X846182Y745290D01*
X846207Y745575D01*
X846219Y745872D01*
Y745885D01*
Y745922D01*
Y745972D01*
Y746046D01*
X846207Y746133D01*
Y746244D01*
X846195Y746356D01*
X846182Y746480D01*
X846145Y746765D01*
X846096Y747075D01*
X846021Y747385D01*
X845922Y747682D01*
Y747694D01*
X845910Y747719D01*
X845885Y747757D01*
X845860Y747806D01*
X845798Y747955D01*
X845699Y748116D01*
X845563Y748314D01*
X845401Y748500D01*
X845216Y748686D01*
X844992Y748847D01*
X844980D01*
X844968Y748860D01*
X844930Y748885D01*
X844881Y748909D01*
X844744Y748959D01*
X844571Y749033D01*
X844373Y749095D01*
X844137Y749157D01*
X843877Y749207D01*
X843604Y749219D01*
X843517D01*
X843455Y749207D01*
X843381D01*
X843282Y749194D01*
X843071Y749157D01*
X842836Y749095D01*
X842575Y748996D01*
X842327Y748872D01*
X842079Y748699D01*
X842067Y748686D01*
X842055Y748674D01*
X841980Y748599D01*
X841869Y748475D01*
X841732Y748314D01*
X841596Y748091D01*
X841447Y747831D01*
X841323Y747509D01*
X841224Y747149D01*
X840146Y747422D01*
Y747434D01*
X840158Y747484D01*
X840183Y747546D01*
X840208Y747645D01*
X840257Y747744D01*
X840307Y747880D01*
X840357Y748017D01*
X840431Y748166D01*
X840592Y748500D01*
X840815Y748835D01*
X841063Y749157D01*
X841212Y749306D01*
X841373Y749442D01*
X841385Y749455D01*
X841410Y749467D01*
X841460Y749504D01*
X841534Y749554D01*
X841621Y749603D01*
X841720Y749665D01*
X841832Y749727D01*
X841968Y749789D01*
X842117Y749851D01*
X842278Y749913D01*
X842464Y749975D01*
X842650Y750025D01*
X843059Y750112D01*
X843282Y750124D01*
X843517Y750136D01*
X843641D01*
X843740Y750124D01*
D02*
G37*
G36*
X850000Y741856D02*
X848922D01*
Y750000D01*
X850000D01*
Y741856D01*
D02*
G37*
G36*
X796408Y507376D02*
X796398Y507230D01*
X796389Y507074D01*
X796379Y506908D01*
X796359Y506752D01*
X796340Y506615D01*
Y506596D01*
X796320Y506538D01*
X796301Y506450D01*
X796272Y506342D01*
X796233Y506216D01*
X796184Y506089D01*
X796115Y505952D01*
X796038Y505826D01*
X796028Y505816D01*
X795999Y505767D01*
X795950Y505708D01*
X795881Y505640D01*
X795794Y505562D01*
X795686Y505474D01*
X795569Y505387D01*
X795423Y505308D01*
X795404Y505299D01*
X795355Y505279D01*
X795277Y505250D01*
X795169Y505211D01*
X795043Y505172D01*
X794896Y505143D01*
X794731Y505123D01*
X794555Y505113D01*
X794545D01*
X794516D01*
X794477D01*
X794418Y505123D01*
X794350Y505133D01*
X794262Y505143D01*
X794174Y505153D01*
X794077Y505182D01*
X793853Y505240D01*
X793628Y505338D01*
X793511Y505396D01*
X793394Y505465D01*
X793277Y505543D01*
X793170Y505640D01*
X793160Y505650D01*
X793150Y505669D01*
X793121Y505699D01*
X793082Y505738D01*
X793043Y505806D01*
X792994Y505874D01*
X792946Y505962D01*
X792897Y506069D01*
X792838Y506186D01*
X792790Y506323D01*
X792741Y506479D01*
X792702Y506645D01*
X792663Y506840D01*
X792634Y507045D01*
X792624Y507269D01*
X792614Y507513D01*
Y509151D01*
X790000D01*
Y510000D01*
X796408D01*
Y507376D01*
D02*
G37*
G36*
X792126Y503514D02*
X792116D01*
X792107D01*
X792048Y503504D01*
X791961Y503485D01*
X791843Y503465D01*
X791717Y503426D01*
X791580Y503387D01*
X791453Y503329D01*
X791327Y503260D01*
X791317Y503251D01*
X791278Y503221D01*
X791219Y503172D01*
X791151Y503094D01*
X791073Y503007D01*
X790985Y502899D01*
X790907Y502763D01*
X790829Y502617D01*
Y502607D01*
X790819Y502597D01*
X790800Y502538D01*
X790770Y502451D01*
X790741Y502324D01*
X790702Y502187D01*
X790673Y502012D01*
X790654Y501827D01*
X790644Y501631D01*
Y501553D01*
X790654Y501456D01*
X790663Y501349D01*
X790673Y501212D01*
X790702Y501076D01*
X790732Y500929D01*
X790780Y500783D01*
X790790Y500763D01*
X790809Y500724D01*
X790839Y500656D01*
X790888Y500578D01*
X790946Y500480D01*
X791014Y500393D01*
X791092Y500305D01*
X791180Y500227D01*
X791190Y500217D01*
X791229Y500198D01*
X791278Y500168D01*
X791346Y500129D01*
X791424Y500100D01*
X791522Y500071D01*
X791619Y500051D01*
X791726Y500042D01*
X791736D01*
X791775D01*
X791834Y500051D01*
X791902Y500061D01*
X791990Y500081D01*
X792077Y500120D01*
X792165Y500159D01*
X792253Y500217D01*
X792263Y500227D01*
X792292Y500246D01*
X792331Y500295D01*
X792390Y500354D01*
X792448Y500432D01*
X792507Y500529D01*
X792575Y500656D01*
X792634Y500793D01*
X792643Y500802D01*
X792653Y500841D01*
X792673Y500919D01*
X792692Y500968D01*
X792711Y501027D01*
X792731Y501105D01*
X792750Y501183D01*
X792780Y501280D01*
X792809Y501378D01*
X792838Y501495D01*
X792868Y501631D01*
X792907Y501778D01*
X792946Y501934D01*
Y501944D01*
X792955Y501973D01*
X792965Y502022D01*
X792985Y502080D01*
X793004Y502148D01*
X793024Y502226D01*
X793072Y502412D01*
X793141Y502617D01*
X793209Y502821D01*
X793277Y503007D01*
X793307Y503094D01*
X793345Y503163D01*
Y503172D01*
X793355Y503182D01*
X793394Y503241D01*
X793443Y503319D01*
X793511Y503416D01*
X793599Y503533D01*
X793697Y503641D01*
X793814Y503748D01*
X793940Y503845D01*
X793960Y503855D01*
X794009Y503885D01*
X794077Y503914D01*
X794174Y503953D01*
X794292Y504002D01*
X794428Y504031D01*
X794584Y504060D01*
X794740Y504070D01*
X794750D01*
X794760D01*
X794789D01*
X794828D01*
X794916Y504050D01*
X795033Y504031D01*
X795179Y504002D01*
X795325Y503953D01*
X795491Y503885D01*
X795647Y503797D01*
X795657D01*
X795667Y503787D01*
X795716Y503748D01*
X795794Y503680D01*
X795891Y503592D01*
X795989Y503485D01*
X796096Y503348D01*
X796203Y503182D01*
X796291Y502997D01*
Y502987D01*
X796301Y502977D01*
X796311Y502948D01*
X796330Y502899D01*
X796340Y502851D01*
X796359Y502792D01*
X796408Y502655D01*
X796447Y502480D01*
X796476Y502285D01*
X796506Y502061D01*
X796515Y501827D01*
Y501709D01*
X796506Y501641D01*
Y501573D01*
X796486Y501407D01*
X796457Y501212D01*
X796418Y500997D01*
X796359Y500783D01*
X796281Y500578D01*
Y500568D01*
X796272Y500559D01*
X796262Y500529D01*
X796242Y500490D01*
X796184Y500393D01*
X796115Y500266D01*
X796018Y500129D01*
X795901Y499993D01*
X795764Y499856D01*
X795608Y499739D01*
X795589Y499729D01*
X795530Y499690D01*
X795433Y499642D01*
X795316Y499593D01*
X795169Y499534D01*
X794994Y499476D01*
X794809Y499437D01*
X794604Y499417D01*
X794545Y500227D01*
X794555D01*
X794574D01*
X794604Y500237D01*
X794643Y500246D01*
X794750Y500266D01*
X794886Y500305D01*
X795033Y500363D01*
X795179Y500442D01*
X795325Y500549D01*
X795452Y500676D01*
X795462Y500695D01*
X795501Y500744D01*
X795550Y500832D01*
X795608Y500949D01*
X795667Y501105D01*
X795716Y501300D01*
X795755Y501524D01*
X795764Y501787D01*
Y501914D01*
X795755Y501973D01*
Y502051D01*
X795725Y502217D01*
X795696Y502402D01*
X795647Y502587D01*
X795579Y502763D01*
X795530Y502841D01*
X795481Y502909D01*
X795472Y502919D01*
X795433Y502958D01*
X795374Y503016D01*
X795286Y503075D01*
X795189Y503143D01*
X795072Y503192D01*
X794945Y503231D01*
X794799Y503251D01*
X794779D01*
X794740D01*
X794672Y503241D01*
X794594Y503221D01*
X794506Y503192D01*
X794409Y503143D01*
X794321Y503085D01*
X794233Y503007D01*
X794223Y502997D01*
X794194Y502948D01*
X794174Y502919D01*
X794145Y502880D01*
X794126Y502821D01*
X794097Y502753D01*
X794057Y502675D01*
X794018Y502587D01*
X793989Y502490D01*
X793950Y502373D01*
X793901Y502236D01*
X793862Y502090D01*
X793823Y501924D01*
X793775Y501739D01*
Y501729D01*
X793765Y501690D01*
X793755Y501641D01*
X793736Y501573D01*
X793716Y501485D01*
X793687Y501388D01*
X793638Y501173D01*
X793570Y500939D01*
X793502Y500705D01*
X793472Y500588D01*
X793433Y500490D01*
X793394Y500393D01*
X793365Y500315D01*
Y500305D01*
X793355Y500285D01*
X793336Y500266D01*
X793316Y500227D01*
X793258Y500129D01*
X793189Y500003D01*
X793092Y499866D01*
X792975Y499729D01*
X792848Y499603D01*
X792711Y499495D01*
X792692Y499486D01*
X792643Y499456D01*
X792565Y499408D01*
X792448Y499359D01*
X792321Y499310D01*
X792165Y499261D01*
X791990Y499232D01*
X791804Y499222D01*
X791795D01*
X791785D01*
X791756D01*
X791717D01*
X791619Y499242D01*
X791492Y499261D01*
X791346Y499291D01*
X791180Y499349D01*
X791005Y499417D01*
X790839Y499515D01*
X790819Y499525D01*
X790761Y499573D01*
X790683Y499632D01*
X790585Y499729D01*
X790468Y499846D01*
X790351Y499993D01*
X790244Y500168D01*
X790136Y500363D01*
Y500373D01*
X790127Y500393D01*
X790117Y500422D01*
X790098Y500461D01*
X790078Y500510D01*
X790059Y500568D01*
X790020Y500724D01*
X789971Y500900D01*
X789932Y501115D01*
X789902Y501339D01*
X789893Y501592D01*
Y501739D01*
X789902Y501807D01*
Y501895D01*
X789912Y501992D01*
X789922Y502100D01*
X789951Y502324D01*
X790000Y502568D01*
X790059Y502812D01*
X790136Y503046D01*
Y503055D01*
X790146Y503075D01*
X790166Y503104D01*
X790185Y503143D01*
X790244Y503251D01*
X790332Y503377D01*
X790439Y503533D01*
X790566Y503680D01*
X790722Y503836D01*
X790897Y503972D01*
X790907D01*
X790917Y503982D01*
X790946Y504002D01*
X790985Y504021D01*
X791034Y504050D01*
X791092Y504080D01*
X791239Y504138D01*
X791404Y504197D01*
X791609Y504255D01*
X791824Y504294D01*
X792058Y504314D01*
X792126Y503514D01*
D02*
G37*
G36*
X794828Y497769D02*
X794838Y497749D01*
X794857Y497710D01*
X794886Y497671D01*
X794916Y497613D01*
X794945Y497545D01*
X795033Y497389D01*
X795140Y497213D01*
X795267Y497018D01*
X795413Y496823D01*
X795569Y496638D01*
X795579Y496628D01*
X795589Y496618D01*
X795647Y496559D01*
X795735Y496472D01*
X795842Y496365D01*
X795979Y496247D01*
X796125Y496130D01*
X796281Y496023D01*
X796437Y495935D01*
Y495418D01*
X790000D01*
Y496208D01*
X795013D01*
X795004Y496218D01*
X794965Y496257D01*
X794916Y496325D01*
X794847Y496413D01*
X794760Y496521D01*
X794672Y496647D01*
X794565Y496794D01*
X794467Y496959D01*
Y496969D01*
X794457Y496979D01*
X794418Y497038D01*
X794370Y497125D01*
X794311Y497233D01*
X794243Y497359D01*
X794184Y497496D01*
X794116Y497642D01*
X794057Y497779D01*
X794828D01*
Y497769D01*
D02*
G37*
G36*
X600454Y452910D02*
X599450D01*
Y459281D01*
X599437Y459268D01*
X599388Y459219D01*
X599301Y459157D01*
X599190Y459070D01*
X599053Y458958D01*
X598892Y458847D01*
X598706Y458711D01*
X598495Y458587D01*
X598483D01*
X598471Y458574D01*
X598396Y458525D01*
X598285Y458463D01*
X598148Y458388D01*
X597987Y458302D01*
X597814Y458227D01*
X597628Y458140D01*
X597454Y458066D01*
Y459045D01*
X597467D01*
X597491Y459058D01*
X597541Y459082D01*
X597591Y459120D01*
X597665Y459157D01*
X597752Y459194D01*
X597950Y459305D01*
X598173Y459442D01*
X598421Y459603D01*
X598669Y459789D01*
X598904Y459987D01*
X598917Y460000D01*
X598929Y460012D01*
X599004Y460086D01*
X599115Y460198D01*
X599252Y460334D01*
X599400Y460508D01*
X599549Y460694D01*
X599685Y460892D01*
X599797Y461090D01*
X600454D01*
Y452910D01*
D02*
G37*
G36*
X595979Y460099D02*
X593302D01*
Y452910D01*
X592224D01*
Y460099D01*
X589546D01*
Y461053D01*
X595979D01*
Y460099D01*
D02*
G37*
G36*
X630033Y817702D02*
Y817692D01*
Y817663D01*
Y817614D01*
Y817546D01*
X630023Y817458D01*
Y817370D01*
X630013Y817263D01*
X630004Y817146D01*
X629974Y816902D01*
X629935Y816648D01*
X629887Y816395D01*
X629809Y816170D01*
Y816161D01*
X629799Y816141D01*
X629789Y816112D01*
X629770Y816073D01*
X629711Y815975D01*
X629633Y815839D01*
X629526Y815693D01*
X629389Y815536D01*
X629213Y815390D01*
X629019Y815244D01*
X629009D01*
X628989Y815224D01*
X628960Y815215D01*
X628911Y815185D01*
X628862Y815166D01*
X628794Y815136D01*
X628706Y815098D01*
X628619Y815068D01*
X628521Y815039D01*
X628404Y815000D01*
X628287Y814971D01*
X628150Y814951D01*
X627858Y814912D01*
X627526Y814893D01*
X627438D01*
X627380Y814902D01*
X627302D01*
X627214Y814912D01*
X627117Y814922D01*
X627009Y814932D01*
X626775Y814971D01*
X626531Y815020D01*
X626278Y815098D01*
X626053Y815195D01*
X626044D01*
X626024Y815215D01*
X626005Y815224D01*
X625966Y815254D01*
X625858Y815322D01*
X625741Y815429D01*
X625605Y815556D01*
X625478Y815702D01*
X625351Y815888D01*
X625244Y816092D01*
Y816102D01*
X625234Y816122D01*
X625224Y816151D01*
X625205Y816200D01*
X625185Y816258D01*
X625166Y816336D01*
X625146Y816424D01*
X625127Y816522D01*
X625098Y816629D01*
X625078Y816746D01*
X625059Y816882D01*
X625039Y817019D01*
X625019Y817175D01*
X625010Y817341D01*
X625000Y817516D01*
Y817702D01*
Y821408D01*
X625849D01*
Y817702D01*
Y817692D01*
Y817663D01*
Y817624D01*
Y817565D01*
Y817497D01*
X625858Y817419D01*
X625868Y817234D01*
X625888Y817038D01*
X625907Y816834D01*
X625946Y816639D01*
X625966Y816551D01*
X625995Y816473D01*
X626005Y816453D01*
X626024Y816404D01*
X626063Y816336D01*
X626122Y816248D01*
X626190Y816151D01*
X626287Y816044D01*
X626395Y815946D01*
X626531Y815858D01*
X626551Y815849D01*
X626600Y815829D01*
X626678Y815790D01*
X626785Y815761D01*
X626922Y815722D01*
X627077Y815683D01*
X627253Y815663D01*
X627448Y815654D01*
X627536D01*
X627604Y815663D01*
X627682D01*
X627770Y815673D01*
X627965Y815702D01*
X628189Y815761D01*
X628404Y815829D01*
X628609Y815936D01*
X628706Y815995D01*
X628784Y816073D01*
Y816083D01*
X628804Y816092D01*
X628823Y816122D01*
X628843Y816161D01*
X628882Y816209D01*
X628911Y816268D01*
X628950Y816346D01*
X628989Y816434D01*
X629019Y816541D01*
X629058Y816658D01*
X629096Y816785D01*
X629126Y816941D01*
X629145Y817107D01*
X629165Y817282D01*
X629184Y817487D01*
Y817702D01*
Y821408D01*
X630033D01*
Y817702D01*
D02*
G37*
G36*
X634090Y815000D02*
X633300D01*
Y820013D01*
X633291Y820004D01*
X633251Y819965D01*
X633183Y819916D01*
X633096Y819847D01*
X632988Y819760D01*
X632861Y819672D01*
X632715Y819565D01*
X632549Y819467D01*
X632539D01*
X632530Y819457D01*
X632471Y819418D01*
X632383Y819370D01*
X632276Y819311D01*
X632149Y819243D01*
X632013Y819184D01*
X631866Y819116D01*
X631730Y819057D01*
Y819828D01*
X631740D01*
X631759Y819838D01*
X631798Y819857D01*
X631837Y819886D01*
X631896Y819916D01*
X631964Y819945D01*
X632120Y820033D01*
X632296Y820140D01*
X632491Y820267D01*
X632686Y820413D01*
X632871Y820569D01*
X632881Y820579D01*
X632891Y820589D01*
X632949Y820647D01*
X633037Y820735D01*
X633144Y820842D01*
X633261Y820979D01*
X633378Y821125D01*
X633486Y821281D01*
X633573Y821437D01*
X634090D01*
Y815000D01*
D02*
G37*
G36*
X630033Y627702D02*
Y627692D01*
Y627663D01*
Y627614D01*
Y627546D01*
X630023Y627458D01*
Y627370D01*
X630013Y627263D01*
X630004Y627146D01*
X629974Y626902D01*
X629935Y626648D01*
X629887Y626395D01*
X629809Y626170D01*
Y626161D01*
X629799Y626141D01*
X629789Y626112D01*
X629770Y626073D01*
X629711Y625975D01*
X629633Y625839D01*
X629526Y625692D01*
X629389Y625536D01*
X629213Y625390D01*
X629019Y625244D01*
X629009D01*
X628989Y625224D01*
X628960Y625215D01*
X628911Y625185D01*
X628862Y625166D01*
X628794Y625136D01*
X628706Y625098D01*
X628619Y625068D01*
X628521Y625039D01*
X628404Y625000D01*
X628287Y624971D01*
X628150Y624951D01*
X627858Y624912D01*
X627526Y624893D01*
X627438D01*
X627380Y624902D01*
X627302D01*
X627214Y624912D01*
X627117Y624922D01*
X627009Y624932D01*
X626775Y624971D01*
X626531Y625019D01*
X626278Y625098D01*
X626053Y625195D01*
X626044D01*
X626024Y625215D01*
X626005Y625224D01*
X625966Y625254D01*
X625858Y625322D01*
X625741Y625429D01*
X625605Y625556D01*
X625478Y625702D01*
X625351Y625888D01*
X625244Y626092D01*
Y626102D01*
X625234Y626122D01*
X625224Y626151D01*
X625205Y626200D01*
X625185Y626258D01*
X625166Y626336D01*
X625146Y626424D01*
X625127Y626522D01*
X625098Y626629D01*
X625078Y626746D01*
X625059Y626882D01*
X625039Y627019D01*
X625019Y627175D01*
X625010Y627341D01*
X625000Y627516D01*
Y627702D01*
Y631408D01*
X625849D01*
Y627702D01*
Y627692D01*
Y627663D01*
Y627624D01*
Y627565D01*
Y627497D01*
X625858Y627419D01*
X625868Y627234D01*
X625888Y627038D01*
X625907Y626834D01*
X625946Y626639D01*
X625966Y626551D01*
X625995Y626473D01*
X626005Y626453D01*
X626024Y626404D01*
X626063Y626336D01*
X626122Y626249D01*
X626190Y626151D01*
X626287Y626044D01*
X626395Y625946D01*
X626531Y625858D01*
X626551Y625849D01*
X626600Y625829D01*
X626678Y625790D01*
X626785Y625761D01*
X626922Y625722D01*
X627077Y625683D01*
X627253Y625663D01*
X627448Y625653D01*
X627536D01*
X627604Y625663D01*
X627682D01*
X627770Y625673D01*
X627965Y625702D01*
X628189Y625761D01*
X628404Y625829D01*
X628609Y625936D01*
X628706Y625995D01*
X628784Y626073D01*
Y626083D01*
X628804Y626092D01*
X628823Y626122D01*
X628843Y626161D01*
X628882Y626209D01*
X628911Y626268D01*
X628950Y626346D01*
X628989Y626434D01*
X629019Y626541D01*
X629058Y626658D01*
X629096Y626785D01*
X629126Y626941D01*
X629145Y627107D01*
X629165Y627282D01*
X629184Y627487D01*
Y627702D01*
Y631408D01*
X630033D01*
Y627702D01*
D02*
G37*
G36*
X633398Y631428D02*
X633476Y631418D01*
X633564Y631408D01*
X633661Y631398D01*
X633769Y631369D01*
X634003Y631311D01*
X634246Y631223D01*
X634373Y631164D01*
X634490Y631096D01*
X634598Y631008D01*
X634705Y630920D01*
X634715Y630911D01*
X634724Y630901D01*
X634754Y630872D01*
X634793Y630833D01*
X634832Y630774D01*
X634880Y630716D01*
X634978Y630569D01*
X635075Y630384D01*
X635163Y630169D01*
X635232Y629926D01*
X635241Y629789D01*
X635251Y629652D01*
Y629633D01*
Y629584D01*
X635241Y629506D01*
X635232Y629409D01*
X635212Y629292D01*
X635183Y629165D01*
X635144Y629028D01*
X635085Y628892D01*
X635075Y628872D01*
X635056Y628823D01*
X635017Y628755D01*
X634958Y628658D01*
X634890Y628541D01*
X634802Y628404D01*
X634685Y628268D01*
X634558Y628111D01*
X634539Y628092D01*
X634490Y628033D01*
X634403Y627946D01*
X634344Y627887D01*
X634276Y627819D01*
X634198Y627741D01*
X634100Y627653D01*
X634003Y627565D01*
X633895Y627458D01*
X633778Y627351D01*
X633642Y627234D01*
X633505Y627117D01*
X633349Y626980D01*
X633339Y626970D01*
X633320Y626951D01*
X633281Y626922D01*
X633232Y626882D01*
X633115Y626785D01*
X632969Y626658D01*
X632822Y626522D01*
X632666Y626385D01*
X632539Y626268D01*
X632491Y626219D01*
X632442Y626170D01*
X632432Y626161D01*
X632413Y626131D01*
X632374Y626092D01*
X632325Y626034D01*
X632218Y625907D01*
X632110Y625751D01*
X635261D01*
Y625000D01*
X631018D01*
Y625010D01*
Y625049D01*
Y625107D01*
X631028Y625176D01*
X631037Y625254D01*
X631047Y625341D01*
X631077Y625439D01*
X631106Y625536D01*
Y625546D01*
X631115Y625556D01*
X631135Y625615D01*
X631174Y625692D01*
X631232Y625810D01*
X631301Y625936D01*
X631398Y626083D01*
X631496Y626229D01*
X631623Y626385D01*
Y626395D01*
X631642Y626404D01*
X631691Y626463D01*
X631769Y626551D01*
X631886Y626668D01*
X632032Y626804D01*
X632208Y626970D01*
X632422Y627155D01*
X632657Y627360D01*
X632666Y627370D01*
X632705Y627399D01*
X632754Y627438D01*
X632822Y627507D01*
X632910Y627575D01*
X633008Y627663D01*
X633222Y627848D01*
X633456Y628072D01*
X633690Y628297D01*
X633807Y628404D01*
X633905Y628511D01*
X633993Y628619D01*
X634071Y628716D01*
Y628726D01*
X634090Y628736D01*
X634110Y628765D01*
X634129Y628804D01*
X634188Y628901D01*
X634256Y629028D01*
X634324Y629174D01*
X634383Y629331D01*
X634422Y629506D01*
X634441Y629672D01*
Y629682D01*
Y629692D01*
X634432Y629750D01*
X634422Y629838D01*
X634403Y629945D01*
X634354Y630072D01*
X634295Y630199D01*
X634217Y630335D01*
X634100Y630462D01*
X634081Y630472D01*
X634042Y630511D01*
X633964Y630560D01*
X633866Y630628D01*
X633739Y630686D01*
X633593Y630735D01*
X633417Y630774D01*
X633222Y630784D01*
X633164D01*
X633125Y630774D01*
X633027Y630764D01*
X632900Y630745D01*
X632754Y630696D01*
X632598Y630638D01*
X632452Y630550D01*
X632315Y630433D01*
X632305Y630413D01*
X632266Y630374D01*
X632208Y630296D01*
X632149Y630189D01*
X632081Y630052D01*
X632032Y629896D01*
X631993Y629711D01*
X631974Y629496D01*
X631164Y629584D01*
Y629594D01*
Y629623D01*
X631174Y629672D01*
X631184Y629730D01*
X631203Y629809D01*
X631213Y629896D01*
X631272Y630091D01*
X631350Y630316D01*
X631457Y630540D01*
X631603Y630764D01*
X631681Y630862D01*
X631779Y630959D01*
X631788Y630969D01*
X631808Y630979D01*
X631837Y631008D01*
X631876Y631037D01*
X631935Y631067D01*
X632003Y631115D01*
X632081Y631155D01*
X632169Y631203D01*
X632266Y631242D01*
X632374Y631291D01*
X632500Y631330D01*
X632627Y631359D01*
X632920Y631418D01*
X633076Y631428D01*
X633242Y631437D01*
X633330D01*
X633398Y631428D01*
D02*
G37*
G36*
X630033Y372702D02*
Y372692D01*
Y372663D01*
Y372614D01*
Y372546D01*
X630023Y372458D01*
Y372370D01*
X630013Y372263D01*
X630004Y372146D01*
X629974Y371902D01*
X629935Y371648D01*
X629887Y371395D01*
X629809Y371170D01*
Y371161D01*
X629799Y371141D01*
X629789Y371112D01*
X629770Y371073D01*
X629711Y370975D01*
X629633Y370839D01*
X629526Y370692D01*
X629389Y370536D01*
X629213Y370390D01*
X629019Y370244D01*
X629009D01*
X628989Y370224D01*
X628960Y370215D01*
X628911Y370185D01*
X628862Y370166D01*
X628794Y370136D01*
X628706Y370098D01*
X628619Y370068D01*
X628521Y370039D01*
X628404Y370000D01*
X628287Y369971D01*
X628150Y369951D01*
X627858Y369912D01*
X627526Y369893D01*
X627438D01*
X627380Y369902D01*
X627302D01*
X627214Y369912D01*
X627117Y369922D01*
X627009Y369932D01*
X626775Y369971D01*
X626531Y370019D01*
X626278Y370098D01*
X626053Y370195D01*
X626044D01*
X626024Y370215D01*
X626005Y370224D01*
X625966Y370254D01*
X625858Y370322D01*
X625741Y370429D01*
X625605Y370556D01*
X625478Y370702D01*
X625351Y370888D01*
X625244Y371092D01*
Y371102D01*
X625234Y371122D01*
X625224Y371151D01*
X625205Y371200D01*
X625185Y371258D01*
X625166Y371336D01*
X625146Y371424D01*
X625127Y371522D01*
X625098Y371629D01*
X625078Y371746D01*
X625059Y371882D01*
X625039Y372019D01*
X625019Y372175D01*
X625010Y372341D01*
X625000Y372516D01*
Y372702D01*
Y376408D01*
X625849D01*
Y372702D01*
Y372692D01*
Y372663D01*
Y372624D01*
Y372565D01*
Y372497D01*
X625858Y372419D01*
X625868Y372234D01*
X625888Y372038D01*
X625907Y371834D01*
X625946Y371639D01*
X625966Y371551D01*
X625995Y371473D01*
X626005Y371453D01*
X626024Y371404D01*
X626063Y371336D01*
X626122Y371249D01*
X626190Y371151D01*
X626287Y371044D01*
X626395Y370946D01*
X626531Y370858D01*
X626551Y370849D01*
X626600Y370829D01*
X626678Y370790D01*
X626785Y370761D01*
X626922Y370722D01*
X627077Y370683D01*
X627253Y370663D01*
X627448Y370653D01*
X627536D01*
X627604Y370663D01*
X627682D01*
X627770Y370673D01*
X627965Y370702D01*
X628189Y370761D01*
X628404Y370829D01*
X628609Y370936D01*
X628706Y370995D01*
X628784Y371073D01*
Y371083D01*
X628804Y371092D01*
X628823Y371122D01*
X628843Y371161D01*
X628882Y371209D01*
X628911Y371268D01*
X628950Y371346D01*
X628989Y371434D01*
X629019Y371541D01*
X629058Y371658D01*
X629096Y371785D01*
X629126Y371941D01*
X629145Y372107D01*
X629165Y372282D01*
X629184Y372487D01*
Y372702D01*
Y376408D01*
X630033D01*
Y372702D01*
D02*
G37*
G36*
X635066Y375560D02*
X632510D01*
X632159Y373833D01*
X632169Y373843D01*
X632188Y373853D01*
X632218Y373872D01*
X632257Y373901D01*
X632315Y373931D01*
X632374Y373960D01*
X632530Y374038D01*
X632705Y374116D01*
X632910Y374174D01*
X633134Y374223D01*
X633369Y374243D01*
X633447D01*
X633505Y374233D01*
X633583Y374223D01*
X633661Y374214D01*
X633759Y374194D01*
X633856Y374174D01*
X634081Y374096D01*
X634198Y374058D01*
X634315Y373999D01*
X634441Y373931D01*
X634558Y373853D01*
X634676Y373765D01*
X634783Y373658D01*
X634793Y373648D01*
X634812Y373628D01*
X634841Y373599D01*
X634871Y373550D01*
X634919Y373492D01*
X634968Y373424D01*
X635017Y373345D01*
X635075Y373258D01*
X635134Y373150D01*
X635183Y373043D01*
X635232Y372916D01*
X635280Y372789D01*
X635309Y372643D01*
X635339Y372497D01*
X635358Y372331D01*
X635368Y372165D01*
Y372155D01*
Y372126D01*
Y372077D01*
X635358Y372019D01*
X635349Y371941D01*
X635339Y371853D01*
X635329Y371756D01*
X635309Y371648D01*
X635241Y371414D01*
X635154Y371170D01*
X635095Y371034D01*
X635027Y370907D01*
X634949Y370780D01*
X634861Y370663D01*
X634851Y370653D01*
X634832Y370634D01*
X634793Y370595D01*
X634744Y370546D01*
X634685Y370488D01*
X634607Y370419D01*
X634520Y370351D01*
X634412Y370283D01*
X634305Y370205D01*
X634178Y370136D01*
X634032Y370068D01*
X633885Y370010D01*
X633720Y369961D01*
X633554Y369922D01*
X633369Y369902D01*
X633173Y369893D01*
X633086D01*
X633027Y369902D01*
X632959Y369912D01*
X632871Y369922D01*
X632774Y369932D01*
X632666Y369951D01*
X632442Y370010D01*
X632208Y370098D01*
X632091Y370156D01*
X631974Y370224D01*
X631857Y370293D01*
X631749Y370380D01*
X631740Y370390D01*
X631730Y370400D01*
X631701Y370429D01*
X631662Y370468D01*
X631623Y370517D01*
X631574Y370575D01*
X631525Y370644D01*
X631467Y370722D01*
X631359Y370907D01*
X631252Y371131D01*
X631174Y371385D01*
X631145Y371531D01*
X631125Y371678D01*
X631954Y371736D01*
Y371726D01*
Y371707D01*
X631964Y371678D01*
X631974Y371639D01*
X632003Y371531D01*
X632042Y371395D01*
X632091Y371249D01*
X632169Y371102D01*
X632257Y370956D01*
X632374Y370829D01*
X632393Y370819D01*
X632432Y370780D01*
X632500Y370741D01*
X632598Y370683D01*
X632715Y370634D01*
X632852Y370585D01*
X633008Y370546D01*
X633173Y370536D01*
X633232D01*
X633271Y370546D01*
X633378Y370556D01*
X633515Y370585D01*
X633661Y370644D01*
X633827Y370712D01*
X633983Y370819D01*
X634061Y370878D01*
X634139Y370956D01*
Y370966D01*
X634159Y370975D01*
X634198Y371034D01*
X634266Y371131D01*
X634334Y371258D01*
X634403Y371424D01*
X634471Y371619D01*
X634510Y371843D01*
X634529Y372097D01*
Y372107D01*
Y372126D01*
Y372165D01*
X634520Y372204D01*
Y372263D01*
X634510Y372331D01*
X634481Y372487D01*
X634441Y372653D01*
X634373Y372828D01*
X634276Y373004D01*
X634149Y373160D01*
X634129Y373180D01*
X634081Y373219D01*
X634003Y373287D01*
X633885Y373355D01*
X633749Y373424D01*
X633573Y373492D01*
X633378Y373531D01*
X633164Y373550D01*
X633096D01*
X633027Y373541D01*
X632930Y373531D01*
X632822Y373502D01*
X632705Y373472D01*
X632588Y373424D01*
X632471Y373365D01*
X632462Y373355D01*
X632422Y373336D01*
X632364Y373297D01*
X632296Y373248D01*
X632227Y373180D01*
X632149Y373102D01*
X632071Y373014D01*
X632003Y372916D01*
X631262Y373024D01*
X631886Y376311D01*
X635066D01*
Y375560D01*
D02*
G37*
%LPC*%
G36*
X798063Y705784D02*
X797975D01*
X797907Y705774D01*
X797829Y705764D01*
X797731Y705745D01*
X797624Y705725D01*
X797516Y705706D01*
X797263Y705628D01*
X797136Y705569D01*
X797000Y705511D01*
X796873Y705433D01*
X796736Y705345D01*
X796609Y705247D01*
X796492Y705130D01*
X796482Y705121D01*
X796463Y705101D01*
X796434Y705062D01*
X796395Y705013D01*
X796346Y704945D01*
X796297Y704857D01*
X796239Y704760D01*
X796190Y704652D01*
X796131Y704516D01*
X796073Y704379D01*
X796024Y704214D01*
X795975Y704048D01*
X795936Y703853D01*
X795907Y703648D01*
X795888Y703433D01*
X795878Y703199D01*
Y703189D01*
Y703141D01*
Y703082D01*
X795888Y702994D01*
X795897Y702887D01*
X795907Y702770D01*
X795927Y702634D01*
X795956Y702487D01*
X796024Y702175D01*
X796083Y702019D01*
X796141Y701863D01*
X796209Y701697D01*
X796288Y701551D01*
X796385Y701404D01*
X796492Y701278D01*
X796502Y701268D01*
X796522Y701248D01*
X796551Y701219D01*
X796600Y701170D01*
X796668Y701122D01*
X796736Y701073D01*
X796824Y701005D01*
X796921Y700946D01*
X797029Y700888D01*
X797146Y700829D01*
X797273Y700770D01*
X797419Y700722D01*
X797565Y700673D01*
X797721Y700644D01*
X797887Y700624D01*
X798063Y700614D01*
X798141D01*
X798228Y700624D01*
X798336Y700634D01*
X798463Y700654D01*
X798609Y700683D01*
X798765Y700722D01*
X798911Y700780D01*
X798892Y700790D01*
X798843Y700819D01*
X798765Y700868D01*
X798658Y700927D01*
X798540Y700985D01*
X798394Y701044D01*
X798248Y701102D01*
X798082Y701151D01*
X798287Y701765D01*
X798297D01*
X798316Y701756D01*
X798355Y701746D01*
X798414Y701726D01*
X798472Y701707D01*
X798540Y701678D01*
X798716Y701609D01*
X798901Y701522D01*
X799106Y701424D01*
X799301Y701297D01*
X799487Y701151D01*
X799496Y701161D01*
X799516Y701180D01*
X799555Y701219D01*
X799604Y701278D01*
X799662Y701356D01*
X799721Y701443D01*
X799789Y701541D01*
X799867Y701668D01*
X799935Y701795D01*
X800004Y701951D01*
X800062Y702116D01*
X800121Y702302D01*
X800169Y702507D01*
X800208Y702721D01*
X800228Y702955D01*
X800238Y703199D01*
Y703209D01*
Y703238D01*
Y703277D01*
Y703326D01*
X800228Y703394D01*
Y703472D01*
X800208Y703658D01*
X800169Y703872D01*
X800130Y704097D01*
X800062Y704331D01*
X799974Y704555D01*
Y704565D01*
X799965Y704584D01*
X799945Y704613D01*
X799926Y704652D01*
X799867Y704760D01*
X799779Y704887D01*
X799672Y705033D01*
X799535Y705189D01*
X799379Y705335D01*
X799204Y705462D01*
X799194D01*
X799184Y705472D01*
X799155Y705491D01*
X799116Y705511D01*
X799009Y705559D01*
X798872Y705628D01*
X798706Y705686D01*
X798511Y705735D01*
X798297Y705774D01*
X798063Y705784D01*
D02*
G37*
G36*
Y620784D02*
X797975D01*
X797907Y620774D01*
X797829Y620764D01*
X797731Y620745D01*
X797624Y620725D01*
X797516Y620706D01*
X797263Y620628D01*
X797136Y620569D01*
X797000Y620511D01*
X796873Y620433D01*
X796736Y620345D01*
X796609Y620247D01*
X796492Y620130D01*
X796482Y620121D01*
X796463Y620101D01*
X796434Y620062D01*
X796395Y620013D01*
X796346Y619945D01*
X796297Y619857D01*
X796239Y619760D01*
X796190Y619652D01*
X796131Y619516D01*
X796073Y619379D01*
X796024Y619213D01*
X795975Y619048D01*
X795936Y618853D01*
X795907Y618648D01*
X795888Y618433D01*
X795878Y618199D01*
Y618189D01*
Y618141D01*
Y618082D01*
X795888Y617994D01*
X795897Y617887D01*
X795907Y617770D01*
X795927Y617634D01*
X795956Y617487D01*
X796024Y617175D01*
X796083Y617019D01*
X796141Y616863D01*
X796209Y616697D01*
X796288Y616551D01*
X796385Y616404D01*
X796492Y616278D01*
X796502Y616268D01*
X796522Y616248D01*
X796551Y616219D01*
X796600Y616170D01*
X796668Y616122D01*
X796736Y616073D01*
X796824Y616005D01*
X796921Y615946D01*
X797029Y615888D01*
X797146Y615829D01*
X797273Y615770D01*
X797419Y615722D01*
X797565Y615673D01*
X797721Y615644D01*
X797887Y615624D01*
X798063Y615615D01*
X798141D01*
X798228Y615624D01*
X798336Y615634D01*
X798463Y615653D01*
X798609Y615683D01*
X798765Y615722D01*
X798911Y615780D01*
X798892Y615790D01*
X798843Y615819D01*
X798765Y615868D01*
X798658Y615927D01*
X798540Y615985D01*
X798394Y616044D01*
X798248Y616102D01*
X798082Y616151D01*
X798287Y616765D01*
X798297D01*
X798316Y616756D01*
X798355Y616746D01*
X798414Y616726D01*
X798472Y616707D01*
X798540Y616678D01*
X798716Y616609D01*
X798901Y616522D01*
X799106Y616424D01*
X799301Y616297D01*
X799487Y616151D01*
X799496Y616161D01*
X799516Y616180D01*
X799555Y616219D01*
X799604Y616278D01*
X799662Y616356D01*
X799721Y616443D01*
X799789Y616541D01*
X799867Y616668D01*
X799935Y616795D01*
X800004Y616951D01*
X800062Y617117D01*
X800121Y617302D01*
X800169Y617507D01*
X800208Y617721D01*
X800228Y617955D01*
X800238Y618199D01*
Y618209D01*
Y618238D01*
Y618277D01*
Y618326D01*
X800228Y618394D01*
Y618472D01*
X800208Y618658D01*
X800169Y618872D01*
X800130Y619096D01*
X800062Y619331D01*
X799974Y619555D01*
Y619565D01*
X799965Y619584D01*
X799945Y619613D01*
X799926Y619652D01*
X799867Y619760D01*
X799779Y619887D01*
X799672Y620033D01*
X799535Y620189D01*
X799379Y620335D01*
X799204Y620462D01*
X799194D01*
X799184Y620472D01*
X799155Y620491D01*
X799116Y620511D01*
X799009Y620560D01*
X798872Y620628D01*
X798706Y620686D01*
X798511Y620735D01*
X798297Y620774D01*
X798063Y620784D01*
D02*
G37*
G36*
X804461Y455121D02*
X802452Y452253D01*
X804461D01*
Y455121D01*
D02*
G37*
G36*
X798063Y455784D02*
X797975D01*
X797907Y455774D01*
X797829Y455764D01*
X797731Y455745D01*
X797624Y455725D01*
X797516Y455706D01*
X797263Y455628D01*
X797136Y455569D01*
X797000Y455511D01*
X796873Y455433D01*
X796736Y455345D01*
X796609Y455247D01*
X796492Y455130D01*
X796482Y455121D01*
X796463Y455101D01*
X796434Y455062D01*
X796395Y455013D01*
X796346Y454945D01*
X796297Y454857D01*
X796239Y454760D01*
X796190Y454652D01*
X796131Y454516D01*
X796073Y454379D01*
X796024Y454213D01*
X795975Y454048D01*
X795936Y453853D01*
X795907Y453648D01*
X795888Y453433D01*
X795878Y453199D01*
Y453189D01*
Y453141D01*
Y453082D01*
X795888Y452994D01*
X795897Y452887D01*
X795907Y452770D01*
X795927Y452634D01*
X795956Y452487D01*
X796024Y452175D01*
X796083Y452019D01*
X796141Y451863D01*
X796209Y451697D01*
X796288Y451551D01*
X796385Y451404D01*
X796492Y451278D01*
X796502Y451268D01*
X796522Y451248D01*
X796551Y451219D01*
X796600Y451170D01*
X796668Y451122D01*
X796736Y451073D01*
X796824Y451005D01*
X796921Y450946D01*
X797029Y450888D01*
X797146Y450829D01*
X797273Y450770D01*
X797419Y450722D01*
X797565Y450673D01*
X797721Y450644D01*
X797887Y450624D01*
X798063Y450615D01*
X798141D01*
X798228Y450624D01*
X798336Y450634D01*
X798463Y450653D01*
X798609Y450683D01*
X798765Y450722D01*
X798911Y450780D01*
X798892Y450790D01*
X798843Y450819D01*
X798765Y450868D01*
X798658Y450927D01*
X798540Y450985D01*
X798394Y451044D01*
X798248Y451102D01*
X798082Y451151D01*
X798287Y451765D01*
X798297D01*
X798316Y451756D01*
X798355Y451746D01*
X798414Y451726D01*
X798472Y451707D01*
X798540Y451678D01*
X798716Y451609D01*
X798901Y451522D01*
X799106Y451424D01*
X799301Y451297D01*
X799487Y451151D01*
X799496Y451161D01*
X799516Y451180D01*
X799555Y451219D01*
X799604Y451278D01*
X799662Y451356D01*
X799721Y451443D01*
X799789Y451541D01*
X799867Y451668D01*
X799935Y451795D01*
X800004Y451951D01*
X800062Y452117D01*
X800121Y452302D01*
X800169Y452507D01*
X800208Y452721D01*
X800228Y452955D01*
X800238Y453199D01*
Y453209D01*
Y453238D01*
Y453277D01*
Y453326D01*
X800228Y453394D01*
Y453472D01*
X800208Y453658D01*
X800169Y453872D01*
X800130Y454096D01*
X800062Y454331D01*
X799974Y454555D01*
Y454565D01*
X799965Y454584D01*
X799945Y454613D01*
X799926Y454652D01*
X799867Y454760D01*
X799779Y454887D01*
X799672Y455033D01*
X799535Y455189D01*
X799379Y455335D01*
X799204Y455462D01*
X799194D01*
X799184Y455472D01*
X799155Y455491D01*
X799116Y455511D01*
X799009Y455560D01*
X798872Y455628D01*
X798706Y455686D01*
X798511Y455735D01*
X798297Y455774D01*
X798063Y455784D01*
D02*
G37*
G36*
X793063Y370784D02*
X792975D01*
X792907Y370774D01*
X792829Y370764D01*
X792731Y370745D01*
X792624Y370725D01*
X792516Y370706D01*
X792263Y370628D01*
X792136Y370569D01*
X792000Y370511D01*
X791873Y370433D01*
X791736Y370345D01*
X791609Y370247D01*
X791492Y370130D01*
X791482Y370121D01*
X791463Y370101D01*
X791434Y370062D01*
X791395Y370013D01*
X791346Y369945D01*
X791297Y369857D01*
X791239Y369760D01*
X791190Y369652D01*
X791131Y369516D01*
X791073Y369379D01*
X791024Y369214D01*
X790975Y369048D01*
X790936Y368853D01*
X790907Y368648D01*
X790888Y368433D01*
X790878Y368199D01*
Y368189D01*
Y368141D01*
Y368082D01*
X790888Y367994D01*
X790897Y367887D01*
X790907Y367770D01*
X790927Y367634D01*
X790956Y367487D01*
X791024Y367175D01*
X791083Y367019D01*
X791141Y366863D01*
X791209Y366697D01*
X791288Y366551D01*
X791385Y366404D01*
X791492Y366278D01*
X791502Y366268D01*
X791522Y366249D01*
X791551Y366219D01*
X791600Y366170D01*
X791668Y366122D01*
X791736Y366073D01*
X791824Y366005D01*
X791921Y365946D01*
X792029Y365888D01*
X792146Y365829D01*
X792273Y365770D01*
X792419Y365722D01*
X792565Y365673D01*
X792721Y365644D01*
X792887Y365624D01*
X793063Y365615D01*
X793141D01*
X793228Y365624D01*
X793336Y365634D01*
X793463Y365653D01*
X793609Y365683D01*
X793765Y365722D01*
X793911Y365780D01*
X793892Y365790D01*
X793843Y365819D01*
X793765Y365868D01*
X793658Y365927D01*
X793541Y365985D01*
X793394Y366044D01*
X793248Y366102D01*
X793082Y366151D01*
X793287Y366765D01*
X793297D01*
X793316Y366756D01*
X793355Y366746D01*
X793414Y366726D01*
X793472Y366707D01*
X793541Y366678D01*
X793716Y366609D01*
X793901Y366522D01*
X794106Y366424D01*
X794301Y366297D01*
X794487Y366151D01*
X794496Y366161D01*
X794516Y366180D01*
X794555Y366219D01*
X794604Y366278D01*
X794662Y366356D01*
X794721Y366443D01*
X794789Y366541D01*
X794867Y366668D01*
X794935Y366795D01*
X795004Y366951D01*
X795062Y367117D01*
X795121Y367302D01*
X795169Y367507D01*
X795208Y367721D01*
X795228Y367955D01*
X795238Y368199D01*
Y368209D01*
Y368238D01*
Y368277D01*
Y368326D01*
X795228Y368394D01*
Y368472D01*
X795208Y368658D01*
X795169Y368872D01*
X795130Y369096D01*
X795062Y369331D01*
X794974Y369555D01*
Y369565D01*
X794965Y369584D01*
X794945Y369613D01*
X794926Y369652D01*
X794867Y369760D01*
X794779Y369887D01*
X794672Y370033D01*
X794535Y370189D01*
X794379Y370335D01*
X794204Y370462D01*
X794194D01*
X794184Y370472D01*
X794155Y370491D01*
X794116Y370511D01*
X794009Y370560D01*
X793872Y370628D01*
X793706Y370686D01*
X793511Y370735D01*
X793297Y370774D01*
X793063Y370784D01*
D02*
G37*
G36*
X1228584Y747137D02*
X1226031D01*
Y743493D01*
X1228584Y747137D01*
D02*
G37*
G36*
X836576Y746356D02*
X836514D01*
X836464Y746343D01*
X836340Y746331D01*
X836179Y746294D01*
X836006Y746232D01*
X835807Y746158D01*
X835622Y746034D01*
X835448Y745872D01*
X835423Y745848D01*
X835374Y745786D01*
X835299Y745674D01*
X835212Y745525D01*
X835138Y745327D01*
X835064Y745104D01*
X835014Y744831D01*
X834989Y744534D01*
Y744521D01*
Y744497D01*
Y744447D01*
X835002Y744385D01*
Y744311D01*
X835014Y744236D01*
X835051Y744038D01*
X835101Y743815D01*
X835188Y743592D01*
X835299Y743369D01*
X835448Y743158D01*
X835473Y743133D01*
X835535Y743083D01*
X835622Y742997D01*
X835758Y742898D01*
X835919Y742811D01*
X836105Y742724D01*
X836316Y742674D01*
X836551Y742650D01*
X836613D01*
X836663Y742662D01*
X836787Y742674D01*
X836948Y742712D01*
X837134Y742786D01*
X837320Y742885D01*
X837518Y743009D01*
X837617Y743096D01*
X837716Y743195D01*
X837741Y743220D01*
X837791Y743294D01*
X837865Y743418D01*
X837952Y743579D01*
X838051Y743778D01*
X838125Y744025D01*
X838175Y744298D01*
X838200Y744608D01*
Y744621D01*
Y744645D01*
Y744682D01*
X838187Y744732D01*
X838175Y744881D01*
X838138Y745054D01*
X838088Y745265D01*
X838001Y745476D01*
X837890Y745674D01*
X837741Y745872D01*
X837716Y745897D01*
X837654Y745947D01*
X837555Y746021D01*
X837419Y746108D01*
X837245Y746207D01*
X837047Y746282D01*
X836824Y746331D01*
X836576Y746356D01*
D02*
G37*
G36*
X795657Y509151D02*
X793365D01*
Y507425D01*
X793375Y507366D01*
Y507298D01*
X793384Y507230D01*
X793404Y507054D01*
X793443Y506859D01*
X793492Y506664D01*
X793570Y506489D01*
X793619Y506411D01*
X793667Y506342D01*
X793677Y506323D01*
X793726Y506284D01*
X793794Y506235D01*
X793892Y506167D01*
X794009Y506099D01*
X794155Y506050D01*
X794331Y506011D01*
X794526Y505991D01*
X794545D01*
X794594D01*
X794672Y506001D01*
X794770Y506021D01*
X794877Y506040D01*
X794994Y506079D01*
X795111Y506128D01*
X795218Y506196D01*
X795228Y506206D01*
X795267Y506235D01*
X795316Y506274D01*
X795374Y506342D01*
X795433Y506420D01*
X795501Y506508D01*
X795550Y506615D01*
X795599Y506732D01*
Y506742D01*
X795608Y506772D01*
X795618Y506830D01*
X795628Y506908D01*
X795638Y507015D01*
X795647Y507152D01*
X795657Y507327D01*
Y509151D01*
D02*
G37*
%LPD*%
D10*
X1450000Y190000D02*
G03*
X1450000Y190000I-90000J0D01*
G01*
X1830000Y190000D02*
G03*
X1830000Y190000I-90000J0D01*
G01*
X1640000D02*
G03*
X1640000Y190000I-90000J0D01*
G01*
X1260000Y190000D02*
G03*
X1260000Y190000I-90000J0D01*
G01*
X1070000Y190000D02*
G03*
X1070000Y190000I-90000J0D01*
G01*
X1285000Y240000D02*
X1435000D01*
X1310000Y265000D02*
X1410000D01*
X1665000Y240000D02*
X1815000D01*
X1690000Y265000D02*
X1790000D01*
X1475000Y240000D02*
X1625000D01*
X1500000Y265000D02*
X1600000D01*
X1095000Y240000D02*
X1245000D01*
X1120000Y265000D02*
X1220000D01*
X905000Y240000D02*
X1055000D01*
X930000Y265000D02*
X1030000D01*
X1170288Y114076D02*
Y135500D01*
X1181000Y124788D02*
X1159576D01*
X1360288Y114076D02*
Y135500D01*
X1371000Y124788D02*
X1349576D01*
X1550288Y114076D02*
Y135500D01*
X1561000Y124788D02*
X1539576D01*
X1740288Y114076D02*
Y135500D01*
X1751000Y124788D02*
X1729576D01*
X980288Y114076D02*
Y135500D01*
X991000Y124788D02*
X969576D01*
D11*
X824740Y864590D02*
G03*
X824740Y864590I-1000J0D01*
G01*
X782525Y604000D02*
G03*
X782525Y604000I-1000J0D01*
G01*
Y689000D02*
G03*
X782525Y689000I-1000J0D01*
G01*
Y354000D02*
G03*
X782525Y354000I-1000J0D01*
G01*
Y439000D02*
G03*
X782525Y439000I-1000J0D01*
G01*
X891000Y746000D02*
G03*
X891000Y746000I-1000J0D01*
G01*
X1656000Y746000D02*
G03*
X1656000Y746000I-1000J0D01*
G01*
X1281000Y746000D02*
G03*
X1281000Y746000I-1000J0D01*
G01*
X1140350Y858175D02*
G03*
X1140350Y851825I0J-3175D01*
G01*
X572850Y505560D02*
G03*
X572850Y499210I0J-3175D01*
G01*
X626825Y426100D02*
G03*
X633175Y426100I3175J0D01*
G01*
X626825Y676100D02*
G03*
X633175Y676100I3175J0D01*
G01*
X1987000Y698000D02*
X1993000D01*
X1987000Y682000D02*
X1993000D01*
X1987000D02*
Y698000D01*
X1988900Y682000D02*
Y698000D01*
X1263000Y862000D02*
Y868000D01*
X1277000Y862000D02*
Y868000D01*
Y842000D02*
Y848000D01*
X1263000Y842000D02*
Y848000D01*
X921000Y888500D02*
X959000D01*
X921000Y821500D02*
X959000D01*
X921000D02*
Y888500D01*
X959000Y821500D02*
Y888500D01*
X1765000Y730000D02*
Y810000D01*
Y920000D01*
X2095000D01*
Y800000D02*
Y920000D01*
Y730000D02*
Y800000D01*
X1765000Y730000D02*
X2095000D01*
X1698000Y919000D02*
X1713000D01*
X1698000Y891000D02*
X1713000D01*
X2005000Y355000D02*
X2095000D01*
X1875000D02*
X2075000D01*
X1875000D02*
Y615000D01*
X2045000D01*
X2095000D01*
Y355000D02*
Y615000D01*
X1987000Y673000D02*
X1993000D01*
X1987000Y657000D02*
X1993000D01*
X1987000D02*
Y673000D01*
X1988900Y657000D02*
Y673000D01*
X1987000Y648000D02*
X1993000D01*
X1987000Y632000D02*
X1993000D01*
X1987000D02*
Y648000D01*
X1988900Y632000D02*
Y648000D01*
X2022000Y323000D02*
X2028000D01*
X2022000Y307000D02*
X2028000D01*
X2022000D02*
Y323000D01*
X2023900Y307000D02*
Y323000D01*
X1942000D02*
X1948000D01*
X1942000Y307000D02*
X1948000D01*
X1942000D02*
Y323000D01*
X1943900Y307000D02*
Y323000D01*
X2022000Y298000D02*
X2028000D01*
X2022000Y282000D02*
X2028000D01*
X2022000D02*
Y298000D01*
X2023900Y282000D02*
Y298000D01*
X1942000D02*
X1948000D01*
X1942000Y282000D02*
X1948000D01*
X1942000D02*
Y298000D01*
X1943900Y282000D02*
Y298000D01*
X1942000Y273000D02*
X1948000D01*
X1942000Y257000D02*
X1948000D01*
X1942000D02*
Y273000D01*
X1943900Y257000D02*
Y273000D01*
X2022000D02*
X2028000D01*
X2022000Y257000D02*
X2028000D01*
X2022000D02*
Y273000D01*
X2023900Y257000D02*
Y273000D01*
X688000Y506000D02*
Y512000D01*
X702000Y506000D02*
Y512000D01*
Y492000D02*
Y498000D01*
X688000Y492000D02*
Y498000D01*
X583500Y773500D02*
Y778500D01*
Y856500D02*
Y861500D01*
X588500D01*
X666500D02*
X671500D01*
Y773500D02*
Y778500D01*
Y856500D02*
Y861500D01*
X583500Y773500D02*
X588500D01*
X666500D02*
X671500D01*
X1140350Y858175D02*
Y866150D01*
Y843850D02*
Y851825D01*
X1089550Y843850D02*
X1140350D01*
X1089550D02*
Y866150D01*
X1140350D01*
X572850Y505560D02*
Y513535D01*
Y491235D02*
Y499210D01*
X522050Y491235D02*
X572850D01*
X522050D02*
Y513535D01*
X572850D01*
X512500Y779000D02*
X517500D01*
X512500D02*
X515000Y781000D01*
X517500Y779000D01*
X1282000Y852000D02*
Y858000D01*
X1298000Y852000D02*
Y858000D01*
X1282000Y852000D02*
X1298000D01*
X1282000Y853900D02*
X1298000D01*
X712000Y502000D02*
Y508000D01*
X728000Y502000D02*
Y508000D01*
X712000Y502000D02*
X728000D01*
X712000Y503900D02*
X728000D01*
X757000Y422000D02*
Y428000D01*
X743000Y422000D02*
Y428000D01*
X757000Y587000D02*
Y593000D01*
X743000Y587000D02*
Y593000D01*
X757000Y672000D02*
Y678000D01*
X743000Y672000D02*
Y678000D01*
X757000Y337000D02*
Y343000D01*
X743000Y337000D02*
Y343000D01*
X1003000Y852000D02*
Y858000D01*
X987000Y852000D02*
Y858000D01*
X1003000D01*
X987000Y856100D02*
X1003000D01*
X676275Y464250D02*
X691275D01*
X676275Y436250D02*
X691275D01*
X678000Y719000D02*
X693000D01*
X678000Y691000D02*
X693000D01*
X578500Y324250D02*
X681500D01*
X633175Y426100D02*
X681500D01*
X578500D02*
X626825D01*
X578500Y574250D02*
X681500D01*
X633175Y676100D02*
X681500D01*
X578500D02*
X626825D01*
D12*
X1299250Y871000D02*
G03*
X1299250Y871000I-1250J0D01*
G01*
X733250Y521000D02*
G03*
X733250Y521000I-1250J0D01*
G01*
X971750Y822000D02*
G03*
X971750Y822000I-1250J0D01*
G01*
X572750Y862000D02*
G03*
X572750Y862000I-1250J0D01*
G01*
X1145150Y883750D02*
G03*
X1145150Y883750I-1250J0D01*
G01*
X577650Y531135D02*
G03*
X577650Y531135I-1250J0D01*
G01*
X844250Y871000D02*
G03*
X844250Y871000I-1250J0D01*
G01*
X579750Y430750D02*
G03*
X579750Y430750I-1250J0D01*
G01*
Y680750D02*
G03*
X579750Y680750I-1250J0D01*
G01*
D13*
X570549Y528400D02*
G03*
X570549Y528400I-1039J0D01*
G01*
X1145549Y881400D02*
G03*
X1145549Y881400I-1039J0D01*
G01*
X594300Y468350D02*
X665700D01*
Y535650D01*
X594300Y468350D02*
Y535650D01*
X665700D01*
X1169300Y821350D02*
X1240700D01*
Y888650D01*
X1169300Y821350D02*
Y888650D01*
X1240700D01*
D14*
X484795Y75000D02*
X485142Y930000D01*
X2134749Y930000D01*
X2135095Y75000D01*
X484795Y75000D02*
X2135095Y75000D01*
D15*
X892440Y316410D02*
X1217560D01*
X892440D02*
Y481510D01*
X1217560D01*
Y316410D02*
Y481510D01*
X892440Y686510D02*
X1217560D01*
Y521410D02*
Y686510D01*
X892440Y521410D02*
X1217560D01*
X892440D02*
Y686510D01*
X1667450Y327440D02*
Y652560D01*
X1832550D01*
Y327440D02*
Y652560D01*
X1667450Y327440D02*
X1832550D01*
X789525Y559250D02*
X848525D01*
X789525Y610750D02*
X848525D01*
X789525Y644250D02*
X848525D01*
X789525Y695750D02*
X848525D01*
X789525Y309250D02*
X848525D01*
X789525Y360750D02*
X848525D01*
X789525Y394250D02*
X848525D01*
X789525Y445750D02*
X848525D01*
X556510Y842220D02*
Y856220D01*
X857500Y735750D02*
Y794250D01*
X782500D02*
X857500D01*
X782500Y735750D02*
Y794250D01*
Y735750D02*
X857500D01*
X1622500Y735750D02*
Y794250D01*
X1547500D02*
X1622500D01*
X1547500Y735750D02*
Y794250D01*
Y735750D02*
X1622500D01*
X1247500Y735750D02*
Y794250D01*
X1172500D02*
X1247500D01*
X1172500Y735750D02*
Y794250D01*
Y735750D02*
X1247500D01*
D16*
X1070000Y152618D02*
X1080157D01*
X1260000D02*
X1270157D01*
X1265078Y157696D02*
Y147539D01*
X1640000Y152618D02*
X1650157D01*
X1450000D02*
X1460157D01*
X1455078Y157696D02*
Y147539D01*
X1975157Y152696D02*
X1972617Y155235D01*
X1967539D01*
X1965000Y152696D01*
Y142539D01*
X1967539Y140000D01*
X1972617D01*
X1975157Y142539D01*
Y147618D01*
X1970078D01*
X1980235Y140000D02*
Y155235D01*
X1990392Y140000D01*
Y155235D01*
X1995470D02*
Y140000D01*
X2003088D01*
X2005627Y142539D01*
Y152696D01*
X2003088Y155235D01*
X1995470D01*
X2045000D02*
Y140000D01*
X2055157D01*
X2060235Y155235D02*
X2065313D01*
X2062774D01*
Y140000D01*
X2060235D01*
X2065313D01*
X2072931Y155235D02*
Y145078D01*
X2078009Y140000D01*
X2083088Y145078D01*
Y155235D01*
X2098323D02*
X2088166D01*
Y140000D01*
X2098323D01*
X2088166Y147618D02*
X2093244D01*
X1880000Y140000D02*
Y155235D01*
X1890157Y140000D01*
Y155235D01*
X1905392D02*
X1895235D01*
Y140000D01*
X1905392D01*
X1895235Y147618D02*
X1900313D01*
X1910470Y155235D02*
Y142539D01*
X1913009Y140000D01*
X1918088D01*
X1920627Y142539D01*
Y155235D01*
M02*
