G04*
G04 #@! TF.GenerationSoftware,Altium Limited,Altium Designer,18.1.7 (191)*
G04*
G04 Layer_Physical_Order=2*
G04 Layer_Color=36540*
%FSLAX44Y44*%
%MOMM*%
G71*
G01*
G75*
%ADD117C,0.5080*%
G36*
X1115000Y195000D02*
D01*
D02*
G37*
G36*
X825000Y920000D02*
Y913609D01*
X823619Y913335D01*
X823141Y913016D01*
X821990Y912666D01*
X819981Y912267D01*
X818382Y912200D01*
X817911Y912200D01*
X801300D01*
Y893200D01*
X819826D01*
X820894Y892144D01*
X821632Y891212D01*
X821391Y890000D01*
X821523Y889333D01*
X821548Y888683D01*
X820894Y887856D01*
X819873Y886846D01*
X819363Y886800D01*
X817992Y886800D01*
X801300D01*
Y867800D01*
X820300D01*
Y884459D01*
X820300Y885585D01*
X820402Y885969D01*
X822681Y887165D01*
X823088Y887020D01*
X823339Y886852D01*
X823619Y886665D01*
X825000Y886391D01*
Y843461D01*
X823008Y842722D01*
X822460Y842614D01*
X821381Y843335D01*
X820000Y843609D01*
X818609Y845000D01*
X818335Y846381D01*
X817552Y847552D01*
X816381Y848335D01*
X815000Y848609D01*
X813619Y848335D01*
X812448Y847552D01*
X811665Y846381D01*
X811391Y845000D01*
X811665Y843619D01*
X812448Y842448D01*
X813619Y841665D01*
X815000Y841391D01*
X816391Y840000D01*
X816665Y838619D01*
X817448Y837448D01*
X818619Y836665D01*
X820000Y836391D01*
X821381Y836665D01*
X822460Y837386D01*
X823008Y837278D01*
X825000Y836539D01*
Y823461D01*
X823008Y822722D01*
X822460Y822614D01*
X821381Y823335D01*
X820000Y823609D01*
X818609Y825000D01*
X818335Y826381D01*
X817552Y827552D01*
X816381Y828335D01*
X815000Y828609D01*
X813619Y828335D01*
X812448Y827552D01*
X811665Y826381D01*
X811391Y825000D01*
X811665Y823619D01*
X812448Y822448D01*
X813619Y821665D01*
X815000Y821391D01*
X816391Y820000D01*
X816665Y818619D01*
X817448Y817448D01*
X818619Y816665D01*
X820000Y816391D01*
X821381Y816665D01*
X822460Y817386D01*
X823008Y817279D01*
X825000Y816539D01*
Y755000D01*
X723461Y755000D01*
X722721Y756992D01*
X722614Y757540D01*
X723335Y758619D01*
X723609Y760000D01*
X723335Y761381D01*
X722552Y762552D01*
X721381Y763335D01*
X720000Y763609D01*
X718619Y763335D01*
X717448Y762552D01*
X716665Y761381D01*
X716391Y760000D01*
X716665Y758619D01*
X717386Y757540D01*
X717279Y756992D01*
X716539Y755000D01*
X686149D01*
X683609Y755000D01*
X683335Y756381D01*
X682552Y757552D01*
X681381Y758335D01*
X680000Y758609D01*
X678609Y760000D01*
X678335Y761381D01*
X677552Y762552D01*
X676381Y763335D01*
X675000Y763609D01*
X673619Y763335D01*
X672448Y762552D01*
X671665Y761381D01*
X671391Y760000D01*
X671665Y758619D01*
X672386Y757540D01*
X672279Y756992D01*
X671539Y755000D01*
X610000Y755000D01*
X610000Y300000D01*
X500000Y300000D01*
Y796540D01*
X501992Y797279D01*
X502540Y797386D01*
X503619Y796665D01*
X505000Y796391D01*
X506381Y796665D01*
X507552Y797448D01*
X508335Y798619D01*
X508609Y800000D01*
X508335Y801381D01*
X507552Y802552D01*
X506381Y803335D01*
X505000Y803609D01*
X503619Y803335D01*
X502540Y802614D01*
X501992Y802721D01*
X500000Y803460D01*
Y920000D01*
X825000Y920000D01*
D02*
G37*
%LPC*%
G36*
X794900Y912200D02*
X775900D01*
Y893200D01*
X794900D01*
Y912200D01*
D02*
G37*
G36*
X769500D02*
X750500D01*
Y893200D01*
X769500D01*
Y912200D01*
D02*
G37*
G36*
X744100D02*
X725100D01*
Y893200D01*
X744100D01*
Y912200D01*
D02*
G37*
G36*
X718700D02*
X699700D01*
Y893200D01*
X718700D01*
Y912200D01*
D02*
G37*
G36*
X610000Y893609D02*
X608619Y893335D01*
X607448Y892552D01*
X606665Y891381D01*
X606391Y890000D01*
X606665Y888619D01*
X607448Y887448D01*
X608619Y886665D01*
X610000Y886391D01*
X611381Y886665D01*
X612552Y887448D01*
X613335Y888619D01*
X613609Y890000D01*
X613335Y891381D01*
X612552Y892552D01*
X611381Y893335D01*
X610000Y893609D01*
D02*
G37*
G36*
X550000D02*
X548619Y893335D01*
X547448Y892552D01*
X546665Y891381D01*
X546391Y890000D01*
X546665Y888619D01*
X547448Y887448D01*
X548619Y886665D01*
X550000Y886391D01*
X551381Y886665D01*
X552552Y887448D01*
X553335Y888619D01*
X553609Y890000D01*
X553335Y891381D01*
X552552Y892552D01*
X551381Y893335D01*
X550000Y893609D01*
D02*
G37*
G36*
X575000Y878609D02*
X573619Y878335D01*
X572448Y877552D01*
X571665Y876381D01*
X571391Y875000D01*
X571665Y873619D01*
X572448Y872448D01*
X573619Y871665D01*
X575000Y871391D01*
X576381Y871665D01*
X577552Y872448D01*
X578335Y873619D01*
X578609Y875000D01*
X578335Y876381D01*
X577552Y877552D01*
X576381Y878335D01*
X575000Y878609D01*
D02*
G37*
G36*
X794900Y886800D02*
X775900D01*
Y867800D01*
X794900D01*
Y886800D01*
D02*
G37*
G36*
X769500D02*
X750500D01*
Y867800D01*
X769500D01*
Y886800D01*
D02*
G37*
G36*
X744100D02*
X725100D01*
Y867800D01*
X744100D01*
Y886800D01*
D02*
G37*
G36*
X718700D02*
X699700D01*
Y867800D01*
X718700D01*
Y886800D01*
D02*
G37*
G36*
X657500Y856109D02*
X656119Y855835D01*
X654948Y855052D01*
X654165Y853881D01*
X653891Y852500D01*
X654165Y851119D01*
X654948Y849948D01*
X656119Y849165D01*
X657500Y848891D01*
X658881Y849165D01*
X660052Y849948D01*
X660835Y851119D01*
X661109Y852500D01*
X660835Y853881D01*
X660052Y855052D01*
X658881Y855835D01*
X657500Y856109D01*
D02*
G37*
G36*
X700000Y843609D02*
X698619Y843335D01*
X697448Y842552D01*
X696665Y841381D01*
X696391Y840000D01*
X696665Y838619D01*
X697448Y837448D01*
X698619Y836665D01*
X700000Y836391D01*
X701381Y836665D01*
X702552Y837448D01*
X703335Y838619D01*
X703609Y840000D01*
X703335Y841381D01*
X702552Y842552D01*
X701381Y843335D01*
X700000Y843609D01*
D02*
G37*
G36*
X595000D02*
X593619Y843335D01*
X592448Y842552D01*
X591665Y841381D01*
X591391Y840000D01*
X591665Y838619D01*
X592448Y837448D01*
X593619Y836665D01*
X595000Y836391D01*
X596381Y836665D01*
X597552Y837448D01*
X598335Y838619D01*
X598609Y840000D01*
X598335Y841381D01*
X597552Y842552D01*
X596381Y843335D01*
X595000Y843609D01*
D02*
G37*
G36*
X805000Y838609D02*
X803619Y838335D01*
X802448Y837552D01*
X801665Y836381D01*
X801391Y835000D01*
X801665Y833619D01*
X802448Y832448D01*
X803619Y831665D01*
X805000Y831391D01*
X806381Y831665D01*
X807552Y832448D01*
X808335Y833619D01*
X808609Y835000D01*
X808335Y836381D01*
X807552Y837552D01*
X806381Y838335D01*
X805000Y838609D01*
D02*
G37*
G36*
X780000Y833609D02*
X778619Y833335D01*
X777448Y832552D01*
X776665Y831381D01*
X776391Y830000D01*
X776665Y828619D01*
X777448Y827448D01*
X778619Y826665D01*
X780000Y826391D01*
X781381Y826665D01*
X782552Y827448D01*
X783335Y828619D01*
X783609Y830000D01*
X783335Y831381D01*
X782552Y832552D01*
X781381Y833335D01*
X780000Y833609D01*
D02*
G37*
G36*
X735000D02*
X733619Y833335D01*
X732448Y832552D01*
X731665Y831381D01*
X731391Y830000D01*
X731665Y828619D01*
X732448Y827448D01*
X733619Y826665D01*
X735000Y826391D01*
X736381Y826665D01*
X737552Y827448D01*
X738335Y828619D01*
X738609Y830000D01*
X738335Y831381D01*
X737552Y832552D01*
X736381Y833335D01*
X735000Y833609D01*
D02*
G37*
G36*
X560000Y828609D02*
X558619Y828335D01*
X557448Y827552D01*
X556665Y826381D01*
X556391Y825000D01*
X556665Y823619D01*
X557448Y822448D01*
X558619Y821665D01*
X560000Y821391D01*
X561381Y821665D01*
X562552Y822448D01*
X563335Y823619D01*
X563609Y825000D01*
X563335Y826381D01*
X562552Y827552D01*
X561381Y828335D01*
X560000Y828609D01*
D02*
G37*
G36*
X530000Y823609D02*
X528619Y823335D01*
X527448Y822552D01*
X526665Y821381D01*
X526391Y820000D01*
X526665Y818619D01*
X527448Y817448D01*
X528619Y816665D01*
X530000Y816391D01*
X531381Y816665D01*
X532552Y817448D01*
X533335Y818619D01*
X533609Y820000D01*
X533335Y821381D01*
X532552Y822552D01*
X531381Y823335D01*
X530000Y823609D01*
D02*
G37*
G36*
X625000Y818609D02*
X623619Y818335D01*
X622448Y817552D01*
X621665Y816381D01*
X621391Y815000D01*
X621665Y813619D01*
X622448Y812448D01*
X623619Y811665D01*
X625000Y811391D01*
X626381Y811665D01*
X627552Y812448D01*
X628335Y813619D01*
X628609Y815000D01*
X628335Y816381D01*
X627552Y817552D01*
X626381Y818335D01*
X625000Y818609D01*
D02*
G37*
G36*
X550000Y803609D02*
X548619Y803335D01*
X547448Y802552D01*
X546665Y801381D01*
X546391Y800000D01*
X546665Y798619D01*
X547448Y797448D01*
X548619Y796665D01*
X550000Y796391D01*
X551381Y796665D01*
X552552Y797448D01*
X553335Y798619D01*
X553609Y800000D01*
X553335Y801381D01*
X552552Y802552D01*
X551381Y803335D01*
X550000Y803609D01*
D02*
G37*
G36*
X530000Y798609D02*
X528619Y798335D01*
X527448Y797552D01*
X526665Y796381D01*
X526391Y795000D01*
X526665Y793619D01*
X527448Y792448D01*
X528619Y791665D01*
X530000Y791391D01*
X531381Y791665D01*
X532552Y792448D01*
X533335Y793619D01*
X533609Y795000D01*
X533335Y796381D01*
X532552Y797552D01*
X531381Y798335D01*
X530000Y798609D01*
D02*
G37*
G36*
X695000Y793609D02*
X693619Y793335D01*
X692448Y792552D01*
X691665Y791381D01*
X691391Y790000D01*
X691665Y788619D01*
X692448Y787448D01*
X693619Y786665D01*
X695000Y786391D01*
X696381Y786665D01*
X697552Y787448D01*
X698335Y788619D01*
X698609Y790000D01*
X698335Y791381D01*
X697552Y792552D01*
X696381Y793335D01*
X695000Y793609D01*
D02*
G37*
G36*
X652500Y791109D02*
X651119Y790835D01*
X649948Y790052D01*
X649165Y788881D01*
X648891Y787500D01*
X649165Y786119D01*
X649948Y784948D01*
X651119Y784165D01*
X652500Y783891D01*
X653881Y784165D01*
X655052Y784948D01*
X655835Y786119D01*
X656109Y787500D01*
X655835Y788881D01*
X655052Y790052D01*
X653881Y790835D01*
X652500Y791109D01*
D02*
G37*
G36*
X755000Y788609D02*
X753619Y788335D01*
X752448Y787552D01*
X751665Y786381D01*
X751391Y785000D01*
X751665Y783619D01*
X752448Y782448D01*
X753619Y781665D01*
X755000Y781391D01*
X756381Y781665D01*
X757552Y782448D01*
X758335Y783619D01*
X758609Y785000D01*
X758335Y786381D01*
X757552Y787552D01*
X756381Y788335D01*
X755000Y788609D01*
D02*
G37*
G36*
X700000Y783609D02*
X698619Y783335D01*
X697448Y782552D01*
X696665Y781381D01*
X696391Y780000D01*
X696665Y778619D01*
X697448Y777448D01*
X698619Y776665D01*
X700000Y776391D01*
X701381Y776665D01*
X702552Y777448D01*
X703335Y778619D01*
X703609Y780000D01*
X703335Y781381D01*
X702552Y782552D01*
X701381Y783335D01*
X700000Y783609D01*
D02*
G37*
G36*
X585000Y778609D02*
X583619Y778335D01*
X582448Y777552D01*
X581665Y776381D01*
X581391Y775000D01*
X581665Y773619D01*
X582448Y772448D01*
X583619Y771665D01*
X585000Y771391D01*
X586381Y771665D01*
X587552Y772448D01*
X588335Y773619D01*
X588609Y775000D01*
X588335Y776381D01*
X587552Y777552D01*
X586381Y778335D01*
X585000Y778609D01*
D02*
G37*
G36*
X755000Y773609D02*
X753619Y773335D01*
X752448Y772552D01*
X751665Y771381D01*
X751391Y770000D01*
X751665Y768619D01*
X752448Y767448D01*
X753619Y766665D01*
X755000Y766391D01*
X756381Y766665D01*
X757552Y767448D01*
X758335Y768619D01*
X758609Y770000D01*
X758335Y771381D01*
X757552Y772552D01*
X756381Y773335D01*
X755000Y773609D01*
D02*
G37*
G36*
X695000D02*
X693619Y773335D01*
X692448Y772552D01*
X691665Y771381D01*
X691391Y770000D01*
X691665Y768619D01*
X692448Y767448D01*
X693619Y766665D01*
X695000Y766391D01*
X696381Y766665D01*
X697552Y767448D01*
X698335Y768619D01*
X698609Y770000D01*
X698335Y771381D01*
X697552Y772552D01*
X696381Y773335D01*
X695000Y773609D01*
D02*
G37*
G36*
X735000Y768609D02*
X733619Y768335D01*
X732448Y767552D01*
X731665Y766381D01*
X731391Y765000D01*
X731665Y763619D01*
X732448Y762448D01*
X733619Y761665D01*
X735000Y761391D01*
X736381Y761665D01*
X737552Y762448D01*
X738335Y763619D01*
X738609Y765000D01*
X738335Y766381D01*
X737552Y767552D01*
X736381Y768335D01*
X735000Y768609D01*
D02*
G37*
G36*
X545000D02*
X543619Y768335D01*
X542448Y767552D01*
X541665Y766381D01*
X541391Y765000D01*
X541665Y763619D01*
X542448Y762448D01*
X543619Y761665D01*
X545000Y761391D01*
X546381Y761665D01*
X547552Y762448D01*
X548335Y763619D01*
X548609Y765000D01*
X548335Y766381D01*
X547552Y767552D01*
X546381Y768335D01*
X545000Y768609D01*
D02*
G37*
G36*
X540000Y753609D02*
X538619Y753335D01*
X537448Y752552D01*
X536665Y751381D01*
X536391Y750000D01*
X536665Y748619D01*
X537448Y747448D01*
X538619Y746665D01*
X540000Y746391D01*
X541381Y746665D01*
X542552Y747448D01*
X543335Y748619D01*
X543609Y750000D01*
X543335Y751381D01*
X542552Y752552D01*
X541381Y753335D01*
X540000Y753609D01*
D02*
G37*
G36*
X520000Y748609D02*
X518619Y748335D01*
X517448Y747552D01*
X516665Y746381D01*
X516391Y745000D01*
X516665Y743619D01*
X517448Y742448D01*
X518619Y741665D01*
X520000Y741391D01*
X521381Y741665D01*
X522552Y742448D01*
X523335Y743619D01*
X523609Y745000D01*
X523335Y746381D01*
X522552Y747552D01*
X521381Y748335D01*
X520000Y748609D01*
D02*
G37*
G36*
X565000Y753609D02*
X563619Y753335D01*
X562448Y752552D01*
X561665Y751381D01*
X561391Y750000D01*
X560000Y748609D01*
X558619Y748335D01*
X557448Y747552D01*
X556665Y746381D01*
X556391Y745000D01*
X556665Y743619D01*
X557448Y742448D01*
X558619Y741665D01*
X560000Y741391D01*
X561391Y740000D01*
X561665Y738619D01*
X562448Y737448D01*
X563619Y736665D01*
X565000Y736391D01*
X566381Y736665D01*
X567552Y737448D01*
X568335Y738619D01*
X568609Y740000D01*
X568335Y741381D01*
X567552Y742552D01*
X566381Y743335D01*
X565670Y745000D01*
X566381Y746665D01*
X567552Y747448D01*
X568335Y748619D01*
X568609Y750000D01*
X568335Y751381D01*
X567552Y752552D01*
X566381Y753335D01*
X565000Y753609D01*
D02*
G37*
G36*
X535000Y743609D02*
X533619Y743335D01*
X532448Y742552D01*
X531665Y741381D01*
X531391Y740000D01*
X531665Y738619D01*
X532448Y737448D01*
X533619Y736665D01*
X535000Y736391D01*
X536381Y736665D01*
X537552Y737448D01*
X538335Y738619D01*
X538609Y740000D01*
X538335Y741381D01*
X537552Y742552D01*
X536381Y743335D01*
X535000Y743609D01*
D02*
G37*
G36*
X590000Y738609D02*
X588619Y738335D01*
X587448Y737552D01*
X586665Y736381D01*
X586391Y735000D01*
X586665Y733619D01*
X587448Y732448D01*
X588619Y731665D01*
X590000Y731391D01*
X591381Y731665D01*
X592552Y732448D01*
X593335Y733619D01*
X593609Y735000D01*
X593335Y736381D01*
X592552Y737552D01*
X591381Y738335D01*
X590000Y738609D01*
D02*
G37*
G36*
X560000Y733609D02*
X558619Y733335D01*
X557448Y732552D01*
X556665Y731381D01*
X556391Y730000D01*
X556665Y728619D01*
X557448Y727448D01*
X558619Y726665D01*
X560000Y726391D01*
X561381Y726665D01*
X562552Y727448D01*
X563335Y728619D01*
X563609Y730000D01*
X563335Y731381D01*
X562552Y732552D01*
X561381Y733335D01*
X560000Y733609D01*
D02*
G37*
G36*
X525000D02*
X523619Y733335D01*
X522448Y732552D01*
X521665Y731381D01*
X521391Y730000D01*
X521665Y728619D01*
X522448Y727448D01*
X523619Y726665D01*
X525000Y726391D01*
X526381Y726665D01*
X527552Y727448D01*
X528335Y728619D01*
X528609Y730000D01*
X528335Y731381D01*
X527552Y732552D01*
X526381Y733335D01*
X525000Y733609D01*
D02*
G37*
G36*
X535000Y673609D02*
X533619Y673335D01*
X532448Y672552D01*
X531665Y671381D01*
X531391Y670000D01*
X531665Y668619D01*
X532448Y667448D01*
X533619Y666665D01*
X535000Y666391D01*
X536381Y666665D01*
X537552Y667448D01*
X538335Y668619D01*
X538609Y670000D01*
X538335Y671381D01*
X537552Y672552D01*
X536381Y673335D01*
X535000Y673609D01*
D02*
G37*
G36*
X600000Y648859D02*
X598619Y648585D01*
X597448Y647802D01*
X596665Y646631D01*
X596391Y645250D01*
X596665Y643869D01*
X597448Y642698D01*
X598619Y641915D01*
X600000Y641641D01*
X601381Y641915D01*
X602552Y642698D01*
X603335Y643869D01*
X603609Y645250D01*
X603335Y646631D01*
X602552Y647802D01*
X601381Y648585D01*
X600000Y648859D01*
D02*
G37*
G36*
X530000Y648609D02*
X528619Y648335D01*
X527448Y647552D01*
X526665Y646381D01*
X526391Y645000D01*
X526665Y643619D01*
X527448Y642448D01*
X528619Y641665D01*
X530000Y641391D01*
X531381Y641665D01*
X532552Y642448D01*
X533335Y643619D01*
X533609Y645000D01*
X533335Y646381D01*
X532552Y647552D01*
X531381Y648335D01*
X530000Y648609D01*
D02*
G37*
G36*
X540000Y638609D02*
X538619Y638335D01*
X537448Y637552D01*
X536665Y636381D01*
X536391Y635000D01*
X536665Y633619D01*
X537448Y632448D01*
X538619Y631665D01*
X540000Y631391D01*
X541381Y631665D01*
X542552Y632448D01*
X543335Y633619D01*
X543609Y635000D01*
X543335Y636381D01*
X542552Y637552D01*
X541381Y638335D01*
X540000Y638609D01*
D02*
G37*
G36*
X600000Y634609D02*
X598619Y634335D01*
X597448Y633552D01*
X596665Y632381D01*
X596391Y631000D01*
X596665Y629619D01*
X597448Y628448D01*
X598619Y627665D01*
X600000Y627391D01*
X601381Y627665D01*
X602552Y628448D01*
X603335Y629619D01*
X603609Y631000D01*
X603335Y632381D01*
X602552Y633552D01*
X601381Y634335D01*
X600000Y634609D01*
D02*
G37*
G36*
Y623609D02*
X598619Y623335D01*
X597448Y622552D01*
X596665Y621381D01*
X596391Y620000D01*
X596665Y618619D01*
X597448Y617448D01*
X598619Y616665D01*
X600000Y616391D01*
X601381Y616665D01*
X602552Y617448D01*
X603335Y618619D01*
X603609Y620000D01*
X603335Y621381D01*
X602552Y622552D01*
X601381Y623335D01*
X600000Y623609D01*
D02*
G37*
G36*
X550000Y573609D02*
X548619Y573335D01*
X547448Y572552D01*
X546665Y571381D01*
X546391Y570000D01*
X546665Y568619D01*
X547448Y567448D01*
X548619Y566665D01*
X550000Y566391D01*
X551381Y566665D01*
X552552Y567448D01*
X553335Y568619D01*
X553609Y570000D01*
X553335Y571381D01*
X552552Y572552D01*
X551381Y573335D01*
X550000Y573609D01*
D02*
G37*
G36*
X510000Y524874D02*
X508619Y524600D01*
X507448Y523817D01*
X506665Y522646D01*
X506391Y521265D01*
X506665Y519884D01*
X507448Y518713D01*
X508619Y517930D01*
X510000Y517656D01*
X511381Y517930D01*
X512552Y518713D01*
X513335Y519884D01*
X513609Y521265D01*
X513335Y522646D01*
X512552Y523817D01*
X511381Y524600D01*
X510000Y524874D01*
D02*
G37*
G36*
X553850Y516374D02*
X552469Y516100D01*
X551298Y515317D01*
X550515Y514146D01*
X550241Y512765D01*
X550515Y511384D01*
X551298Y510213D01*
X552469Y509430D01*
X553850Y509156D01*
X555231Y509430D01*
X556402Y510213D01*
X557185Y511384D01*
X557459Y512765D01*
X557185Y514146D01*
X556402Y515317D01*
X555231Y516100D01*
X553850Y516374D01*
D02*
G37*
G36*
Y493874D02*
X552469Y493600D01*
X551298Y492817D01*
X550515Y491646D01*
X550241Y490265D01*
X550515Y488884D01*
X551298Y487713D01*
X552469Y486930D01*
X553850Y486656D01*
X555231Y486930D01*
X556402Y487713D01*
X557185Y488884D01*
X557459Y490265D01*
X557185Y491646D01*
X556402Y492817D01*
X555231Y493600D01*
X553850Y493874D01*
D02*
G37*
G36*
X572500Y456109D02*
X571119Y455835D01*
X569948Y455052D01*
X569165Y453881D01*
X568891Y452500D01*
X569165Y451119D01*
X569948Y449948D01*
X571119Y449165D01*
X572500Y448891D01*
X573881Y449165D01*
X575052Y449948D01*
X575835Y451119D01*
X576109Y452500D01*
X575835Y453881D01*
X575052Y455052D01*
X573881Y455835D01*
X572500Y456109D01*
D02*
G37*
G36*
X575000Y443609D02*
X573619Y443335D01*
X572448Y442552D01*
X571665Y441381D01*
X571391Y440000D01*
X571665Y438619D01*
X572448Y437448D01*
X573619Y436665D01*
X575000Y436391D01*
X576381Y436665D01*
X577552Y437448D01*
X578335Y438619D01*
X578609Y440000D01*
X578335Y441381D01*
X577552Y442552D01*
X576381Y443335D01*
X575000Y443609D01*
D02*
G37*
G36*
X540000D02*
X538619Y443335D01*
X537448Y442552D01*
X536665Y441381D01*
X536391Y440000D01*
X536665Y438619D01*
X537448Y437448D01*
X538619Y436665D01*
X540000Y436391D01*
X541381Y436665D01*
X542552Y437448D01*
X543335Y438619D01*
X543609Y440000D01*
X543335Y441381D01*
X542552Y442552D01*
X541381Y443335D01*
X540000Y443609D01*
D02*
G37*
G36*
X520000Y413609D02*
X518619Y413335D01*
X517448Y412552D01*
X516665Y411381D01*
X516391Y410000D01*
X516665Y408619D01*
X517448Y407448D01*
X518619Y406665D01*
X520000Y406391D01*
X521381Y406665D01*
X522552Y407448D01*
X523335Y408619D01*
X523609Y410000D01*
X523335Y411381D01*
X522552Y412552D01*
X521381Y413335D01*
X520000Y413609D01*
D02*
G37*
G36*
X600000Y398859D02*
X598619Y398585D01*
X597448Y397802D01*
X596665Y396631D01*
X596391Y395250D01*
X596665Y393869D01*
X597448Y392698D01*
X598619Y391915D01*
X600000Y391641D01*
X601381Y391915D01*
X602552Y392698D01*
X603335Y393869D01*
X603609Y395250D01*
X603335Y396631D01*
X602552Y397802D01*
X601381Y398585D01*
X600000Y398859D01*
D02*
G37*
G36*
X525000Y388609D02*
X523619Y388335D01*
X522448Y387552D01*
X521665Y386381D01*
X521391Y385000D01*
X521665Y383619D01*
X522448Y382448D01*
X523619Y381665D01*
X525000Y381391D01*
X526381Y381665D01*
X527552Y382448D01*
X528335Y383619D01*
X528609Y385000D01*
X528335Y386381D01*
X527552Y387552D01*
X526381Y388335D01*
X525000Y388609D01*
D02*
G37*
G36*
X600000Y383859D02*
X598619Y383585D01*
X597448Y382802D01*
X596665Y381631D01*
X596391Y380250D01*
X596665Y378869D01*
X597448Y377698D01*
X598619Y376915D01*
X600000Y376641D01*
X601381Y376915D01*
X602552Y377698D01*
X603335Y378869D01*
X603609Y380250D01*
X603335Y381631D01*
X602552Y382802D01*
X601381Y383585D01*
X600000Y383859D01*
D02*
G37*
G36*
X555000Y378859D02*
X553619Y378585D01*
X552448Y377802D01*
X551665Y376631D01*
X551391Y375250D01*
X551665Y373869D01*
X552448Y372698D01*
X553619Y371915D01*
X555000Y371641D01*
X556381Y371915D01*
X557552Y372698D01*
X558335Y373869D01*
X558609Y375250D01*
X558335Y376631D01*
X557552Y377802D01*
X556381Y378585D01*
X555000Y378859D01*
D02*
G37*
G36*
X570000Y373859D02*
X568619Y373585D01*
X567448Y372802D01*
X566665Y371631D01*
X566391Y370250D01*
X566665Y368869D01*
X567448Y367698D01*
X568619Y366915D01*
X570000Y366641D01*
X571381Y366915D01*
X572552Y367698D01*
X573335Y368869D01*
X573609Y370250D01*
X573335Y371631D01*
X572552Y372802D01*
X571381Y373585D01*
X570000Y373859D01*
D02*
G37*
G36*
X600000Y371109D02*
X598619Y370835D01*
X597448Y370052D01*
X596665Y368881D01*
X596391Y367500D01*
X596665Y366119D01*
X597448Y364948D01*
X598619Y364165D01*
X600000Y363891D01*
X601381Y364165D01*
X602552Y364948D01*
X603335Y366119D01*
X603609Y367500D01*
X603335Y368881D01*
X602552Y370052D01*
X601381Y370835D01*
X600000Y371109D01*
D02*
G37*
%LPD*%
D117*
X510000Y485000D02*
D03*
M02*
