G04*
G04 #@! TF.GenerationSoftware,Altium Limited,Altium Designer,18.1.7 (191)*
G04*
G04 Layer_Physical_Order=4*
G04 Layer_Color=16711680*
%FSLAX44Y44*%
%MOMM*%
G71*
G01*
G75*
%ADD10C,0.2000*%
%ADD36O,1.0000X0.5000*%
%ADD76C,0.2540*%
%ADD79C,0.4000*%
%ADD80C,0.5000*%
%ADD81C,2.0000*%
%ADD104C,1.8000*%
%ADD105O,2.6000X2.4000*%
%ADD106C,2.6000*%
%ADD107C,1.5240*%
%ADD108O,2.4000X2.6000*%
%ADD109C,1.5900*%
%ADD110C,6.0000*%
%ADD111C,1.9000*%
%ADD112C,1.2000*%
%ADD113R,1.6000X1.6000*%
%ADD114C,0.5080*%
%ADD115C,0.8000*%
%ADD116R,26.5000X9.5000*%
%ADD117R,8.0000X6.5000*%
%ADD118R,9.5000X16.0000*%
%ADD119R,8.0000X4.5000*%
%ADD120R,3.5000X8.5000*%
%ADD121R,8.0000X6.0000*%
G36*
X1147854Y909819D02*
X1150000Y909392D01*
X1510000Y909392D01*
X1510000Y755000D01*
X1493609Y755000D01*
X1493609Y755000D01*
X1493335Y756381D01*
X1492552Y757552D01*
X1491381Y758335D01*
X1490000Y758609D01*
X1487960Y760135D01*
X1487552Y762448D01*
X1488335Y763619D01*
X1488609Y765000D01*
X1488335Y766381D01*
X1487552Y767552D01*
X1486381Y768335D01*
X1485000Y768609D01*
X1482549Y770442D01*
Y845000D01*
X1482355Y845975D01*
X1481802Y846802D01*
X1480975Y847355D01*
X1480000Y847549D01*
X832554D01*
X832552Y847552D01*
X831381Y848335D01*
X830000Y848609D01*
X828619Y848335D01*
X827448Y847552D01*
X827446Y847549D01*
X807554D01*
X807552Y847552D01*
X806381Y848335D01*
X805000Y848609D01*
X803619Y848335D01*
X802448Y847552D01*
X801665Y846381D01*
X801391Y845000D01*
X799558Y842549D01*
X745000D01*
X744025Y842355D01*
X743198Y841802D01*
X695004Y793609D01*
X695000Y793609D01*
X693619Y793335D01*
X692448Y792552D01*
X691665Y791381D01*
X691391Y790000D01*
X691665Y788619D01*
X692448Y787448D01*
X693619Y786665D01*
X695000Y786391D01*
X697040Y784865D01*
X697448Y782552D01*
X696665Y781381D01*
X696391Y780000D01*
X696665Y778619D01*
X697448Y777448D01*
X698619Y776665D01*
X700000Y776391D01*
X701381Y776665D01*
X702552Y777448D01*
X703335Y778619D01*
X703609Y780000D01*
X703335Y781381D01*
X702552Y782552D01*
X702549Y782554D01*
Y788944D01*
X746056Y832451D01*
X794558D01*
X796391Y830000D01*
X796665Y828619D01*
X797448Y827448D01*
X798619Y826665D01*
X800000Y826391D01*
X801381Y826665D01*
X802552Y827448D01*
X802554Y827451D01*
X1432451D01*
Y767554D01*
X1432448Y767552D01*
X1431665Y766381D01*
X1431391Y765000D01*
X1431665Y763619D01*
X1432448Y762448D01*
X1432451Y762446D01*
Y755000D01*
X1357912Y755000D01*
X969842Y755000D01*
X683609Y755000D01*
X683609Y755000D01*
X683335Y756381D01*
X682552Y757552D01*
X681381Y758335D01*
X680512Y758508D01*
X679711Y759794D01*
X679965Y761979D01*
X680371Y762381D01*
X680514Y762451D01*
X720000Y762451D01*
X720000Y762451D01*
X725000D01*
X725000Y762451D01*
X725000Y762451D01*
X747446D01*
X747448Y762448D01*
X748619Y761665D01*
X750000Y761391D01*
X751381Y761665D01*
X752552Y762448D01*
X753335Y763619D01*
X753609Y765000D01*
X753335Y766381D01*
X752552Y767552D01*
X751381Y768335D01*
X750000Y768609D01*
X748619Y768335D01*
X747448Y767552D01*
X747446Y767549D01*
X705000D01*
X680000Y767549D01*
X680000Y767549D01*
X670000D01*
X669025Y767355D01*
X668198Y766802D01*
X656395Y755000D01*
X630000D01*
X626000Y751000D01*
X624326Y751239D01*
X623116Y751708D01*
X622552Y752552D01*
X621381Y753335D01*
X620000Y753609D01*
X618619Y753335D01*
X617448Y752552D01*
X617446Y752549D01*
X567554D01*
X567552Y752552D01*
X566381Y753335D01*
X565000Y753609D01*
X562549Y755442D01*
Y807446D01*
X562552Y807448D01*
X563335Y808619D01*
X563609Y810000D01*
X563335Y811381D01*
X562552Y812552D01*
X561381Y813335D01*
X560000Y813609D01*
X558619Y813335D01*
X557448Y812552D01*
X556665Y811381D01*
X556391Y810000D01*
X556665Y808619D01*
X557448Y807448D01*
X557451Y807446D01*
Y725000D01*
X557645Y724025D01*
X558198Y723198D01*
X559025Y722645D01*
X560000Y722451D01*
X610000D01*
X610000Y616923D01*
X607653Y615951D01*
X603609Y619996D01*
X603609Y620000D01*
X603335Y621381D01*
X602552Y622552D01*
X601381Y623335D01*
X600000Y623609D01*
X598619Y623335D01*
X597448Y622552D01*
X596665Y621381D01*
X596391Y620000D01*
X596665Y618619D01*
X597448Y617448D01*
X598619Y616665D01*
X600000Y616391D01*
X600004Y616391D01*
X607451Y608944D01*
Y480442D01*
X605000Y478609D01*
X603619Y478335D01*
X602448Y477552D01*
X601665Y476381D01*
X601391Y475000D01*
X601665Y473619D01*
X602448Y472448D01*
X603619Y471665D01*
X605000Y471391D01*
X607451Y469558D01*
Y447549D01*
X572554D01*
X572552Y447552D01*
X571381Y448335D01*
X570000Y448609D01*
X568619Y448335D01*
X567448Y447552D01*
X566665Y446381D01*
X566391Y445000D01*
X566665Y443619D01*
X567448Y442448D01*
X568619Y441665D01*
X570000Y441391D01*
X571381Y441665D01*
X572552Y442448D01*
X572554Y442451D01*
X607451D01*
Y378556D01*
X600004Y371109D01*
X600000Y371109D01*
X598619Y370835D01*
X597448Y370052D01*
X596665Y368881D01*
X596391Y367500D01*
X596665Y366119D01*
X597448Y364948D01*
X598619Y364165D01*
X600000Y363891D01*
X601381Y364165D01*
X602552Y364948D01*
X603335Y366119D01*
X603609Y367500D01*
X603609Y367504D01*
X607653Y371549D01*
X610000Y370577D01*
Y300000D01*
X500000Y300000D01*
X500000Y514392D01*
X500000Y514392D01*
X502146Y514819D01*
X503965Y516035D01*
X505181Y517854D01*
X505608Y520000D01*
X505608Y909392D01*
X758860Y909392D01*
X759700Y906852D01*
Y888200D01*
X778700D01*
Y906852D01*
X778700Y907200D01*
X779539Y909392D01*
X784260D01*
X785100Y906852D01*
Y888200D01*
X804100D01*
Y906852D01*
X804100Y907200D01*
X804939Y909392D01*
X809660D01*
X810500Y906852D01*
Y888200D01*
X829500D01*
Y906852D01*
X829500Y907200D01*
X830340Y909392D01*
X860461D01*
X861300Y906852D01*
Y904871D01*
X861198Y904802D01*
X856198Y899802D01*
X855645Y898976D01*
X855451Y898000D01*
Y862549D01*
X831936D01*
X829500Y862800D01*
X829500Y865089D01*
Y881800D01*
X810500D01*
Y865089D01*
X810500Y862800D01*
X808064Y862549D01*
X806536D01*
X804100Y862800D01*
X804100Y865089D01*
Y881800D01*
X785100D01*
Y865089D01*
X785100Y862800D01*
X782664Y862549D01*
X781136D01*
X778700Y862800D01*
X778700Y865089D01*
Y881800D01*
X759700D01*
Y865089D01*
X759700Y862800D01*
X757264Y862549D01*
X725000D01*
X724025Y862355D01*
X723198Y861802D01*
X723198Y861802D01*
X710004Y848609D01*
X710000Y848609D01*
X708619Y848335D01*
X707448Y847552D01*
X706665Y846381D01*
X706391Y845000D01*
X706665Y843619D01*
X707448Y842448D01*
X708619Y841665D01*
X710000Y841391D01*
X711381Y841665D01*
X712552Y842448D01*
X713335Y843619D01*
X713609Y845000D01*
X713609Y845004D01*
X726056Y857451D01*
X858000D01*
X858975Y857645D01*
X859802Y858198D01*
X860355Y859025D01*
X860549Y860000D01*
Y860571D01*
X861300Y862800D01*
X863089Y862800D01*
X880300D01*
Y881800D01*
X863089D01*
X861300Y881800D01*
X860549Y884029D01*
Y885971D01*
X861300Y888200D01*
X880300D01*
Y906852D01*
X880300Y907200D01*
X881140Y909392D01*
X1015000Y909392D01*
X1025000D01*
X1025000Y909392D01*
X1145000D01*
X1147146Y909819D01*
X1147417Y910000D01*
X1147583D01*
X1147854Y909819D01*
D02*
G37*
G36*
X609953Y735470D02*
X609985Y735089D01*
X609684Y732549D01*
X567554D01*
X567552Y732552D01*
X566381Y733335D01*
X566222Y733366D01*
X565500Y735000D01*
X566222Y736634D01*
X566381Y736665D01*
X567552Y737448D01*
X567554Y737451D01*
X609132D01*
X609953Y735470D01*
D02*
G37*
G36*
X1075000Y595000D02*
X815000Y595000D01*
Y670000D01*
X855000D01*
X875000Y650000D01*
X1015000D01*
X1035000Y670000D01*
X1075000D01*
X1075000Y595000D01*
D02*
G37*
G36*
X750000Y600000D02*
X790000Y600000D01*
X790000Y485000D01*
X750000Y485000D01*
X750000Y380000D01*
X790000Y380000D01*
X790000Y335000D01*
X900000Y335000D01*
X900000Y575000D01*
X1017500Y575000D01*
X1017500Y455000D01*
Y455000D01*
X1017580Y452547D01*
X1018221Y447684D01*
X1019490Y442946D01*
X1021367Y438414D01*
X1023820Y434166D01*
X1026806Y430274D01*
X1030274Y426806D01*
X1034166Y423820D01*
X1038414Y421367D01*
X1042946Y419490D01*
X1047684Y418220D01*
X1052547Y417580D01*
X1055000Y417500D01*
X1285000D01*
X1285000Y255000D01*
X1782500Y255000D01*
X1782500Y110000D01*
X1507784D01*
X1507762Y110111D01*
X1507745Y110110D01*
X1507431Y114903D01*
X1506081Y121687D01*
X1503858Y128237D01*
X1500798Y134442D01*
X1496955Y140193D01*
X1492394Y145394D01*
X1487193Y149955D01*
X1481442Y153798D01*
X1475237Y156858D01*
X1468687Y159081D01*
X1461903Y160431D01*
X1455000Y160883D01*
X1448097Y160431D01*
X1441313Y159081D01*
X1434763Y156858D01*
X1428558Y153798D01*
X1422807Y149955D01*
X1417606Y145394D01*
X1413045Y140193D01*
X1409202Y134442D01*
X1406142Y128237D01*
X1403919Y121687D01*
X1402569Y114903D01*
X1402255Y110110D01*
X1402238Y110111D01*
X1402216Y110000D01*
X1317784D01*
X1317762Y110111D01*
X1317745Y110110D01*
X1317431Y114903D01*
X1316081Y121687D01*
X1313858Y128237D01*
X1310798Y134442D01*
X1306955Y140193D01*
X1302394Y145394D01*
X1297193Y149955D01*
X1291442Y153798D01*
X1285237Y156858D01*
X1278687Y159081D01*
X1271903Y160431D01*
X1265000Y160883D01*
X1258097Y160431D01*
X1251313Y159081D01*
X1244762Y156858D01*
X1238558Y153798D01*
X1232807Y149955D01*
X1227606Y145394D01*
X1223045Y140193D01*
X1219202Y134442D01*
X1216142Y128237D01*
X1213919Y121687D01*
X1212569Y114903D01*
X1212255Y110110D01*
X1212238Y110111D01*
X1212216Y110000D01*
X500000Y110000D01*
X500000Y265000D01*
X740000Y265000D01*
X740000Y290000D01*
X655000Y290000D01*
Y355922D01*
X700000Y355922D01*
X701561Y356232D01*
X702884Y357116D01*
X703768Y358439D01*
X704078Y360000D01*
X703768Y361561D01*
X702884Y362884D01*
X701561Y363768D01*
X700000Y364078D01*
X655000Y364078D01*
X655000Y600922D01*
X690000D01*
X691561Y601232D01*
X692884Y602116D01*
X693768Y603439D01*
X694078Y605000D01*
X693768Y606561D01*
X692884Y607884D01*
X691561Y608768D01*
X690000Y609078D01*
X655000D01*
Y619232D01*
X736689Y700922D01*
X750000D01*
X750000Y600000D01*
D02*
G37*
%LPC*%
G36*
X575000Y878609D02*
X573619Y878335D01*
X572448Y877552D01*
X571665Y876381D01*
X571391Y875000D01*
X571665Y873619D01*
X572448Y872448D01*
X573619Y871665D01*
X575000Y871391D01*
X576381Y871665D01*
X577552Y872448D01*
X578335Y873619D01*
X578609Y875000D01*
X578335Y876381D01*
X577552Y877552D01*
X576381Y878335D01*
X575000Y878609D01*
D02*
G37*
G36*
X750000Y853609D02*
X748619Y853335D01*
X747448Y852552D01*
X746665Y851381D01*
X746391Y850000D01*
X746665Y848619D01*
X747448Y847448D01*
X748619Y846665D01*
X750000Y846391D01*
X751381Y846665D01*
X752552Y847448D01*
X753335Y848619D01*
X753609Y850000D01*
X753335Y851381D01*
X752552Y852552D01*
X751381Y853335D01*
X750000Y853609D01*
D02*
G37*
G36*
X560000Y828609D02*
X558619Y828335D01*
X557448Y827552D01*
X556665Y826381D01*
X556391Y825000D01*
X556665Y823619D01*
X557448Y822448D01*
X558619Y821665D01*
X560000Y821391D01*
X561381Y821665D01*
X562552Y822448D01*
X563335Y823619D01*
X563609Y825000D01*
X563335Y826381D01*
X562552Y827552D01*
X561381Y828335D01*
X560000Y828609D01*
D02*
G37*
G36*
X750000Y808609D02*
X748619Y808335D01*
X747448Y807552D01*
X746665Y806381D01*
X746391Y805000D01*
X746665Y803619D01*
X747448Y802448D01*
X748619Y801665D01*
X750000Y801391D01*
X751381Y801665D01*
X752552Y802448D01*
X753335Y803619D01*
X753609Y805000D01*
X753335Y806381D01*
X752552Y807552D01*
X751381Y808335D01*
X750000Y808609D01*
D02*
G37*
G36*
X582500Y854078D02*
X577500D01*
X575939Y853768D01*
X574616Y852884D01*
X573732Y851561D01*
X573422Y850000D01*
X573732Y848439D01*
X574616Y847116D01*
X575794Y846329D01*
X575939Y845203D01*
Y844797D01*
X575794Y843671D01*
X574616Y842884D01*
X573732Y841561D01*
X573422Y840000D01*
X573732Y838439D01*
X574616Y837116D01*
X575794Y836329D01*
X575939Y835202D01*
Y834797D01*
X575794Y833671D01*
X574616Y832884D01*
X573732Y831561D01*
X573422Y830000D01*
X573732Y828439D01*
X574616Y827116D01*
X575794Y826329D01*
X575939Y825202D01*
Y824798D01*
X575794Y823671D01*
X574616Y822884D01*
X573732Y821561D01*
X573422Y820000D01*
X573732Y818439D01*
X574616Y817116D01*
X575794Y816329D01*
X575939Y815203D01*
Y814798D01*
X575794Y813671D01*
X574616Y812884D01*
X573732Y811561D01*
X573422Y810000D01*
X573732Y808439D01*
X574616Y807116D01*
X574735Y807037D01*
X574790Y806879D01*
X574579Y804110D01*
X573866Y803634D01*
X572752Y801966D01*
X572614Y801270D01*
X580000D01*
Y798730D01*
X572614D01*
X572752Y798034D01*
X573866Y796366D01*
X574579Y795890D01*
X574790Y793121D01*
X574735Y792963D01*
X574616Y792884D01*
X573732Y791561D01*
X573422Y790000D01*
X573732Y788439D01*
X574616Y787116D01*
X575794Y786329D01*
X575939Y785202D01*
Y784797D01*
X575794Y783671D01*
X574616Y782884D01*
X573732Y781561D01*
X573422Y780000D01*
X573732Y778439D01*
X574616Y777116D01*
X575939Y776232D01*
X577500Y775922D01*
X582500D01*
X584061Y776232D01*
X585384Y777116D01*
X586268Y778439D01*
X586578Y780000D01*
X586268Y781561D01*
X585384Y782884D01*
X584206Y783671D01*
X584061Y784797D01*
Y785202D01*
X584206Y786329D01*
X585384Y787116D01*
X586268Y788439D01*
X586578Y790000D01*
X586268Y791561D01*
X586158Y791725D01*
X586591Y794160D01*
X588732Y793439D01*
X589616Y792116D01*
X590794Y791329D01*
X590939Y790203D01*
Y789798D01*
X590794Y788671D01*
X589616Y787884D01*
X588732Y786561D01*
X588422Y785000D01*
X588732Y783439D01*
X589616Y782116D01*
X590939Y781232D01*
X592500Y780922D01*
X597500D01*
X599061Y781232D01*
X600384Y782116D01*
X601268Y783439D01*
X601578Y785000D01*
X601268Y786561D01*
X600384Y787884D01*
X599206Y788671D01*
X599061Y789798D01*
Y790203D01*
X599206Y791329D01*
X600384Y792116D01*
X601268Y793439D01*
X601578Y795000D01*
X601268Y796561D01*
X600384Y797884D01*
X599206Y798671D01*
X599061Y799798D01*
Y800202D01*
X599206Y801329D01*
X600384Y802116D01*
X601268Y803439D01*
X601578Y805000D01*
X601268Y806561D01*
X600384Y807884D01*
X599206Y808671D01*
X599061Y809797D01*
Y810202D01*
X599206Y811329D01*
X600384Y812116D01*
X601268Y813439D01*
X601578Y815000D01*
X601268Y816561D01*
X600384Y817884D01*
X599206Y818671D01*
X599061Y819797D01*
Y820203D01*
X599206Y821329D01*
X600384Y822116D01*
X601268Y823439D01*
X601578Y825000D01*
X601268Y826561D01*
X600384Y827884D01*
X599206Y828671D01*
X599061Y829798D01*
Y830203D01*
X599206Y831329D01*
X600384Y832116D01*
X601268Y833439D01*
X601578Y835000D01*
X601268Y836561D01*
X600384Y837884D01*
X599206Y838671D01*
X599061Y839798D01*
Y840203D01*
X599206Y841329D01*
X600384Y842116D01*
X601268Y843439D01*
X601578Y845000D01*
X601268Y846561D01*
X600384Y847884D01*
X599061Y848768D01*
X597500Y849078D01*
X592500D01*
X590939Y848768D01*
X589616Y847884D01*
X588732Y846561D01*
X588422Y845000D01*
X588732Y843439D01*
X589616Y842116D01*
X590794Y841329D01*
X590939Y840203D01*
Y839798D01*
X590794Y838671D01*
X589616Y837884D01*
X588732Y836561D01*
X588422Y835000D01*
X588732Y833439D01*
X589616Y832116D01*
X590794Y831329D01*
X590939Y830203D01*
Y829798D01*
X590794Y828671D01*
X589616Y827884D01*
X588732Y826561D01*
X588422Y825000D01*
X588732Y823439D01*
X589616Y822116D01*
X590794Y821329D01*
X590939Y820203D01*
Y819797D01*
X590794Y818671D01*
X589616Y817884D01*
X588732Y816561D01*
X588422Y815000D01*
X588732Y813439D01*
X589616Y812116D01*
X590794Y811329D01*
X590939Y810202D01*
Y809797D01*
X590794Y808671D01*
X589616Y807884D01*
X588732Y806561D01*
X586591Y805840D01*
X586158Y808275D01*
X586268Y808439D01*
X586578Y810000D01*
X586268Y811561D01*
X585384Y812884D01*
X584206Y813671D01*
X584061Y814798D01*
Y815203D01*
X584206Y816329D01*
X585384Y817116D01*
X586268Y818439D01*
X586578Y820000D01*
X586268Y821561D01*
X585384Y822884D01*
X584206Y823671D01*
X584061Y824798D01*
Y825202D01*
X584206Y826329D01*
X585384Y827116D01*
X586268Y828439D01*
X586578Y830000D01*
X586268Y831561D01*
X585384Y832884D01*
X584206Y833671D01*
X584061Y834797D01*
Y835202D01*
X584206Y836329D01*
X585384Y837116D01*
X586268Y838439D01*
X586578Y840000D01*
X586268Y841561D01*
X585384Y842884D01*
X584206Y843671D01*
X584061Y844797D01*
Y845203D01*
X584206Y846329D01*
X585384Y847116D01*
X586268Y848439D01*
X586578Y850000D01*
X586268Y851561D01*
X585384Y852884D01*
X584061Y853768D01*
X582500Y854078D01*
D02*
G37*
G36*
X550000Y773609D02*
X548619Y773335D01*
X547448Y772552D01*
X546665Y771381D01*
X546391Y770000D01*
X546391Y769996D01*
X543197Y766802D01*
X542645Y765975D01*
X542451Y765000D01*
Y755442D01*
X540000Y753609D01*
X538619Y753335D01*
X537448Y752552D01*
X536665Y751381D01*
X536391Y750000D01*
X536665Y748619D01*
X537448Y747448D01*
X537040Y745135D01*
X535000Y743609D01*
X533619Y743335D01*
X532448Y742552D01*
X531665Y741381D01*
X531391Y740000D01*
X531665Y738619D01*
X532448Y737448D01*
X532451Y737446D01*
Y672554D01*
X532448Y672552D01*
X531665Y671381D01*
X531391Y670000D01*
X531665Y668619D01*
X532448Y667448D01*
X533619Y666665D01*
X535000Y666391D01*
X537451Y664558D01*
Y637554D01*
X537448Y637552D01*
X536665Y636381D01*
X536391Y635000D01*
X536665Y633619D01*
X537448Y632448D01*
X538619Y631665D01*
X540000Y631391D01*
X542451Y629558D01*
X542451Y451056D01*
X540004Y448609D01*
X540000Y448609D01*
X538619Y448335D01*
X537448Y447552D01*
X536665Y446381D01*
X536391Y445000D01*
X536665Y443619D01*
X537448Y442448D01*
X538619Y441665D01*
X540000Y441391D01*
X541381Y441665D01*
X542552Y442448D01*
X543335Y443619D01*
X543609Y445000D01*
X543609Y445004D01*
X546802Y448198D01*
X547355Y449025D01*
X547549Y450000D01*
X547549Y450001D01*
Y514558D01*
X550000Y516391D01*
X551381Y516665D01*
X552552Y517448D01*
X553335Y518619D01*
X553609Y520000D01*
X553335Y521381D01*
X552552Y522552D01*
X551381Y523335D01*
X550000Y523609D01*
X547549Y525442D01*
X547549Y763944D01*
X549996Y766391D01*
X550000Y766391D01*
X551381Y766665D01*
X552552Y767448D01*
X553335Y768619D01*
X553609Y770000D01*
X553335Y771381D01*
X552552Y772552D01*
X551381Y773335D01*
X550000Y773609D01*
D02*
G37*
G36*
X600000Y648859D02*
X598619Y648585D01*
X597448Y647802D01*
X596665Y646631D01*
X596391Y645250D01*
X596665Y643869D01*
X597448Y642698D01*
X598619Y641915D01*
X600000Y641641D01*
X601381Y641915D01*
X602552Y642698D01*
X603335Y643869D01*
X603609Y645250D01*
X603335Y646631D01*
X602552Y647802D01*
X601381Y648585D01*
X600000Y648859D01*
D02*
G37*
G36*
Y398859D02*
X598619Y398585D01*
X597448Y397802D01*
X596665Y396631D01*
X596391Y395250D01*
X596665Y393869D01*
X597448Y392698D01*
X598619Y391915D01*
X600000Y391641D01*
X601381Y391915D01*
X602552Y392698D01*
X603335Y393869D01*
X603609Y395250D01*
X603335Y396631D01*
X602552Y397802D01*
X601381Y398585D01*
X600000Y398859D01*
D02*
G37*
G36*
X520000Y748609D02*
X518619Y748335D01*
X517448Y747552D01*
X516665Y746381D01*
X516391Y745000D01*
X516665Y743619D01*
X517448Y742448D01*
X517451Y742446D01*
X517451Y412554D01*
X517448Y412552D01*
X516665Y411381D01*
X516391Y410000D01*
X516665Y408619D01*
X517448Y407448D01*
X518619Y406665D01*
X520000Y406391D01*
X522451Y404558D01*
X522451Y387554D01*
X522448Y387552D01*
X521665Y386381D01*
X521391Y385000D01*
X521665Y383619D01*
X522448Y382448D01*
X523619Y381665D01*
X525000Y381391D01*
X526381Y381665D01*
X527552Y382448D01*
X528335Y383619D01*
X528609Y385000D01*
X528335Y386381D01*
X527552Y387552D01*
X527549Y387554D01*
X527549Y727446D01*
X527552Y727448D01*
X528335Y728619D01*
X528609Y730000D01*
X528335Y731381D01*
X527552Y732552D01*
X526381Y733335D01*
X525000Y733609D01*
X522549Y735442D01*
Y742446D01*
X522552Y742448D01*
X523335Y743619D01*
X523609Y745000D01*
X523335Y746381D01*
X522552Y747552D01*
X521381Y748335D01*
X520000Y748609D01*
D02*
G37*
G36*
X1055000Y360856D02*
X1050642Y360513D01*
X1046392Y359492D01*
X1042354Y357820D01*
X1038627Y355536D01*
X1035303Y352697D01*
X1032464Y349373D01*
X1030180Y345646D01*
X1028508Y341608D01*
X1027487Y337358D01*
X1027144Y333000D01*
X1027487Y328642D01*
X1028508Y324392D01*
X1030180Y320354D01*
X1032464Y316627D01*
X1035303Y313303D01*
X1038627Y310464D01*
X1042354Y308180D01*
X1046392Y306507D01*
X1050642Y305487D01*
X1055000Y305144D01*
X1059358Y305487D01*
X1063608Y306507D01*
X1067646Y308180D01*
X1071373Y310464D01*
X1074697Y313303D01*
X1077536Y316627D01*
X1079820Y320354D01*
X1081492Y324392D01*
X1082513Y328642D01*
X1082856Y333000D01*
X1082513Y337358D01*
X1081492Y341608D01*
X1079820Y345646D01*
X1077536Y349373D01*
X1074697Y352697D01*
X1071373Y355536D01*
X1067646Y357820D01*
X1063608Y359492D01*
X1059358Y360513D01*
X1055000Y360856D01*
D02*
G37*
G36*
X827000Y217856D02*
X822642Y217513D01*
X818392Y216493D01*
X814354Y214820D01*
X810627Y212536D01*
X807303Y209697D01*
X804464Y206373D01*
X802180Y202646D01*
X800508Y198608D01*
X799487Y194358D01*
X799144Y190000D01*
X799487Y185642D01*
X800508Y181392D01*
X802180Y177354D01*
X804464Y173627D01*
X807303Y170303D01*
X810627Y167464D01*
X814354Y165180D01*
X818392Y163507D01*
X822642Y162487D01*
X827000Y162144D01*
X831358Y162487D01*
X835608Y163507D01*
X839646Y165180D01*
X843373Y167464D01*
X846697Y170303D01*
X849536Y173627D01*
X851820Y177354D01*
X853493Y181392D01*
X854513Y185642D01*
X854856Y190000D01*
X854513Y194358D01*
X853493Y198608D01*
X851820Y202646D01*
X849536Y206373D01*
X846697Y209697D01*
X843373Y212536D01*
X839646Y214820D01*
X835608Y216493D01*
X831358Y217513D01*
X827000Y217856D01*
D02*
G37*
G36*
X1360000Y180856D02*
X1355642Y180513D01*
X1351392Y179492D01*
X1347354Y177820D01*
X1343627Y175536D01*
X1340303Y172697D01*
X1337464Y169373D01*
X1335180Y165646D01*
X1333508Y161608D01*
X1332487Y157358D01*
X1332144Y153000D01*
X1332487Y148642D01*
X1333508Y144392D01*
X1335180Y140354D01*
X1337464Y136627D01*
X1340303Y133303D01*
X1343627Y130464D01*
X1347354Y128180D01*
X1351392Y126508D01*
X1355642Y125487D01*
X1360000Y125144D01*
X1364358Y125487D01*
X1368608Y126508D01*
X1372646Y128180D01*
X1376373Y130464D01*
X1379697Y133303D01*
X1382536Y136627D01*
X1384820Y140354D01*
X1386492Y144392D01*
X1387513Y148642D01*
X1387856Y153000D01*
X1387513Y157358D01*
X1386492Y161608D01*
X1384820Y165646D01*
X1382536Y169373D01*
X1379697Y172697D01*
X1376373Y175536D01*
X1372646Y177820D01*
X1368608Y179492D01*
X1364358Y180513D01*
X1360000Y180856D01*
D02*
G37*
G36*
X1740000Y179856D02*
X1735642Y179513D01*
X1731392Y178493D01*
X1727354Y176820D01*
X1723627Y174536D01*
X1720303Y171697D01*
X1717464Y168373D01*
X1715180Y164646D01*
X1713508Y160608D01*
X1712487Y156358D01*
X1712144Y152000D01*
X1712487Y147642D01*
X1713508Y143392D01*
X1715180Y139354D01*
X1717464Y135627D01*
X1720303Y132303D01*
X1723627Y129464D01*
X1727354Y127180D01*
X1731392Y125507D01*
X1735642Y124487D01*
X1740000Y124144D01*
X1744358Y124487D01*
X1748608Y125507D01*
X1752646Y127180D01*
X1756373Y129464D01*
X1759697Y132303D01*
X1762536Y135627D01*
X1764820Y139354D01*
X1766492Y143392D01*
X1767513Y147642D01*
X1767856Y152000D01*
X1767513Y156358D01*
X1766492Y160608D01*
X1764820Y164646D01*
X1762536Y168373D01*
X1759697Y171697D01*
X1756373Y174536D01*
X1752646Y176820D01*
X1748608Y178493D01*
X1744358Y179513D01*
X1740000Y179856D01*
D02*
G37*
G36*
X1551000D02*
X1546642Y179513D01*
X1542392Y178493D01*
X1538354Y176820D01*
X1534627Y174536D01*
X1531303Y171697D01*
X1528464Y168373D01*
X1526180Y164646D01*
X1524507Y160608D01*
X1523487Y156358D01*
X1523144Y152000D01*
X1523487Y147642D01*
X1524507Y143392D01*
X1526180Y139354D01*
X1528464Y135627D01*
X1531303Y132303D01*
X1534627Y129464D01*
X1538354Y127180D01*
X1542392Y125507D01*
X1546642Y124487D01*
X1551000Y124144D01*
X1555358Y124487D01*
X1559608Y125507D01*
X1563646Y127180D01*
X1567373Y129464D01*
X1570697Y132303D01*
X1573536Y135627D01*
X1575820Y139354D01*
X1577493Y143392D01*
X1578513Y147642D01*
X1578856Y152000D01*
X1578513Y156358D01*
X1577493Y160608D01*
X1575820Y164646D01*
X1573536Y168373D01*
X1570697Y171697D01*
X1567373Y174536D01*
X1563646Y176820D01*
X1559608Y178493D01*
X1555358Y179513D01*
X1551000Y179856D01*
D02*
G37*
G36*
X1170000D02*
X1165642Y179513D01*
X1161392Y178493D01*
X1157354Y176820D01*
X1153627Y174536D01*
X1150303Y171697D01*
X1147464Y168373D01*
X1145180Y164646D01*
X1143508Y160608D01*
X1142487Y156358D01*
X1142144Y152000D01*
X1142487Y147642D01*
X1143508Y143392D01*
X1145180Y139354D01*
X1147464Y135627D01*
X1150303Y132303D01*
X1153627Y129464D01*
X1157354Y127180D01*
X1161392Y125507D01*
X1165642Y124487D01*
X1170000Y124144D01*
X1174358Y124487D01*
X1178608Y125507D01*
X1182646Y127180D01*
X1186373Y129464D01*
X1189697Y132303D01*
X1192536Y135627D01*
X1194820Y139354D01*
X1196492Y143392D01*
X1197513Y147642D01*
X1197856Y152000D01*
X1197513Y156358D01*
X1196492Y160608D01*
X1194820Y164646D01*
X1192536Y168373D01*
X1189697Y171697D01*
X1186373Y174536D01*
X1182646Y176820D01*
X1178608Y178493D01*
X1174358Y179513D01*
X1170000Y179856D01*
D02*
G37*
G36*
X981000D02*
X976642Y179513D01*
X972392Y178493D01*
X968354Y176820D01*
X964627Y174536D01*
X961303Y171697D01*
X958464Y168373D01*
X956180Y164646D01*
X954508Y160608D01*
X953487Y156358D01*
X953144Y152000D01*
X953487Y147642D01*
X954508Y143392D01*
X956180Y139354D01*
X958464Y135627D01*
X961303Y132303D01*
X964627Y129464D01*
X968354Y127180D01*
X972392Y125507D01*
X976642Y124487D01*
X981000Y124144D01*
X985358Y124487D01*
X989608Y125507D01*
X993646Y127180D01*
X997373Y129464D01*
X1000697Y132303D01*
X1003536Y135627D01*
X1005820Y139354D01*
X1007493Y143392D01*
X1008513Y147642D01*
X1008856Y152000D01*
X1008513Y156358D01*
X1007493Y160608D01*
X1005820Y164646D01*
X1003536Y168373D01*
X1000697Y171697D01*
X997373Y174536D01*
X993646Y176820D01*
X989608Y178493D01*
X985358Y179513D01*
X981000Y179856D01*
D02*
G37*
%LPD*%
D10*
X858000Y898000D02*
X863000Y903000D01*
X858000Y860000D02*
Y898000D01*
X725000Y860000D02*
X858000D01*
X535000Y645000D02*
Y650000D01*
X530000Y655000D02*
X535000Y650000D01*
X530000Y655000D02*
Y795000D01*
X555000Y715000D02*
Y760000D01*
X545000Y765000D02*
X550000Y770000D01*
X750000Y765000D02*
X750000D01*
X725000D02*
X750000D01*
X610000Y445000D02*
Y610000D01*
X600000Y620000D02*
X610000Y610000D01*
X600000Y620000D02*
X600000Y620000D01*
X610000Y377500D02*
Y445000D01*
X600000Y367500D02*
X610000Y377500D01*
X600000Y620000D02*
Y620000D01*
X1485000Y745000D02*
Y765000D01*
X1490000Y740000D02*
Y755000D01*
X1480000Y760000D02*
Y845000D01*
X805000D02*
X1480000D01*
Y750000D02*
Y760000D01*
X1445000Y750000D02*
X1480000D01*
X1435000Y740000D02*
X1490000D01*
X1435000D02*
Y765000D01*
X1440000Y745000D02*
X1485000D01*
X1440000D02*
Y835000D01*
X745000D02*
X1440000D01*
X700000Y790000D02*
X745000Y835000D01*
X1450000Y755000D02*
Y840000D01*
X870000Y840000D02*
X1450000Y840000D01*
X745000Y840000D02*
X870000D01*
X695000Y790000D02*
X745000Y840000D01*
X700000Y780000D02*
Y790000D01*
X1435000Y765000D02*
Y830000D01*
X1145000D02*
X1435000D01*
X1445000Y750000D02*
Y760000D01*
X800000Y830000D02*
X1145000D01*
X1370000Y855000D02*
X1490000D01*
Y780000D02*
Y855000D01*
X1490000Y780000D02*
X1490000Y780000D01*
X1085000Y860000D02*
X1175000Y860000D01*
X1055000Y860000D02*
X1085000D01*
X1005000Y825000D02*
X1030000D01*
Y825000D02*
X1050000Y825000D01*
X1030000D02*
X1045000D01*
X1175000Y860000D02*
X1245000D01*
X725000Y860000D02*
X725000D01*
X690000Y750000D02*
X755000D01*
X750000Y780000D02*
X750000D01*
X740000Y770000D02*
X750000Y780000D01*
X725000Y770000D02*
X740000D01*
X710000Y845000D02*
X725000Y860000D01*
X705000Y765000D02*
X725000D01*
X725000Y765000D02*
X725000Y765000D01*
X680000Y765000D02*
X720000Y765000D01*
X680000Y765000D02*
X680000Y765000D01*
X665000Y725000D02*
X690000Y750000D01*
X560000Y725000D02*
X665000D01*
X670000Y765000D02*
X680000D01*
X655000Y750000D02*
X670000Y765000D01*
X640000Y750000D02*
X655000D01*
X560000Y725000D02*
Y810000D01*
X565000Y730000D02*
X635000D01*
X1205000Y855000D02*
X1370000Y855000D01*
X710000Y845000D02*
X710000D01*
X570000Y445000D02*
X610000D01*
X585000Y735000D02*
X665000D01*
X540000Y445000D02*
X545000Y450000D01*
X545000Y450000D02*
X545000Y450000D01*
X545000Y450000D02*
X545000Y765000D01*
X665000Y740000D02*
X680000Y755000D01*
X565000Y740000D02*
X665000D01*
X660000Y745000D02*
X675000Y760000D01*
X570000Y745000D02*
X660000D01*
X540000Y635000D02*
Y750000D01*
X565000D02*
X620000D01*
X535000Y670000D02*
X535000Y670000D01*
Y740000D01*
X525000Y730000D02*
X525000Y385000D01*
X520000Y745000D02*
X520000Y410000D01*
D36*
X580000Y780000D02*
D03*
X595000Y785000D02*
D03*
X580000Y790000D02*
D03*
X595000Y795000D02*
D03*
X580000Y800000D02*
D03*
X595000Y805000D02*
D03*
X580000Y810000D02*
D03*
X595000Y815000D02*
D03*
X580000Y820000D02*
D03*
Y830000D02*
D03*
X595000Y825000D02*
D03*
Y835000D02*
D03*
X580000Y840000D02*
D03*
X595000Y845000D02*
D03*
X580000Y850000D02*
D03*
D76*
X1080000Y333000D02*
G03*
X1080000Y333000I-25000J0D01*
G01*
X1504960Y109998D02*
G03*
X1405040Y109998I-49960J-1998D01*
G01*
X1314960D02*
G03*
X1215040Y109998I-49960J-1998D01*
G01*
X1765000Y152000D02*
G03*
X1765000Y152000I-25000J0D01*
G01*
X1576000D02*
G03*
X1576000Y152000I-25000J0D01*
G01*
X1385000Y153000D02*
G03*
X1385000Y153000I-25000J0D01*
G01*
X1195000Y152000D02*
G03*
X1195000Y152000I-25000J0D01*
G01*
X1006000D02*
G03*
X1006000Y152000I-25000J0D01*
G01*
X852000Y190000D02*
G03*
X852000Y190000I-25000J0D01*
G01*
D79*
X1660000Y740000D02*
Y780000D01*
D80*
X795000Y710000D02*
X855000D01*
X780000Y695000D02*
X795000Y710000D01*
X745000Y695000D02*
X780000D01*
X735000Y705000D02*
X775000D01*
X790000Y720000D01*
X650000Y620000D02*
X735000Y705000D01*
X650000Y605000D02*
Y620000D01*
Y555000D02*
Y605000D01*
Y360000D02*
Y555000D01*
X790000Y720000D02*
X1000000D01*
X855000Y710000D02*
X990000D01*
X650000Y605000D02*
X690000D01*
X650000Y360000D02*
X700000Y360000D01*
D81*
X1990000Y600000D02*
Y755000D01*
X2070000Y590000D02*
Y625000D01*
X1860000Y535000D02*
X2010000Y535000D01*
X1815000Y580000D02*
X1860000Y535000D01*
X1515000Y580000D02*
X1815000D01*
X2035000Y660000D02*
X2070000Y625000D01*
X2035000Y800000D02*
X2075000D01*
X1990000Y755000D02*
X2035000Y800000D01*
X1485000Y610000D02*
X1515000Y580000D01*
X1485000Y610000D02*
X1485000Y655000D01*
X1783000Y748000D02*
Y792000D01*
X1735000Y840000D02*
X1783000Y792000D01*
X2010000Y535000D02*
X2065000Y590000D01*
X1505000Y840000D02*
X1735000Y840000D01*
X1055000Y540000D02*
X1340000D01*
X1355000Y525000D01*
X1340000Y465000D02*
X1355000Y480000D01*
X1055000Y465000D02*
X1340000D01*
D104*
X1580000Y627500D02*
D03*
Y352500D02*
D03*
X550000Y190000D02*
D03*
X825000D02*
D03*
D105*
X1788000Y897000D02*
D03*
X2082000Y845000D02*
D03*
D106*
X1788000Y743000D02*
D03*
X2082000Y795000D02*
D03*
X2067500Y377500D02*
D03*
Y592500D02*
D03*
D107*
X1985000Y600000D02*
D03*
X1485000Y655000D02*
D03*
D108*
X1892500Y377500D02*
D03*
Y592500D02*
D03*
D109*
X1683960Y490000D02*
D03*
X1816040D02*
D03*
X1055000Y332920D02*
D03*
Y465000D02*
D03*
Y670000D02*
D03*
Y537920D02*
D03*
D110*
X1265000Y105000D02*
D03*
X1455000D02*
D03*
X1895000Y160000D02*
D03*
X1075000Y105000D02*
D03*
X1645000D02*
D03*
X1980000Y160000D02*
D03*
X2065000D02*
D03*
D111*
X1355000Y480000D02*
D03*
Y400000D02*
D03*
X1740000Y227500D02*
D03*
Y152500D02*
D03*
X1550000Y227500D02*
D03*
Y152500D02*
D03*
X1170000Y227500D02*
D03*
Y152500D02*
D03*
X980000Y227500D02*
D03*
Y152500D02*
D03*
X1390000Y705000D02*
D03*
Y625000D02*
D03*
X1360000Y227500D02*
D03*
Y152500D02*
D03*
X1390000Y380000D02*
D03*
Y300000D02*
D03*
X1355000Y605000D02*
D03*
Y525000D02*
D03*
D112*
X1999645Y234645D02*
D03*
X2070355Y305355D02*
D03*
X1935000Y660000D02*
D03*
X2035000D02*
D03*
X1965355Y234645D02*
D03*
X1894645Y305355D02*
D03*
D113*
X870800Y872300D02*
D03*
X845400D02*
D03*
X820000D02*
D03*
X794600D02*
D03*
X769200D02*
D03*
Y897700D02*
D03*
X794600D02*
D03*
X820000D02*
D03*
X845400D02*
D03*
X870800D02*
D03*
D114*
X830000Y845000D02*
D03*
X775000Y235000D02*
D03*
X780000Y240000D02*
D03*
X775000Y245000D02*
D03*
X780000Y250000D02*
D03*
X775000Y255000D02*
D03*
X780000Y260000D02*
D03*
X775000Y265000D02*
D03*
Y275000D02*
D03*
X780000Y270000D02*
D03*
Y280000D02*
D03*
Y485000D02*
D03*
X785000Y490000D02*
D03*
X780000Y495000D02*
D03*
X785000Y500000D02*
D03*
Y510000D02*
D03*
X780000Y505000D02*
D03*
Y515000D02*
D03*
X785000Y520000D02*
D03*
X790000Y515000D02*
D03*
Y505000D02*
D03*
Y495000D02*
D03*
Y485000D02*
D03*
X535000Y560000D02*
D03*
Y535000D02*
D03*
Y350000D02*
D03*
X605000Y475000D02*
D03*
X535000Y645000D02*
D03*
Y660000D02*
D03*
X555000Y715000D02*
D03*
Y760000D02*
D03*
X550000Y770000D02*
D03*
X610000Y785000D02*
D03*
X652500Y787500D02*
D03*
X1485000Y765000D02*
D03*
X1490000Y755000D02*
D03*
X735000Y705000D02*
D03*
X1480000Y760000D02*
D03*
X735000Y815000D02*
D03*
X1445000Y760000D02*
D03*
X1435000Y765000D02*
D03*
X800000Y830000D02*
D03*
X1450000Y755000D02*
D03*
X805000Y845000D02*
D03*
X1085000Y860000D02*
D03*
X1050000Y825000D02*
D03*
X1005000D02*
D03*
X1030000D02*
D03*
X1005000Y900000D02*
D03*
Y890000D02*
D03*
X725000Y840000D02*
D03*
X1000000Y720000D02*
D03*
X990000Y710000D02*
D03*
X855000D02*
D03*
X650000Y555000D02*
D03*
X1000000Y895000D02*
D03*
X1015000Y915000D02*
D03*
X1040000D02*
D03*
X1105000D02*
D03*
X660000Y470000D02*
D03*
Y480000D02*
D03*
Y520000D02*
D03*
Y595000D02*
D03*
Y370000D02*
D03*
Y395000D02*
D03*
Y440000D02*
D03*
X780000Y365000D02*
D03*
Y345000D02*
D03*
Y360000D02*
D03*
Y355000D02*
D03*
Y350000D02*
D03*
X775000Y365000D02*
D03*
Y360000D02*
D03*
X775000Y355000D02*
D03*
Y350000D02*
D03*
Y345000D02*
D03*
Y565000D02*
D03*
Y570000D02*
D03*
Y575000D02*
D03*
X775000Y580000D02*
D03*
Y585000D02*
D03*
X780000Y570000D02*
D03*
Y575000D02*
D03*
Y580000D02*
D03*
Y565000D02*
D03*
Y585000D02*
D03*
X686300Y321550D02*
D03*
X686275Y571500D02*
D03*
X678300Y321550D02*
D03*
X670275Y571500D02*
D03*
X678275D02*
D03*
X670300Y321550D02*
D03*
X755000Y750000D02*
D03*
X770000Y805000D02*
D03*
X810000Y810000D02*
D03*
X725000Y770000D02*
D03*
X750000Y765000D02*
D03*
X650000Y605000D02*
D03*
X750000Y780000D02*
D03*
X995000Y670000D02*
D03*
X560000Y810000D02*
D03*
X565000Y730000D02*
D03*
X570000Y745000D02*
D03*
X750000Y805000D02*
D03*
Y850000D02*
D03*
X780000Y780000D02*
D03*
X500000Y520000D02*
D03*
X1660000Y740000D02*
D03*
X1490000Y780000D02*
D03*
X880000Y415000D02*
D03*
Y425000D02*
D03*
Y435000D02*
D03*
Y445000D02*
D03*
X990000Y665000D02*
D03*
X900000D02*
D03*
X910000D02*
D03*
X920000D02*
D03*
X930000D02*
D03*
X940000D02*
D03*
X950000D02*
D03*
X960000D02*
D03*
X970000D02*
D03*
X980000D02*
D03*
X1000000D02*
D03*
X780000Y450000D02*
D03*
Y430000D02*
D03*
Y445000D02*
D03*
Y440000D02*
D03*
Y435000D02*
D03*
X775000Y450000D02*
D03*
Y445000D02*
D03*
X775000Y440000D02*
D03*
Y435000D02*
D03*
Y430000D02*
D03*
X780000Y670000D02*
D03*
Y650000D02*
D03*
Y665000D02*
D03*
Y660000D02*
D03*
Y655000D02*
D03*
X775000Y670000D02*
D03*
Y665000D02*
D03*
X775000Y660000D02*
D03*
Y655000D02*
D03*
Y650000D02*
D03*
X845000Y600000D02*
D03*
X840000Y605000D02*
D03*
X835000Y600000D02*
D03*
X830000Y605000D02*
D03*
X825000Y600000D02*
D03*
X820000Y605000D02*
D03*
X845000Y380000D02*
D03*
X840000Y385000D02*
D03*
X835000Y380000D02*
D03*
X830000Y385000D02*
D03*
X825000Y380000D02*
D03*
X820000Y385000D02*
D03*
X875000Y450000D02*
D03*
X870000Y445000D02*
D03*
Y435000D02*
D03*
X875000Y440000D02*
D03*
Y430000D02*
D03*
X870000Y425000D02*
D03*
X875000Y420000D02*
D03*
X870000Y415000D02*
D03*
X1005000Y670000D02*
D03*
X985000D02*
D03*
X975000D02*
D03*
X965000D02*
D03*
X955000D02*
D03*
X945000D02*
D03*
X935000D02*
D03*
X925000D02*
D03*
X915000D02*
D03*
X905000D02*
D03*
X895000D02*
D03*
X510000Y715000D02*
D03*
Y755000D02*
D03*
Y635000D02*
D03*
Y675000D02*
D03*
Y560000D02*
D03*
Y595000D02*
D03*
Y475000D02*
D03*
Y435000D02*
D03*
Y390000D02*
D03*
Y350000D02*
D03*
X535000Y305000D02*
D03*
X510000D02*
D03*
X600000D02*
D03*
X570000D02*
D03*
X715000Y875000D02*
D03*
X675000D02*
D03*
Y905000D02*
D03*
X715000D02*
D03*
X510000Y810000D02*
D03*
Y840000D02*
D03*
Y870000D02*
D03*
X590000Y905000D02*
D03*
X550000D02*
D03*
X510000D02*
D03*
X550000Y520000D02*
D03*
X845000Y605000D02*
D03*
X835000D02*
D03*
X825000D02*
D03*
X595000Y460000D02*
D03*
X535000Y595000D02*
D03*
X510000Y535000D02*
D03*
X535000Y475000D02*
D03*
X510000Y490000D02*
D03*
X570000Y445000D02*
D03*
X580000Y840000D02*
D03*
Y850000D02*
D03*
X595000Y845000D02*
D03*
Y835000D02*
D03*
X580000Y830000D02*
D03*
X595000Y825000D02*
D03*
X580000Y820000D02*
D03*
X595000Y815000D02*
D03*
Y795000D02*
D03*
X580000Y810000D02*
D03*
X595000Y805000D02*
D03*
X580000Y800000D02*
D03*
Y790000D02*
D03*
X595000Y785000D02*
D03*
X580000Y780000D02*
D03*
X665000Y735000D02*
D03*
X595000Y883000D02*
D03*
X585000Y735000D02*
D03*
X710000Y845000D02*
D03*
X635000Y730000D02*
D03*
X540000Y445000D02*
D03*
X680000Y755000D02*
D03*
X675000Y760000D02*
D03*
X575000Y875000D02*
D03*
X530000Y820000D02*
D03*
X700000Y360000D02*
D03*
X525000Y730000D02*
D03*
X565000Y740000D02*
D03*
X535000D02*
D03*
X520000Y745000D02*
D03*
X540000Y750000D02*
D03*
X565000D02*
D03*
X620000D02*
D03*
X640000D02*
D03*
X845000Y385000D02*
D03*
X835000D02*
D03*
X825000D02*
D03*
X530000Y795000D02*
D03*
X560000Y825000D02*
D03*
X700000Y780000D02*
D03*
X695000Y790000D02*
D03*
X1660000Y780000D02*
D03*
X690000Y605000D02*
D03*
X550000Y890000D02*
D03*
X540000Y635000D02*
D03*
X570000Y370250D02*
D03*
X555000Y375250D02*
D03*
X520000Y410000D02*
D03*
X525000Y385000D02*
D03*
X600000Y620000D02*
D03*
Y631000D02*
D03*
X535000Y670000D02*
D03*
X840000Y380000D02*
D03*
X820000D02*
D03*
X830000D02*
D03*
Y600000D02*
D03*
X820000D02*
D03*
X840000D02*
D03*
X600000Y367500D02*
D03*
X1842500Y343270D02*
D03*
X600000Y380250D02*
D03*
X570000Y460000D02*
D03*
X657500Y852500D02*
D03*
X625000Y815000D02*
D03*
X615000Y850000D02*
D03*
X580000Y770000D02*
D03*
X550000Y570000D02*
D03*
X600000Y645250D02*
D03*
Y395250D02*
D03*
D115*
X1780500Y899500D02*
X1785000Y895000D01*
X1765000Y915000D02*
X1780500Y899500D01*
X1015000Y915000D02*
X1025000D01*
X500000Y915000D02*
X1015000Y915000D01*
X500000D02*
X500000Y520000D01*
X1040000Y915000D02*
X1105000D01*
X1015000D02*
X1040000D01*
X1105000D02*
X1145000D01*
X1150000Y915000D02*
X1765000Y915000D01*
D116*
X877500Y527500D02*
D03*
D117*
X1645000Y142500D02*
D03*
X1075000D02*
D03*
D118*
X702500Y230000D02*
D03*
D119*
X810000Y647500D02*
D03*
D120*
X832500Y417500D02*
D03*
D121*
X810000Y430000D02*
D03*
M02*
