G04*
G04 #@! TF.GenerationSoftware,Altium Limited,Altium Designer,18.1.7 (191)*
G04*
G04 Layer_Physical_Order=1*
G04 Layer_Color=255*
%FSLAX44Y44*%
%MOMM*%
G71*
G01*
G75*
%ADD10C,0.2000*%
%ADD12C,0.2500*%
%ADD14C,0.3000*%
%ADD15R,0.6000X0.6000*%
%ADD16R,0.8000X0.8000*%
%ADD17R,0.6000X0.6000*%
%ADD18R,2.2000X1.8000*%
%ADD19R,1.8500X5.2000*%
%ADD20R,3.4000X1.8000*%
%ADD21R,0.9800X0.9300*%
%ADD22R,1.5000X1.2000*%
%ADD23R,1.8000X0.6000*%
%ADD24R,1.8000X1.6000*%
%ADD25R,1.0000X2.1000*%
%ADD26R,1.2000X1.4000*%
%ADD27R,1.7000X0.6500*%
%ADD28O,1.7000X0.6500*%
%ADD29R,2.6000X1.7000*%
%ADD30R,1.7000X0.9000*%
%ADD31R,2.5000X0.9000*%
G04:AMPARAMS|DCode=32|XSize=0.3mm|YSize=0.8mm|CornerRadius=0.075mm|HoleSize=0mm|Usage=FLASHONLY|Rotation=180.000|XOffset=0mm|YOffset=0mm|HoleType=Round|Shape=RoundedRectangle|*
%AMROUNDEDRECTD32*
21,1,0.3000,0.6500,0,0,180.0*
21,1,0.1500,0.8000,0,0,180.0*
1,1,0.1500,-0.0750,0.3250*
1,1,0.1500,0.0750,0.3250*
1,1,0.1500,0.0750,-0.3250*
1,1,0.1500,-0.0750,-0.3250*
%
%ADD32ROUNDEDRECTD32*%
G04:AMPARAMS|DCode=33|XSize=0.3mm|YSize=0.8mm|CornerRadius=0.075mm|HoleSize=0mm|Usage=FLASHONLY|Rotation=90.000|XOffset=0mm|YOffset=0mm|HoleType=Round|Shape=RoundedRectangle|*
%AMROUNDEDRECTD33*
21,1,0.3000,0.6500,0,0,90.0*
21,1,0.1500,0.8000,0,0,90.0*
1,1,0.1500,0.3250,0.0750*
1,1,0.1500,0.3250,-0.0750*
1,1,0.1500,-0.3250,-0.0750*
1,1,0.1500,-0.3250,0.0750*
%
%ADD33ROUNDEDRECTD33*%
%ADD34R,0.8000X0.8000*%
%ADD35O,0.5000X1.0000*%
%ADD36O,1.0000X0.5000*%
%ADD37R,1.5000X1.3000*%
%ADD38R,0.4500X1.0000*%
%ADD39R,0.9300X0.9800*%
%ADD76C,0.2540*%
%ADD77R,1.0250X0.6000*%
%ADD78R,3.0000X4.5100*%
%ADD79C,0.4000*%
%ADD80C,0.5000*%
%ADD81C,2.0000*%
%ADD82C,1.0000*%
%ADD83R,3.5000X5.5000*%
%ADD84R,9.0000X11.5000*%
%ADD85R,5.0000X4.5000*%
%ADD86R,2.5000X4.5000*%
%ADD87R,8.0000X2.0000*%
%ADD88R,6.5000X2.0000*%
%ADD89R,5.5000X3.0000*%
%ADD90R,9.0000X1.0000*%
%ADD91R,3.0000X6.5000*%
%ADD92R,2.5000X3.0000*%
%ADD93R,4.5000X26.5000*%
%ADD94R,23.5000X3.5000*%
%ADD95R,8.0000X6.5000*%
%ADD96R,24.5000X4.5000*%
%ADD97R,9.0000X5.5000*%
%ADD98R,7.0000X22.5000*%
%ADD99R,4.0000X9.0000*%
%ADD100R,16.5000X4.0000*%
%ADD101R,17.5000X5.0000*%
%ADD102R,3.5000X3.0000*%
%ADD103R,3.5000X6.0000*%
%ADD104C,1.8000*%
%ADD105O,2.6000X2.4000*%
%ADD106C,2.6000*%
%ADD107C,1.5240*%
%ADD108O,2.4000X2.6000*%
%ADD109C,1.5900*%
%ADD110C,6.0000*%
%ADD111C,1.9000*%
%ADD112C,1.2000*%
%ADD113R,1.6000X1.6000*%
%ADD114C,0.5080*%
G36*
X610247Y885874D02*
X611864Y883508D01*
X611560Y882177D01*
X611438Y882015D01*
X608562D01*
X608440Y882177D01*
X608136Y883508D01*
X609753Y885874D01*
X609822Y885939D01*
X610178D01*
X610247Y885874D01*
D02*
G37*
G36*
X825000Y920000D02*
X1011539D01*
X1012278Y918009D01*
X1012386Y917460D01*
X1011665Y916381D01*
X1011391Y915000D01*
X1011665Y913619D01*
X1011941Y913206D01*
Y871454D01*
X1006000D01*
Y867549D01*
X980000D01*
X979025Y867355D01*
X978198Y866802D01*
X977645Y865975D01*
X977451Y865000D01*
Y859580D01*
X975500D01*
Y850580D01*
X975500Y850580D01*
Y849420D01*
X975500D01*
X975500Y848040D01*
Y840420D01*
X984500D01*
Y844961D01*
X986186Y846161D01*
X988460Y845039D01*
Y844270D01*
X995000D01*
X1001540D01*
Y849540D01*
X1001540D01*
X1000500Y851649D01*
Y862451D01*
X1006000D01*
Y856454D01*
X1024000D01*
Y860895D01*
X1031000D01*
Y856454D01*
X1049000D01*
Y860385D01*
X1060000D01*
X1060000Y820000D01*
X834500Y820000D01*
Y823040D01*
X834500Y824420D01*
X834500D01*
Y825580D01*
X834500D01*
Y834580D01*
X832549D01*
Y842446D01*
X832552Y842448D01*
X833335Y843619D01*
X833609Y845000D01*
X833335Y846381D01*
X832552Y847552D01*
X831381Y848335D01*
X830000Y848609D01*
X828619Y848335D01*
X827448Y847552D01*
X826665Y846381D01*
X826391Y845000D01*
X826665Y843619D01*
X827448Y842448D01*
X827451Y842446D01*
Y834580D01*
X825500D01*
Y829796D01*
X823211Y828696D01*
X820500Y830864D01*
Y837500D01*
X809500D01*
X807549Y838922D01*
Y842446D01*
X807552Y842448D01*
X808335Y843619D01*
X808609Y845000D01*
X808335Y846381D01*
X807552Y847552D01*
X806381Y848335D01*
X805000Y848609D01*
X803619Y848335D01*
X803206Y848059D01*
X791000D01*
X789829Y847826D01*
X788837Y847163D01*
X788837Y847163D01*
X787674Y846000D01*
X783326D01*
X779463Y849863D01*
X778471Y850526D01*
X777300Y850759D01*
X777300Y850759D01*
X753458D01*
X753335Y851381D01*
X752552Y852552D01*
X751381Y853335D01*
X750000Y853609D01*
X748619Y853335D01*
X747448Y852552D01*
X746665Y851381D01*
X746542Y850759D01*
X741400D01*
Y853850D01*
X728600D01*
Y842030D01*
X728600Y841599D01*
X727560Y839490D01*
X727560Y839441D01*
Y833570D01*
X735000D01*
X742440D01*
Y839441D01*
X742440Y839490D01*
X741400Y841599D01*
X741400Y842030D01*
Y844641D01*
X776000D01*
Y836919D01*
X774500Y835000D01*
X773460Y835000D01*
X745500D01*
Y815000D01*
X745922D01*
X745922Y815000D01*
X745922Y815000D01*
Y806689D01*
X745699Y806467D01*
X743107D01*
X742302Y807273D01*
X741655Y808918D01*
X742440Y810510D01*
X742440Y810559D01*
Y816430D01*
X735000D01*
X727560D01*
Y810559D01*
X727560Y810510D01*
X728600Y808401D01*
X728600Y807970D01*
Y796150D01*
X741400D01*
Y798222D01*
X747300D01*
X747300Y798222D01*
X748861Y798532D01*
X750184Y799416D01*
X752884Y802116D01*
X753768Y803439D01*
X754078Y805000D01*
X754078Y805000D01*
Y813160D01*
X755919Y815000D01*
X772420D01*
X774500Y815000D01*
X774960Y812651D01*
Y810270D01*
X784730D01*
Y816040D01*
X777795D01*
X776740Y817678D01*
X776575Y818580D01*
X776911Y819000D01*
X793684Y819000D01*
X795253Y816460D01*
X795043Y816040D01*
X787270D01*
Y809000D01*
Y801960D01*
X794911D01*
X797040Y801960D01*
X797451Y799590D01*
Y757549D01*
X776000D01*
Y758150D01*
X755000D01*
Y754393D01*
X752685Y753147D01*
X750540Y754248D01*
Y755620D01*
X746270D01*
Y750080D01*
X743730D01*
Y755620D01*
X736270D01*
Y750080D01*
X735000D01*
Y748810D01*
X729460D01*
Y745000D01*
X676580Y745000D01*
Y749500D01*
X672549D01*
Y750000D01*
X672355Y750975D01*
X671802Y751802D01*
X667614Y755990D01*
X667869Y756372D01*
X668044Y757250D01*
Y763750D01*
X667869Y764628D01*
X669722Y766428D01*
X669896Y766500D01*
X671615Y764781D01*
X672448Y762552D01*
X671665Y761381D01*
X671391Y760000D01*
X671665Y758619D01*
X672448Y757448D01*
X673619Y756665D01*
X675000Y756391D01*
X676391Y755000D01*
X676665Y753619D01*
X677448Y752448D01*
X678619Y751665D01*
X680000Y751391D01*
X681381Y751665D01*
X682552Y752448D01*
X683335Y753619D01*
X683609Y755000D01*
X683335Y756381D01*
X682552Y757552D01*
X682549Y757554D01*
Y765000D01*
X682355Y765975D01*
X681802Y766802D01*
X675049Y773556D01*
Y815865D01*
X676859Y816819D01*
X678956Y815352D01*
Y814250D01*
X679131Y813372D01*
X679564Y812500D01*
X679131Y811628D01*
X678956Y810750D01*
Y809250D01*
X679131Y808372D01*
X679628Y807628D01*
Y807372D01*
X679131Y806628D01*
X678956Y805750D01*
Y804250D01*
X679131Y803372D01*
X679628Y802628D01*
Y802372D01*
X679131Y801628D01*
X678956Y800750D01*
Y799250D01*
X679131Y798372D01*
X679564Y797500D01*
X679131Y796628D01*
X678956Y795750D01*
Y794250D01*
X679131Y793372D01*
X679628Y792628D01*
Y792372D01*
X679131Y791628D01*
X678956Y790750D01*
Y789250D01*
X679131Y788372D01*
X679628Y787628D01*
Y787372D01*
X679131Y786628D01*
X678956Y785750D01*
Y784250D01*
X679131Y783372D01*
X679628Y782628D01*
Y782372D01*
X679131Y781628D01*
X678956Y780750D01*
Y779250D01*
X679131Y778372D01*
X679628Y777628D01*
X680372Y777131D01*
X681250Y776956D01*
X687750D01*
X688628Y777131D01*
X688958Y777351D01*
X694459D01*
X694616Y777116D01*
X695939Y776232D01*
X697500Y775922D01*
X702500D01*
X704061Y776232D01*
X705384Y777116D01*
X706268Y778439D01*
X706578Y780000D01*
X707332Y780963D01*
X709616Y782116D01*
X710939Y781232D01*
X712500Y780922D01*
X717500D01*
X719061Y781232D01*
X720384Y782116D01*
X721268Y783439D01*
X721578Y785000D01*
X721268Y786561D01*
X720384Y787884D01*
X719205Y788671D01*
X719061Y789798D01*
Y790203D01*
X719205Y791329D01*
X720384Y792116D01*
X721268Y793439D01*
X721578Y795000D01*
X721268Y796561D01*
X720384Y797884D01*
X719205Y798671D01*
X719061Y799798D01*
Y800203D01*
X719205Y801329D01*
X720384Y802116D01*
X721268Y803439D01*
X721578Y805000D01*
X721268Y806561D01*
X720384Y807884D01*
X719205Y808671D01*
X719061Y809798D01*
Y810203D01*
X719205Y811329D01*
X720384Y812116D01*
X721268Y813439D01*
X721578Y815000D01*
X721268Y816561D01*
X720384Y817884D01*
X719206Y818671D01*
X719061Y819798D01*
Y820202D01*
X719206Y821329D01*
X720384Y822116D01*
X721268Y823439D01*
X721578Y825000D01*
X721268Y826561D01*
X720384Y827884D01*
X719205Y828671D01*
X719061Y829798D01*
Y830203D01*
X719205Y831329D01*
X720384Y832116D01*
X721268Y833439D01*
X721578Y835000D01*
X721268Y836561D01*
X720384Y837884D01*
X719205Y838671D01*
X719061Y839798D01*
Y840203D01*
X719205Y841329D01*
X720384Y842116D01*
X721268Y843439D01*
X721578Y845000D01*
X721268Y846561D01*
X720384Y847884D01*
X719061Y848768D01*
X717500Y849078D01*
X715002D01*
X714620Y851460D01*
X714620Y851618D01*
Y855730D01*
X709080D01*
Y857000D01*
X707810D01*
Y862540D01*
X705529D01*
X703540Y862540D01*
X701431Y861500D01*
X694420D01*
X694420Y861500D01*
X692187Y862240D01*
X691896Y862435D01*
X690920Y862629D01*
X685080D01*
X684678Y862549D01*
X670000D01*
X669025Y862355D01*
X668198Y861802D01*
X667645Y860975D01*
X667451Y860000D01*
Y836056D01*
X658198Y826802D01*
X657645Y825975D01*
X657451Y825000D01*
Y777549D01*
X602549D01*
Y805000D01*
X602549Y805000D01*
Y855000D01*
X602355Y855975D01*
X601802Y856802D01*
X600975Y857355D01*
X600000Y857549D01*
X592549D01*
Y865644D01*
X593730Y867207D01*
Y874500D01*
X596270D01*
Y867999D01*
X597034Y868151D01*
X598122Y868878D01*
X598278Y869112D01*
X598372Y869131D01*
X599250Y868956D01*
X600750D01*
X601628Y869131D01*
X602500Y869564D01*
X603372Y869131D01*
X604250Y868956D01*
X605750D01*
X606628Y869131D01*
X606722Y869112D01*
X606878Y868878D01*
X607966Y868151D01*
X608730Y867999D01*
Y874500D01*
X611270D01*
Y867999D01*
X612034Y868151D01*
X613122Y868878D01*
X613278Y869112D01*
X613372Y869131D01*
X614250Y868956D01*
X615750D01*
X616628Y869131D01*
X617500Y869564D01*
X618372Y869131D01*
X619250Y868956D01*
X620750D01*
X621628Y869131D01*
X622372Y869628D01*
X622628D01*
X623372Y869131D01*
X624250Y868956D01*
X625750D01*
X626628Y869131D01*
X627372Y869628D01*
X627628D01*
X628372Y869131D01*
X629250Y868956D01*
X630750D01*
X631628Y869131D01*
X632372Y869628D01*
X632628D01*
X633372Y869131D01*
X634250Y868956D01*
X635750D01*
X636628Y869131D01*
X637372Y869628D01*
X637628D01*
X638372Y869131D01*
X639250Y868956D01*
X640750D01*
X641628Y869131D01*
X642372Y869628D01*
X642628D01*
X643372Y869131D01*
X644250Y868956D01*
X645750D01*
X646628Y869131D01*
X647372Y869628D01*
X647628D01*
X648372Y869131D01*
X649250Y868956D01*
X650750D01*
X651628Y869131D01*
X652372Y869628D01*
X652628D01*
X653372Y869131D01*
X654250Y868956D01*
X655750D01*
X656628Y869131D01*
X657372Y869628D01*
X657628D01*
X658372Y869131D01*
X659250Y868956D01*
X660750D01*
X661628Y869131D01*
X662372Y869628D01*
X662628D01*
X663372Y869131D01*
X664250Y868956D01*
X665750D01*
X666628Y869131D01*
X667372Y869628D01*
X667869Y870372D01*
X668044Y871250D01*
Y877750D01*
X667869Y878628D01*
X667549Y879108D01*
Y882451D01*
X757430D01*
X759700Y881800D01*
X759700Y879911D01*
Y862800D01*
X778700D01*
Y879911D01*
X778700Y881800D01*
X780970Y882451D01*
X782830D01*
X785100Y881800D01*
X785100Y879911D01*
Y862800D01*
X804100D01*
Y879911D01*
X804100Y881800D01*
X806370Y882451D01*
X808230D01*
X810108Y881912D01*
X810500Y879961D01*
Y862800D01*
X829500D01*
Y881800D01*
X813997D01*
X812945Y884340D01*
X816802Y888198D01*
X816804Y888200D01*
X829500D01*
Y907200D01*
X810500D01*
Y889105D01*
X808944Y887549D01*
X806370D01*
X804100Y888200D01*
X804100Y890089D01*
Y907200D01*
X785100D01*
Y890089D01*
X785100Y888200D01*
X782830Y887549D01*
X780970D01*
X778700Y888200D01*
X778700Y890089D01*
Y907200D01*
X759700D01*
Y890089D01*
X759700Y888200D01*
X757430Y887549D01*
X669078D01*
Y892500D01*
X668768Y894061D01*
X667884Y895384D01*
X666561Y896268D01*
X665000Y896578D01*
X664037Y897332D01*
X662884Y899616D01*
X663768Y900939D01*
X664078Y902500D01*
Y907500D01*
X663768Y909061D01*
X662884Y910384D01*
X661561Y911268D01*
X660000Y911578D01*
X658439Y911268D01*
X657116Y910384D01*
X656329Y909205D01*
X655203Y909061D01*
X654797D01*
X653671Y909205D01*
X652884Y910384D01*
X651561Y911268D01*
X650000Y911578D01*
X648439Y911268D01*
X647116Y910384D01*
X646329Y909205D01*
X645202Y909061D01*
X644797D01*
X643671Y909205D01*
X642884Y910384D01*
X641561Y911268D01*
X640000Y911578D01*
X638439Y911268D01*
X637116Y910384D01*
X636329Y909206D01*
X635202Y909061D01*
X634798D01*
X633671Y909206D01*
X632884Y910384D01*
X631561Y911268D01*
X630000Y911578D01*
X628439Y911268D01*
X627116Y910384D01*
X626329Y909205D01*
X625203Y909061D01*
X624798D01*
X623671Y909205D01*
X622884Y910384D01*
X621561Y911268D01*
X620000Y911578D01*
X618439Y911268D01*
X617116Y910384D01*
X617037Y910265D01*
X616879Y910210D01*
X614110Y910421D01*
X613634Y911134D01*
X611967Y912248D01*
X611270Y912386D01*
Y905000D01*
X608730D01*
Y912386D01*
X608033Y912248D01*
X606366Y911134D01*
X605890Y910421D01*
X603121Y910210D01*
X602963Y910265D01*
X602884Y910384D01*
X601561Y911268D01*
X600000Y911578D01*
X598439Y911268D01*
X597116Y910384D01*
X596232Y909061D01*
X595922Y907500D01*
Y902500D01*
X596232Y900939D01*
X597116Y899616D01*
X597451Y899392D01*
Y895540D01*
X594350D01*
Y890000D01*
Y884460D01*
X595102D01*
X595508Y883644D01*
X594448Y881504D01*
X593963Y881047D01*
X592966Y880849D01*
X591878Y880122D01*
X591722Y879888D01*
X591628Y879870D01*
X590750Y880044D01*
X589250D01*
X588372Y879870D01*
X587628Y879372D01*
X587131Y878628D01*
X586956Y877750D01*
Y877049D01*
X577888D01*
X577552Y877552D01*
X577549Y877554D01*
Y883321D01*
X578420Y885500D01*
X587420D01*
X587540Y884460D01*
X591810D01*
Y890000D01*
Y895540D01*
X587540D01*
X587420Y894500D01*
X578420D01*
Y892549D01*
X575000D01*
X574580Y894500D01*
X567569D01*
X565460Y895540D01*
X563471Y895540D01*
X561190D01*
Y890000D01*
Y884460D01*
X563471D01*
X565460Y884460D01*
X567569Y885500D01*
X572451D01*
Y877554D01*
X572448Y877552D01*
X571665Y876381D01*
X571391Y875000D01*
X571665Y873619D01*
X572448Y872448D01*
X573619Y871665D01*
X575000Y871391D01*
X576381Y871665D01*
X576809Y871951D01*
X586956D01*
Y871250D01*
X587131Y870372D01*
X587451Y869893D01*
Y857549D01*
X580000D01*
X580000Y857549D01*
X574688D01*
X574208Y857869D01*
X573330Y858044D01*
X566830D01*
X565952Y857869D01*
X565208Y857372D01*
X565089Y857194D01*
X562549Y857789D01*
Y860000D01*
X562355Y860975D01*
X561802Y861802D01*
X561802D01*
X560975Y862355D01*
X560000Y862549D01*
X555500D01*
Y879500D01*
X540500D01*
X540500Y879500D01*
X538500D01*
Y879500D01*
X537960Y879500D01*
X532469D01*
Y883328D01*
X534540Y884460D01*
X536529Y884460D01*
X538810D01*
Y890000D01*
Y895540D01*
X536529D01*
X534540Y895540D01*
X532431Y894500D01*
X525420D01*
Y885500D01*
X527371D01*
Y879500D01*
X523500D01*
Y862500D01*
X533895D01*
X536355Y860040D01*
X535303Y857500D01*
X523500D01*
Y840500D01*
X537960D01*
X538500Y840500D01*
X540500D01*
X541040Y840500D01*
X547451D01*
Y832549D01*
X544580D01*
Y834500D01*
X537569D01*
X535460Y835540D01*
X533471Y835540D01*
X531190D01*
Y830000D01*
Y824460D01*
X533471D01*
X535460Y824460D01*
X537569Y825500D01*
X544580D01*
Y827451D01*
X554558D01*
X556296Y825126D01*
X556306Y824911D01*
X548198Y816802D01*
X547645Y815975D01*
X547451Y815000D01*
Y811056D01*
X546803Y810407D01*
X544580Y809500D01*
Y809500D01*
X544580Y809500D01*
X537569D01*
X535460Y810540D01*
X533471Y810540D01*
X531190D01*
Y805000D01*
Y799460D01*
X533471D01*
X535460Y799460D01*
X537569Y800500D01*
X544580D01*
Y802451D01*
X545000D01*
X545975Y802645D01*
X546802Y803198D01*
X551802Y808198D01*
X552355Y809025D01*
X552549Y810000D01*
Y813944D01*
X559996Y821391D01*
X560000Y821391D01*
X561381Y821665D01*
X562342Y822308D01*
X563052Y822024D01*
X564536Y820750D01*
Y819250D01*
X564711Y818372D01*
X565208Y817628D01*
Y817372D01*
X564711Y816628D01*
X564536Y815750D01*
Y814250D01*
X563051Y812976D01*
X562343Y812692D01*
X561381Y813335D01*
X560000Y813609D01*
X558619Y813335D01*
X557448Y812552D01*
X556665Y811381D01*
X556391Y810000D01*
X556665Y808619D01*
X557448Y807448D01*
X558619Y806665D01*
X560000Y806391D01*
X561381Y806665D01*
X562342Y807308D01*
X563052Y807024D01*
X564536Y805750D01*
Y804250D01*
X564711Y803372D01*
X564692Y803278D01*
X564458Y803122D01*
X563731Y802034D01*
X563579Y801270D01*
X570080D01*
Y798730D01*
X562787D01*
X561224Y797549D01*
X560000D01*
X559025Y797355D01*
X558198Y796802D01*
X548944Y787549D01*
X544580D01*
Y789500D01*
X537569D01*
X535460Y790540D01*
X533471Y790540D01*
X531190D01*
Y785000D01*
X529920D01*
Y783730D01*
X524380D01*
Y779460D01*
X525420D01*
Y770500D01*
X527371D01*
Y765500D01*
X522500D01*
Y754500D01*
X532920D01*
X533351Y754500D01*
X535460Y753460D01*
X536574Y750920D01*
X536391Y750000D01*
X534558Y747549D01*
X522554D01*
X522552Y747552D01*
X521381Y748335D01*
X520000Y748609D01*
X518619Y748335D01*
X517448Y747552D01*
X516665Y746381D01*
X516391Y745000D01*
X516665Y743619D01*
X517448Y742448D01*
X518619Y741665D01*
X520000Y741391D01*
X521381Y741665D01*
X522552Y742448D01*
X522554Y742451D01*
X529558D01*
X531391Y740000D01*
X531665Y738619D01*
X532448Y737448D01*
X533619Y736665D01*
X535000Y736391D01*
X536381Y736665D01*
X537552Y737448D01*
X537554Y737451D01*
X562446D01*
X562448Y737448D01*
X563619Y736665D01*
X565000Y736391D01*
X566381Y736665D01*
X567552Y737448D01*
X568335Y738619D01*
X568481Y739355D01*
X570262Y740406D01*
X572451Y738976D01*
Y735608D01*
X572116Y735384D01*
X571232Y734061D01*
X571072Y733255D01*
X569717Y731276D01*
X569717Y731276D01*
Y731276D01*
X568382Y731145D01*
X568335Y731381D01*
X567552Y732552D01*
X566381Y733335D01*
X565000Y733609D01*
X563619Y733335D01*
X562448Y732552D01*
X562446Y732549D01*
X527554D01*
X527552Y732552D01*
X526381Y733335D01*
X525000Y733609D01*
X523619Y733335D01*
X522448Y732552D01*
X521665Y731381D01*
X521391Y730000D01*
X521665Y728619D01*
X522448Y727448D01*
X523619Y726665D01*
X525000Y726391D01*
X526381Y726665D01*
X527552Y727448D01*
X527554Y727451D01*
X562446D01*
X562448Y727448D01*
X563619Y726665D01*
X565000Y726391D01*
X566381Y726665D01*
X567552Y727448D01*
X568335Y728619D01*
X568382Y728855D01*
X569717Y728724D01*
Y728724D01*
X569717Y728724D01*
X571072Y726745D01*
X571232Y725939D01*
X572116Y724616D01*
X573439Y723732D01*
X575000Y723422D01*
X576561Y723732D01*
X577884Y724616D01*
X578768Y725939D01*
X579078Y727500D01*
Y732500D01*
X578768Y734061D01*
X577884Y735384D01*
X577549Y735608D01*
Y753944D01*
X581056Y757451D01*
X586956D01*
Y757250D01*
X587131Y756372D01*
X587628Y755628D01*
X588372Y755131D01*
X589250Y754956D01*
X590750D01*
X591628Y755131D01*
X591722Y755112D01*
X591878Y754878D01*
X592966Y754151D01*
X593730Y753999D01*
Y760500D01*
Y767001D01*
X592966Y766849D01*
X591878Y766122D01*
X591722Y765888D01*
X591628Y765870D01*
X590750Y766044D01*
X589250D01*
X588372Y765870D01*
X587628Y765372D01*
X587131Y764628D01*
X586956Y763750D01*
Y762549D01*
X580000D01*
X579025Y762355D01*
X578198Y761802D01*
X573198Y756802D01*
X572645Y755975D01*
X572451Y755000D01*
Y751024D01*
X570262Y749594D01*
X568481Y750645D01*
X568335Y751381D01*
X567552Y752552D01*
X566381Y753335D01*
X565000Y753609D01*
X563619Y753335D01*
X562448Y752552D01*
X562446Y752549D01*
X550703D01*
X548540Y753460D01*
Y758730D01*
X542000D01*
Y760000D01*
X540730D01*
Y766540D01*
X535609D01*
X535460Y766540D01*
X535009Y766318D01*
X534142Y766857D01*
X533816Y770051D01*
X534265Y770500D01*
X536960Y770500D01*
X543509D01*
X545418Y768589D01*
X545368Y767000D01*
X545000Y766540D01*
X543270D01*
Y761270D01*
X548540D01*
Y764091D01*
X550000Y766391D01*
X551381Y766665D01*
X552552Y767448D01*
X553335Y768619D01*
X553609Y770000D01*
X553609Y770004D01*
X561056Y777451D01*
X565473D01*
X565952Y777131D01*
X566830Y776956D01*
X573330D01*
X574208Y777131D01*
X574688Y777451D01*
X577446D01*
X577448Y777448D01*
X578619Y776665D01*
X580000Y776391D01*
X581381Y776665D01*
X582552Y777448D01*
X583335Y778619D01*
X583609Y780000D01*
X585442Y782451D01*
X592446D01*
X592448Y782448D01*
X593619Y781665D01*
X595000Y781391D01*
X597451Y779558D01*
Y775000D01*
X597451Y775000D01*
X597451Y775000D01*
Y769356D01*
X596270Y767793D01*
Y760500D01*
Y753040D01*
X597121Y751923D01*
X596755Y750566D01*
X594070Y749746D01*
X592460Y750540D01*
X590471Y750540D01*
X588190D01*
Y745000D01*
Y739460D01*
X590471D01*
X592460Y739460D01*
X594569Y740500D01*
X601580D01*
X602451Y738321D01*
Y735608D01*
X602116Y735384D01*
X601232Y734061D01*
X600922Y732500D01*
Y727500D01*
X601232Y725939D01*
X602116Y724616D01*
X603439Y723732D01*
X605000Y723422D01*
X606561Y723732D01*
X607460Y724333D01*
X609031Y723854D01*
X610000Y723211D01*
X610000Y494289D01*
X609108Y493697D01*
X607460Y493308D01*
X577884Y522884D01*
X576561Y523768D01*
X575000Y524078D01*
X575000Y524078D01*
X544000D01*
Y526454D01*
X526000D01*
Y524078D01*
X500000D01*
X500000Y524078D01*
Y920000D01*
X620000D01*
X825000Y920000D01*
D02*
G37*
G36*
X678956Y855750D02*
Y854250D01*
X679131Y853372D01*
X679112Y853278D01*
X678878Y853122D01*
X678151Y852034D01*
X677999Y851270D01*
X684500D01*
X691001D01*
X690849Y852034D01*
X690914Y852639D01*
X694145Y853552D01*
X694420Y853392D01*
Y852500D01*
X701431D01*
X703540Y851460D01*
X705529Y851460D01*
X708959D01*
X710232Y848920D01*
X710000Y848609D01*
X708619Y848335D01*
X707448Y847552D01*
X707446Y847549D01*
X693356D01*
X691793Y848730D01*
X684500D01*
X677999D01*
X678151Y847966D01*
X678878Y846878D01*
X679112Y846722D01*
X679131Y846628D01*
X678956Y845750D01*
Y844250D01*
X679131Y843372D01*
X679628Y842628D01*
Y842372D01*
X679131Y841628D01*
X678956Y840750D01*
Y839250D01*
X679131Y838372D01*
X679564Y837500D01*
X679131Y836628D01*
X678956Y835750D01*
Y834250D01*
X679131Y833372D01*
X679628Y832628D01*
Y832372D01*
X679131Y831628D01*
X678956Y830750D01*
Y829250D01*
X676858Y827549D01*
X671000D01*
X670025Y827355D01*
X669198Y826802D01*
X666492Y824097D01*
X663955Y824453D01*
X663578Y824702D01*
X663506Y824902D01*
X671802Y833198D01*
X672355Y834025D01*
X672549Y835000D01*
Y857451D01*
X676858D01*
X678956Y855750D01*
D02*
G37*
G36*
X592448Y802448D02*
X593619Y801665D01*
X593778Y801634D01*
X594500Y800000D01*
X593778Y798366D01*
X593619Y798335D01*
X592448Y797552D01*
X592446Y797549D01*
X579715D01*
X577595Y799534D01*
Y801438D01*
X578936Y802451D01*
X592446D01*
X592448Y802448D01*
D02*
G37*
G36*
X1655000Y845000D02*
X1655000Y785596D01*
X1654580Y784500D01*
X1646015Y784500D01*
X1645460Y785540D01*
X1645025Y785540D01*
Y785540D01*
X1641190D01*
Y780000D01*
Y774460D01*
X1645025D01*
X1645025Y774460D01*
X1645460Y774460D01*
X1646015Y775500D01*
X1646730Y775500D01*
X1653730D01*
X1655000Y774404D01*
Y769500D01*
X1646420D01*
Y769500D01*
X1645500Y769580D01*
Y769580D01*
X1645183Y769580D01*
X1636500D01*
Y767549D01*
X1625000D01*
Y770850D01*
X1604000D01*
Y761850D01*
X1625000D01*
Y762451D01*
X1636500D01*
Y760580D01*
X1636500D01*
Y759420D01*
X1636500D01*
Y757549D01*
X1625000D01*
Y758150D01*
X1604000D01*
Y749150D01*
X1625000D01*
Y752451D01*
X1636500D01*
Y750420D01*
X1645183D01*
X1645500Y750420D01*
Y750420D01*
X1646420Y750500D01*
Y750500D01*
X1655000D01*
Y745540D01*
X1651350D01*
Y740000D01*
Y734460D01*
X1655000D01*
Y728569D01*
X1618569D01*
Y736450D01*
X1625000D01*
Y737451D01*
X1635420D01*
Y735500D01*
X1644420D01*
X1644540Y734460D01*
X1648810D01*
Y740000D01*
Y745540D01*
X1644540D01*
X1644420Y744500D01*
X1635420D01*
Y742549D01*
X1630000D01*
X1630000Y742549D01*
X1625000D01*
Y745450D01*
X1604000D01*
Y736450D01*
X1611431D01*
Y728569D01*
X1578569D01*
Y825000D01*
X1578297Y826366D01*
X1577523Y827523D01*
X1576366Y828297D01*
X1575000Y828569D01*
X1448569Y828569D01*
Y880000D01*
X1448297Y881366D01*
X1447523Y882523D01*
X1446366Y883297D01*
X1445000Y883569D01*
X1235569D01*
Y888000D01*
X1235297Y889366D01*
X1234523Y890523D01*
X1233850Y890973D01*
Y891400D01*
X1232848D01*
X1232000Y891569D01*
X1231153Y891400D01*
X1221550D01*
Y878600D01*
X1228431D01*
Y872000D01*
X1222000D01*
Y860000D01*
X1241190D01*
X1242000Y860000D01*
X1242460Y858921D01*
Y857040D01*
X1237270D01*
Y850000D01*
Y842960D01*
X1241682D01*
X1242018Y842262D01*
X1241305Y841000D01*
X1222000D01*
Y838569D01*
X1219000D01*
Y843546D01*
X1201000D01*
Y834615D01*
X1168569D01*
Y888500D01*
X1169600D01*
Y912500D01*
X1160000D01*
Y920000D01*
X1365000Y920000D01*
X1655000D01*
Y845000D01*
D02*
G37*
G36*
X1161431Y831046D02*
X1161703Y829680D01*
X1162477Y828523D01*
X1163634Y827749D01*
X1165000Y827477D01*
X1208732D01*
Y821400D01*
X1206150D01*
Y808600D01*
X1218450D01*
Y821400D01*
X1215869D01*
Y828546D01*
X1219000D01*
Y831431D01*
X1222000D01*
Y829000D01*
X1242000D01*
Y832451D01*
X1258944D01*
X1263198Y828198D01*
X1264025Y827645D01*
X1265000Y827451D01*
X1270420D01*
Y825500D01*
X1279310D01*
X1279420Y825500D01*
X1280580D01*
X1280690Y825500D01*
X1289580D01*
Y834500D01*
X1287605D01*
X1287594Y836600D01*
X1288489Y837500D01*
X1290500D01*
Y848500D01*
X1279500D01*
Y837500D01*
X1282491D01*
X1282502Y835400D01*
X1281607Y834500D01*
X1280690D01*
X1280580Y834500D01*
X1279420D01*
X1279310Y834500D01*
X1270420D01*
Y832549D01*
X1266056D01*
X1261802Y836802D01*
X1260975Y837355D01*
X1260000Y837549D01*
X1243239D01*
X1243146Y837690D01*
X1243163Y837866D01*
X1243829Y838960D01*
X1256730D01*
Y850000D01*
Y861040D01*
X1243270D01*
X1242460Y861040D01*
X1242000Y862120D01*
Y872000D01*
X1235569D01*
Y876431D01*
X1441431D01*
Y828569D01*
X1315000D01*
X1313634Y828297D01*
X1312477Y827523D01*
X1311703Y826366D01*
X1311431Y825000D01*
Y783550D01*
X1310094D01*
X1310000Y783569D01*
X1289580D01*
Y784500D01*
X1280580D01*
X1280460Y785540D01*
X1276190D01*
Y780000D01*
X1274920D01*
Y778730D01*
X1269380D01*
Y774460D01*
X1270420D01*
Y765540D01*
X1269380D01*
Y761270D01*
X1274920D01*
Y758730D01*
X1269380D01*
Y754460D01*
X1270420D01*
Y752549D01*
X1265000D01*
Y790000D01*
X1170640D01*
Y798230D01*
X1163100D01*
Y799500D01*
X1161830D01*
Y812540D01*
X1160000D01*
Y888500D01*
X1161431D01*
Y831046D01*
D02*
G37*
G36*
X1325000Y740000D02*
X1322040D01*
Y746490D01*
X1311770D01*
Y740950D01*
X1309230D01*
Y746490D01*
X1301359D01*
X1301167Y747069D01*
X1301147Y747760D01*
X1301802Y748198D01*
X1302755Y749150D01*
X1321000D01*
Y758150D01*
X1300000D01*
Y753605D01*
X1298944Y752549D01*
X1289580D01*
Y754500D01*
X1289580Y754500D01*
Y755500D01*
X1289580D01*
X1289580Y755770D01*
Y757451D01*
X1290000D01*
X1290975Y757645D01*
X1291802Y758198D01*
X1297406Y763801D01*
X1300000D01*
Y761850D01*
X1321000D01*
Y770850D01*
X1300000D01*
Y768899D01*
X1296350D01*
X1295375Y768705D01*
X1294548Y768152D01*
X1291890Y765495D01*
X1290620Y766021D01*
Y768730D01*
X1285080D01*
Y771270D01*
X1290620D01*
Y775540D01*
X1291521Y776431D01*
X1300000D01*
Y774550D01*
X1321000D01*
Y783550D01*
X1318569D01*
Y821431D01*
X1325000D01*
X1325000Y740000D01*
D02*
G37*
G36*
X661937Y769458D02*
X661270Y768111D01*
Y760500D01*
X658730D01*
Y767001D01*
X657966Y766849D01*
X656878Y766122D01*
X656722Y765888D01*
X656628Y765870D01*
X655750Y766044D01*
X654250D01*
X653372Y765870D01*
X652500Y765436D01*
X651628Y765870D01*
X650750Y766044D01*
X649250D01*
X648372Y765870D01*
X647500Y765436D01*
X646628Y765870D01*
X645750Y766044D01*
X644250D01*
X643372Y765870D01*
X642500Y765436D01*
X641628Y765870D01*
X640750Y766044D01*
X639250D01*
X638372Y765870D01*
X637500Y765436D01*
X636628Y765870D01*
X635750Y766044D01*
X634250D01*
X633372Y765870D01*
X632628Y765372D01*
X632372D01*
X631628Y765870D01*
X630750Y766044D01*
X629250D01*
X628372Y765870D01*
X627628Y765372D01*
X627372D01*
X626628Y765870D01*
X625750Y766044D01*
X624250D01*
X623372Y765870D01*
X622628Y765372D01*
X622372D01*
X621628Y765870D01*
X620750Y766044D01*
X619250D01*
X618372Y765870D01*
X617628Y765372D01*
X617372D01*
X616628Y765870D01*
X615750Y766044D01*
X614250D01*
X613372Y765870D01*
X612500Y765436D01*
X611628Y765870D01*
X610750Y766044D01*
X609250D01*
X608372Y765870D01*
X607500Y765436D01*
X606628Y765870D01*
X605750Y766044D01*
X604250D01*
X602549Y768142D01*
Y772451D01*
X658944D01*
X661937Y769458D01*
D02*
G37*
G36*
X815000Y745000D02*
X807549D01*
Y809297D01*
X808460Y811460D01*
X815000D01*
X815000Y745000D01*
D02*
G37*
G36*
X790000Y645000D02*
X765000D01*
X765000Y675000D01*
X790000Y675000D01*
Y645000D01*
D02*
G37*
G36*
X678170Y574747D02*
X682150D01*
X684409Y575196D01*
X686324Y576476D01*
X687604Y578391D01*
X687735Y579049D01*
X690275Y578799D01*
Y567500D01*
X666275D01*
Y574223D01*
X668815Y575581D01*
X669391Y575196D01*
X671650Y574747D01*
X675630D01*
Y580650D01*
X678170D01*
Y574747D01*
D02*
G37*
G36*
X600922Y488311D02*
Y475000D01*
Y466500D01*
X600800D01*
Y442500D01*
X610000D01*
X610000Y300000D01*
X500000Y300000D01*
Y515922D01*
X500000Y515922D01*
X526000D01*
Y511454D01*
X544000D01*
Y515922D01*
X573311D01*
X600922Y488311D01*
D02*
G37*
G36*
X678170Y324747D02*
X682150D01*
X684409Y325196D01*
X686324Y326476D01*
X687604Y328391D01*
X687735Y329049D01*
X690275Y328799D01*
Y317500D01*
X666275D01*
Y324223D01*
X668815Y325581D01*
X669391Y325196D01*
X671650Y324747D01*
X675630D01*
Y330650D01*
X678170D01*
Y324747D01*
D02*
G37*
G36*
X1045468Y675000D02*
X1046316Y673730D01*
X1045793Y672467D01*
X1045469Y670000D01*
X1045793Y667533D01*
X1046746Y665234D01*
X1048260Y663260D01*
X1050234Y661746D01*
X1052533Y660793D01*
X1055000Y660469D01*
X1057467Y660793D01*
X1059766Y661746D01*
X1061740Y663260D01*
X1063254Y665234D01*
X1064207Y667533D01*
X1064531Y670000D01*
X1064207Y672467D01*
X1063684Y673730D01*
X1064532Y675000D01*
X1115000Y675000D01*
X1285000Y505000D01*
X1285000Y255000D01*
X1352231D01*
X1352381Y253730D01*
X1351392Y253493D01*
X1347354Y251820D01*
X1343627Y249536D01*
X1340303Y246697D01*
X1337464Y243373D01*
X1335180Y239646D01*
X1333508Y235608D01*
X1332487Y231358D01*
X1332144Y227000D01*
X1332487Y222642D01*
X1333508Y218392D01*
X1335180Y214354D01*
X1337464Y210627D01*
X1340303Y207303D01*
X1343627Y204464D01*
X1347354Y202180D01*
X1351392Y200508D01*
X1355642Y199487D01*
X1360000Y199144D01*
X1364358Y199487D01*
X1368608Y200508D01*
X1372646Y202180D01*
X1376373Y204464D01*
X1379697Y207303D01*
X1382536Y210627D01*
X1384820Y214354D01*
X1386492Y218392D01*
X1387513Y222642D01*
X1387856Y227000D01*
X1387513Y231358D01*
X1386492Y235608D01*
X1384820Y239646D01*
X1382536Y243373D01*
X1379697Y246697D01*
X1376373Y249536D01*
X1372646Y251820D01*
X1368608Y253493D01*
X1367619Y253730D01*
X1367769Y255000D01*
X1542231Y255000D01*
X1542381Y253730D01*
X1541392Y253493D01*
X1537354Y251820D01*
X1533627Y249536D01*
X1530303Y246697D01*
X1527464Y243373D01*
X1525180Y239646D01*
X1523508Y235608D01*
X1522487Y231358D01*
X1522144Y227000D01*
X1522487Y222642D01*
X1523508Y218392D01*
X1525180Y214354D01*
X1527464Y210627D01*
X1530303Y207303D01*
X1533627Y204464D01*
X1537354Y202180D01*
X1541392Y200508D01*
X1545642Y199487D01*
X1550000Y199144D01*
X1554358Y199487D01*
X1558608Y200508D01*
X1562646Y202180D01*
X1566373Y204464D01*
X1569697Y207303D01*
X1572536Y210627D01*
X1574820Y214354D01*
X1576492Y218392D01*
X1577513Y222642D01*
X1577856Y227000D01*
X1577513Y231358D01*
X1576492Y235608D01*
X1574820Y239646D01*
X1572536Y243373D01*
X1569697Y246697D01*
X1566373Y249536D01*
X1562646Y251820D01*
X1558608Y253493D01*
X1557619Y253730D01*
X1557769Y255000D01*
X1729299D01*
X1729551Y253730D01*
X1727354Y252820D01*
X1723627Y250536D01*
X1720303Y247697D01*
X1717464Y244373D01*
X1715180Y240646D01*
X1713508Y236608D01*
X1712487Y232358D01*
X1712144Y228000D01*
X1712487Y223642D01*
X1713508Y219392D01*
X1715180Y215354D01*
X1717464Y211627D01*
X1720303Y208303D01*
X1723627Y205464D01*
X1727354Y203180D01*
X1731392Y201507D01*
X1735642Y200487D01*
X1740000Y200144D01*
X1744358Y200487D01*
X1748608Y201507D01*
X1752646Y203180D01*
X1756373Y205464D01*
X1759697Y208303D01*
X1762536Y211627D01*
X1764820Y215354D01*
X1766492Y219392D01*
X1767513Y223642D01*
X1767856Y228000D01*
X1767513Y232358D01*
X1766492Y236608D01*
X1764820Y240646D01*
X1762536Y244373D01*
X1759697Y247697D01*
X1756373Y250536D01*
X1752646Y252820D01*
X1750449Y253730D01*
X1750701Y255000D01*
X1780000D01*
X1780000Y110000D01*
X1697784Y110000D01*
X1697762Y110111D01*
X1697745Y110110D01*
X1697431Y114903D01*
X1696081Y121687D01*
X1693858Y128237D01*
X1690798Y134442D01*
X1686955Y140193D01*
X1682394Y145394D01*
X1677193Y149955D01*
X1671442Y153798D01*
X1665237Y156858D01*
X1658687Y159081D01*
X1651903Y160431D01*
X1645000Y160883D01*
X1638097Y160431D01*
X1631313Y159081D01*
X1624763Y156858D01*
X1618558Y153798D01*
X1612807Y149955D01*
X1607606Y145394D01*
X1603045Y140193D01*
X1599202Y134442D01*
X1596142Y128237D01*
X1593919Y121687D01*
X1592569Y114903D01*
X1592255Y110110D01*
X1592238Y110111D01*
X1592216Y110000D01*
X1127784Y110000D01*
X1127762Y110111D01*
X1127745Y110110D01*
X1127431Y114903D01*
X1126081Y121687D01*
X1123858Y128237D01*
X1120798Y134442D01*
X1116955Y140193D01*
X1112394Y145394D01*
X1107193Y149955D01*
X1101442Y153798D01*
X1095238Y156858D01*
X1088687Y159081D01*
X1081903Y160431D01*
X1075000Y160883D01*
X1068097Y160431D01*
X1061313Y159081D01*
X1054762Y156858D01*
X1048558Y153798D01*
X1042807Y149955D01*
X1037606Y145394D01*
X1033045Y140193D01*
X1029202Y134442D01*
X1026142Y128237D01*
X1023919Y121687D01*
X1022569Y114903D01*
X1022255Y110110D01*
X1022238Y110111D01*
X1022216Y110000D01*
X815000Y110000D01*
X815000Y210000D01*
X825000Y220000D01*
Y228460D01*
X832730D01*
Y240000D01*
Y251540D01*
X825000D01*
Y263460D01*
X832730D01*
Y275000D01*
X834000D01*
Y276270D01*
X847540D01*
Y285000D01*
X1105000Y285000D01*
X1105000Y410000D01*
X925000D01*
Y675000D01*
X1045468Y675000D01*
D02*
G37*
%LPC*%
G36*
X541350Y895540D02*
Y891270D01*
X545620D01*
Y895540D01*
X541350D01*
D02*
G37*
G36*
X558650D02*
X554380D01*
Y891270D01*
X558650D01*
Y895540D01*
D02*
G37*
G36*
X880300Y907200D02*
X861300D01*
Y888200D01*
X880300D01*
Y907200D01*
D02*
G37*
G36*
X545620Y888730D02*
X541350D01*
Y884460D01*
X545620D01*
Y888730D01*
D02*
G37*
G36*
X558650D02*
X554380D01*
Y884460D01*
X558650D01*
Y888730D01*
D02*
G37*
G36*
X880300Y881800D02*
X861300D01*
Y862800D01*
X880300D01*
Y881800D01*
D02*
G37*
G36*
X710350Y862540D02*
Y858270D01*
X714620D01*
Y862540D01*
X710350D01*
D02*
G37*
G36*
X1050040Y844586D02*
X1041270D01*
Y837316D01*
X1050040D01*
Y844586D01*
D02*
G37*
G36*
X1025040D02*
X1016270D01*
Y837316D01*
X1025040D01*
Y844586D01*
D02*
G37*
G36*
X1038730D02*
X1029960D01*
Y837316D01*
X1038730D01*
Y844586D01*
D02*
G37*
G36*
X1013730D02*
X1004960D01*
Y837316D01*
X1013730D01*
Y844586D01*
D02*
G37*
G36*
X1001540Y841730D02*
X996270D01*
Y836460D01*
X1001540D01*
Y841730D01*
D02*
G37*
G36*
X993730D02*
X988460D01*
Y836460D01*
X993730D01*
Y841730D01*
D02*
G37*
G36*
X528650Y835540D02*
X524380D01*
Y831270D01*
X528650D01*
Y835540D01*
D02*
G37*
G36*
X1050040Y834776D02*
X1041270D01*
Y827506D01*
X1050040D01*
Y834776D01*
D02*
G37*
G36*
X1038730D02*
X1029960D01*
Y827506D01*
X1038730D01*
Y834776D01*
D02*
G37*
G36*
X1025040D02*
X1016270D01*
Y827506D01*
X1025040D01*
Y834776D01*
D02*
G37*
G36*
X1013730D02*
X1004960D01*
Y827506D01*
X1013730D01*
Y834776D01*
D02*
G37*
G36*
X528650Y828730D02*
X524380D01*
Y824460D01*
X528650D01*
Y828730D01*
D02*
G37*
G36*
X742440Y831030D02*
X735000D01*
X727560D01*
Y827430D01*
X727560Y825110D01*
X727560Y822570D01*
Y818970D01*
X735000D01*
X742440D01*
Y822570D01*
X742440Y824890D01*
X742440Y827430D01*
Y831030D01*
D02*
G37*
G36*
X528650Y810540D02*
X524380D01*
Y806270D01*
X528650D01*
Y810540D01*
D02*
G37*
G36*
X784730Y807730D02*
X774960D01*
Y801960D01*
X784730D01*
Y807730D01*
D02*
G37*
G36*
X528650Y803730D02*
X524380D01*
Y799460D01*
X528650D01*
Y803730D01*
D02*
G37*
G36*
X528650Y790540D02*
X524380D01*
Y786270D01*
X528650D01*
Y790540D01*
D02*
G37*
G36*
X777040Y784590D02*
X766770D01*
Y780320D01*
X777040D01*
Y784590D01*
D02*
G37*
G36*
X764230D02*
X753960D01*
Y780320D01*
X764230D01*
Y784590D01*
D02*
G37*
G36*
X777040Y777780D02*
X766770D01*
Y773510D01*
X777040D01*
Y777780D01*
D02*
G37*
G36*
X764230D02*
X753960D01*
Y773510D01*
X764230D01*
Y777780D01*
D02*
G37*
G36*
X776000Y770850D02*
X755000D01*
Y768899D01*
X751350D01*
X750375Y768705D01*
X750178Y768574D01*
X750000Y768609D01*
X748619Y768335D01*
X747448Y767552D01*
X746665Y766381D01*
X746391Y765000D01*
X746665Y763619D01*
X747448Y762448D01*
X748619Y761665D01*
X750000Y761391D01*
X751381Y761665D01*
X752460Y762386D01*
X752665Y762346D01*
X755000Y761850D01*
Y761850D01*
X776000D01*
Y770850D01*
D02*
G37*
G36*
X733730Y755620D02*
X729460D01*
Y751350D01*
X733730D01*
Y755620D01*
D02*
G37*
G36*
X585650Y750540D02*
X581380D01*
Y746270D01*
X585650D01*
Y750540D01*
D02*
G37*
G36*
Y743730D02*
X581380D01*
Y739460D01*
X585650D01*
Y743730D01*
D02*
G37*
G36*
X555580Y674500D02*
X553040Y674500D01*
X545420D01*
Y672549D01*
X537554D01*
X537552Y672552D01*
X536381Y673335D01*
X535000Y673609D01*
X533619Y673335D01*
X532448Y672552D01*
X531665Y671381D01*
X531391Y670000D01*
X531665Y668619D01*
X532448Y667448D01*
X533619Y666665D01*
X535000Y666391D01*
X536381Y666665D01*
X537552Y667448D01*
X537554Y667451D01*
X542862D01*
X544380Y665540D01*
Y661270D01*
X549920D01*
Y660000D01*
X551190D01*
Y654460D01*
X553471D01*
X555460Y654460D01*
X557569Y655500D01*
X564580D01*
Y664500D01*
X564580D01*
Y664911D01*
X566002Y667451D01*
X573100D01*
Y664800D01*
X593100D01*
Y674300D01*
X573100D01*
Y672549D01*
X564580D01*
Y674500D01*
X555580Y674500D01*
D02*
G37*
G36*
X548650Y658730D02*
X544380D01*
Y654460D01*
X548650D01*
Y658730D01*
D02*
G37*
G36*
X588350Y661693D02*
X577850D01*
X575997Y661324D01*
X574426Y660275D01*
X573376Y658703D01*
X573007Y656850D01*
X573046Y656651D01*
X566803Y650407D01*
X564580Y649500D01*
Y649500D01*
X564580Y649500D01*
X557569D01*
X555460Y650540D01*
X553471Y650540D01*
X551190D01*
Y645000D01*
X549920D01*
Y643730D01*
X544380D01*
Y639460D01*
X544221Y639260D01*
X542552Y637552D01*
X541381Y638335D01*
X540000Y638609D01*
X538619Y638335D01*
X537448Y637552D01*
X536665Y636381D01*
X536391Y635000D01*
X536665Y633619D01*
X537448Y632448D01*
X538619Y631665D01*
X540000Y631391D01*
X541381Y631665D01*
X542552Y632448D01*
X542554Y632451D01*
X545420D01*
Y630500D01*
X553040D01*
X554420Y630500D01*
X556960Y630500D01*
X560693D01*
X562051Y627960D01*
X561776Y627549D01*
X555000D01*
X554025Y627355D01*
X553198Y626802D01*
X548118Y621722D01*
X547565Y620896D01*
X547371Y619920D01*
Y619500D01*
X545420D01*
Y610540D01*
X544380D01*
Y606270D01*
X549920D01*
Y605000D01*
X551190D01*
Y599460D01*
X555460D01*
X555580Y600500D01*
X563383D01*
X564435Y597960D01*
X560975Y594500D01*
X557569D01*
X555460Y595540D01*
X553471Y595540D01*
X551190D01*
Y590000D01*
X549920D01*
Y588730D01*
X544380D01*
Y584460D01*
Y581270D01*
X549920D01*
Y580000D01*
X551190D01*
Y574460D01*
X553471D01*
X555460Y574460D01*
X557569Y575500D01*
X564580D01*
Y584500D01*
X564580D01*
Y585500D01*
X564580D01*
Y590895D01*
X575555Y601870D01*
X575997Y601576D01*
X577850Y601207D01*
X588350D01*
X590203Y601576D01*
X591774Y602625D01*
X592824Y604197D01*
X593193Y606050D01*
X592824Y607903D01*
X591774Y609474D01*
X590203Y610524D01*
X588350Y610893D01*
X580347D01*
X579046Y613433D01*
X579387Y613907D01*
X588350D01*
X590203Y614276D01*
X591774Y615325D01*
X592824Y616897D01*
X592935Y617451D01*
X597446D01*
X597448Y617448D01*
X598619Y616665D01*
X600000Y616391D01*
X601381Y616665D01*
X602552Y617448D01*
X603335Y618619D01*
X603609Y620000D01*
X603335Y621381D01*
X602552Y622552D01*
X601381Y623335D01*
X600000Y623609D01*
X598619Y623335D01*
X597448Y622552D01*
X597446Y622549D01*
X591214D01*
X590203Y623224D01*
X589949Y623275D01*
Y625865D01*
X590609Y625996D01*
X592524Y627276D01*
X593804Y629191D01*
X594001Y630180D01*
X583100D01*
Y632720D01*
X594001D01*
X593804Y633709D01*
X592524Y635624D01*
X590609Y636904D01*
X589949Y637035D01*
Y639625D01*
X590203Y639676D01*
X591774Y640725D01*
X592824Y642297D01*
X592905Y642701D01*
X597112D01*
X597248Y642498D01*
X598075Y641945D01*
X599050Y641751D01*
X599248Y641790D01*
X600000Y641641D01*
X601381Y641915D01*
X602552Y642698D01*
X603335Y643869D01*
X603609Y645250D01*
X603335Y646631D01*
X602552Y647802D01*
X601381Y648585D01*
X600000Y648859D01*
X598619Y648585D01*
X597448Y647802D01*
X597446Y647799D01*
X591439D01*
X590203Y648624D01*
X588350Y648993D01*
X577850D01*
X575997Y648624D01*
X575468Y648271D01*
X573849Y650244D01*
X575987Y652382D01*
X575997Y652376D01*
X577850Y652007D01*
X588350D01*
X590203Y652376D01*
X591774Y653425D01*
X592824Y654997D01*
X593193Y656850D01*
X592824Y658703D01*
X591774Y660275D01*
X590203Y661324D01*
X588350Y661693D01*
D02*
G37*
G36*
X548650Y650540D02*
X544380D01*
Y646270D01*
X548650D01*
Y650540D01*
D02*
G37*
G36*
X548650Y603730D02*
X544380D01*
Y599460D01*
X548650D01*
Y603730D01*
D02*
G37*
G36*
X548650Y595540D02*
X544380D01*
Y591270D01*
X548650D01*
Y595540D01*
D02*
G37*
G36*
X588350Y598193D02*
X577850D01*
X575997Y597824D01*
X574426Y596774D01*
X573376Y595203D01*
X573007Y593350D01*
X573376Y591497D01*
X574426Y589925D01*
X575997Y588876D01*
X577850Y588507D01*
X588350D01*
X590203Y588876D01*
X591774Y589925D01*
X592824Y591497D01*
X593193Y593350D01*
X592824Y595203D01*
X591774Y596774D01*
X590203Y597824D01*
X588350Y598193D01*
D02*
G37*
G36*
Y585493D02*
X577850D01*
X575997Y585124D01*
X574426Y584075D01*
X573376Y582503D01*
X573007Y580650D01*
X573376Y578797D01*
X574426Y577225D01*
X575997Y576176D01*
X577850Y575807D01*
X588350D01*
X590203Y576176D01*
X591774Y577225D01*
X592824Y578797D01*
X593193Y580650D01*
X592824Y582503D01*
X591774Y584075D01*
X590203Y585124D01*
X588350Y585493D01*
D02*
G37*
G36*
X548650Y578730D02*
X544380D01*
Y574460D01*
X548650D01*
Y578730D01*
D02*
G37*
G36*
X588400Y567500D02*
X575400D01*
Y543500D01*
X588400D01*
Y567500D01*
D02*
G37*
%LPD*%
G36*
X574067Y627014D02*
X575591Y625996D01*
X576251Y625865D01*
Y623275D01*
X575997Y623224D01*
X574426Y622174D01*
X573376Y620603D01*
X573007Y618750D01*
X573362Y616967D01*
X568160Y611765D01*
X565620Y612817D01*
Y613730D01*
X560080D01*
Y616270D01*
X565620D01*
Y620540D01*
X565620Y620540D01*
X566241Y622823D01*
X566802Y623198D01*
X570725Y627120D01*
X573577Y627270D01*
X574067Y627014D01*
D02*
G37*
%LPC*%
G36*
X1219490Y892440D02*
X1213570D01*
Y886270D01*
X1219490D01*
Y892440D01*
D02*
G37*
G36*
X1211030D02*
X1205110D01*
Y886270D01*
X1211030D01*
Y892440D01*
D02*
G37*
G36*
X1219490Y883730D02*
X1213570D01*
Y877560D01*
X1219490D01*
Y883730D01*
D02*
G37*
G36*
X1211030D02*
X1205110D01*
Y877560D01*
X1211030D01*
Y883730D01*
D02*
G37*
G36*
X1220040Y872494D02*
X1211270D01*
Y865224D01*
X1220040D01*
Y872494D01*
D02*
G37*
G36*
X1208730D02*
X1199960D01*
Y865224D01*
X1208730D01*
Y872494D01*
D02*
G37*
G36*
Y862684D02*
X1199960D01*
Y855414D01*
X1208730D01*
Y862684D01*
D02*
G37*
G36*
X1220040D02*
X1211270D01*
Y855414D01*
X1219690D01*
X1220040Y855414D01*
X1220960Y854569D01*
Y851270D01*
X1234730D01*
Y857040D01*
X1221310D01*
X1220960Y857040D01*
X1220040Y857885D01*
Y862684D01*
D02*
G37*
G36*
X1234730Y848730D02*
X1220960D01*
Y842960D01*
X1234730D01*
Y848730D01*
D02*
G37*
G36*
X1638650Y785540D02*
X1634380D01*
Y781270D01*
X1638650D01*
Y785540D01*
D02*
G37*
G36*
X1626040Y784590D02*
X1615770D01*
Y780320D01*
X1626040D01*
Y784590D01*
D02*
G37*
G36*
X1613230D02*
X1602960D01*
Y780320D01*
X1613230D01*
Y784590D01*
D02*
G37*
G36*
X1638650Y778730D02*
X1634380D01*
Y774460D01*
X1638650D01*
Y778730D01*
D02*
G37*
G36*
X1626040Y777780D02*
X1615770D01*
Y773510D01*
X1626040D01*
Y777780D01*
D02*
G37*
G36*
X1613230D02*
X1602960D01*
Y773510D01*
X1613230D01*
Y777780D01*
D02*
G37*
G36*
X1291540Y863540D02*
X1286270D01*
Y858270D01*
X1291540D01*
Y863540D01*
D02*
G37*
G36*
X1283730D02*
X1278460D01*
Y858270D01*
X1283730D01*
Y863540D01*
D02*
G37*
G36*
X1259270Y861040D02*
Y851270D01*
X1273540D01*
Y861040D01*
X1259270D01*
D02*
G37*
G36*
X1291540Y855730D02*
X1286270D01*
Y850460D01*
X1291540D01*
Y855730D01*
D02*
G37*
G36*
X1283730D02*
X1278460D01*
Y850460D01*
X1283730D01*
Y855730D01*
D02*
G37*
G36*
X1273540Y848730D02*
X1259270D01*
Y838960D01*
X1273540D01*
Y848730D01*
D02*
G37*
G36*
X1234890Y822440D02*
X1228970D01*
Y816270D01*
X1234890D01*
Y822440D01*
D02*
G37*
G36*
X1226430D02*
X1220510D01*
Y816270D01*
X1226430D01*
Y822440D01*
D02*
G37*
G36*
X1234890Y813730D02*
X1228970D01*
Y807560D01*
X1234890D01*
Y813730D01*
D02*
G37*
G36*
X1226430D02*
X1220510D01*
Y807560D01*
X1226430D01*
Y813730D01*
D02*
G37*
G36*
X1170640Y812540D02*
X1164370D01*
Y800770D01*
X1170640D01*
Y812540D01*
D02*
G37*
G36*
X1273650Y785540D02*
X1269380D01*
Y781270D01*
X1273650D01*
Y785540D01*
D02*
G37*
G36*
X545040Y499586D02*
X536270D01*
Y492316D01*
X545040D01*
Y499586D01*
D02*
G37*
G36*
X533730D02*
X524960D01*
Y492316D01*
X533730D01*
Y499586D01*
D02*
G37*
G36*
X545040Y489776D02*
X536270D01*
Y482506D01*
X545040D01*
Y489776D01*
D02*
G37*
G36*
X533730D02*
X524960D01*
Y482506D01*
X533730D01*
Y489776D01*
D02*
G37*
G36*
X589440Y467540D02*
X583170D01*
Y455770D01*
X589440D01*
Y467540D01*
D02*
G37*
G36*
X580630D02*
X574360D01*
Y455770D01*
X580630D01*
Y467540D01*
D02*
G37*
G36*
Y453230D02*
X574360D01*
Y449167D01*
X574163Y448991D01*
X571820Y448041D01*
X571381Y448335D01*
X570000Y448609D01*
X568619Y448335D01*
X567825Y447804D01*
X564580D01*
Y449500D01*
X556960D01*
X555580Y449500D01*
X553040Y449500D01*
X545420D01*
Y447549D01*
X542554D01*
X542552Y447552D01*
X541381Y448335D01*
X540000Y448609D01*
X538619Y448335D01*
X537448Y447552D01*
X536665Y446381D01*
X536391Y445000D01*
X536665Y443619D01*
X537448Y442448D01*
X538619Y441665D01*
X540000Y441391D01*
X541381Y441665D01*
X542552Y442448D01*
X542554Y442451D01*
X545420D01*
Y440500D01*
X553040D01*
X554420Y440500D01*
X556960Y440500D01*
X564580D01*
Y442196D01*
X567825D01*
X568619Y441665D01*
X570000Y441391D01*
X571381Y441665D01*
X571820Y441959D01*
X574360Y441460D01*
X574947Y441460D01*
X580630D01*
Y453230D01*
D02*
G37*
G36*
X589440D02*
X583170D01*
Y441460D01*
X589440D01*
Y453230D01*
D02*
G37*
G36*
X548650Y425540D02*
X544380D01*
Y421270D01*
X548650D01*
Y425540D01*
D02*
G37*
G36*
X555460Y425540D02*
X553471Y425540D01*
X551190D01*
Y420000D01*
X549920D01*
Y418730D01*
X544380D01*
Y414460D01*
X542862Y412549D01*
X522554D01*
X522552Y412552D01*
X521381Y413335D01*
X520000Y413609D01*
X518619Y413335D01*
X517448Y412552D01*
X516665Y411381D01*
X516391Y410000D01*
X516665Y408619D01*
X517448Y407448D01*
X518619Y406665D01*
X520000Y406391D01*
X521381Y406665D01*
X522552Y407448D01*
X522554Y407451D01*
X545420D01*
Y405500D01*
X553040D01*
X554420Y405500D01*
X556960Y405500D01*
X562458D01*
X563383Y405500D01*
X564435Y402960D01*
X560975Y399500D01*
X557569D01*
X555460Y400540D01*
X553471Y400540D01*
X551190D01*
Y395000D01*
X549920D01*
Y393730D01*
X544380D01*
Y389460D01*
X542862Y387549D01*
X527554D01*
X527552Y387552D01*
X526381Y388335D01*
X525000Y388609D01*
X523619Y388335D01*
X522448Y387552D01*
X521665Y386381D01*
X521391Y385000D01*
X521665Y383619D01*
X522448Y382448D01*
X523619Y381665D01*
X525000Y381391D01*
X526381Y381665D01*
X527552Y382448D01*
X527554Y382451D01*
X545420D01*
Y380500D01*
X553040D01*
X554420Y380500D01*
X556960Y380500D01*
X562458D01*
X563383Y380500D01*
X564435Y377960D01*
X563439Y376964D01*
X563198Y376802D01*
X558278Y371882D01*
X557763Y371112D01*
X556555Y370812D01*
X555247Y370540D01*
X553471Y370540D01*
X551190D01*
Y365000D01*
X549920D01*
Y363730D01*
X544380D01*
Y359460D01*
Y356270D01*
X549920D01*
Y355000D01*
X551190D01*
Y349460D01*
X553471D01*
X555460Y349460D01*
X557569Y350500D01*
X563383D01*
X564435Y347960D01*
X560975Y344500D01*
X557569D01*
X555460Y345540D01*
X553471Y345540D01*
X551190D01*
Y340000D01*
X549920D01*
Y338730D01*
X544380D01*
Y334460D01*
Y331270D01*
X549920D01*
Y330000D01*
X551190D01*
Y324460D01*
X553471D01*
X555460Y324460D01*
X557569Y325500D01*
X564580D01*
Y334500D01*
X564580D01*
Y335500D01*
X564580D01*
Y340895D01*
X575555Y351870D01*
X575997Y351576D01*
X577850Y351207D01*
X588350D01*
X590203Y351576D01*
X591774Y352625D01*
X592824Y354197D01*
X593193Y356050D01*
X592824Y357903D01*
X591774Y359474D01*
X590203Y360524D01*
X588350Y360893D01*
X580347D01*
X579046Y363433D01*
X579387Y363907D01*
X588350D01*
X590203Y364276D01*
X591214Y364951D01*
X597446D01*
X597448Y364948D01*
X598619Y364165D01*
X600000Y363891D01*
X601381Y364165D01*
X602552Y364948D01*
X603335Y366119D01*
X603609Y367500D01*
X603335Y368881D01*
X602552Y370052D01*
X601381Y370835D01*
X600000Y371109D01*
X598619Y370835D01*
X597448Y370052D01*
X597446Y370049D01*
X592935D01*
X592824Y370603D01*
X591774Y372174D01*
X590203Y373224D01*
X589949Y373275D01*
Y375865D01*
X590609Y375996D01*
X592524Y377276D01*
X593804Y379191D01*
X594001Y380180D01*
X583100D01*
Y382720D01*
X594001D01*
X593804Y383709D01*
X592524Y385624D01*
X590609Y386904D01*
X589949Y387035D01*
Y389625D01*
X590203Y389676D01*
X591774Y390725D01*
X592824Y392297D01*
X592905Y392701D01*
X597446D01*
X597448Y392698D01*
X598619Y391915D01*
X600000Y391641D01*
X601381Y391915D01*
X602552Y392698D01*
X603335Y393869D01*
X603609Y395250D01*
X603335Y396631D01*
X602552Y397802D01*
X601381Y398585D01*
X600000Y398859D01*
X598619Y398585D01*
X597448Y397802D01*
X597446Y397799D01*
X591439D01*
X590203Y398624D01*
X588350Y398993D01*
X577850D01*
X575997Y398624D01*
X574426Y397575D01*
X574318Y397413D01*
X574025Y397355D01*
X573198Y396802D01*
X568198Y391802D01*
X567645Y390975D01*
X567451Y390000D01*
Y383257D01*
X567120Y383036D01*
X564580Y384393D01*
Y389500D01*
X564580D01*
Y390500D01*
X564580D01*
Y395895D01*
X571056Y402371D01*
X576020D01*
X577850Y402007D01*
X588350D01*
X590203Y402376D01*
X591774Y403425D01*
X592824Y404997D01*
X593193Y406850D01*
X592824Y408703D01*
X591774Y410275D01*
X590203Y411324D01*
X588350Y411693D01*
X577850D01*
X575997Y411324D01*
X574426Y410275D01*
X573376Y408703D01*
X573130Y407469D01*
X570000D01*
X569025Y407275D01*
X568198Y406722D01*
X567120Y405645D01*
X564580Y406697D01*
X564580Y407544D01*
Y414500D01*
X564580D01*
Y414911D01*
X566002Y417451D01*
X573100D01*
Y414800D01*
X593100D01*
Y424300D01*
X573100D01*
Y422549D01*
X564580D01*
Y424500D01*
X557569D01*
X555460Y425540D01*
D02*
G37*
G36*
X548650Y400540D02*
X544380D01*
Y396270D01*
X548650D01*
Y400540D01*
D02*
G37*
G36*
Y370540D02*
X544380D01*
Y366270D01*
X548650D01*
Y370540D01*
D02*
G37*
G36*
Y353730D02*
X544380D01*
Y349460D01*
X548650D01*
Y353730D01*
D02*
G37*
G36*
Y345540D02*
X544380D01*
Y341270D01*
X548650D01*
Y345540D01*
D02*
G37*
G36*
X588350Y348193D02*
X577850D01*
X575997Y347824D01*
X574426Y346774D01*
X573376Y345203D01*
X573007Y343350D01*
X573376Y341497D01*
X574426Y339925D01*
X575997Y338876D01*
X577850Y338507D01*
X588350D01*
X590203Y338876D01*
X591774Y339925D01*
X592824Y341497D01*
X593193Y343350D01*
X592824Y345203D01*
X591774Y346774D01*
X590203Y347824D01*
X588350Y348193D01*
D02*
G37*
G36*
Y335493D02*
X577850D01*
X575997Y335124D01*
X574426Y334075D01*
X573376Y332503D01*
X573007Y330650D01*
X573376Y328797D01*
X574426Y327225D01*
X575997Y326176D01*
X577850Y325807D01*
X588350D01*
X590203Y326176D01*
X591774Y327225D01*
X592824Y328797D01*
X593193Y330650D01*
X592824Y332503D01*
X591774Y334075D01*
X590203Y335124D01*
X588350Y335493D01*
D02*
G37*
G36*
X548650Y328730D02*
X544380D01*
Y324460D01*
X548650D01*
Y328730D01*
D02*
G37*
%LPD*%
G36*
X574104Y376990D02*
X575591Y375996D01*
X576251Y375865D01*
Y373275D01*
X575997Y373224D01*
X574426Y372174D01*
X573376Y370603D01*
X573007Y368750D01*
X573362Y366967D01*
X567120Y360725D01*
X564580Y361777D01*
Y369500D01*
X564580Y369500D01*
X565390Y371705D01*
X570757Y377072D01*
X573540Y377266D01*
X574104Y376990D01*
D02*
G37*
%LPC*%
G36*
X1055000Y565856D02*
X1050642Y565513D01*
X1046392Y564492D01*
X1042354Y562820D01*
X1038627Y560536D01*
X1035303Y557697D01*
X1032464Y554373D01*
X1030180Y550646D01*
X1028508Y546608D01*
X1027487Y542358D01*
X1027144Y538000D01*
X1027487Y533642D01*
X1028508Y529392D01*
X1030180Y525354D01*
X1032464Y521627D01*
X1035303Y518303D01*
X1038627Y515464D01*
X1042354Y513180D01*
X1046392Y511507D01*
X1050642Y510487D01*
X1055000Y510144D01*
X1059358Y510487D01*
X1063608Y511507D01*
X1067646Y513180D01*
X1071373Y515464D01*
X1074697Y518303D01*
X1077536Y521627D01*
X1079820Y525354D01*
X1081492Y529392D01*
X1082513Y533642D01*
X1082856Y538000D01*
X1082513Y542358D01*
X1081492Y546608D01*
X1079820Y550646D01*
X1077536Y554373D01*
X1074697Y557697D01*
X1071373Y560536D01*
X1067646Y562820D01*
X1063608Y564492D01*
X1059358Y565513D01*
X1055000Y565856D01*
D02*
G37*
G36*
Y492856D02*
X1050642Y492513D01*
X1046392Y491493D01*
X1042354Y489820D01*
X1038627Y487536D01*
X1035303Y484697D01*
X1032464Y481373D01*
X1030180Y477646D01*
X1028508Y473608D01*
X1027487Y469358D01*
X1027144Y465000D01*
X1027487Y460642D01*
X1028508Y456392D01*
X1030180Y452354D01*
X1032464Y448627D01*
X1035303Y445303D01*
X1038627Y442464D01*
X1042354Y440180D01*
X1046392Y438507D01*
X1050642Y437487D01*
X1055000Y437144D01*
X1059358Y437487D01*
X1063608Y438507D01*
X1067646Y440180D01*
X1071373Y442464D01*
X1074697Y445303D01*
X1077536Y448627D01*
X1079820Y452354D01*
X1081492Y456392D01*
X1082513Y460642D01*
X1082856Y465000D01*
X1082513Y469358D01*
X1081492Y473608D01*
X1079820Y477646D01*
X1077536Y481373D01*
X1074697Y484697D01*
X1071373Y487536D01*
X1067646Y489820D01*
X1063608Y491493D01*
X1059358Y492513D01*
X1055000Y492856D01*
D02*
G37*
G36*
X847540Y273730D02*
X835270D01*
Y263460D01*
X847540D01*
Y273730D01*
D02*
G37*
G36*
Y251540D02*
X835270D01*
Y241270D01*
X847540D01*
Y251540D01*
D02*
G37*
G36*
Y238730D02*
X835270D01*
Y228460D01*
X847540D01*
Y238730D01*
D02*
G37*
G36*
X1170000Y254856D02*
X1165642Y254513D01*
X1161392Y253493D01*
X1157354Y251820D01*
X1153627Y249536D01*
X1150303Y246697D01*
X1147464Y243373D01*
X1145180Y239646D01*
X1143508Y235608D01*
X1142487Y231358D01*
X1142144Y227000D01*
X1142487Y222642D01*
X1143508Y218392D01*
X1145180Y214354D01*
X1147464Y210627D01*
X1150303Y207303D01*
X1153627Y204464D01*
X1157354Y202180D01*
X1161392Y200508D01*
X1165642Y199487D01*
X1170000Y199144D01*
X1174358Y199487D01*
X1178608Y200508D01*
X1182646Y202180D01*
X1186373Y204464D01*
X1189697Y207303D01*
X1192536Y210627D01*
X1194820Y214354D01*
X1196492Y218392D01*
X1197513Y222642D01*
X1197856Y227000D01*
X1197513Y231358D01*
X1196492Y235608D01*
X1194820Y239646D01*
X1192536Y243373D01*
X1189697Y246697D01*
X1186373Y249536D01*
X1182646Y251820D01*
X1178608Y253493D01*
X1174358Y254513D01*
X1170000Y254856D01*
D02*
G37*
G36*
X980000D02*
X975642Y254513D01*
X971392Y253493D01*
X967354Y251820D01*
X963627Y249536D01*
X960303Y246697D01*
X957464Y243373D01*
X955180Y239646D01*
X953508Y235608D01*
X952487Y231358D01*
X952144Y227000D01*
X952487Y222642D01*
X953508Y218392D01*
X955180Y214354D01*
X957464Y210627D01*
X960303Y207303D01*
X963627Y204464D01*
X967354Y202180D01*
X971392Y200508D01*
X975642Y199487D01*
X980000Y199144D01*
X984358Y199487D01*
X988608Y200508D01*
X992646Y202180D01*
X996373Y204464D01*
X999697Y207303D01*
X1002536Y210627D01*
X1004820Y214354D01*
X1006492Y218392D01*
X1007513Y222642D01*
X1007856Y227000D01*
X1007513Y231358D01*
X1006492Y235608D01*
X1004820Y239646D01*
X1002536Y243373D01*
X999697Y246697D01*
X996373Y249536D01*
X992646Y251820D01*
X988608Y253493D01*
X984358Y254513D01*
X980000Y254856D01*
D02*
G37*
%LPD*%
D10*
X595000Y890000D02*
Y890000D01*
Y874500D02*
Y890000D01*
X1455000Y765000D02*
Y770000D01*
X744920Y750080D02*
X745000Y750000D01*
X660000Y740000D02*
Y760000D01*
X585000Y735000D02*
Y752000D01*
X529920Y829920D02*
X530000Y830000D01*
X529920Y805000D02*
Y829920D01*
Y785080D02*
Y804920D01*
X543500Y761500D02*
X545000Y760000D01*
X549920Y645080D02*
X550000Y645000D01*
X529920Y785080D02*
X530000Y785000D01*
X549920Y604920D02*
X550000Y605000D01*
X549920Y580080D02*
X550000Y580000D01*
X549920Y364920D02*
X550000Y365000D01*
X815000Y810000D02*
Y815000D01*
X810000Y810000D02*
X815000D01*
X830000Y830080D02*
Y845000D01*
X815000Y832000D02*
X830000Y820000D01*
X980000Y865000D02*
X1010000D01*
X980000Y855080D02*
Y865000D01*
Y844920D02*
X995000Y857000D01*
X690000Y605000D02*
X700000D01*
X710000Y490000D02*
X715000D01*
X725000Y498000D01*
X725016Y510000D02*
X735000Y510080D01*
X725000Y510000D02*
X725016Y510000D01*
X735000Y499920D02*
X745000Y500000D01*
X1274920Y830000D02*
X1275000D01*
X1265000D02*
X1274920D01*
X1260000Y835000D02*
X1265000Y830000D01*
X1232000Y835000D02*
X1260000D01*
X1285000Y845000D02*
X1285011Y843000D01*
X1285080Y830000D01*
X1695000Y790000D02*
X1705000Y780000D01*
X1660000Y765000D02*
X1680000D01*
X1636000Y780000D02*
X1640000D01*
X775000Y235000D02*
Y265000D01*
X775000Y265000D01*
X815000Y890000D02*
Y902700D01*
X810000Y885000D02*
X815000Y890000D01*
X665000Y885000D02*
X810000D01*
X535000Y645000D02*
X549920D01*
X545000Y760000D02*
X555000D01*
X542000D02*
X543500Y761500D01*
X529920Y760080D02*
Y775000D01*
X550000Y770000D02*
X550000D01*
X560000Y780000D01*
X945000Y760000D02*
X955000D01*
X869500Y780400D02*
X880400D01*
X855000Y747000D02*
Y780000D01*
X905080Y735000D02*
Y755000D01*
X855000Y710000D02*
Y747000D01*
X775000Y565000D02*
Y580000D01*
X690000Y585000D02*
X700000D01*
X1636000Y740000D02*
X1640920D01*
X1235000Y745000D02*
X1240000Y750000D01*
X1274920D01*
X580000Y370000D02*
X590000D01*
X775000Y345000D02*
Y360000D01*
X685000Y779900D02*
X700000D01*
X1491350Y753650D02*
X1504770D01*
X1490000Y755000D02*
X1491350Y753650D01*
X1444050Y779050D02*
X1445000Y780000D01*
X684250Y855000D02*
Y860000D01*
X1504770Y740950D02*
X1505720Y740000D01*
X1445000Y760000D02*
Y780000D01*
X735000Y740000D02*
X780000D01*
X670000Y745000D02*
Y750000D01*
X560000Y795000D02*
X595000D01*
X575000Y874500D02*
Y890000D01*
X580250Y395250D02*
X600000D01*
X1469920Y740000D02*
X1470000D01*
X1469920D02*
X1469920D01*
X1460000D02*
X1469920D01*
X1469920D02*
Y749920D01*
Y740000D02*
Y740000D01*
X1480080Y740000D02*
X1505000D01*
X1480000D02*
X1480080D01*
X775000Y650000D02*
Y665000D01*
Y430080D02*
Y445000D01*
X770000Y430080D02*
X775000D01*
X735000Y420000D02*
X750000D01*
X730000Y415000D02*
X735000Y420000D01*
X775000Y430080D02*
X779920D01*
X775000Y430000D02*
Y430080D01*
X1415000Y765000D02*
X1435000D01*
X1504770Y753650D02*
X1506120Y755000D01*
X675000Y420000D02*
Y437300D01*
X855000Y780000D02*
X870000D01*
X1000000Y785000D02*
X1025000Y760000D01*
X940000Y785000D02*
X1000000D01*
X1025000Y750000D02*
Y760000D01*
X895000Y760000D02*
Y765000D01*
X905000Y775000D02*
Y775000D01*
X855000Y747000D02*
X885000D01*
X1025000Y750000D02*
X1030000Y745000D01*
X1480000Y760000D02*
X1480000D01*
X1485000Y765000D02*
X1503420D01*
X1418150Y755000D02*
X1450000D01*
X1419500Y779050D02*
X1444050D01*
X800000Y755000D02*
Y830000D01*
X780000Y740000D02*
X805000D01*
Y845000D01*
X770000Y755000D02*
X800000D01*
X1455080Y780000D02*
X1490000D01*
X1469920Y749920D02*
X1470000Y750000D01*
X1460000Y740000D02*
Y740000D01*
X1490000Y780000D02*
X1500000D01*
X1455000Y740000D02*
Y765000D01*
X1455080Y770000D02*
Y780000D01*
Y765080D02*
Y770000D01*
X1455000Y765000D02*
X1455080Y765080D01*
X1455000Y740000D02*
X1460000D01*
X1420000D02*
X1455000D01*
X920000Y735000D02*
Y737300D01*
X895000Y725000D02*
Y740000D01*
X894921Y740079D02*
X895000Y744999D01*
X874500Y742300D02*
X876800Y740000D01*
X974000Y725000D02*
Y744000D01*
X920000Y725000D02*
X974000D01*
X912000Y775000D02*
Y792000D01*
X905080Y775000D02*
X912000D01*
X905000D02*
X905080D01*
X895000Y765000D02*
X905000Y775000D01*
X894920Y774920D02*
X900000Y780000D01*
X894840Y775000D02*
X894920Y774920D01*
X869500Y767700D02*
X882700D01*
X890000Y775000D02*
X894840D01*
X882700Y767700D02*
X890000Y775000D01*
X894920Y774920D02*
X894920D01*
X900000Y780000D02*
X905000Y785000D01*
X894920D02*
X895000D01*
X885000D02*
X894920D01*
X900000Y780000D02*
X900000D01*
X885000Y747000D02*
X890000Y752000D01*
X905000D01*
X905080Y755000D02*
Y760000D01*
X905000Y752000D02*
Y754920D01*
X905080Y755000D01*
X880400Y780400D02*
X885000Y785000D01*
X895000Y744999D02*
X895000Y745000D01*
X894921Y740079D02*
X895000Y740000D01*
X894920Y740080D02*
X894921Y740079D01*
X894920Y740080D02*
Y745000D01*
Y740000D02*
X894921Y740079D01*
X920000Y725000D02*
Y735000D01*
X895000Y725000D02*
X920000D01*
Y760000D02*
Y767300D01*
Y752700D02*
Y760000D01*
X945000D01*
X905080D02*
X920000D01*
X955000D02*
X955000Y760000D01*
X920000Y750000D02*
Y752700D01*
X945000Y760000D02*
X945000Y760000D01*
X770080Y340080D02*
X775000Y345000D01*
X770080Y560080D02*
X775000Y565000D01*
X685650Y580650D02*
X690000Y585000D01*
X676900Y580650D02*
X685650D01*
X933000Y792000D02*
X940000Y785000D01*
X912000Y792000D02*
X933000D01*
X755000Y750000D02*
X758650Y753650D01*
X770000Y805000D02*
X774000Y809000D01*
X786000D01*
X770000Y780000D02*
X780000D01*
X725000Y750000D02*
Y770000D01*
X750000Y780000D02*
X750950Y779050D01*
X765500D01*
X758650Y753650D02*
X765500D01*
X750000Y765000D02*
X751350Y766350D01*
X765500D01*
X725000Y750000D02*
X734920D01*
X735000Y750080D01*
X1265000Y760000D02*
X1274920D01*
X1265000D02*
Y780000D01*
X1274920D01*
X560000Y810000D02*
X570080D01*
X560000Y810000D02*
X560000Y810000D01*
X525000Y730000D02*
X565000D01*
X520000Y745000D02*
X570000D01*
X1079500Y744500D02*
X1080000Y745000D01*
X1055000Y744500D02*
X1084500D01*
X1049500Y725500D02*
X1055000Y720000D01*
X1030000Y725500D02*
X1054500D01*
X1505500Y766350D02*
X1506020D01*
X1504770D02*
X1505500D01*
X1505500Y766350D01*
X1504150Y765000D02*
X1505500Y766350D01*
X1503420Y765000D02*
X1504150D01*
X1480000Y760000D02*
X1480000Y760000D01*
Y750000D02*
Y760000D01*
X1418150Y755000D02*
X1419500Y753650D01*
X1660000Y755000D02*
X1685000D01*
X1705000Y765000D02*
Y780000D01*
X1675000Y765000D02*
X1705000D01*
X665000Y874500D02*
Y885000D01*
X1274920Y780000D02*
X1275000D01*
X570750Y825000D02*
X595000D01*
X1621000Y755000D02*
X1650000D01*
X1621000Y765000D02*
X1650000D01*
X725080Y415000D02*
X730000D01*
X710000Y655000D02*
X719920D01*
X715000Y405000D02*
Y415000D01*
Y400000D02*
Y405000D01*
X550000Y830000D02*
Y850000D01*
X540000Y830000D02*
X550000D01*
X560000Y660000D02*
X560080Y660080D01*
X583000Y657500D02*
X583500Y657000D01*
X560000Y635000D02*
Y645000D01*
Y420000D02*
X560080Y419920D01*
X560000Y395000D02*
X560080Y394920D01*
X575080Y605000D02*
X585000D01*
X560000Y590000D02*
X561050Y591050D01*
X560000Y590000D02*
X560080Y589920D01*
X560000Y340000D02*
X560080Y339920D01*
X530000Y870000D02*
X540000Y860000D01*
X595000Y795000D02*
X600000D01*
X770000Y430080D02*
Y430080D01*
X719920Y654920D02*
X720000Y655000D01*
X680000D02*
X710000D01*
X719920D02*
X720000D01*
X580000Y760000D02*
X590000D01*
X575000Y755000D02*
X580000Y760000D01*
X575000Y730000D02*
Y755000D01*
X570080Y785000D02*
X595000D01*
X570080Y805000D02*
X595000D01*
X570080Y815000D02*
X595000D01*
X570080Y780000D02*
X580000D01*
X570080Y790000D02*
X580000D01*
X570080Y800000D02*
X580000D01*
X570080Y810000D02*
X580000D01*
X570080Y820000D02*
X580000D01*
X570080Y830000D02*
X580000D01*
X570080Y850000D02*
X580000D01*
X570080Y835000D02*
X595000D01*
X570080Y845000D02*
X595000D01*
X590000Y855000D02*
X600000D01*
X580000D02*
X590000D01*
X590000Y855000D01*
X600000Y805000D02*
Y855000D01*
X580000Y855000D02*
X580000Y855000D01*
X600000Y795000D02*
Y805000D01*
X600000Y775000D02*
Y805000D01*
X600000Y805000D02*
X600000Y805000D01*
X597080Y745000D02*
X600000D01*
X595080D02*
X597080D01*
X570080Y840000D02*
X580000D01*
X660000Y740000D02*
X665000Y735000D01*
X655000Y730000D02*
Y760500D01*
X600000Y874500D02*
Y905000D01*
Y745000D02*
Y760500D01*
X600000Y745000D02*
X600000Y745000D01*
X595000Y752000D02*
Y758000D01*
X585000Y752000D02*
X595000D01*
X605000Y735000D02*
Y760500D01*
X610000Y750000D02*
Y760500D01*
X615000Y735000D02*
Y760500D01*
X620000Y750000D02*
Y760500D01*
X625000Y735000D02*
Y760500D01*
X630000Y750000D02*
Y760500D01*
X635000Y735000D02*
Y760500D01*
X640000Y750000D02*
Y760500D01*
X645000Y735000D02*
Y760500D01*
X650000Y750000D02*
Y760500D01*
X665000Y755000D02*
X670000Y750000D01*
X665000Y755000D02*
Y760500D01*
X694000Y857000D02*
X697080D01*
X690920Y860080D02*
X694000Y857000D01*
X685080Y860080D02*
X690920D01*
X684500Y780000D02*
X695000D01*
X684500Y785000D02*
X710000D01*
X684500Y790000D02*
X695000D01*
X684500Y795000D02*
X710000D01*
X684500Y800000D02*
X695000D01*
X684500Y805000D02*
X710000D01*
X684500Y810000D02*
X695000D01*
X684500Y815000D02*
X710000D01*
X684500Y820000D02*
X695000D01*
X684500Y825000D02*
X710000D01*
X684500Y830000D02*
X695000D01*
X684500Y835000D02*
X710000D01*
X684500Y840000D02*
X695000D01*
X704920Y849920D02*
X710000Y855000D01*
X700000Y849920D02*
X704920D01*
X690000Y845000D02*
X710000D01*
X690000Y845000D02*
X690000Y845000D01*
X700000Y850000D02*
X700080D01*
X695000D02*
X700000D01*
X595000Y890000D02*
X595080D01*
X595000D02*
X595000D01*
X635000Y730000D02*
Y740000D01*
X605000Y874500D02*
Y890000D01*
X610000Y889500D02*
Y905000D01*
X655000Y874500D02*
Y885000D01*
X660000Y874500D02*
Y900000D01*
X645000Y874500D02*
Y890000D01*
X650000Y874500D02*
Y900000D01*
X635000Y874500D02*
Y890000D01*
X640000Y874500D02*
Y900000D01*
X625000Y874500D02*
Y890000D01*
X630000Y874500D02*
Y905000D01*
X620000Y874500D02*
Y905000D01*
X615000Y874500D02*
Y890000D01*
X635000Y740000D02*
Y760500D01*
X635000Y740000D02*
X635000Y740000D01*
X1680000Y755000D02*
X1705000D01*
X549920Y445000D02*
X550000D01*
X540000D02*
X549920D01*
X565000Y355000D02*
X580000Y370000D01*
X680000Y755000D02*
Y765000D01*
X675000Y760000D02*
Y765000D01*
X575000Y874500D02*
X590000D01*
X575000Y875000D02*
Y890000D01*
X550000D02*
X559920D01*
X570080D02*
X575000D01*
X685000Y860000D02*
X690000D01*
X684250D02*
X685000D01*
X670000D02*
X684250D01*
X670000Y835000D02*
Y860000D01*
X660000Y825000D02*
X670000Y835000D01*
X660000Y775000D02*
Y825000D01*
X684500Y845000D02*
X690000D01*
X685000Y860000D02*
X685080Y860080D01*
X700000Y849920D02*
X700080Y850000D01*
X700000Y850000D02*
X700000Y850000D01*
X684500Y850000D02*
X700000D01*
X700000Y849920D02*
Y850000D01*
X1705000Y740000D02*
Y755000D01*
X678750Y405000D02*
X715000D01*
X676900Y406850D02*
X678750Y405000D01*
X535000Y740000D02*
X565000D01*
X528000Y787000D02*
X529920Y785080D01*
Y785000D02*
Y785080D01*
X672500Y772500D02*
X680000Y765000D01*
X672500Y772500D02*
Y817500D01*
X540000Y750000D02*
X565000D01*
X620000Y750000D02*
Y750000D01*
X640000D02*
Y760500D01*
X530000Y795000D02*
X555000D01*
X1275000Y770000D02*
X1285000Y780000D01*
X1285080D01*
X1284920Y770000D02*
X1285000D01*
X1274920Y760000D02*
X1284920Y770000D01*
X735000Y750080D02*
X744920D01*
X1274920Y750000D02*
X1274920Y750000D01*
X1620000Y780000D02*
X1636000D01*
X1651080D02*
X1660000D01*
X688950Y606050D02*
X690000Y605000D01*
X676900Y606050D02*
X688950D01*
X540080Y890000D02*
X550000D01*
X529920Y875080D02*
X530000Y875000D01*
X529920Y875080D02*
Y890000D01*
X540000Y860000D02*
X560000D01*
X560000Y860000D01*
Y835000D02*
Y860000D01*
X550000Y830000D02*
X560000D01*
X540000Y830000D02*
X540000Y830000D01*
X765500Y755000D02*
X765500Y755000D01*
X1636000Y780000D02*
X1636000Y780000D01*
X1630000Y780000D02*
X1636000D01*
X1469920Y740000D02*
X1469920Y740000D01*
X1310000D02*
X1310080Y740080D01*
X1660000Y765000D02*
X1660000Y765000D01*
X1660000Y765000D02*
X1660000Y765000D01*
X1506120Y755000D02*
X1506120Y755000D01*
X1504770Y753650D02*
X1504770Y753650D01*
X1505500D01*
X1621000Y740000D02*
X1636000D01*
X871800Y740000D02*
X894920D01*
X1660000Y765000D02*
X1661080D01*
X1274920Y750000D02*
X1275000D01*
X575000Y890000D02*
X582300D01*
X550000Y815000D02*
X560000Y825000D01*
X550000Y810000D02*
Y815000D01*
X545000Y805000D02*
X550000Y810000D01*
X540080Y805000D02*
X545000D01*
X560000Y800000D02*
X570000D01*
X555000Y795000D02*
X560000Y800000D01*
X560000Y825000D02*
X570080D01*
X595000Y890000D02*
X595000D01*
X610000Y874500D02*
Y890000D01*
X620000Y750000D02*
X620000Y750000D01*
X540000Y635000D02*
X549920D01*
X685000Y790000D02*
X695000D01*
X1630000Y740000D02*
X1636000D01*
X1636000Y740000D01*
X1480160Y740160D02*
Y750000D01*
X1503420Y765000D02*
X1504770Y766350D01*
X1275000Y750000D02*
X1285000Y760000D01*
X1285080D01*
Y750000D02*
X1300000D01*
X1275000Y740000D02*
X1285000Y750000D01*
X1285080D01*
Y760000D02*
X1290000D01*
X1296350Y766350D01*
X1310500D01*
X1285080Y740000D02*
X1305000D01*
X1300000Y750000D02*
X1303650Y753650D01*
X894920Y740000D02*
Y740080D01*
X875000Y755000D02*
X885000D01*
X890000Y760000D01*
X894920D01*
X590000Y855000D02*
Y874500D01*
X600000Y760500D02*
Y775000D01*
X600000D02*
X600000D01*
X660000D01*
X665000Y770000D01*
Y760500D02*
Y770000D01*
X570080Y855000D02*
X580000D01*
X560000Y780000D02*
X570080D01*
X540000Y775000D02*
X540080D01*
X545000D01*
X555000Y785000D01*
X540000D02*
X540080D01*
X550000D01*
X560000Y795000D01*
X560000Y830000D02*
X560000Y830000D01*
X560000Y830000D02*
X570080D01*
X560000Y835000D02*
X560000D01*
X570080D01*
X540000Y805000D02*
X540080D01*
X570000Y370250D02*
Y375000D01*
Y370000D02*
Y370250D01*
Y375000D02*
X576450Y381450D01*
X583100D01*
X549920Y369920D02*
X555000Y375000D01*
X549920Y365000D02*
Y369920D01*
Y355000D02*
Y364920D01*
Y340000D02*
Y355000D01*
Y330000D02*
Y340000D01*
X575080Y355000D02*
X580000D01*
X560080Y340000D02*
X575080Y355000D01*
X560080Y330000D02*
Y339920D01*
Y370080D02*
X565000Y375000D01*
X560080Y365000D02*
Y370080D01*
X520000Y410000D02*
X549920D01*
X525000Y385000D02*
X549920D01*
X580000Y395000D02*
X580250Y395250D01*
X585000Y380000D02*
X585250Y380250D01*
X600000D01*
X587500Y367500D02*
X600000D01*
X560080Y355000D02*
X565000D01*
X570000Y390000D02*
X575000Y395000D01*
X570000Y379920D02*
Y390000D01*
X562540Y372460D02*
X570000Y379920D01*
X560080Y420000D02*
X580000D01*
X560080Y410000D02*
Y419920D01*
X579920Y404920D02*
X580000Y405000D01*
X570000Y404920D02*
X579920D01*
X560080Y395000D02*
X570000Y404920D01*
X560080Y385000D02*
Y394920D01*
X575080Y630000D02*
X580000D01*
X560080Y615000D02*
X575080Y630000D01*
X549920Y645080D02*
Y660000D01*
X549920Y635000D02*
X549920Y635000D01*
X549920Y645000D02*
X549920Y645000D01*
X560080Y670000D02*
X580000D01*
X560000D02*
X560080D01*
X575000Y655000D02*
X580000D01*
X565000Y645000D02*
X575000Y655000D01*
X560080Y645000D02*
X565000D01*
X560080Y590000D02*
X575080Y605000D01*
X585000Y620000D02*
X600000D01*
X565000Y605000D02*
X580000Y620000D01*
X560080Y605000D02*
X565000D01*
X555000Y625000D02*
X565000D01*
X570000Y640000D02*
X575000Y645000D01*
X570000Y630000D02*
Y640000D01*
X565000Y625000D02*
X570000Y630000D01*
X560080Y670000D02*
Y670000D01*
Y660080D02*
Y670000D01*
X549920Y619920D02*
X555000Y625000D01*
X549920Y570080D02*
Y580000D01*
X550000Y605000D02*
X560000Y615000D01*
X549920Y605000D02*
X550000D01*
X549920Y590000D02*
Y604920D01*
X560080Y580000D02*
Y589920D01*
X549920Y580080D02*
Y590000D01*
X586000Y645000D02*
X586250Y645250D01*
X600000D01*
X599550Y631450D02*
X600000Y631000D01*
X583100Y631450D02*
X599550D01*
X582000Y630000D02*
X583000Y631000D01*
X549920Y615000D02*
Y619920D01*
X535000Y670000D02*
X549920D01*
X1303650Y753650D02*
X1310500D01*
X590000Y874500D02*
Y875000D01*
X595000Y890000D02*
X595000Y890000D01*
X667500Y772500D02*
X675000Y765000D01*
X667500Y772500D02*
Y821500D01*
X671000Y825000D02*
X684250D01*
X667500Y821500D02*
X671000Y825000D01*
X672500Y817500D02*
X675000Y820000D01*
X684250D01*
Y790000D02*
X684500D01*
X555000Y785000D02*
X570080D01*
X620000Y760500D02*
Y760750D01*
Y750000D02*
Y760500D01*
X635000D02*
Y760750D01*
X570080Y825000D02*
X570750D01*
X599050Y644300D02*
X600000Y645250D01*
D12*
X745000Y665000D02*
X750000Y660000D01*
X730080Y665000D02*
X745000D01*
X744050Y635950D02*
X790395D01*
X735000Y645000D02*
X744050Y635950D01*
X750000Y580000D02*
Y590000D01*
X770000Y400950D02*
Y414920D01*
Y400000D02*
Y400950D01*
X730080Y590000D02*
X750000D01*
X715000Y595000D02*
X720000Y590000D01*
Y575000D02*
Y590000D01*
Y350000D02*
Y355000D01*
X683300Y345000D02*
X715000D01*
X719920Y655000D02*
Y665000D01*
Y654920D02*
Y655000D01*
X560080Y445000D02*
X570000D01*
X730080Y355000D02*
X747500D01*
X719920Y650080D02*
Y654920D01*
X730000Y665000D02*
X730080D01*
X683550Y595000D02*
X715000D01*
X681900Y593350D02*
X683550Y595000D01*
X730000Y590000D02*
X730080D01*
X720000Y345000D02*
Y350000D01*
X681650Y343350D02*
X683300Y345000D01*
X676900Y343350D02*
X681650D01*
X720000Y350000D02*
X720000D01*
X730000Y355000D02*
X730080D01*
X719920Y650080D02*
X720000Y650000D01*
D14*
X1038954Y863954D02*
X1040000Y865000D01*
X680000Y330000D02*
Y330650D01*
X675000Y330000D02*
X680000D01*
X1040000Y865000D02*
Y915000D01*
X735000Y847700D02*
X777300D01*
X791000Y845000D02*
X805000D01*
X786000Y840000D02*
X791000Y845000D01*
X735000Y560000D02*
Y575000D01*
X744050Y550950D02*
X790000D01*
X735000Y560000D02*
X744050Y550950D01*
X770000Y400950D02*
X775950D01*
X750000D02*
X770000D01*
X745000Y330000D02*
X790395D01*
X731350Y343650D02*
X745000Y330000D01*
X775950Y400950D02*
X790000Y415000D01*
X1015000Y863954D02*
Y915000D01*
X1040000Y863954D02*
Y865000D01*
X683700Y330000D02*
X695000D01*
X680000D02*
X683700D01*
X684350Y330650D01*
X695000Y330000D02*
X700000Y335000D01*
X680000Y330650D02*
X684350D01*
X676900D02*
X680000D01*
X1080000Y660000D02*
Y725500D01*
X1015000Y863954D02*
X1038954D01*
X785000Y840000D02*
X786000D01*
X777300Y847700D02*
X785000Y840000D01*
X735950Y400950D02*
X750000D01*
X735000Y400000D02*
X735950Y400950D01*
D15*
X830000Y819920D02*
D03*
Y830080D02*
D03*
X980000Y844920D02*
D03*
Y855080D02*
D03*
X735000Y510080D02*
D03*
Y499920D02*
D03*
X770000Y329920D02*
D03*
Y340080D02*
D03*
Y414920D02*
D03*
Y425080D02*
D03*
Y549920D02*
D03*
Y560080D02*
D03*
Y634920D02*
D03*
Y645080D02*
D03*
X735000Y750080D02*
D03*
Y739920D02*
D03*
X745000Y750080D02*
D03*
Y739920D02*
D03*
X1641000Y765080D02*
D03*
Y754920D02*
D03*
D16*
X815000Y832000D02*
D03*
Y818000D02*
D03*
X995000Y857000D02*
D03*
Y843000D02*
D03*
X723000Y512000D02*
D03*
Y498000D02*
D03*
X1285000Y843000D02*
D03*
Y857000D02*
D03*
D17*
X1285080Y830000D02*
D03*
X1274920D02*
D03*
X529920Y775000D02*
D03*
X540080D02*
D03*
X730080Y355000D02*
D03*
X719920D02*
D03*
X725080Y415000D02*
D03*
X714920D02*
D03*
X730080Y590000D02*
D03*
X719920D02*
D03*
X730080Y665000D02*
D03*
X719920D02*
D03*
X1274920Y760000D02*
D03*
X1285080D02*
D03*
Y740000D02*
D03*
X1274920D02*
D03*
X1661080Y765000D02*
D03*
X1650920D02*
D03*
X1661080Y755000D02*
D03*
X1650920D02*
D03*
X1469920Y740000D02*
D03*
X1480080D02*
D03*
X1470000Y750000D02*
D03*
X1480160D02*
D03*
X1455080Y770000D02*
D03*
X1444920D02*
D03*
X1455080Y780000D02*
D03*
X1444920D02*
D03*
X1639920D02*
D03*
X1650080D02*
D03*
Y740000D02*
D03*
X1639920D02*
D03*
X1274920Y780000D02*
D03*
X1285080D02*
D03*
Y770000D02*
D03*
X1274920D02*
D03*
X905080Y735000D02*
D03*
X894920D02*
D03*
X905080Y745000D02*
D03*
X894920D02*
D03*
Y785000D02*
D03*
X905080D02*
D03*
X905080Y760000D02*
D03*
X894920D02*
D03*
X894920Y775000D02*
D03*
X905080D02*
D03*
X1285080Y750000D02*
D03*
X1274920D02*
D03*
X529920Y805000D02*
D03*
X540080D02*
D03*
X593080Y890000D02*
D03*
X582920D02*
D03*
X559920D02*
D03*
X570080D02*
D03*
X529920Y785000D02*
D03*
X540080D02*
D03*
X586920Y745000D02*
D03*
X597080D02*
D03*
X709080Y857000D02*
D03*
X698920D02*
D03*
X661920Y745000D02*
D03*
X672080D02*
D03*
X540080Y890000D02*
D03*
X529920D02*
D03*
Y830000D02*
D03*
X540080D02*
D03*
X560080Y330000D02*
D03*
X549920D02*
D03*
X560080Y340000D02*
D03*
X549920D02*
D03*
X560080Y445000D02*
D03*
X549920D02*
D03*
X560080Y385000D02*
D03*
X549920D02*
D03*
X560080Y410000D02*
D03*
X549920D02*
D03*
Y420000D02*
D03*
X560080D02*
D03*
X549920Y355000D02*
D03*
X560080D02*
D03*
Y365000D02*
D03*
X549920D02*
D03*
X560080Y590000D02*
D03*
X549920D02*
D03*
X560080Y580000D02*
D03*
X549920D02*
D03*
Y605000D02*
D03*
X560080D02*
D03*
X549920Y615000D02*
D03*
X560080D02*
D03*
Y670000D02*
D03*
X549920D02*
D03*
Y660000D02*
D03*
X560080D02*
D03*
Y635000D02*
D03*
X549920D02*
D03*
Y395000D02*
D03*
X560080D02*
D03*
X549920Y645000D02*
D03*
X560080D02*
D03*
D18*
X796000Y240000D02*
D03*
X834000D02*
D03*
X796000Y275000D02*
D03*
X834000D02*
D03*
X1966000Y690000D02*
D03*
X2004000D02*
D03*
X1961000Y320000D02*
D03*
X1999000D02*
D03*
X739000Y445000D02*
D03*
X701000D02*
D03*
X739000Y695000D02*
D03*
X701000D02*
D03*
D19*
X794750Y502500D02*
D03*
X845250D02*
D03*
D20*
X1705000Y786000D02*
D03*
Y734000D02*
D03*
D21*
X735000Y802300D02*
D03*
Y817700D02*
D03*
X700000Y602700D02*
D03*
Y587300D02*
D03*
Y352700D02*
D03*
Y337300D02*
D03*
Y412700D02*
D03*
Y397300D02*
D03*
Y662700D02*
D03*
Y647300D02*
D03*
X675000Y452700D02*
D03*
Y437300D02*
D03*
Y687300D02*
D03*
Y702700D02*
D03*
X735000Y847700D02*
D03*
Y832300D02*
D03*
X920000Y737300D02*
D03*
Y752700D02*
D03*
Y782700D02*
D03*
Y767300D02*
D03*
D22*
X1015000Y863954D02*
D03*
Y836046D02*
D03*
X1040000Y863954D02*
D03*
Y836046D02*
D03*
X535000Y518954D02*
D03*
Y491046D02*
D03*
X1210000Y836046D02*
D03*
Y863954D02*
D03*
X705000Y518954D02*
D03*
Y491046D02*
D03*
D23*
X765500Y779050D02*
D03*
Y766350D02*
D03*
Y740950D02*
D03*
Y753650D02*
D03*
X874500Y779050D02*
D03*
Y766350D02*
D03*
Y740950D02*
D03*
Y753650D02*
D03*
X1505500Y779050D02*
D03*
Y766350D02*
D03*
Y740950D02*
D03*
Y753650D02*
D03*
X1614500Y779050D02*
D03*
Y766350D02*
D03*
Y740950D02*
D03*
Y753650D02*
D03*
X1419500Y740950D02*
D03*
Y753650D02*
D03*
Y779050D02*
D03*
Y766350D02*
D03*
X1310500Y740950D02*
D03*
Y753650D02*
D03*
Y779050D02*
D03*
Y766350D02*
D03*
D24*
X1485000Y401000D02*
D03*
Y429000D02*
D03*
Y521000D02*
D03*
Y549000D02*
D03*
X1510000Y431000D02*
D03*
Y459000D02*
D03*
Y551000D02*
D03*
Y579000D02*
D03*
X1485000Y461000D02*
D03*
Y489000D02*
D03*
Y581000D02*
D03*
Y609000D02*
D03*
X1510000Y491000D02*
D03*
Y519000D02*
D03*
D25*
X1086900Y799500D02*
D03*
X1112300D02*
D03*
X1163100D02*
D03*
Y900500D02*
D03*
X1086900D02*
D03*
X581900Y454500D02*
D03*
X607300D02*
D03*
X658100D02*
D03*
Y555500D02*
D03*
X581900D02*
D03*
D26*
X548000Y871000D02*
D03*
X531000D02*
D03*
Y849000D02*
D03*
X548000D02*
D03*
D27*
X583100Y419550D02*
D03*
Y669550D02*
D03*
D28*
Y406850D02*
D03*
Y394150D02*
D03*
Y381450D02*
D03*
Y343350D02*
D03*
Y356050D02*
D03*
Y368750D02*
D03*
Y330650D02*
D03*
X676900D02*
D03*
Y368750D02*
D03*
Y356050D02*
D03*
Y343350D02*
D03*
Y381450D02*
D03*
Y394150D02*
D03*
Y406850D02*
D03*
Y419550D02*
D03*
X583100Y656850D02*
D03*
Y644150D02*
D03*
Y631450D02*
D03*
Y593350D02*
D03*
Y606050D02*
D03*
Y618750D02*
D03*
Y580650D02*
D03*
X676900D02*
D03*
Y618750D02*
D03*
Y606050D02*
D03*
Y593350D02*
D03*
Y631450D02*
D03*
Y644150D02*
D03*
Y656850D02*
D03*
Y669550D02*
D03*
D29*
X760000Y825000D02*
D03*
X1258000Y850000D02*
D03*
X948000Y760000D02*
D03*
D30*
X786000Y840000D02*
D03*
Y809000D02*
D03*
X1232000Y835000D02*
D03*
Y866000D02*
D03*
X974000Y775000D02*
D03*
Y744000D02*
D03*
D31*
X782000Y825000D02*
D03*
X1236000Y850000D02*
D03*
X970000Y760000D02*
D03*
D32*
X665000Y874500D02*
D03*
X660000D02*
D03*
X655000D02*
D03*
X650000D02*
D03*
X645000D02*
D03*
X640000D02*
D03*
X635000D02*
D03*
X630000D02*
D03*
X625000D02*
D03*
X620000D02*
D03*
X615000D02*
D03*
X610000D02*
D03*
X605000D02*
D03*
X600000D02*
D03*
X595000D02*
D03*
X590000D02*
D03*
X665000Y760500D02*
D03*
X660000D02*
D03*
X655000D02*
D03*
X650000D02*
D03*
X645000D02*
D03*
X640000D02*
D03*
X635000D02*
D03*
X630000D02*
D03*
X625000D02*
D03*
X620000D02*
D03*
X615000D02*
D03*
X610000D02*
D03*
X605000D02*
D03*
X600000D02*
D03*
X595000D02*
D03*
X590000D02*
D03*
D33*
X684500Y780000D02*
D03*
Y785000D02*
D03*
Y790000D02*
D03*
Y795000D02*
D03*
Y800000D02*
D03*
Y805000D02*
D03*
Y810000D02*
D03*
Y815000D02*
D03*
Y820000D02*
D03*
Y825000D02*
D03*
Y830000D02*
D03*
Y835000D02*
D03*
Y840000D02*
D03*
Y845000D02*
D03*
Y850000D02*
D03*
Y855000D02*
D03*
X570080Y780000D02*
D03*
Y785000D02*
D03*
Y790000D02*
D03*
Y795000D02*
D03*
Y800000D02*
D03*
Y805000D02*
D03*
Y810000D02*
D03*
Y815000D02*
D03*
Y820000D02*
D03*
Y825000D02*
D03*
Y830000D02*
D03*
Y835000D02*
D03*
Y840000D02*
D03*
Y845000D02*
D03*
Y850000D02*
D03*
Y855000D02*
D03*
D34*
X542000Y760000D02*
D03*
X528000D02*
D03*
D35*
X575000Y730000D02*
D03*
X655000Y730000D02*
D03*
X665000Y890000D02*
D03*
X600000Y905000D02*
D03*
X605000Y730000D02*
D03*
X610000Y745000D02*
D03*
X615000Y730000D02*
D03*
X620000Y745000D02*
D03*
X625000Y730000D02*
D03*
X630000Y745000D02*
D03*
X635000Y730000D02*
D03*
X640000Y745000D02*
D03*
X645000Y730000D02*
D03*
X650000Y745000D02*
D03*
X610000Y905000D02*
D03*
X620000D02*
D03*
X630000D02*
D03*
X635000Y890000D02*
D03*
X625000D02*
D03*
X615000D02*
D03*
X605000D02*
D03*
X640000Y905000D02*
D03*
X645000Y890000D02*
D03*
X650000Y905000D02*
D03*
X655000Y890000D02*
D03*
X660000Y905000D02*
D03*
D36*
X715000Y845000D02*
D03*
X700000Y780000D02*
D03*
X715000Y785000D02*
D03*
X700000Y790000D02*
D03*
X715000Y795000D02*
D03*
X700000Y800000D02*
D03*
X715000Y805000D02*
D03*
X700000Y810000D02*
D03*
X715000Y815000D02*
D03*
X700000Y820000D02*
D03*
X715000Y825000D02*
D03*
X700000Y830000D02*
D03*
X715000Y835000D02*
D03*
X700000Y840000D02*
D03*
D37*
X1185000Y744500D02*
D03*
Y725500D02*
D03*
X1210000Y725500D02*
D03*
Y744500D02*
D03*
X1235000Y744000D02*
D03*
Y725000D02*
D03*
X1080000Y744500D02*
D03*
Y725500D02*
D03*
X1055000Y725500D02*
D03*
Y744500D02*
D03*
X1030000Y744500D02*
D03*
Y725500D02*
D03*
D38*
X750000Y421000D02*
D03*
Y399000D02*
D03*
Y576000D02*
D03*
Y554000D02*
D03*
Y661000D02*
D03*
Y639000D02*
D03*
Y356000D02*
D03*
Y334000D02*
D03*
D39*
X717300Y340000D02*
D03*
X732700D02*
D03*
X717300Y400000D02*
D03*
X732700D02*
D03*
X717300Y575000D02*
D03*
X732700D02*
D03*
X717300Y650000D02*
D03*
X732700D02*
D03*
X1227700Y885000D02*
D03*
X1212300D02*
D03*
X1212300Y815000D02*
D03*
X1227700D02*
D03*
D76*
X1124960Y109998D02*
G03*
X1025040Y109998I-49960J-1998D01*
G01*
X1005000Y227000D02*
G03*
X1005000Y227000I-25000J0D01*
G01*
X1694960Y109998D02*
G03*
X1595040Y109998I-49960J-1998D01*
G01*
X1765000Y228000D02*
G03*
X1765000Y228000I-25000J0D01*
G01*
X1575000Y227000D02*
G03*
X1575000Y227000I-25000J0D01*
G01*
X1385000D02*
G03*
X1385000Y227000I-25000J0D01*
G01*
X1195000D02*
G03*
X1195000Y227000I-25000J0D01*
G01*
X1080000Y465000D02*
G03*
X1080000Y465000I-25000J0D01*
G01*
Y538000D02*
G03*
X1080000Y538000I-25000J0D01*
G01*
D77*
X790395Y343650D02*
D03*
Y330950D02*
D03*
Y369050D02*
D03*
Y356350D02*
D03*
X847655Y330950D02*
D03*
Y343650D02*
D03*
Y356350D02*
D03*
Y369050D02*
D03*
X790395Y428650D02*
D03*
Y415950D02*
D03*
Y454050D02*
D03*
Y441350D02*
D03*
X847655Y415950D02*
D03*
Y428650D02*
D03*
Y441350D02*
D03*
Y454050D02*
D03*
X790395Y563650D02*
D03*
Y550950D02*
D03*
Y589050D02*
D03*
Y576350D02*
D03*
X847655Y550950D02*
D03*
Y563650D02*
D03*
Y576350D02*
D03*
Y589050D02*
D03*
X790395Y648650D02*
D03*
Y635950D02*
D03*
Y674050D02*
D03*
Y661350D02*
D03*
X847655Y635950D02*
D03*
Y648650D02*
D03*
Y661350D02*
D03*
Y674050D02*
D03*
D78*
X830025Y350000D02*
D03*
Y435000D02*
D03*
Y570000D02*
D03*
Y655000D02*
D03*
D79*
X1015000Y835000D02*
X1016046Y836046D01*
X695000Y355000D02*
X700000Y360000D01*
X1210000Y863954D02*
Y885000D01*
X529920Y760080D02*
X530000Y760000D01*
X1235000Y880000D02*
X1445000D01*
X1232000Y866000D02*
Y885000D01*
Y888000D01*
X1285000Y780000D02*
X1285080Y779920D01*
X1445000Y825000D02*
Y880000D01*
X1315000Y825000D02*
X1445000D01*
X1315000Y780000D02*
Y825000D01*
X1315000Y780000D02*
X1315000D01*
X1575000Y725000D02*
Y825000D01*
X1445000Y825000D02*
X1575000Y825000D01*
X815000Y610000D02*
X825000Y600000D01*
X700000Y640000D02*
X725000Y615000D01*
X740000D01*
X745000Y610000D01*
X815000D01*
X700000Y385000D02*
X825000D01*
X700000D02*
Y395000D01*
X697300Y412700D02*
X700000D01*
X690000Y420000D02*
X697300Y412700D01*
X680900Y420000D02*
X690000D01*
X676900Y419550D02*
X680450D01*
X671900D02*
X676900D01*
X671900Y669550D02*
Y681900D01*
X695450Y669550D02*
X699550Y665450D01*
X676900Y669550D02*
X695450D01*
X671900D02*
X676900D01*
X670000Y490000D02*
X700000D01*
X660000Y480000D02*
X670000Y490000D01*
X687300Y702700D02*
X690000Y700000D01*
X675000Y702700D02*
X687300D01*
X671900Y681900D02*
X675000Y685000D01*
X699550Y665450D02*
X700000Y665000D01*
X980000Y760000D02*
X985000D01*
X990000Y755000D01*
Y710000D02*
Y755000D01*
X1000000Y720000D02*
Y765000D01*
X990000Y775000D02*
X1000000Y765000D01*
X980000Y775000D02*
X990000D01*
X1085000Y836046D02*
Y855000D01*
Y860000D01*
Y855000D02*
X1086900Y853100D01*
X1085000Y836046D02*
X1085000Y836046D01*
X1105000Y875000D02*
X1105000D01*
X1080000D02*
X1105000D01*
X1165000Y831046D02*
X1210000D01*
X1165000D02*
Y900000D01*
X1227700Y885000D02*
X1232000D01*
X660000Y460000D02*
Y470000D01*
X671046Y491046D02*
X705000D01*
X660000Y470000D02*
Y480000D01*
X1045000Y836046D02*
X1085000D01*
X1016046D02*
X1040000D01*
X1086900Y799500D02*
Y853100D01*
X650000Y605000D02*
X651050Y606050D01*
X676900D01*
X1285080Y780000D02*
X1310000D01*
X735000Y832300D02*
Y835000D01*
Y817700D02*
Y832300D01*
X1068954Y863954D02*
X1080000Y875000D01*
X1045000Y863954D02*
X1068954D01*
X1660000Y725000D02*
Y740000D01*
X1615000Y725000D02*
X1660000D01*
X1575000D02*
X1615000D01*
X825000Y600000D02*
X830000D01*
X680450Y419550D02*
X680900Y420000D01*
X1615000Y725000D02*
Y740000D01*
X700000Y640000D02*
Y645000D01*
X676900Y356050D02*
X693950D01*
X1258000Y850000D02*
X1263000Y855000D01*
X693950Y356050D02*
X695000Y355000D01*
X1256919Y854754D02*
X1258000Y855000D01*
X1236000Y850000D02*
X1256919Y854754D01*
X1227700Y815000D02*
X1240000D01*
X1210000Y835000D02*
X1212300Y832700D01*
Y815000D02*
Y832700D01*
X1215000Y835000D02*
X1232000D01*
X1215000Y850000D02*
X1236000D01*
X1210000Y855000D02*
Y863954D01*
Y855000D02*
X1215000Y850000D01*
X680000Y645000D02*
X699920D01*
X680000Y645000D02*
X680000Y645000D01*
X680000Y395000D02*
X699920D01*
X674275Y420725D02*
X675000Y420000D01*
D80*
X535000Y490000D02*
X565000D01*
X735000Y705000D02*
X745000Y695000D01*
X705000Y522000D02*
X745000D01*
X735000Y450000D02*
X745000D01*
Y500000D02*
Y522000D01*
X705000D02*
Y535000D01*
X745000Y450000D02*
Y500000D01*
X605000Y475000D02*
Y490000D01*
Y450000D02*
Y475000D01*
X500000Y520000D02*
X550000D01*
X1185000Y725500D02*
Y730000D01*
Y695000D02*
Y725500D01*
Y695000D02*
X1380000Y695000D01*
X675000Y455000D02*
X686000D01*
Y455000D02*
X696000Y445000D01*
X739000Y695000D02*
X745000D01*
X1105000Y875000D02*
Y915000D01*
Y825000D02*
Y875000D01*
X1112300Y799500D02*
Y817700D01*
X1105000Y825000D02*
X1112300Y817700D01*
X650000Y555000D02*
X655000D01*
X935000Y775000D02*
X970000D01*
X927300Y782700D02*
X935000Y775000D01*
X920000Y782700D02*
X927300D01*
X690000Y550000D02*
X705000Y535000D01*
X660000Y550000D02*
X690000D01*
X747300Y802300D02*
X750000Y805000D01*
X735000Y802300D02*
X747300D01*
X750000Y805000D02*
Y815000D01*
X760000Y825000D01*
X1390000Y705000D02*
X1395000Y710000D01*
X1380000Y695000D02*
X1390000Y705000D01*
X1205000Y725500D02*
X1239500D01*
X1240000Y725000D01*
X1190000Y745000D02*
X1190500Y744500D01*
X1185500D02*
X1210000D01*
X550000Y520000D02*
X575000D01*
X535000Y490000D02*
Y491046D01*
Y475000D02*
Y490000D01*
X511046Y491046D02*
X535000D01*
X565000Y490000D02*
X581900Y473100D01*
Y454500D02*
Y473100D01*
X575000Y520000D02*
X605000Y490000D01*
D81*
X1985000Y470000D02*
Y600000D01*
X1890000Y470000D02*
X1985000D01*
X1770000Y350000D02*
X1890000Y470000D01*
X1892500Y660000D02*
X1935000D01*
X1892500Y597500D02*
Y660000D01*
X1900000Y820000D02*
X1905000D01*
X1940000Y855000D01*
X2070000D01*
X2075000Y850000D01*
X1770000Y260000D02*
Y350000D01*
X1650000Y815000D02*
X1695000D01*
X1705000Y715000D02*
Y730000D01*
X1710000Y595000D02*
X1815000Y490000D01*
X1705000Y715000D02*
X1710000Y595000D01*
X1485000Y655000D02*
Y660000D01*
Y609000D02*
Y655000D01*
X1395000Y700000D02*
X1445000D01*
X1485000Y660000D01*
X1390000Y705000D02*
X1395000Y700000D01*
X1580000Y630000D02*
X1580000D01*
X1580000Y440000D02*
Y630000D01*
X1540000Y400000D02*
X1580000Y440000D01*
X1490000Y400000D02*
X1540000D01*
X1685000Y460000D02*
Y490000D01*
X1582500Y357500D02*
X1685000Y460000D01*
X2067500Y180000D02*
Y377500D01*
X1895000Y180000D02*
Y365000D01*
X1580000Y357500D02*
X1582500D01*
X1895000Y160000D02*
Y180000D01*
X1900000Y175000D01*
X1390000Y300000D02*
X1390000D01*
X1410000Y320000D01*
X1545000D01*
X1580000Y355000D01*
X1375000Y625000D02*
X1390000D01*
X1355000Y605000D02*
X1375000Y625000D01*
X1370000Y400000D02*
X1390000Y380000D01*
X1355000Y400000D02*
X1370000D01*
X1900000Y175000D02*
X1905000D01*
D82*
X1935000Y690000D02*
X1961000D01*
X1935000Y655000D02*
Y690000D01*
X2035000Y660000D02*
Y690000D01*
X2009000D02*
X2035000D01*
X2068000Y169000D02*
X2080000Y165000D01*
X2067500Y147500D02*
Y169167D01*
X2065000Y145000D02*
X2067500Y147500D01*
X2065000Y170000D02*
X2067500Y169167D01*
X2068000Y169000D01*
X1504000Y581000D02*
X1505000Y580000D01*
X1485000Y581000D02*
X1504000D01*
X1485000Y550000D02*
X1486000Y551000D01*
X1510000D01*
X1485000Y520000D02*
X1486000Y519000D01*
X1510000D01*
X1485000Y490000D02*
X1486000Y491000D01*
X1510000D01*
X1504000Y461000D02*
X1505000Y460000D01*
X1485000Y461000D02*
X1504000D01*
X1490000Y430000D02*
X1491000Y431000D01*
X1510000D01*
D83*
X787500Y257500D02*
D03*
D84*
X885000Y467500D02*
D03*
D85*
X865000Y502500D02*
D03*
D86*
X787500D02*
D03*
D87*
X2030000Y320000D02*
D03*
D88*
X1927500D02*
D03*
D89*
X1677500Y830000D02*
D03*
D90*
X1040000Y825000D02*
D03*
D91*
X1705000Y812500D02*
D03*
D92*
X777500Y355000D02*
D03*
Y575000D02*
D03*
Y440000D02*
D03*
D93*
X1902500Y712500D02*
D03*
D94*
X1807500Y827500D02*
D03*
D95*
X855000Y577500D02*
D03*
D96*
X937500Y352500D02*
D03*
D97*
X1460000Y137500D02*
D03*
X1265000D02*
D03*
D98*
X1250000Y287500D02*
D03*
D99*
X1980000Y200000D02*
D03*
D100*
X897500Y655000D02*
D03*
D101*
X902500Y435000D02*
D03*
D102*
X832500Y375000D02*
D03*
D103*
Y580000D02*
D03*
D104*
X1580000Y627500D02*
D03*
Y352500D02*
D03*
X550000Y190000D02*
D03*
X825000D02*
D03*
D105*
X1788000Y897000D02*
D03*
X2082000Y845000D02*
D03*
D106*
X1788000Y743000D02*
D03*
X2082000Y795000D02*
D03*
X2067500Y377500D02*
D03*
Y592500D02*
D03*
D107*
X1985000Y600000D02*
D03*
X1485000Y655000D02*
D03*
D108*
X1892500Y377500D02*
D03*
Y592500D02*
D03*
D109*
X1683960Y490000D02*
D03*
X1816040D02*
D03*
X1055000Y332920D02*
D03*
Y465000D02*
D03*
Y670000D02*
D03*
Y537920D02*
D03*
D110*
X1265000Y105000D02*
D03*
X1455000D02*
D03*
X1895000Y160000D02*
D03*
X1075000Y105000D02*
D03*
X1645000D02*
D03*
X1980000Y160000D02*
D03*
X2065000D02*
D03*
D111*
X1355000Y480000D02*
D03*
Y400000D02*
D03*
X1740000Y227500D02*
D03*
Y152500D02*
D03*
X1550000Y227500D02*
D03*
Y152500D02*
D03*
X1170000Y227500D02*
D03*
Y152500D02*
D03*
X980000Y227500D02*
D03*
Y152500D02*
D03*
X1390000Y705000D02*
D03*
Y625000D02*
D03*
X1360000Y227500D02*
D03*
Y152500D02*
D03*
X1390000Y380000D02*
D03*
Y300000D02*
D03*
X1355000Y605000D02*
D03*
Y525000D02*
D03*
D112*
X1999645Y234645D02*
D03*
X2070355Y305355D02*
D03*
X1935000Y660000D02*
D03*
X2035000D02*
D03*
X1965355Y234645D02*
D03*
X1894645Y305355D02*
D03*
D113*
X870800Y872300D02*
D03*
X845400D02*
D03*
X820000D02*
D03*
X794600D02*
D03*
X769200D02*
D03*
Y897700D02*
D03*
X794600D02*
D03*
X820000D02*
D03*
X845400D02*
D03*
X870800D02*
D03*
D114*
X830000Y845000D02*
D03*
X775000Y235000D02*
D03*
X780000Y240000D02*
D03*
X775000Y245000D02*
D03*
X780000Y250000D02*
D03*
X775000Y255000D02*
D03*
X780000Y260000D02*
D03*
X775000Y265000D02*
D03*
Y275000D02*
D03*
X780000Y270000D02*
D03*
Y280000D02*
D03*
Y485000D02*
D03*
X785000Y490000D02*
D03*
X780000Y495000D02*
D03*
X785000Y500000D02*
D03*
Y510000D02*
D03*
X780000Y505000D02*
D03*
Y515000D02*
D03*
X785000Y520000D02*
D03*
X790000Y515000D02*
D03*
Y505000D02*
D03*
Y495000D02*
D03*
Y485000D02*
D03*
X535000Y560000D02*
D03*
Y535000D02*
D03*
Y350000D02*
D03*
X605000Y475000D02*
D03*
X535000Y645000D02*
D03*
Y660000D02*
D03*
X555000Y715000D02*
D03*
Y760000D02*
D03*
X550000Y770000D02*
D03*
X610000Y785000D02*
D03*
X652500Y787500D02*
D03*
X1485000Y765000D02*
D03*
X1490000Y755000D02*
D03*
X735000Y705000D02*
D03*
X1480000Y760000D02*
D03*
X735000Y815000D02*
D03*
X1445000Y760000D02*
D03*
X1435000Y765000D02*
D03*
X800000Y830000D02*
D03*
X1450000Y755000D02*
D03*
X805000Y845000D02*
D03*
X1085000Y860000D02*
D03*
X1050000Y825000D02*
D03*
X1005000D02*
D03*
X1030000D02*
D03*
X1005000Y900000D02*
D03*
Y890000D02*
D03*
X725000Y840000D02*
D03*
X1000000Y720000D02*
D03*
X990000Y710000D02*
D03*
X855000D02*
D03*
X650000Y555000D02*
D03*
X1000000Y895000D02*
D03*
X1015000Y915000D02*
D03*
X1040000D02*
D03*
X1105000D02*
D03*
X660000Y470000D02*
D03*
Y480000D02*
D03*
Y520000D02*
D03*
Y595000D02*
D03*
Y370000D02*
D03*
Y395000D02*
D03*
Y440000D02*
D03*
X780000Y365000D02*
D03*
Y345000D02*
D03*
Y360000D02*
D03*
Y355000D02*
D03*
Y350000D02*
D03*
X775000Y365000D02*
D03*
Y360000D02*
D03*
X775000Y355000D02*
D03*
Y350000D02*
D03*
Y345000D02*
D03*
Y565000D02*
D03*
Y570000D02*
D03*
Y575000D02*
D03*
X775000Y580000D02*
D03*
Y585000D02*
D03*
X780000Y570000D02*
D03*
Y575000D02*
D03*
Y580000D02*
D03*
Y565000D02*
D03*
Y585000D02*
D03*
X686300Y321550D02*
D03*
X686275Y571500D02*
D03*
X678300Y321550D02*
D03*
X670275Y571500D02*
D03*
X678275D02*
D03*
X670300Y321550D02*
D03*
X755000Y750000D02*
D03*
X770000Y805000D02*
D03*
X810000Y810000D02*
D03*
X725000Y770000D02*
D03*
X750000Y765000D02*
D03*
X650000Y605000D02*
D03*
X750000Y780000D02*
D03*
X995000Y670000D02*
D03*
X560000Y810000D02*
D03*
X565000Y730000D02*
D03*
X570000Y745000D02*
D03*
X750000Y805000D02*
D03*
Y850000D02*
D03*
X780000Y780000D02*
D03*
X500000Y520000D02*
D03*
X1660000Y740000D02*
D03*
X1490000Y780000D02*
D03*
X880000Y415000D02*
D03*
Y425000D02*
D03*
Y435000D02*
D03*
Y445000D02*
D03*
X990000Y665000D02*
D03*
X900000D02*
D03*
X910000D02*
D03*
X920000D02*
D03*
X930000D02*
D03*
X940000D02*
D03*
X950000D02*
D03*
X960000D02*
D03*
X970000D02*
D03*
X980000D02*
D03*
X1000000D02*
D03*
X780000Y450000D02*
D03*
Y430000D02*
D03*
Y445000D02*
D03*
Y440000D02*
D03*
Y435000D02*
D03*
X775000Y450000D02*
D03*
Y445000D02*
D03*
X775000Y440000D02*
D03*
Y435000D02*
D03*
Y430000D02*
D03*
X780000Y670000D02*
D03*
Y650000D02*
D03*
Y665000D02*
D03*
Y660000D02*
D03*
Y655000D02*
D03*
X775000Y670000D02*
D03*
Y665000D02*
D03*
X775000Y660000D02*
D03*
Y655000D02*
D03*
Y650000D02*
D03*
X845000Y600000D02*
D03*
X840000Y605000D02*
D03*
X835000Y600000D02*
D03*
X830000Y605000D02*
D03*
X825000Y600000D02*
D03*
X820000Y605000D02*
D03*
X845000Y380000D02*
D03*
X840000Y385000D02*
D03*
X835000Y380000D02*
D03*
X830000Y385000D02*
D03*
X825000Y380000D02*
D03*
X820000Y385000D02*
D03*
X875000Y450000D02*
D03*
X870000Y445000D02*
D03*
Y435000D02*
D03*
X875000Y440000D02*
D03*
Y430000D02*
D03*
X870000Y425000D02*
D03*
X875000Y420000D02*
D03*
X870000Y415000D02*
D03*
X1005000Y670000D02*
D03*
X985000D02*
D03*
X975000D02*
D03*
X965000D02*
D03*
X955000D02*
D03*
X945000D02*
D03*
X935000D02*
D03*
X925000D02*
D03*
X915000D02*
D03*
X905000D02*
D03*
X895000D02*
D03*
X510000Y715000D02*
D03*
Y755000D02*
D03*
Y635000D02*
D03*
Y675000D02*
D03*
Y560000D02*
D03*
Y595000D02*
D03*
Y475000D02*
D03*
Y435000D02*
D03*
Y390000D02*
D03*
Y350000D02*
D03*
X535000Y305000D02*
D03*
X510000D02*
D03*
X600000D02*
D03*
X570000D02*
D03*
X715000Y875000D02*
D03*
X675000D02*
D03*
Y905000D02*
D03*
X715000D02*
D03*
X510000Y810000D02*
D03*
Y840000D02*
D03*
Y870000D02*
D03*
X590000Y905000D02*
D03*
X550000D02*
D03*
X510000D02*
D03*
X550000Y520000D02*
D03*
X845000Y605000D02*
D03*
X835000D02*
D03*
X825000D02*
D03*
X595000Y460000D02*
D03*
X535000Y595000D02*
D03*
X510000Y535000D02*
D03*
X535000Y475000D02*
D03*
X510000Y490000D02*
D03*
X570000Y445000D02*
D03*
X580000Y840000D02*
D03*
Y850000D02*
D03*
X595000Y845000D02*
D03*
Y835000D02*
D03*
X580000Y830000D02*
D03*
X595000Y825000D02*
D03*
X580000Y820000D02*
D03*
X595000Y815000D02*
D03*
Y795000D02*
D03*
X580000Y810000D02*
D03*
X595000Y805000D02*
D03*
X580000Y800000D02*
D03*
Y790000D02*
D03*
X595000Y785000D02*
D03*
X580000Y780000D02*
D03*
X665000Y735000D02*
D03*
X595000Y883000D02*
D03*
X585000Y735000D02*
D03*
X710000Y845000D02*
D03*
X635000Y730000D02*
D03*
X540000Y445000D02*
D03*
X680000Y755000D02*
D03*
X675000Y760000D02*
D03*
X575000Y875000D02*
D03*
X530000Y820000D02*
D03*
X700000Y360000D02*
D03*
X525000Y730000D02*
D03*
X565000Y740000D02*
D03*
X535000D02*
D03*
X520000Y745000D02*
D03*
X540000Y750000D02*
D03*
X565000D02*
D03*
X620000D02*
D03*
X640000D02*
D03*
X845000Y385000D02*
D03*
X835000D02*
D03*
X825000D02*
D03*
X530000Y795000D02*
D03*
X560000Y825000D02*
D03*
X700000Y780000D02*
D03*
X695000Y790000D02*
D03*
X1660000Y780000D02*
D03*
X690000Y605000D02*
D03*
X550000Y890000D02*
D03*
X540000Y635000D02*
D03*
X570000Y370250D02*
D03*
X555000Y375250D02*
D03*
X520000Y410000D02*
D03*
X525000Y385000D02*
D03*
X600000Y620000D02*
D03*
Y631000D02*
D03*
X535000Y670000D02*
D03*
X840000Y380000D02*
D03*
X820000D02*
D03*
X830000D02*
D03*
Y600000D02*
D03*
X820000D02*
D03*
X840000D02*
D03*
X600000Y367500D02*
D03*
X1842500Y343270D02*
D03*
X600000Y380250D02*
D03*
X570000Y460000D02*
D03*
X657500Y852500D02*
D03*
X625000Y815000D02*
D03*
X615000Y850000D02*
D03*
X580000Y770000D02*
D03*
X550000Y570000D02*
D03*
X600000Y645250D02*
D03*
Y395250D02*
D03*
M02*
