M48
;Layer_Color=9474304
;FILE_FORMAT=4:4
METRIC,LZ
;TYPE=PLATED
T1F00S00C0.2540
T2F00S00C0.7620
T3F00S00C0.8000
T4F00S00C0.9000
T5F00S00C1.0600
T6F00S00C1.1000
T7F00S00C1.2000
T8F00S00C1.3000
T9F00S00C1.6000
T10F00S00C4.2200
;TYPE=NON_PLATED
%
T01
X0051Y00305
X00535Y00305
X0057Y00305
X006Y00305
X006Y003675
X006Y0038025
X006Y0039525
X0057Y0037025
X00555Y0037525
X00525Y00385
X0051Y0039
X0051Y0035
X00535Y0035
X0066Y0037
X0066Y00395
X007Y0036
X006863Y0032155
X006783Y0032155
X006703Y0032155
X00775Y00345
X00775Y0035
X00775Y00355
X0078Y00355
X0078Y0035
X0078Y00345
X0078Y0036
X0078Y00365
X00775Y00365
X00775Y0036
X00775Y00275
X00775Y00265
X00775Y00255
X0078Y0025
X0078Y0026
X0078Y0027
X0078Y0028
X0078Y0024
X00775Y00235
X00775Y00245
X0082Y0038
X00825Y0038
X00825Y00385
X0083Y00385
X0083Y0038
X00835Y0038
X00835Y00385
X0084Y00385
X00845Y00385
X00845Y0038
X0084Y0038
X0082Y00385
X018425Y0034327
X0166Y0074
X0166Y0078
X0149Y0078
X01485Y00765
X0148Y0076
X0149Y00755
X0145Y00755
X01445Y0076
X01435Y00765
X01Y0072
X0099Y0071
X00995Y0067
X0099Y00665
X0098Y00665
X00985Y0067
X00975Y0067
X0097Y00665
X0096Y00665
X00965Y0067
X00955Y0067
X0095Y00665
X0094Y00665
X0093Y00665
X00935Y0067
X00945Y0067
X00925Y0067
X0092Y00665
X0091Y00665
X00915Y0067
X00905Y0067
X009Y00665
X00895Y0067
X00855Y0071
X00845Y00605
X00845Y006
X0084Y006
X00835Y006
X0083Y006
X00825Y006
X0082Y006
X0082Y00605
X00825Y00605
X0083Y00605
X00835Y00605
X0084Y00605
X00875Y0045
X0088Y00445
X0087Y00445
X00875Y0044
X0088Y00435
X0087Y00435
X00875Y0043
X0088Y00425
X0088Y00415
X00875Y0042
X0087Y00425
X0087Y00415
X01Y00665
X01005Y0067
X0078Y0067
X0078Y00665
X00775Y00665
X00775Y0067
X00775Y0066
X00775Y00655
X00775Y0065
X0078Y0065
X0078Y00655
X0078Y0066
X0078Y00585
X00775Y00585
X00775Y0058
X0078Y0058
X0078Y00575
X0078Y0057
X0078Y00565
X00775Y00565
X00775Y0057
X00775Y00575
X0078Y00515
X00785Y0051
X00785Y0052
X0079Y00515
X0079Y00505
X00785Y005
X0078Y00505
X0078Y00495
X0078Y00485
X00785Y0049
X0079Y00495
X0079Y00485
X0078Y0045
X0078Y00445
X00775Y00445
X00775Y0045
X00775Y0044
X00775Y00435
X00775Y0043
X0078Y0043
X0078Y00435
X0078Y0044
X0066Y0044
X0066Y0047
X0066Y0048
X0066Y0052
X0065Y00555
X00670275Y005715
X00678275Y005715
X00686275Y005715
X0069Y00605
X0066Y00595
X0065Y00605
X006Y0062
X006Y00631
X006Y0064525
X00535Y00645
X00535Y0066
X00535Y0067
X0051Y00675
X0051Y00715
X00525Y0073
X0052Y00745
X0051Y00755
X0054Y0075
X00535Y0074
X00565Y0074
X0057Y00745
X00565Y0075
X00555Y0076
X0055Y0077
X0058Y0077
X0058Y0078
X0058Y0079
X00595Y00785
X0061Y00785
X0062Y0075
X0064Y0075
X00635Y0073
X00665Y00735
X0068Y00755
X00675Y0076
X007Y0078
X00695Y0079
X006525Y007875
X00725Y0077
X0075Y00765
X0075Y0078
X0078Y0078
X00755Y0075
X00735Y00705
X00585Y00735
X00565Y0073
X00555Y00715
X0054Y00635
X0051Y00635
X0051Y00595
X00535Y00595
X00535Y0056
X00535Y00535
X0051Y00535
X005Y0052
X0051Y0049
X0051Y00475
X00535Y00475
X0054Y00445
X0057Y00445
X0057Y0046
X00595Y0046
X00605Y00475
X0055Y0052
X0055Y0057
X0051Y0056
X0051Y00435
X0052Y0041
X0053Y00795
X0053Y0082
X0051Y0081
X0051Y0084
X0051Y0087
X0051Y00905
X0055Y00905
X0055Y0089
X00575Y00875
X00595Y00883
X0059Y00905
X0058Y0085
X0058Y0084
X0058Y0083
X0058Y0082
X0058Y0081
X0058Y008
X00595Y00795
X00595Y00805
X00595Y00815
X00595Y00825
X00595Y00835
X00595Y00845
X00615Y0085
X00625Y00815
X0056Y0081
X0056Y00825
X006575Y008525
X00675Y00875
X00675Y00905
X00715Y00905
X00715Y00875
X0071Y00845
X00725Y0084
X00735Y00815
X0075Y00805
X0077Y00805
X0075Y0085
X00805Y00845
X008Y0083
X0081Y0081
X0083Y00845
X01005Y00825
X0103Y00825
X0105Y00825
X01085Y0086
X01105Y00915
X0104Y00915
X01015Y00915
X01005Y009
X01005Y0089
X01Y00895
T02
X01985Y006
X01485Y00655
T03
X01965355Y00234645
X01894645Y00305355
X01999645Y00234645
X02070355Y00305355
X02035Y0066
X01935Y0066
T04
X007692Y008723
X007692Y008977
X007946Y008977
X007946Y008723
X0082Y008723
X008454Y008723
X008708Y008723
X008708Y008977
X008454Y008977
X0082Y008977
T05
X01055Y0033292
X0168396Y0049
X0181604Y0049
X01055Y00465
X01055Y0053792
X01055Y0067
T06
X0055Y0019
X00825Y0019
X0139Y003
X0139Y0038
X0158Y003525
X01355Y004
X01355Y0048
X01355Y00525
X01355Y00605
X0139Y00625
X0139Y00705
X0158Y006275
T07
X0098Y001525
X0098Y002275
X0117Y002275
X0117Y001525
X0136Y001525
X0136Y002275
X0155Y002275
X0155Y001525
X0174Y001525
X0174Y002275
T08
X01788Y00743
X01788Y00897
X02082Y00845
X02082Y00795
T09
X018925Y003775
X020675Y003775
X020675Y005925
X018925Y005925
T10
X01075Y00105
X01265Y00105
X01455Y00105
X01645Y00105
X01895Y0016
X0198Y0016
X02065Y0016
M30
